<svg xmlns="http://www.w3.org/2000/svg" viewBox="0 0 750 500"><path fill="#fff" d="M79.34 165.23h153.32v103.32H79.34z"/><path d="M233.15 269.05H78.84V164.73h154.31zm-153.31-1h152.31V165.73H79.84z" fill="#ebebeb"/><path d="M94.15 173.05a3.53 3.53 0 11-3.53-3.53 3.53 3.53 0 013.53 3.53z" fill="#37474f"/><path d="M108.57 173.05a3.53 3.53 0 11-3.53-3.53 3.53 3.53 0 013.53 3.53z" fill="#ebebeb"/><path d="M123 173.05a3.54 3.54 0 11-3.53-3.53 3.53 3.53 0 013.53 3.53z" fill="#66f28d"/><path fill="#ebebeb" d="M79.34 180.3h153.32v1H79.34z"/><path fill="#fff" d="M541.33 237.31h153.32v103.32H541.33z"/><path d="M695.15 341.13H540.83V236.81h154.32zm-153.32-1h152.32V237.81H541.83z" fill="#ebebeb"/><path d="M556.14 245.13a3.53 3.53 0 11-3.53-3.53 3.53 3.53 0 013.53 3.53z" fill="#37474f"/><path d="M570.56 245.13a3.53 3.53 0 11-3.56-3.53 3.53 3.53 0 013.56 3.53z" fill="#ebebeb"/><path d="M585 245.13a3.53 3.53 0 11-3.53-3.53 3.53 3.53 0 013.53 3.53z" fill="#66f28d"/><path fill="#ebebeb" d="M541.33 252.38h153.32v1H541.33z"/><path d="M187.08 266.63a16.22 16.22 0 01-16.23 16.23h-.83l-28.88.06a16.24 16.24 0 010-32.47h29.71a16.24 16.24 0 0116.23 16.18z" fill="#a6a6a6"/><g fill="#fff"><path d="M141.32 267.16a3.26 3.26 0 01.57-1.69c.14-.23.3-.45.45-.67l1-1c.37-.27.75-.56 1.13-.81a14.11 14.11 0 015.15-2 32.72 32.72 0 0112.78 0 14.11 14.11 0 015.07 2c.41.27.79.57 1.18.85l1 .94a12.21 12.21 0 01.69 1.13 9.69 9.69 0 01.41 1.22h-8.36a.34.34 0 01-.39-.13 2.81 2.81 0 00-2.38-1.53 57.36 57.36 0 00-7.3 0 2.79 2.79 0 00-2.38 1.53c-.07.11-.12.19-.28.19h-8.33zM141.31 271.88V269v-.19h8.27V271.84a.92.92 0 01-1.05 1.05h-6.16a.92.92 0 01-1.06-1.01zM162.37 271.92c0-1 0-2.07.08-3.1h8.15v3.08a.9.9 0 01-1 1h-6.24a.89.89 0 01-.99-.98z"/></g><path d="M685.89 240.53a4.53 4.53 0 010-4.72c.24-.39.47-.8.69-1.21s.43-.83.63-1.25a4.49 4.49 0 013.89-2.63l5.8-.18-.59-18.88-5.83.17a4.44 4.44 0 01-4-2.38 25.91 25.91 0 00-1.45-2.34 4.56 4.56 0 01-.33-4.73l2.74-5.1-16.66-8.94-2.73 5.1a4.55 4.55 0 01-4.13 2.35 25.19 25.19 0 00-2.75.09 4.48 4.48 0 01-4.22-2l-3.08-5-16.06 10 3.07 5a4.39 4.39 0 010 4.62c-.25.42-.49.84-.72 1.28s-.46.87-.66 1.31a4.42 4.42 0 01-3.88 2.56l-5.8.18.58 18.89 5.79-.19a4.45 4.45 0 014 2.29 27.93 27.93 0 001.58 2.56 4.4 4.4 0 01.25 4.62l-2.73 5.1 16.71 8.84 2.73-5.1a4.53 4.53 0 014.13-2.34 25.45 25.45 0 002.76-.09 4.48 4.48 0 014.22 2.05l3.07 4.95 16.06-10zm-28-3.9a15.48 15.48 0 1118.11-5.45 15.49 15.49 0 01-18.09 5.45zM619.1 184.67a3.16 3.16 0 01-1.54-2.92v-1-1a3.13 3.13 0 011.53-2.91l3.52-2-6.61-11.46-3.52 2a3.16 3.16 0 01-3.3-.12 18.1 18.1 0 00-1.71-1 3.13 3.13 0 01-1.74-2.79v-4.06h-13.24v4.06a3.13 3.13 0 01-1.74 2.79 16.77 16.77 0 00-1.7 1 3.16 3.16 0 01-3.31.12l-3.51-2-6.62 11.47 3.53 2a3.14 3.14 0 011.54 2.91v2a3.15 3.15 0 01-1.55 2.92l-3.52 2 6.62 11.46 3.5-2a3.14 3.14 0 013.3.11 19.62 19.62 0 001.72 1 3.15 3.15 0 011.74 2.8v4.05h13.24V200a3.15 3.15 0 011.74-2.8 18.26 18.26 0 001.72-1 3.14 3.14 0 013.3-.11l3.51 2 6.61-11.46zm-20 7a10.85 10.85 0 1110.9-10.9 10.85 10.85 0 01-10.88 10.85zM138.87 154l6.61 11.46 3.51-2a3.16 3.16 0 013.3.12 18.26 18.26 0 001.72 1 3.14 3.14 0 011.74 2.79v4.06H169v-4.06a3.14 3.14 0 011.74-2.79 19.62 19.62 0 001.72-1 3.16 3.16 0 013.3-.12l3.51 2 6.6-11.46-3.52-2a3.15 3.15 0 01-1.55-3v-1-1a3.14 3.14 0 011.54-2.91l3.53-2-6.61-11.47-3.52 2a3.16 3.16 0 01-3.3-.12 18.1 18.1 0 00-1.71-1 3.14 3.14 0 01-1.74-2.79v-4.06h-13.24v4.06a3.14 3.14 0 01-1.74 2.79 18.1 18.1 0 00-1.71 1 3.16 3.16 0 01-3.3.12l-3.52-2-6.61 11.47 3.52 2a3.13 3.13 0 011.53 2.91v2a3.16 3.16 0 01-1.54 2.92zm12.65-6a10.85 10.85 0 1110.84 10.85A10.84 10.84 0 01151.52 148z" fill="#ebebeb"/><circle cx="345.92" cy="150.22" r="58.81" transform="rotate(-76.02 345.94 150.216)" fill="#ebebeb"/><circle cx="345.92" cy="150.22" r="44.89" transform="rotate(-75.94 345.894 150.224)" fill="#fff"/><circle cx="345.92" cy="150.22" r="32.08" transform="rotate(-75.85 345.934 150.214)" fill="#ebebeb"/><circle cx="345.92" cy="150.22" r="17.73" transform="rotate(-75.76 345.911 150.218)" fill="#fff"/><circle cx="345.92" cy="150.22" r="8.02" transform="rotate(-75.69 345.938 150.214)" fill="#ebebeb"/><path fill="#c7c7c7" d="M349.744 144.77l67.366-67.366 1.62 1.62-67.367 67.365z"/><path fill="#a6a6a6" d="M354.72 147.86l-8.8 2.36 2.35-8.81 6.45 6.45zM429.19 73.83l-12.63 12.63-9.91 3.02 3.02-9.9 12.64-12.64-3.03 9.91 9.91-3.02z"/><g><path fill="#263238" d="M45.3 391.02l82.43-.24 82.42-.09 164.85-.17 164.85.17 82.42.09 82.43.24-82.43.25-82.42.08-164.85.17-164.85-.17-82.42-.09-82.43-.24z"/></g><g><path fill="#37474f" d="M253.88 396.92H116.07l-10.67-93.6h137.81l10.67 93.6z"/><path fill="#fff" d="M246.37 390.64H122.15l-9.24-81.04h124.22l9.24 81.04z"/><path fill="#37474f" d="M190.33 390.64h141.45v6.28H190.33z"/><path fill="#263238" d="M260.58 390.64h71.19v6.28h-71.19z"/><path fill="#ebebeb" d="M202.49 309.6l-80.41 80.41-2.4-21.03 59.37-59.38h23.44zM244.27 372.18l-18.46 18.46h-23.44l39.5-39.5 2.4 21.04zM128.3 309.6l-13.81 13.81-.82-7.17 6.64-6.64h7.99zM240.33 337.62l-53.02 53.02h-8l60.2-60.2.82 7.18zM138.72 309.6l-23.17 23.17-.2-1.8 21.37-21.37h2zM213.98 309.6l-81.04 81.04h-2l81.04-81.04h2zM238.98 325.77l-64.87 64.87h-2l66.67-66.67.2 1.8z"/><path fill="#37474f" d="M495.3 396.92h137.82l10.66-93.6H505.97l-10.67 93.6z"/><path fill="#fff" d="M502.81 390.64h124.23l9.23-81.04H512.05l-9.24 81.04z"/><path fill="#37474f" d="M417.41 390.64h141.45v6.28H417.41z"/><path fill="#263238" d="M417.41 390.64h71.19v6.28h-71.19z"/><path fill="#ebebeb" d="M632.7 340.99l-3.02 26.46-23.19 23.19h-23.44l49.65-49.65zM588.65 309.6l-81.03 81.04h-4.81l2.4-21.03 60.01-60.01h23.43zM535.86 309.6l-26.87 26.87 1.03-9.03 17.84-17.84h8zM624.25 309.6l-81.04 81.04h-8l81.04-81.04h8zM633.85 330.89l-.25 2.26-57.49 57.49h-2l59.74-59.75zM632.64 309.6l-81.03 81.04h-2l81.04-81.04h1.99zM557.16 309.6l-50.92 50.92.26-2.26 48.66-48.66h2z"/></g><g><path d="M244.12 256c17.09 34.51 42.4 69 49.18 75.46 18.22 17.48 66.86 30.05 81.2 30.45 6.19.17 14.75-40.95 10.18-45.74s-64.62-17.86-67.84-20.32C314.61 294.1 286 266.87 267 250.7c-23.63-20.09-27.37-3.8-22.88 5.3z" fill="#f7a9a0"/><path d="M371.42 310.42l-15.51 48.95s-50.82-13.37-64.42-26.45-41.77-59.9-47.27-75.34-1.92-27.63 23-7.6 46.05 40.52 50.46 43.82 53.74 16.62 53.74 16.62z" fill="#455a64"/><path d="M355.68 312.38a2.5 2.5 0 102.09-2.85 2.5 2.5 0 00-2.09 2.85zM343.23 308.79a2.5 2.5 0 102.09-2.84 2.49 2.49 0 00-2.09 2.84zM318.42 347.24c-11.13-4.32-21.74-9.35-26.93-14.32-13.6-13-41.77-59.9-47.27-75.34-3.52-9.87-3.33-18.41 3.77-18.06z" fill="#263238"/><path d="M163.06 390.62h128.3c.52-4.69-25.88-135.42-38.45-151.81-2.69-3.51-11.56-4.48-19.09-3.54a34.07 34.07 0 00-5.81 1.18.85.85 0 01-.19.06 13.59 13.59 0 00-4.27 2.09c-20.97 16.77-61.5 150.87-60.49 152.02z" fill="#455a64"/><path fill="#263238" d="M242.47 268.39l5.46-10.62 7.04 7.68-1.72 7.65-6.96.89-3.82-5.6zM246.29 273.99l-3.32 78.13 14.64 25.84 7.6-29.08-11.96-75.78-6.96.89z"/><path d="M246.09 256.35c-2-.08-15.42-10.56-19.54-18.73-.28-.56.76-6.32 1.69-13.39.54-4.29 1-9.08 1.2-13.48 0-.91 3.05.86 3.05.86l5.65 1.56 18.7 5.21s-3 9.14-3.24 16.82a10.68 10.68 0 00.13 1.82 2.16 2.16 0 010 .3c.48 3.45-4.33 19.16-7.64 19.03z" fill="#f7a9a0"/><path d="M253.73 237a2.16 2.16 0 010 .3 17.6 17.6 0 01-2.84.05c-18.59-1-20.12-24.76-20.12-24.76l7.34.56 18.7 5.21s-3 9.14-3.24 16.82a10.68 10.68 0 00.16 1.82z" fill="#263238"/><path d="M239.68 229.87" fill="none"/><path d="M225.1 178.39c-2.81 9.85 2.91 38.06 10 44.24 10.27 9 26.83 9.52 34.37-2.78 7.31-11.91-.78-48.54-8.68-54.13-11.62-8.23-31.55-1.89-35.69 12.67z" fill="#f7a9a0"/><path d="M253 194.81c0-.07-.13.12-.11.19.43 1.89.62 4.13-1 5.1-.05 0 0 .13 0 .11 2.11-.72 1.86-3.68 1.11-5.4z" fill="#263238"/><path d="M250.94 193.16c-3.1.37-2.13 6.55.74 6.21s1.86-6.53-.74-6.21zM264.17 193.38c0-.08.16.06.17.14.24 1.93.84 4.09 2.67 4.45.06 0 .07.11 0 .11-2.16.04-2.92-2.84-2.84-4.7z" fill="#263238"/><path d="M265.56 191.11c3-.72 4.26 5.42 1.44 6.08s-4-5.48-1.44-6.08zM248.06 190.71a22.41 22.41 0 002.26-1.22 4.14 4.14 0 002.07-1.68 1.33 1.33 0 00-.46-1.55 3.28 3.28 0 00-3.32.18 4.86 4.86 0 00-2.42 2.49 1.41 1.41 0 001.87 1.78zM267.46 187.62c-.88 0-1.69-.16-2.55-.25a4.11 4.11 0 01-2.56-.76 1.3 1.3 0 01-.18-1.6 3.29 3.29 0 013.13-1.12 4.87 4.87 0 013.2 1.36 1.42 1.42 0 01-1.04 2.37zM254.05 212.86c.53.37 1.09.92 1.79.87a5.08 5.08 0 002-.81.07.07 0 01.09.09 2.6 2.6 0 01-2.26 1.42 2.08 2.08 0 01-1.78-1.46c-.05-.1.11-.17.16-.11z" fill="#263238"/><path d="M261.35 208.15a7.85 7.85 0 01-2.72 2.89 3.46 3.46 0 01-2.09.46c-1.6-.16-1.85-1.55-1.76-2.8a8.44 8.44 0 01.39-1.94 10.18 10.18 0 006.18 1.39z" fill="#fff"/><path d="M255.17 206.81A6.63 6.63 0 00260 209a8.3 8.3 0 002.37-.27 2.2 2.2 0 00.44-.12c.13 0 .26-.07.41-.13a.48.48 0 00.31-.49.59.59 0 00-.05-.19v-.17c-.19-1.48-.69-3.7-.69-3.7.58.19 3.52 1 3.36.23-1.38-6.32-2.92-13.34-5.63-19.34a.18.18 0 00-.34.11c1.08 6.12 3.24 12 4.44 18.15a11.7 11.7 0 00-3.23-.46c-.2.1 1 4.28 1.07 4.95v.07c-2.43.71-4.42.25-7.08-1-.22-.12-.38.03-.21.17zM228.42 200.39c6.73-1 6.25-13.43 6.25-13.43s11.29-3.59 11.7-12.54c0 0 12 5.41 20.18 1s4.94-13.89 3.68-15.84-5.48 2.63-5.48 2.63-1.36-5.45-2.91-5.8-2.68 3.23-2.68 3.23-11.67-2.1-21.72-.34-13.56 12.7-13.56 12.7-5.23 1.93-6.42 6 6.66 23 10.96 22.39z" fill="#263238"/><path d="M232 187.44c9.12-.12 14.19-6.93 14.24-15.69a.09.09 0 01.17 0c.9 8-5.25 18-14.44 16.11-.26-.06-.25-.42.03-.42zM224.1 171.78a.1.1 0 01.09.17c-2.34 1.53-5.08 2.81-6.51 5.35-1.72 3.07-.74 6.62.52 9.64 1.93 4.67 5.36 10.61 10.11 12.83.28.13.07.53-.2.42-5.66-2.31-9.88-10.05-11.43-15.66-1.74-6.28 1.71-10.53 7.42-12.75zM256.54 175.49c4.29 1.8 10.15 1 13.62-2.22 4.22-4 2.43-9.25-.27-13.48-.13-.2.16-.49.34-.3 3.37 3.57 4.48 9.58 1.13 13.56s-10.39 5-15.12 3c-.39-.13-.1-.73.3-.56z" fill="#263238"/><path d="M251.44 206a8.3 8.3 0 117.64-10.64 8.3 8.3 0 01-5.61 10.3 8.45 8.45 0 01-2.03.34zm-.59-15.48a7.79 7.79 0 00-1.76.29 7.18 7.18 0 101.76-.29zM270.23 203c-3.17.12-6.17-3-6.84-7.29a9.93 9.93 0 01.84-6 5.5 5.5 0 014-3.15 5.44 5.44 0 014.75 1.78 10 10 0 012.63 5.46c.7 4.52-1.46 8.63-4.82 9.15a3.31 3.31 0 01-.56.05zm-1.42-15.39h-.42a4.46 4.46 0 00-3.17 2.56 8.83 8.83 0 00-.73 5.33c.61 3.91 3.34 6.75 6.11 6.32s4.51-4 3.9-7.89a8.84 8.84 0 00-2.31-4.85 4.63 4.63 0 00-3.38-1.48z" fill="#455a64"/><path d="M259 196.38l-.83-.73c1.08-1.24 3.73-3.09 6.07-1.26l-.68.87c-2.14-1.64-4.51 1.01-4.56 1.12zM222.76 204.18l-1-.35c.16-.49 1.67-4.81 4-5.59s17.14-1.64 17.77-1.68l.07 1.11c-4.28.26-15.77 1.06-17.49 1.62s-2.95 3.71-3.35 4.89z" fill="#455a64"/><path d="M232.7 201.64s-6.75-8.9-10.82-6.45 1.27 15.51 6.22 17.14a5 5 0 006.53-2.93z" fill="#f7a9a0"/><path d="M223.51 198.9c-.08 0-.09.1 0 .13 3.48 1.25 5.4 4.35 6.79 7.58-1.07-1.22-2.48-1.86-4.13-.59a.11.11 0 00.1.18 3.06 3.06 0 013.4.94 14.12 14.12 0 011.71 2.65c.18.3.72.11.59-.24v-.07c-.15-4.36-3.77-10.33-8.46-10.58z" fill="#263238"/><path d="M253.83 237.68l-6.68 16.39-20.24-20.7-5.77 6.63s19.78 32.86 19.9 31.38l6.76-14.06 9.69 9.81-.73-24.58z" fill="#455a64"/><path d="M257.82 255c-.26-4.06-.41-8.15-.85-12.18 0-.15-.24-.21-.28 0-.82 3.91.25 19.41.22 23.12-.4-.42-9-8.63-9.07-8.5-1.46 2.23-6.42 12.47-6.76 13.4-3.13-5.22-15.11-24.2-18.82-29.14a.14.14 0 00-.24.14c2.76 5.52 18.62 31.07 18.87 31a161 161 0 007.06-14.86c1.45 1.78 10.11 11 10.14 10.44a126.35 126.35 0 00-.27-13.42z" fill="#263238"/><path fill="#66f28d" d="M295.77 408.66l-99.91 9.89-.32-77.45 99.91-9.9.32 77.46zM228.15 329.3l-32.7 3.24.09 8.56 34.99-3.47-2.38-8.33z"/><g opacity=".1"><path d="M295.77 408.66l-99.91 9.89-.32-77.45 99.91-9.9.32 77.46zM228.15 329.3l-32.7 3.24.09 8.56 34.99-3.47-2.38-8.33z"/></g><path fill="#ebebeb" d="M295.7 408.67l-96.36 9.54-13.78-77.67 102.71-8.62 7.43 76.75z"/><path fill="#fff" d="M295.7 408.67l-98.81 9.78-14.77-74.65 103.87-10.28 9.71 75.15z"/><path fill="#66f28d" d="M295.52 408.69L195.4 418.6l-14.62-73.04 100.13-9.91 14.61 73.04z"/><path d="M210.12 250.3c-34.15 31-58.8 84.4-58 98.79 1 19 35.44 51.52 57.87 60.93 5.67 2.38 27.61-44.06 19.31-46.48-8.76-2.55-29-20.91-30-21.75-2.1-1.78 14.22-42.41 21.05-67.07 7.65-27.85 4.14-37.46-10.23-24.42z" fill="#f7a9a0"/><path d="M197.27 402.92C219 418.6 248.52 422 253.61 421.48c4.35-.43 6.58-.69 6.58-.69 7.81-.61 10.61-4.31 10.61-4.31s9.24 1.94 11.34-3.44c2.38-6-11.06-7.59-17.92-13-15.73-12.31-34.65-34.21-38.83-38.21z" fill="#f7a9a0"/><path d="M238.67 398.76c4.7 3.53 9.23 7.12 14.38 10 5.66 3.15 11.63 5.24 17.66 7.52a.16.16 0 01-.09.3 68.18 68.18 0 01-32.27-17.42c-.21-.16.08-.57.32-.4zM229.86 407.18c4.76 3.18 13.17 8.72 30.38 13.43.06 0 .05.11 0 .1a61.08 61.08 0 01-30.68-13c-.29-.26-.02-.71.3-.53z" fill="#263238"/><path d="M246.2 384.05c-1.41-2.42-.15-3.18 4.47-1.36s21.41 13 24.8 6.78S255 367.92 247 365.48s-21.63-3.61-21.63-3.61c4.07 3.93 12.98 14.38 20.83 22.18z" fill="#f7a9a0"/><path d="M198.05 406.41l27.21-45.67s-25.46-17.86-25.58-19.64 17.89-51 23.33-75.22 2.75-35.77-21.09-8.77-54.41 72.43-52.79 91.9 48.92 57.4 48.92 57.4z" fill="#455a64"/><path d="M218.49 289c-1 1.73-2.05 3.43-2.94 5.21-.3.58-.59 1.16-.88 1.74.22-.7.45-1.39.68-2.09 1.39-4.39 2.74-8.8 3.92-13.26a.1.1 0 00-.19-.07c-3.14 7.56-5.74 15.35-8.32 23.12s-5 15.7-7.36 23.6c-1.3 4.42-2.64 8.86-3.66 13.35a.08.08 0 00.15 0c1.5-3.85 2.77-7.8 4.07-11.72s2.62-7.83 3.89-11.75q3-9.39 6-18.79a20.94 20.94 0 002.18-3.76c.93-1.82 1.67-3.72 2.49-5.58h-.03zM193.22 394.94a2.5 2.5 0 103.15-1.6 2.51 2.51 0 00-3.15 1.6zM183.71 386.15a2.5 2.5 0 103.15-1.61 2.5 2.5 0 00-3.15 1.61zM166.61 377.14c3.15 2.68 6.11 5.56 9 8.46 1.46 1.46 2.91 2.92 4.34 4.4s2.84 3 4.25 4.51a87.38 87.38 0 01-9.2-8.21 113.08 113.08 0 01-8.39-9.16zM515 171c2.14-6.88 11.5-22 26.61-17.45 21.51 6.5 20.69 49.16 30.39 63.45 17.56 25.8 16 49.54-.64 51.79-18.61 2.51-34.48-18.7-29.81-60.92 2.92-26.4-3.43-38.82-8.77-38.53S523.9 176 523.9 176z" fill="#263238"/><path d="M515.93 168.41a42.6 42.6 0 015.29-8.89 25.34 25.34 0 017.91-6.88 17.28 17.28 0 0110.43-2 22.38 22.38 0 0110 3.8 25.07 25.07 0 017 7.93 45.82 45.82 0 014.06 9.66 92.12 92.12 0 013.2 20.41 136.36 136.36 0 00-4.64-20 49.44 49.44 0 00-4.19-9.17 23.68 23.68 0 00-6.59-7.3 20.87 20.87 0 00-9.07-3.56 16.1 16.1 0 00-9.51 1.51 26 26 0 00-7.87 6.14 43.7 43.7 0 00-3.21 4q-1.48 2.15-2.81 4.35zM542.78 193.24c-.17 4.22-.81 8.4-1.28 12.58s-1.06 8.34-1.46 12.51-.66 8.35-.63 12.52a63 63 0 001.09 12.37 32.42 32.42 0 004.32 11.41 35.13 35.13 0 008.45 8.84 26.18 26.18 0 0011.24 4.81 23.8 23.8 0 006.2.26 23 23 0 003.08-.5 11.47 11.47 0 003-1.05 15.71 15.71 0 01-6 2.06 24.83 24.83 0 01-6.39.18 26.6 26.6 0 01-6.26-1.51 28.61 28.61 0 01-5.72-3 33.88 33.88 0 01-5-4.12l-1.11-1.17-1.07-1.21a23.86 23.86 0 01-2-2.59 33.92 33.92 0 01-4.69-12c-1.6-8.47-1.11-17.07-.05-25.43.53-4.2 1.26-8.36 2-12.5s1.68-8.29 2.28-12.46z" fill="#263238"/><path d="M513.68 171c-.06-2 1.37-4.53 2.65-4.88s10.76 3.72 11.58 6.16-3.41 4.58-3.41 4.58z" fill="#455a64"/><path d="M521 258.3c-5.64 12.26-47.56 69.89-68.37 71.46-21.78 1.65-74-33.94-79-36.91-13.73-8.12 24.56-45.6 31.18-39 11.06 11.13 37.51 32.09 44 30.68 13.6-3 41.91-26.76 62-39.14 12.04-7.39 16.42-.66 10.19 12.91z" fill="#ad6359"/><path d="M376.88 294.76c-2.36-1.57-21.42-12.16-28.57-22.36-3.78-5.4-12.51-21.4-9.51-24.16 2.74-2.48 6.21 1.33 6.21 1.33s-3.79-7.21.06-10.61 9.38 3.33 9.38 3.33-3.35-7.69.73-10.8 8.5 4.57 8.5 4.57-3.39-6.88 1.05-8c5.35-1.39 10.17 12 15.35 17.16 1.17 1.17 25.53 22 25.53 22z" fill="#ad6359"/><path d="M364 236.06c3.57 9.84 6.83 13.53 15 19.85.16.12 0 .39-.17.27-8.53-5.46-13.29-9.5-15.29-20-.14-.49.27-.59.46-.12zM354.75 242.24c4.59 9.9 8.1 13.93 16.14 21.18.11.1-.05.3-.17.21-8.49-6.45-13.14-10.58-16.44-21.08-.15-.47.26-.76.47-.31zM345.41 249.91c5.14 9.26 8.79 13.85 17.5 19.88a.19.19 0 01-.2.33c-9.48-5.29-14.08-11-17.57-20-.23-.64-.05-.8.27-.21z" fill="#263238"/><path d="M413.86 264.19s-5.4-11.95-8.94-16.68-23.18-17.49-26.18-13.4c-3.87 5.27 6 14.88 11.48 18.95 0 0-9 12.2-3.36 20.63s27-9.5 27-9.5z" fill="#ad6359"/><path d="M378.15 235.9c-.06 7.36 7.45 12.25 12.45 16.59a.6.6 0 01-.06 1c-3.41 5.37-6.67 13.93-4.09 20.13a.15.15 0 01-.27.14c-3.67-6.27-1.16-14.94 3-20.58-5.2-4.37-12.52-9.6-11.06-17.27-.03-.05.03-.05.03-.01z" fill="#263238"/><path d="M520.43 261.78c-6.53 13-44.59 68.51-65.15 69.39s-63.62-16.66-63.62-16.66l31.9-48.59s22.09 15.94 25.56 16.06 49.88-30.51 60.68-37.25 21.2-4.11 10.63 17.05z" fill="#66f28d"/><path d="M420.79 314.87a17.31 17.31 0 01.11-4.44 17.66 17.66 0 011.1-4.3 17.32 17.32 0 01-.11 4.44 17.89 17.89 0 01-1.1 4.3zM484.3 305.14a17.79 17.79 0 01.11-4.44 17.24 17.24 0 011.11-4.3 19.91 19.91 0 01-1.22 8.74zM487.82 268.17a17.32 17.32 0 01-4.44-.12 17 17 0 01-4.3-1.1 17.79 17.79 0 014.44.11 17.35 17.35 0 014.3 1.11zM436.63 284.94a17.69 17.69 0 01-4.43-.12 16.79 16.79 0 01-4.3-1.1 17.69 17.69 0 014.43.11 17.24 17.24 0 014.3 1.11zM444.1 330.08a2.11 2.11 0 01-.19.23h-.26zM408 297.42a20 20 0 017-5.32 17.55 17.55 0 01-3.22 3.06 17.18 17.18 0 01-3.78 2.26zM461.23 286.38a17.89 17.89 0 013.22-3.06 17.57 17.57 0 013.82-2.26 17.25 17.25 0 01-3.22 3.06 17.57 17.57 0 01-3.82 2.26zM443.57 301.62a19.49 19.49 0 015.32 7 19.72 19.72 0 01-5.32-7zM494.11 278.83a19.69 19.69 0 015.31 7 17.13 17.13 0 01-3.05-3.21 17.4 17.4 0 01-2.26-3.79z" fill="#fff"/><path d="M430.47 273.81c-4 7.27-7.89 14.61-12.23 21.69a232.64 232.64 0 01-13.68 20.5.14.14 0 01-.23-.14c3.84-7.25 8.23-14.25 12.5-21.25s8.89-13.94 13.18-21c.17-.28.61-.08.46.2zM520.43 261.78c-6.53 13-44.59 68.51-65.15 69.39-5 .21-11.31-.66-18-2.11 16-17.09 60.67-65.29 81.36-87.6 6.27-.38 9.36 5.3 1.79 20.32z" fill="#263238"/><path d="M482.5 390.62h120.67s-46.92-118.79-71.91-142.69c-6.79-6.49-23.57-6-31.79 4.95-6.74 9-25.45 44.74-26.3 57.61s9.24 25.56 9.24 25.56z" fill="#66f28d"/><path d="M497.92 346.11a17.69 17.69 0 01.11-4.43 17.24 17.24 0 011.11-4.3 17.23 17.23 0 01-.12 4.43 17.66 17.66 0 01-1.1 4.3zM580.84 368.47A17.71 17.71 0 01581 364a17.24 17.24 0 011.11-4.3 17.32 17.32 0 01-.12 4.44 17.7 17.7 0 01-1.15 4.33zM528.78 388a17.69 17.69 0 01.11-4.43 17.24 17.24 0 011.11-4.3 17.23 17.23 0 01-.12 4.43 17.66 17.66 0 01-1.1 4.3zM516.78 298.34a17.7 17.7 0 01.12-4.43 16.79 16.79 0 011.1-4.3 19.52 19.52 0 01-1.22 8.73zM548.85 334.45A17.77 17.77 0 01549 330a17.22 17.22 0 011.1-4.3 19.53 19.53 0 01-1.22 8.74zM484.3 305.14a17.79 17.79 0 01.11-4.44 17.24 17.24 0 011.11-4.3 19.91 19.91 0 01-1.22 8.74zM526.74 340.64a19.72 19.72 0 01-8.74-1.21 17.32 17.32 0 014.44.11 17.78 17.78 0 014.3 1.1zM563.14 306.13a17.79 17.79 0 01-4.44-.11 17.24 17.24 0 01-4.3-1.11 19.91 19.91 0 018.74 1.22zM498.19 381.23a17.69 17.69 0 01-4.43-.12 16.79 16.79 0 01-4.3-1.1 17.69 17.69 0 014.43.11 17.24 17.24 0 014.3 1.11zM565.9 351.33a17.32 17.32 0 01-4.44-.11 17.78 17.78 0 01-4.3-1.1 17.32 17.32 0 014.44.11 17.78 17.78 0 014.3 1.1zM508.77 367.73a17.83 17.83 0 013.22-3.05 17.18 17.18 0 013.82-2.26 19.84 19.84 0 01-7 5.31zM554.4 376.45a17.25 17.25 0 013.22-3.06 17.57 17.57 0 013.82-2.26 19.72 19.72 0 01-7 5.32zM566.48 333.76a17.83 17.83 0 013.22-3.05 17.18 17.18 0 013.82-2.26 16.88 16.88 0 01-3.22 3.05 17.18 17.18 0 01-3.82 2.26zM494.43 318.42a17.89 17.89 0 013.22-3.06 17.57 17.57 0 013.82-2.26 17.25 17.25 0 01-3.22 3.06 17.57 17.57 0 01-3.82 2.26zM541.09 289a17.89 17.89 0 013.22-3.06 17.57 17.57 0 013.82-2.26 17.25 17.25 0 01-3.22 3.06 17.57 17.57 0 01-3.82 2.26zM485.61 353.56a17.4 17.4 0 01-3.17 3v-1.22a15.65 15.65 0 013.17-1.78zM517.32 270.22a17.89 17.89 0 013.22-3.06 17.57 17.57 0 013.82-2.26 19.72 19.72 0 01-7 5.32zM477.53 324.51a17.89 17.89 0 013.06 3.22 17.57 17.57 0 012.26 3.82 19.72 19.72 0 01-5.32-7zM494.11 278.83a19.69 19.69 0 015.31 7 17.13 17.13 0 01-3.05-3.21 17.4 17.4 0 01-2.26-3.79zM536 352.7a19.84 19.84 0 015.31 7 17.49 17.49 0 01-3-3.22 17.18 17.18 0 01-2.31-3.78zM579.4 381.71a17.89 17.89 0 013.06 3.22 17.57 17.57 0 012.26 3.82 16.94 16.94 0 01-3.06-3.22 17.33 17.33 0 01-2.26-3.82zM535.15 257.26a19.69 19.69 0 015.31 7 19.69 19.69 0 01-5.31-7zM527.36 313.56a17.25 17.25 0 013.06 3.22 17 17 0 012.26 3.82 19.72 19.72 0 01-5.32-7z" fill="#fff"/><path d="M523.24 249.08c-.66 1.79-11 12.58-19.33 11.09-2.72-.49-.72-15.44-.72-15.44l-.1-1.14-1.45-15.92 19.69-9.31 2.83-1.2s.11 4.38.19 9.84v8.06a100.33 100.33 0 01-1.11 14.02z" fill="#ad6359"/><path d="M524.35 227a32.06 32.06 0 01-21.26 16.59l-1.45-15.92 19.69-9.31 2.83-1.2s.11 4.38.19 9.84z" fill="#263238"/><path d="M481.38 204.21c-2.22 28 14.28 32.47 20.32 32.94 5.47.43 24.18 1.2 29.28-26.4s-7.2-37.47-19.67-39.12-27.7 4.6-29.93 32.58z" fill="#ad6359"/><path d="M486.1 198.26a17.26 17.26 0 001.9-.38 3.07 3.07 0 001.86-.76 1 1 0 000-1.22 2.47 2.47 0 00-2.43-.6 3.69 3.69 0 00-2.3 1.27 1.06 1.06 0 00.97 1.69zM504.72 198.66c-.65-.08-1.25-.27-1.89-.41a3.14 3.14 0 01-1.85-.8 1 1 0 010-1.22 2.47 2.47 0 012.45-.55 3.61 3.61 0 012.27 1.3 1.07 1.07 0 01-.98 1.68zM500.34 205.72c0-.08.15.09.14.17-.12 1.91.06 4.11 1.77 4.8.05 0 0 .12 0 .11-2.12-.37-2.33-3.3-1.91-5.08z" fill="#263238"/><path d="M502.11 203.78c3.08-.14 3.12 6 .27 6.16s-2.85-6.05-.27-6.16z" fill="#263238"/><path d="M503.32 204.1c.55.34 1.08 1 1.73 1s1.31-.58 1.8-1.2c0-.06.1 0 .11.07 0 1.18-.43 2.4-1.69 2.58s-2-.87-2.3-2.06c-.05-.21.14-.49.35-.39zM489.73 205.29c0-.07-.14.1-.14.18.09 1.91-.13 4.11-1.85 4.77-.06 0-.05.11 0 .1 2.12-.34 2.38-3.25 1.99-5.05z" fill="#263238"/><path d="M488 203.32c-3.08-.19-3.23 6-.38 6.16s2.96-6 .38-6.16z" fill="#263238"/><path d="M486.7 203.7c-.49.31-1 .89-1.57.92s-1.16-.66-1.57-1.31c-.05-.06-.1 0-.1.07-.06 1.18.3 2.41 1.42 2.67s1.81-.76 2.12-1.93c.06-.21-.1-.55-.3-.42zM500.48 220.84c-.43.47-.86 1.11-1.55 1.2a5.09 5.09 0 01-2.07-.37.07.07 0 00-.08.1 2.58 2.58 0 002.47.91 2 2 0 001.42-1.77c.02-.11-.13-.14-.19-.07zM492.53 213.88s-.41 2.86-.42 4.2c0 .13.33.19.78.22h.06a6.37 6.37 0 006.22-2.35.14.14 0 00-.19-.19 9.67 9.67 0 01-5.86 1.64c-.09-.37.87-4.86.65-4.88a12.15 12.15 0 00-3.06.68c.69-6 2.32-11.77 2.91-17.72a.18.18 0 00-.35-.09c-2.14 6-3.08 12.81-3.94 19-.12.72 2.67-.28 3.2-.51z" fill="#263238"/><path d="M493.18 218a7.84 7.84 0 003.11 2.47 3.5 3.5 0 002.13.16c1.56-.39 1.61-1.81 1.34-3a8.65 8.65 0 00-.67-1.87 10.11 10.11 0 01-5.91 2.24z" fill="#263238"/><path d="M496.29 220.49a3.5 3.5 0 002.13.16c1.56-.39 1.61-1.81 1.34-3-1.66.12-3.31 1.23-3.47 2.84z" fill="#eb9481"/><path d="M529.74 213.54a11.5 11.5 0 01-6.4-9.4 29.89 29.89 0 01-12.19-9.91c.18.58 1.51 4.74 2.26 6.84-17.7-3.39-23.12-17-23.12-17-5.77 5.71-6.93 9.37-7.77 11.19 0 0-.08-10.86 5.54-18.11 6.88-8.88 30-11.18 40.61.49 11.45 12.61 1.07 35.9 1.07 35.9z" fill="#263238"/><path d="M500 198.08a32.54 32.54 0 009.07 3.37 27.67 27.67 0 01-13-7.92 25.89 25.89 0 01-3.8-5.36 18.25 18.25 0 01-2.32-6.76.14.14 0 00-.28 0 21.4 21.4 0 001.38 7 19.19 19.19 0 003.91 5.88 22.47 22.47 0 005 3.82" fill="#263238"/><path d="M526.37 212.55s6.06-8.81 10-6.65-.53 14.89-5.18 16.66a4.75 4.75 0 01-6.38-2.51z" fill="#ad6359"/><path d="M535 209.52c.08 0 .09.09 0 .12-3.26 1.35-5 4.4-6.15 7.55 1-1.22 2.29-1.89 3.92-.74.08.06 0 .19-.09.17a2.92 2.92 0 00-3.21 1 15.07 15.07 0 00-1.52 2.61c-.15.3-.68.14-.57-.19v-.08c-.02-4.13 3.18-9.96 7.62-10.44z" fill="#263238"/><path d="M527.34 221.92a2 2 0 102-2 2.05 2.05 0 00-2 2z" fill="#fff"/><path d="M494.09 254.79s-5.72 16.26 4.63 17.41 37.38-18.84 37.38-18.84-7.5-12.14-19.48-10.84c-9.95 1.07-22.53 12.27-22.53 12.27zM543 273.83c0 20.08-11.54 80.29-22.62 88.4-22.17 16.23-74.16 15.11-88.5 15.36-6.19.1-14.32-41.11-9.71-45.85s68-6.5 71.2-8.93c2.25-1.69 20.13-31 30.48-49.84 13.96-25.47 19.15-9.26 19.15.86z" fill="#ad6359"/><path d="M433.17 329.54s-18.71-2.07-31-2.84c-6.87-.44-18.7-.13-23.89 1.85-7.76 3-38.31 20.37-34.26 27.87 3.67 6.78 13-.72 13-.72s-11 7.24-5.26 12.86 17-5.3 17-5.3-12.19 6.88-5.52 12.3c5.79 4.69 20.07-6.53 20.07-6.53s-13.58 5.83-8.12 11.22c6 6 29.55-8.18 29.55-8.18 15.31 5.1 25.19 6.09 36.91 5.35 2.12-.13-8.48-47.88-8.48-47.88z" fill="#ad6359"/><path d="M365.32 365.73l2.77-2.44a62.07 62.07 0 015.56-4.56c1.92-1.35 3.89-2.6 5.9-3.79s4.39-2.32 6.48-3.64a.14.14 0 11.14.24 65.14 65.14 0 00-6 4.18c-1.93 1.41-3.85 2.85-5.77 4.28s-3.82 2.67-5.73 4c-1 .67-1.88 1.39-2.8 2.1a19.71 19.71 0 01-2.68 2c-.09.05-.18-.08-.12-.16a15.18 15.18 0 012.25-2.21zM354.76 357.25c1.27-1.65 8.26-7.35 10.13-8.7a66.74 66.74 0 0111.55-6.74.14.14 0 01.14.23c-3.61 2.64-7.26 5.22-10.91 7.81-1.79 1.26-9.71 7.25-10.62 7.77-.22.13-.42-.19-.29-.37zM375 374a94.33 94.33 0 019.67-8 85.67 85.67 0 0111.51-5.7c.15-.05.27.15.14.23-3.68 2.19-7.38 4.3-11 6.66-1.74 1.15-8.4 6.14-10.16 7.09-.08.05-.24-.18-.16-.28z" fill="#263238"/><path d="M445.79 380.62l-17.1-54.34s62.22-4 64.24-5 24.2-40.23 33-55.47 22.36-9 17.29 25.43c-5.09 34.59-10.69 61.47-18.44 69.47-9.44 9.68-43.84 19.68-78.99 19.91z" fill="#66f28d"/><path d="M497.92 346.11a17.69 17.69 0 01.11-4.43 17.24 17.24 0 011.11-4.3 17.23 17.23 0 01-.12 4.43 17.66 17.66 0 01-1.1 4.3zM463.54 377.21a17.32 17.32 0 01.11-4.44 17.89 17.89 0 011.1-4.3 17.31 17.31 0 01-.11 4.44 17.66 17.66 0 01-1.1 4.3zM516.78 298.34a17.7 17.7 0 01.12-4.43 16.79 16.79 0 011.1-4.3 19.52 19.52 0 01-1.22 8.73zM526.74 340.64a19.72 19.72 0 01-8.74-1.21 17.32 17.32 0 014.44.11 17.78 17.78 0 014.3 1.1zM467 342.35a17.32 17.32 0 01-4.44-.11 17.66 17.66 0 01-4.3-1.1 17.32 17.32 0 014.44.11 17.89 17.89 0 014.3 1.1zM508.77 367.73a17.83 17.83 0 013.22-3.05 17.18 17.18 0 013.82-2.26 19.84 19.84 0 01-7 5.31zM437.06 335.39a17.83 17.83 0 013.22-3.05 17.18 17.18 0 013.82-2.26 16.88 16.88 0 01-3.22 3.05 17.18 17.18 0 01-3.82 2.26zM501.47 313.1a17.25 17.25 0 01-3.22 3.06 20.36 20.36 0 01-2.88 1.83c.31-.48.65-1 1-1.58.41-.36.84-.71 1.27-1a17.57 17.57 0 013.83-2.31zM543.79 286.39c0 .42-.08.84-.13 1.27a14.38 14.38 0 01-2.57 1.38 16.9 16.9 0 012.7-2.65zM478.57 358.88a17.89 17.89 0 013.22-3.06 17.57 17.57 0 013.82-2.26 17.25 17.25 0 01-3.22 3.06 17.57 17.57 0 01-3.82 2.26zM477.53 324.51a17.89 17.89 0 013.06 3.22 17.57 17.57 0 012.26 3.82 19.72 19.72 0 01-5.32-7zM540.46 264.29a17.46 17.46 0 01-3.05-3.21 18.42 18.42 0 01-1.94-3.11 4.93 4.93 0 01.55 0 20.39 20.39 0 012.18 2.47 17.4 17.4 0 012.26 3.85zM527.36 313.56a17.25 17.25 0 013.06 3.22 17 17 0 012.26 3.82 19.72 19.72 0 01-5.32-7z" fill="#fff"/><path d="M512.41 288.78c-2 3-3.91 6.18-5.78 9.31l-.16.26c.09-.24.19-.48.28-.71.61-1.56 1.15-3.15 1.81-4.68 0-.09-.09-.17-.13-.08-.68 1.51-1.43 3-2.07 4.51-.43 1-.82 2.07-1.19 3.12-1.39 2.32-2.78 4.64-4.15 7-1.84 3.14-3.67 6.3-5.52 9.44-.46.77-.9 1.54-1.37 2.31a3 3 0 01-1.61 1.49 12.82 12.82 0 01-2.55.34c-.91.09-1.82.2-2.73.31-4.14.51-8.25 1.19-12.39 1.73-.1 0-.1.17 0 .16 3.8-.29 7.61-.43 11.41-.74 1.88-.15 3.76-.28 5.62-.52a3.78 3.78 0 002-.7 5.63 5.63 0 001.25-1.65q5.65-9.78 11.3-19.57c2.13-3.7 4.29-7.38 6.25-11.17a.14.14 0 00-.27-.16zM543.31 303.29a22.3 22.3 0 01-.89 3.67c-.3 1.07-.59 2.14-.91 3.2s-.79 2.39-1.2 3.58q1.26-7.94 2-16c0-.16-.26-.19-.29 0-1 7.47-2.37 14.91-3.94 22.27s-3.47 14.71-5.62 21.94c-1.06 3.56-2.18 7.11-3.42 10.61a28.93 28.93 0 01-4.36 8.53 22 22 0 01-8.29 5.87 96.29 96.29 0 01-10.18 4c-7.88 2.58-16 4.22-24.06 6.15-.09 0-.07.17 0 .16a184.12 184.12 0 0021.94-4.44 90.41 90.41 0 0010.75-3.6c3.21-1.34 6.52-2.79 9.11-5.17a22.76 22.76 0 005.36-8.28c1.35-3.27 2.41-6.67 3.46-10 2.3-7.38 4.22-14.82 5.79-22.39q.67-3.29 1.25-6.59a42.31 42.31 0 002.18-6.46c.3-1.15.59-2.3.82-3.47s.3-2.39.63-3.52c.05-.15-.12-.18-.13-.06zM456.61 376.24c-2.82-7.81-5.8-15.56-8.27-23.48a233.48 233.48 0 01-6.43-23.8.14.14 0 01.26-.07c2.93 7.66 5.31 15.57 7.77 23.39s4.64 15.87 7.13 23.75c.09.3-.34.51-.46.21zM446.13 325a41.65 41.65 0 00-4.47 0c-1.49 0-3 .1-4.47.16-3 .13-5.95.35-8.92.6a.38.38 0 00-.35.49 12.64 12.64 0 001.52 3.11c.05.05.15 0 .15-.05a10.86 10.86 0 00-.78-2.83c2.84-.19 5.68-.36 8.52-.58l4.46-.32c1.45-.12 2.93-.16 4.37-.39.12 0 .07-.19-.03-.19z" fill="#263238"/><path d="M379 313.36c3.71 1.84 20.66 2.54 25.6 8.62 3.29 4 3 8.13 4.88 20.2 1.67 10.48-7 8-9.51 2.62-3.92-8.43-7.29-17.67-7.29-17.67a67.31 67.31 0 00-8.68.13zM391.18 353c5.87-3.72 24.64 20 15.26 26.25S384.53 357.2 391.18 353z" fill="#f7a9a0"/><path d="M381.67 358c5.86-3.72 24.64 20 15.26 26.25s-21.93-22-15.26-26.25z" fill="#f7a9a0"/><path d="M374.93 359c5.85-2.57 19.62 21.58 10.22 26s-16.84-23.13-10.22-26z" fill="#f7a9a0"/><path d="M368 358.3c6.15-.73 12.13 25.57 2.16 27s-9.09-26.17-2.16-27z" fill="#f7a9a0"/><path d="M389.84 361.19a29.14 29.14 0 012.92 3.81c1 1.41 1.93 2.84 2.77 4.34a42.29 42.29 0 012.2 4.42c.66 1.61 1.12 3.33 1.83 4.92a.14.14 0 11-.26.1 34.93 34.93 0 00-2.38-4.48c-.83-1.45-1.58-2.94-2.39-4.4s-1.54-2.86-2.35-4.27-1.78-2.81-2.53-4.3a.12.12 0 01.19-.14zM380.07 361.06c.6 1.78 2.62 8.58 3.3 10.34s1.43 3.52 2.2 5.26S387 380.29 388 382a.14.14 0 01-.24.13c-.94-1.7-2-3.28-2.9-5s-1.61-3.49-2.3-5.29a89.84 89.84 0 01-2.75-10.7c-.05-.22.19-.23.26-.08zM372.7 362.75c.47 2.54.78 5.11 1.26 7.65.23 1.25.48 2.5.71 3.76.11.6.21 1.21.32 1.82a10.32 10.32 0 00.39 2.08c.07.17-.25.25-.27 0a15.63 15.63 0 00-.72-2.23c-.17-.59-.34-1.17-.49-1.77-.31-1.24-.56-2.48-.76-3.75a50.2 50.2 0 01-.78-7.54c0-.16.31-.21.34-.02z" fill="#263238"/></g><g><path d="M464.21 194.59a22.59 22.59 0 003.85-12.44c0-15.76-17.31-28.53-38.64-28.53s-38.61 12.77-38.61 28.53 17.28 28.53 38.61 28.53c10.35 0 19.72-3 26.65-7.89l13.31 3.38z" fill="#66f28d"/><path d="M415.53 182.15a4 4 0 11-4-4 4 4 0 014 4z" fill="#263238"/><circle cx="429.43" cy="182.15" r="4.01" fill="#263238"/><path d="M451.33 182.15a4 4 0 11-4-4 4 4 0 014 4z" fill="#263238"/></g><g><path d="M324.77 109c-2.23 18.65-14.22 22-16.24 27a87.18 87.18 0 00-2.52 9.54h-19.5A83.09 83.09 0 00284 136c-2-5-14-8.44-16.1-27.11-1.41-12.26 7.86-31.6 28.49-31.55s29.83 19.41 28.38 31.66z" fill="#66f28d"/><path fill="#fff" d="M285.263 115.874l.983-.182 5.712 31.03-.984.18zM300.551 146.73l5.852-31.002.983.185-5.852 31.003z"/><path d="M296.32 126.12c-1.53 0-3.07-1.22-4.33-3.43-.06-.1-.12-.2-.17-.3a2.38 2.38 0 01-1.67.91c-2.92 0-4.08-6-4.12-6.29l.49-.09c0 .06 1.12 5.87 3.63 5.88a2.05 2.05 0 001.42-.89c-1.23-2.54-1.92-5.86-1-7.37a1.51 1.51 0 011.35-.79 1.77 1.77 0 011.61.92c.88 1.53.23 4.69-.93 6.68a7.36 7.36 0 01-.4.62c.08.16.17.32.26.47.68 1.19 2.09 3.18 3.9 3.18 1.21 0 2.42-1 3.42-2.67a4.77 4.77 0 00.24-.44 6 6 0 01-.68-1c-1.21-2.1-1.45-5.21-.53-6.79a1.8 1.8 0 011.58-1 1.38 1.38 0 011.23.76c.86 1.5.38 5.07-1 7.88a2.8 2.8 0 002 .82c1.78 0 3.37-4.25 3.83-5.89l.48.13c-.07.26-1.79 6.26-4.31 6.26a3.24 3.24 0 01-2.18-.85l-.18.32c-.86 1.38-2.16 2.97-3.94 2.97zm4-11.85a1.3 1.3 0 00-1.15.74c-.82 1.42-.57 4.36.53 6.29a4.67 4.67 0 00.5.72c1.22-2.62 1.68-5.91.92-7.24a.89.89 0 00-.8-.51zm-8.48 0a1 1 0 00-.92.54c-.69 1.2-.24 4.12.95 6.66l.22-.35c1.06-1.83 1.7-4.82.93-6.18a1.27 1.27 0 00-1.18-.67z" fill="#fff"/><path fill="#455a64" d="M284.236 144.704l24.05.059-.012 4.7-24.05-.059zM284.212 150.164l24.05.059-.011 4.7-24.05-.059zM284.226 155.584l24.05.055-.01 4.7-24.05-.055z"/><path d="M297.32 62a15.34 15.34 0 01-.12 7.77 15.35 15.35 0 01.12-7.77zM275.51 67.34a13.52 13.52 0 012.33 3.15 13.8 13.8 0 011.46 3.64A13.52 13.52 0 01277 71a13.67 13.67 0 01-1.49-3.66zM259.3 82.86a15.23 15.23 0 016.67 4 13.84 13.84 0 01-3.6-1.57 13.65 13.65 0 01-3.07-2.43zM253 104.4a15.35 15.35 0 017.77.12 15.35 15.35 0 01-7.77-.12zM258.34 126.21a13.52 13.52 0 013.15-2.33 13.32 13.32 0 013.64-1.45 15.5 15.5 0 01-6.79 3.78zM333.42 127.87a15.48 15.48 0 01-6.67-4 15.23 15.23 0 016.67 4zM339.71 106.32a14 14 0 01-3.9.44 13.28 13.28 0 01-3.87-.56 13.6 13.6 0 013.89-.44 14.06 14.06 0 013.88.56zM334.38 84.52a13.77 13.77 0 01-3.15 2.32 13.47 13.47 0 01-3.64 1.46 13.52 13.52 0 013.15-2.3 13.78 13.78 0 013.64-1.48zM318.86 68.3a15.23 15.23 0 01-4 6.67 13.78 13.78 0 011.57-3.59 13.93 13.93 0 012.43-3.08z" fill="#263238"/></g></svg>