<svg xmlns="http://www.w3.org/2000/svg" viewBox="0 0 500 500"><path d="M107.22 106.26h-46v-46h46zm-45-1h44v-44h-44z" fill="#ebebeb"/><path fill="#dbdbdb" d="M102.53 81.58v14.79H69.19V81.58z"/><path fill="#c7c7c7" d="M81.35 159.8H70.18v-32.26h11.17z"/><path fill="#dbdbdb" d="M67.57 199.36v-14.03h23.48v14.03z"/><path d="M107.22 165.08h-46v-46h46zm-45-1h44v-44h-44zM107.22 223.9h-46v-46h46zm-45-1h44v-44h-44zM92.76 74.72V91.8H75.68V74.72z" fill="#ebebeb"/><path fill="#ebebeb" d="M92.76 133.54v17.08H75.68v-17.08zM92.75 192.36v17.08H75.67v-17.08zM395.55 0h1v58.2h-1z"/><path fill="#dbdbdb" d="M393.02 53.34h6.05v4.09h-6.05z"/><path fill="#c7c7c7" d="M393.02 54.7h6.05v2.73h-6.05z"/><path d="M400.71 84.52a4.66 4.66 0 11-4.66-4.66 4.66 4.66 0 014.66 4.66z" fill="#ebebeb"/><path fill="#dbdbdb" d="M411.22 84.52h-30.33l5.49-9.74 4.48-18.07h10.38l4.49 18.07 5.49 9.74z"/><path fill="#ebebeb" d="M349.55 0h1v48.62h-1z"/><path fill="#dbdbdb" d="M347.02 43.77h6.05v4.09h-6.05z"/><path fill="#c7c7c7" d="M347.02 45.13h6.05v2.73h-6.05z"/><path d="M354.71 75a4.66 4.66 0 11-4.66-4.66 4.66 4.66 0 014.66 4.66z" fill="#ebebeb"/><path fill="#dbdbdb" d="M365.22 74.95h-30.33l5.49-9.74 4.48-18.07h10.38l4.48 18.07 5.5 9.74z"/><path fill="#ebebeb" d="M303.55 0h1v38.62h-1z"/><path fill="#dbdbdb" d="M301.02 33.77h6.05v4.09h-6.05z"/><path fill="#c7c7c7" d="M301.02 35.13h6.05v2.73h-6.05z"/><path d="M308.71 65a4.66 4.66 0 11-4.66-4.66 4.66 4.66 0 014.66 4.66z" fill="#ebebeb"/><path fill="#dbdbdb" d="M319.22 64.95h-30.33l5.49-9.74 4.48-18.07h10.38l4.48 18.07 5.5 9.74z"/><g><path fill="#263238" d="M31.14 399.77l54.71-.25 54.72-.08 109.43-.17 109.43.16 54.72.09 54.71.25-54.71.24-54.72.09-109.43.17-109.43-.17-54.72-.09-54.71-.24z"/></g><g fill="#ebebeb"><ellipse cx="57.17" cy="457.65" rx="33.09" ry="8.62"/><ellipse cx="397.61" cy="409.85" rx="69.03" ry="12.06"/><ellipse cx="216.38" cy="433.18" rx="166.98" ry="19.04"/></g><g><path fill="#ebebeb" d="M150.02 104.7h199.86v132.09H150.02z"/><path fill="#455a64" d="M145.26 98.23h209.48v6.47H145.26z"/><path fill="#fff" d="M298.32 132.14h26.56v31.47h-26.56z"/><path d="M312.56 134.28a1 1 0 11-1-1 1 1 0 011 1z" fill="#455a64"/><path d="M303.37 138.44c2.69-.21 5.38-.22 8.06-.25s5.37 0 8.06.25c-2.69.21-5.37.22-8.06.25s-5.37-.04-8.06-.25zM303.37 140.93a38.49 38.49 0 018.76 0 38.49 38.49 0 01-8.76 0zM303.37 143.41c1.87-.19 3.74-.24 5.6-.25s3.73.06 5.6.25a52.46 52.46 0 01-5.6.25 55.35 55.35 0 01-5.6-.25zM303.37 145.9c2.34-.19 4.67-.24 7-.25s4.66.06 7 .25c-2.34.2-4.67.24-7 .25s-4.66-.05-7-.25zM303.37 148.39c2-.2 4.06-.24 6.09-.25s4.05.05 6.08.25c-2 .2-4.05.24-6.08.25s-4.06-.06-6.09-.25zM303.37 150.88c2.6-.21 5.2-.22 7.79-.25s5.19 0 7.79.25c-2.6.2-5.19.22-7.79.25s-5.16-.05-7.79-.25zM303.37 153.36a50.73 50.73 0 0110.06 0 50.73 50.73 0 01-10.06 0zM303.37 155.85c2.69-.21 5.38-.22 8.06-.25s5.37 0 8.06.25c-2.69.21-5.37.22-8.06.25s-5.37-.04-8.06-.25zM303.37 158.34c2.69-.21 5.38-.22 8.06-.25s5.37 0 8.06.25c-2.69.21-5.37.22-8.06.25s-5.37-.05-8.06-.25z" fill="#ebebeb"/><path fill="#fff" d="M307 175.36h31.43v37.24H307z"/><path d="M323.67 180.38a1 1 0 11-.95-.95 1 1 0 01.95.95z" fill="#455a64"/><path d="M311.4 184.65a22.63 22.63 0 013.48-.25 21.49 21.49 0 013.49.25 21.49 21.49 0 01-3.49.25 22.63 22.63 0 01-3.48-.25zM311.4 187.46a40.81 40.81 0 019 0 40.81 40.81 0 01-9 0zM311.4 190.27a30.85 30.85 0 014.18-.25 29.31 29.31 0 014.18.25 35.07 35.07 0 01-8.36 0zM311.4 193.07a35.07 35.07 0 018.36 0 35.07 35.07 0 01-8.36 0zM311.4 195.88a26.48 26.48 0 017.26 0 26.48 26.48 0 01-7.26 0zM311.4 198.69a43.37 43.37 0 019.3 0 38.13 38.13 0 01-4.65.25 40.25 40.25 0 01-4.65-.25zM311.4 201.5a29.54 29.54 0 017.67 0 29.54 29.54 0 01-7.67 0zM311.4 204.31a40.79 40.79 0 014.81-.25 38.75 38.75 0 014.81.25 46.4 46.4 0 01-9.62 0zM311.4 207.11a46.4 46.4 0 019.62 0 46.4 46.4 0 01-9.62 0zM325.13 184.65a38.88 38.88 0 014.57-.25 37 37 0 014.57.25 37 37 0 01-4.57.25 38.88 38.88 0 01-4.57-.25zM325.13 187.46a18.19 18.19 0 016 0 18.19 18.19 0 01-6 0zM325.13 190.27a32.64 32.64 0 014.3-.25 31.1 31.1 0 014.3.25 37.11 37.11 0 01-8.6 0zM325.13 193.07a35.07 35.07 0 018.36 0 35.07 35.07 0 01-8.36 0zM325.13 195.88a41.89 41.89 0 019.14 0 41.89 41.89 0 01-9.14 0zM325.13 198.69a26.55 26.55 0 017.27 0 23.44 23.44 0 01-3.64.25 24.61 24.61 0 01-3.63-.25zM325.13 201.5a37.11 37.11 0 018.6 0 37.11 37.11 0 01-8.6 0zM325.13 204.31a19.65 19.65 0 013.33-.25 18.63 18.63 0 013.32.25 22.24 22.24 0 01-6.65 0zM325.13 207.11a20.48 20.48 0 016.38 0 20.48 20.48 0 01-6.38 0z" fill="#ebebeb"/><path fill="#66f28d" d="M322.44 123.48h15.98v15.98h-15.98z"/><path d="M331.38 125.11a1 1 0 11-.95-1 1 1 0 01.95 1z" fill="#455a64"/><circle cx="206.76" cy="167.33" r="34.85" transform="rotate(-76.51 206.768 167.33)" fill="#455a64"/><path d="M206.76 167.33l-12.44 32.55a34.85 34.85 0 1147.28-32.55z" fill="#dbdbdb"/><path d="M206.76 167.33l28 20.76a34.86 34.86 0 116.85-20.76z" fill="#dbdbdb"/><path d="M206.76 167.33l-30.94 16a34.85 34.85 0 1165.78-16z" fill="#66f28d"/><path fill="#c7c7c7" d="M220.91 152.11l-.53-.53 16.7-16.7h21.22v.75h-20.91l-16.48 16.48zM225.8 172.68h32.5v.75h-32.5zM258.3 209.38h-22.07l-.11-.13-15.77-19.32.59-.47 15.65 19.17h21.71v.75z"/><circle cx="258.3" cy="135.25" r="1.61" fill="#c7c7c7"/><circle cx="258.3" cy="173.05" r="1.61" fill="#c7c7c7"/><path d="M259.91 209a1.61 1.61 0 11-1.61-1.61 1.61 1.61 0 011.61 1.61zM264.41 134.88h14.51v.75h-14.51zM264.41 137.28h20.27v.75h-20.27zM264.41 139.68h17.43v.75h-17.43zM264.41 142.08h22.18v.75h-22.18zM264.41 144.48h19.22v.75h-19.22zM264.41 146.88h16.46v.75h-16.46zM264.41 172.68h20.03v.75h-20.03zM264.41 175.08h13.54v.75h-13.54zM264.41 177.48h18.41v.75h-18.41zM264.41 179.88h20.03v.75h-20.03zM264.41 182.28h22.18v.75h-22.18zM264.41 184.68h16.46v.75h-16.46zM264.41 208.63h16.79v.75h-16.79zM264.41 211.03h22.18v.75h-22.18zM264.41 213.44h14.02v.75h-14.02zM264.41 215.84h22.18v.75h-22.18zM264.41 218.24h19.16v.75h-19.16zM264.41 220.64h11.81v.75h-11.81z" fill="#c7c7c7"/><path fill="#dbdbdb" d="M150.02 104.7h199.86v8.4H150.02z"/></g><g><path d="M353.52 407.66c1.71.5 50.11-1.39 51.9-2.64.69-.46.83-7.53.75-16.07v-.27c0-1.76 0-3.57-.08-5.41v-.76c-.26-12.32-.8-25.11-.8-25.11l-30.62 1.18-.12 24.85.07 1 .33 5.15v.53s-18.2 9-20 10.58-3.14 6.47-1.43 6.97z" fill="#dc6a57"/><path d="M353.52 407.66c1.71.5 50.11-1.39 51.9-2.64.69-.46.83-7.53.75-16.07v-.27c0-1.76 0-3.57-.08-5.41v-.76l-31.54.92.07 1 .33 5.15v.53s-18.2 9-20 10.58-3.14 6.47-1.43 6.97z" fill="#455a64"/><path d="M353.53 407.66c.85.25 13.54-.11 26.16-.68 12.45-.56 24.84-1.34 25.73-2 .68-.46.82-7.21.75-15.5v-.85l-31.24.87v.54s-18.2 9-20 10.58-3.12 6.54-1.4 7.04z" fill="#37474f"/><path d="M354 405.76c8.15-.52 41.07-1.85 49.16-1.74.07 0 .07 0 0 .05-8.06.69-41 1.75-49.16 1.82-.17 0-.18-.12 0-.13zM371.45 389.78c3.19-.72 7.14-.38 9.68 1.81.1.08 0 .22-.13.19a45.1 45.1 0 00-9.52-1.59.21.21 0 01-.03-.41zM369.19 391.27c3.19-.73 7.13-.39 9.68 1.8.1.09 0 .23-.13.2a45.12 45.12 0 00-9.52-1.6.2.2 0 01-.03-.4zM366.93 392.76c3.19-.73 7.13-.39 9.67 1.8.1.09 0 .22-.12.2a45.12 45.12 0 00-9.52-1.6.2.2 0 01-.03-.4z" fill="#263238"/><path d="M368.62 387.46c2.34 1.68 5.33 2.28 8 3.16.27.09.48-.18.48-.42a.08.08 0 00.07-.12 17.07 17.07 0 00-5.23-7.16c-1.38-1.07-3.76-1.76-4.95 0s.27 3.56 1.63 4.54zm-.91-2.55c-.71-3.5 3.15-1.8 4.13-1a19.83 19.83 0 011.78 1.77 50.28 50.28 0 013.14 4.12c-1.29-.52-2.62-.91-3.93-1.38-1.56-.52-4.74-1.58-5.12-3.51z" fill="#263238"/><path d="M387.72 384.77c-.85-2-3.32-1.72-4.87-.91a17.15 17.15 0 00-6.43 6.11.08.08 0 00.05.13.39.39 0 00.4.5c2.81-.39 5.85-.45 8.45-1.68 1.52-.72 3.21-2.29 2.4-4.15zm-6.72 4.38c-1.37.22-2.75.37-4.11.65a48.77 48.77 0 013.83-3.49 19.4 19.4 0 012.06-1.43c1.12-.64 5.22-1.62 3.9 1.7-.68 1.83-4.04 2.3-5.68 2.57zM379.69 407c12.45-.56 24.84-1.34 25.73-2 .68-.46.82-7.21.75-15.5-5.51 3.4-18.26 11.94-26.48 17.5z" fill="#263238"/><path d="M415.65 226s-7.28 81.84-8.46 88.09c-.28 1.42-.45 9.16-.56 19.1-.25 21.7-.1 54.9-.1 54.9h-34.14s1-61.87 2.52-74.35S386.09 226 386.09 226z" fill="#455a64"/><path d="M373.93 382.16c5.33-.11 3.8-.15 9.13-.2 2.6 0 19.74-.18 22.17.23a.06.06 0 010 .11c-2.43.4-19.57.25-22.17.22-5.33 0-3.8-.09-9.13-.2-.1 0-.1-.15 0-.16zM400 349.33q.06-7.43.11-14.85c0-4.8 0-9.6.26-14.39.46-9.71 2.43-19.25 3.83-28.84s2.57-19.23 3.63-28.87c1.18-10.82 2.23-21.65 3.34-32.48 0-.07.13-.07.12 0-1.61 19.33-3.41 38.66-6.08 57.87q-1 7.17-2.18 14.31c-.8 4.82-1.59 9.64-2 14.51s-.43 9.56-.48 14.34l-.15 14.85q-.17 16.49-.32 33c0 .21-.33.2-.33 0q.17-14.78.25-29.45z" fill="#263238"/><path d="M422.85 226s-14.48 81.84-15.66 88.09c-.28 1.42-.45 9.16-.56 19.1L390.35 226z" fill="#263238"/><path d="M390.53 410.41c1.71.5 50.1-1.39 51.9-2.64.69-.46.82-7.52.74-16.07a2.44 2.44 0 000-.27c0-1.76 0-3.57-.08-5.41v-.75a197 197 0 00-2.42-25.11l-30.74 1.17 1.63 24.85.06 1 .33 5.15v.53s-18.2 9-20 10.58-3.14 6.47-1.42 6.97z" fill="#dc6a57"/><path d="M390.53 410.41c1.71.5 50.1-1.39 51.9-2.64.69-.46.82-7.52.74-16.07a2.44 2.44 0 000-.27c0-1.76 0-3.57-.08-5.41v-.75l-31.53.91.06 1 .33 5.15v.53s-18.2 9-20 10.58-3.14 6.47-1.42 6.97z" fill="#455a64"/><path d="M390.53 410.41c1.71.5 50.1-1.39 51.9-2.64.69-.46.82-7.52.74-16.07a2.44 2.44 0 000-.27l-31.23.88v.53s-18.2 9-20 10.58-3.13 6.49-1.41 6.99z" fill="#37474f"/><path d="M391 408.51c8.15-.52 41.07-1.85 49.16-1.74.07 0 .07 0 0 .05-8.07.69-41 1.75-49.16 1.82-.17 0-.17-.12 0-.13zM408.46 392.53c3.19-.72 7.13-.38 9.67 1.81.1.08 0 .22-.13.19a44.9 44.9 0 00-9.51-1.59.21.21 0 01-.03-.41zM406.2 394c3.18-.73 7.13-.39 9.67 1.8.1.09 0 .23-.13.2a45.67 45.67 0 00-9.51-1.6.2.2 0 01-.03-.4zM403.93 395.51c3.19-.73 7.14-.39 9.68 1.8.1.09 0 .23-.13.2a45.12 45.12 0 00-9.52-1.6.2.2 0 01-.03-.4z" fill="#263238"/><path d="M405.63 390.21c2.34 1.68 5.32 2.28 8 3.16.28.09.49-.18.49-.42a.09.09 0 00.07-.12 17.15 17.15 0 00-5.23-7.16c-1.39-1.07-3.77-1.76-5 0s.3 3.56 1.67 4.54zm-.92-2.55c-.7-3.5 3.15-1.8 4.14-1a19.71 19.71 0 011.77 1.77 50.39 50.39 0 013.15 4.12c-1.3-.51-2.62-.91-3.93-1.38-1.57-.52-4.74-1.58-5.13-3.51z" fill="#263238"/><path d="M424.72 387.52c-.85-2-3.32-1.72-4.87-.91a17.15 17.15 0 00-6.43 6.11.09.09 0 00.05.13c0 .24.12.54.41.5 2.8-.38 5.84-.45 8.44-1.68 1.52-.67 3.21-2.29 2.4-4.15zM418 391.9c-1.38.22-2.75.37-4.12.65 1.26-1.19 2.46-2.43 3.83-3.49a18.48 18.48 0 012.07-1.42c1.12-.65 5.21-1.63 3.89 1.69-.67 1.83-4.03 2.31-5.67 2.57z" fill="#263238"/><path d="M410.73 392.18l34.11-1.45s-9.31-71.15-9.48-75.75c-.45-11.93-7.64-89-7.64-89h-41.66s2.62 17.79 7.12 29.07a52.28 52.28 0 018.72 4s3.9 51 4 57.32c.33 12.55 4.83 75.81 4.83 75.81z" fill="#455a64"/><path d="M411.64 385.93c5.32-.34 3.78-.32 9.11-.59 2.6-.14 19.71-1 22.17-.71.05 0 .05.09 0 .1-2.42.51-19.54 1.09-22.15 1.17-5.33.18-3.8.07-9.13.18-.1.01-.1-.15 0-.15zM424.66 230.56c1.55 19.4 3.14 38.81 4.91 58.2s3.87 38.89 6.43 58.24c1.42 10.82 2.25 22.36 3.93 33.15 0 .07-.1.1-.11 0-3.44-19.17-5.23-39.24-7.38-58.58s-3.9-38.74-5.47-58.14c-.89-11-1.69-22-2.53-32.93-.03-.1.21-.1.22.06zM391.69 254.28A64.85 64.85 0 01401.9 259a.12.12 0 01-.1.21c-3.44-1.47-6.94-2.88-10.29-4.55a.22.22 0 01.18-.38zM390.6 230.7c0-.12.22-.15.22 0 0 4.08.23 7.67.57 11.48.16 1.77 1.59 11.56 4.66 10.85.51-.12.77-.63.86-1.41a12.9 12.9 0 00-.41-3c-.34-2-.62-4.1-.79-6.17a55.93 55.93 0 01.12-11.57.1.1 0 01.2 0 108.12 108.12 0 00.93 16c.39 2.54 1.67 6.37-1 6.76s-4.47-6-4.8-7.77a58.61 58.61 0 01-.56-15.17z" fill="#263238"/><path d="M396 253.27a18 18 0 01.69 2 4.75 4.75 0 01.28 1.66c0 .11-.15.12-.21.05a5.87 5.87 0 01-.71-1.62c-.24-.63-.48-1.25-.7-1.89a.34.34 0 01.65-.2z" fill="#263238"/><path d="M394.67 189c-4.88 6.36-27.55 24.29-36.7 23.59-6-.46-25.69-11.58-30-15.26-5-4.32 3.48-17.56 7.19-16.36 4.62 1.5 20.41 11.58 24.69 12.71 2.46.66 17.36-7 31.23-14.23 5.27-2.73 6.92 5.21 3.59 9.55z" fill="#ad6359"/><path d="M334.48 203.47s19.11 12.43 26.95 10c3.89-1.23 10.22-4.76 16.45-9s12.54-9.36 16-13.45c4.05-4.83 4.3-9.3 2.23-11.34a4.27 4.27 0 00-3.17-1.16 10 10 0 00-4.87 1.62c-8.31 5-25.07 13.23-27.07 13s-15-7.94-15-7.94z" fill="#66f28d"/><path fill="#66f28d" d="M331.18 203.13l5.19 2.51 12.38-20.45-4.87-3.06-12.7 21z"/><path d="M347.78 186.84a167 167 0 01-10.66 17.66c0 .08-.16 0-.11-.08 1-1.52 6-10.63 10.65-17.66a.07.07 0 11.12.08zM377.88 204.46c6.32-4.31 12.54-9.36 16-13.45 4.05-4.83 4.3-9.3 2.23-11.34-1.79-.67-3-1.11-3.17-1.16-.32.49-9.35 15.84-15.06 25.95z" fill="#263238"/><path d="M331.15 175.05c-2.84-1-6-2.39-9.19-2.33s-5.79 4.24-5.79 5.43 1.2 8.65 4.36 8.65 1.25-5.72 1.37-6.38.24-1.49.84-1.43 11 5 11 5z" fill="#ad6359"/><path d="M331 175.49c-.18 0-8.65-3.34-11.81-3.28s-5.79 4.23-5.79 5.43 1.19 8.65 4.35 8.65 1.26-5.73 1.38-6.39.24-1.49.83-1.43 11 5 11 5z" fill="#ad6359"/><path d="M318.78 185.89a3.75 3.75 0 00.52-1.87 6.53 6.53 0 00-.11-2 10.61 10.61 0 01-.38-1.74 3.36 3.36 0 01.44-1.67c.24-.44.7-.29 1.1-.15a16.66 16.66 0 011.72.77c.61.3 1.21.62 1.8.93a15.61 15.61 0 011.84 1v.08a16.32 16.32 0 01-1.6-.72l-1.81-.83c-.57-.25-1.12-.53-1.69-.77-.2-.09-.61-.31-.83-.25s-.36.64-.42.84a2.94 2.94 0 00.11 1.71 9.12 9.12 0 01.33 1.73 4.84 4.84 0 01-.13 1.65 6.74 6.74 0 01-.76 1.36c-.07.04-.18-.02-.13-.07z" fill="#263238"/><path d="M341 183.79s-8.76-8-10.59-9.57c-3.66-3.19-19.07-9.48-21.22-9.71s-2.92 4.18 7.54 8.75c5.51 2.41 6.49 5.57 6.39 7.32s-1.78 5-4.72 4.93-4.85-4.37-7.56-4.85-.92 4.48 1 7.34a18 18 0 007.92 6.18c2.55 1 10.43 4.35 10.43 4.35z" fill="#ad6359"/><path d="M314.73 183.44c1.11.86 2.36 2 3.82 2a3.54 3.54 0 003.19-2.15 5.63 5.63 0 00.77-4.07 6.8 6.8 0 00-2-3.3 16.68 16.68 0 00-4-2.66c-.07 0 0-.12.06-.09 1.35.6 5.56 2.33 6.41 6.05a5.76 5.76 0 01-.82 4.14 4.07 4.07 0 01-3 2.42c-1.74.14-3.24-1.27-4.49-2.33-.08-.01 0-.05.06-.01z" fill="#263238"/><path d="M384.23 236.66c.75.61 18.92.83 32.69.83 8.44 0 15.23-.09 15.31-.22.16-.28-10.63-44.65-26.38-57.08a15.6 15.6 0 00-4.59-2.62c-2.89-1-10.38-.15-11.17 1-6.62 9.09-6.63 57.48-5.86 58.09z" fill="#66f28d"/><path fill="#37474f" d="M394.79 190.06l-2.16-3.58-3.02 3.21 1.11 3.01 3.23-.04.84-2.6z"/><path fill="#37474f" d="M393.95 192.66l4.16 32.58-4.47 11.05-4.35-11.05 1.43-32.54 3.23-.04z"/><path d="M390.1 178.26l2.87 6.67 8.16-8.73 2.43 2.68s-7.84 13.73-7.91 13.12l-2.92-5.73-3.9 4.13.07-10.14z" fill="#66f28d"/><path d="M388.58 185.39c.07-1.68.09-3.36.24-5 0-.06.1-.09.11 0 .38 1.6.08 8 .13 9.53.17-.18 3.63-3.65 3.66-3.59.63.9 2.77 5.08 2.92 5.46 1.24-2.18 6.52-10.79 8-12.86a.06.06 0 01.1 0c-1.09 2.3-7.9 13.66-8 13.63a65.34 65.34 0 01-3.06-6.06 43.75 43.75 0 01-4.08 4.4 53.11 53.11 0 01-.02-5.51z" fill="#263238"/><path d="M392.71 186c2.76.4 7-4.13 8.58-7.64.1-.24-.46-2.63-1-5.56-.32-1.78-.64-3.77-.81-5.61 0-.38-1.25.43-1.25.43l-2.33.78-7.7 2.6a29.34 29.34 0 011.73 7 3.83 3.83 0 010 .76v.13c-.13 1.36.12 6.67 2.78 7.11z" fill="#ad6359"/><path d="M389.91 178.67v.13a8.15 8.15 0 001.19 0c7.74-.9 7.9-10.8 7.9-10.8l-3.06.4-7.7 2.6a29.34 29.34 0 011.73 7 3.83 3.83 0 01-.06.67z" fill="#263238"/><path d="M380.67 164.53c.25 3.88 1.08 7.49 2.65 9.25 4 4.51 10.8 3.05 14.38-1.39a11 11 0 001.6-4.6c.83-4.84.58-11.65-.75-14.37-2.79-5.7-11.47-6.84-15.65-2.59-1.69 1.73-2.6 7.99-2.23 13.7z" fill="#ad6359"/><path d="M399 162.92c-2.77 0-3.33-5-3.33-5s-4.75-.75-5.46-4.32c0 0-4.5 2.9-8.05 1.63s-2.83-5.28-2.44-6.14 2.36.73 2.36.73.22-2.27.82-2.51 1.27 1.14 1.27 1.14a29.35 29.35 0 018.71-1.46c4.14.09 6.21 4.26 6.21 4.26s2.22.46 2.95 2-1.27 9.66-3.04 9.67z" fill="#263238"/><path d="M396.8 157.93c-3.67.51-6.12-1.92-6.67-5.44h-.07c.12 3.28 3.2 6.91 6.77 5.59a.08.08 0 00-.03-.15zM399 151.16s-.06.06 0 .08a7.21 7.21 0 012.94 1.75 4.46 4.46 0 01.38 3.9c-.5 2-1.51 4.59-3.29 5.77-.1.07 0 .22.11.16 2.13-1.27 3.36-4.64 3.64-7 .3-2.62-1.34-4.1-3.78-4.66zM386.2 154.62a5.41 5.41 0 01-5.61-.06c-1.94-1.34-1.54-3.57-.71-5.43 0-.09-.09-.19-.16-.1a4.25 4.25 0 00.38 5.52 5.64 5.64 0 006.25.3c.15-.09 0-.32-.15-.23z" fill="#263238"/><path d="M380.67 164.54c.25 3.88 1.08 7.49 2.65 9.25 4 4.51 10.8 3.05 14.38-1.39a11 11 0 001.6-4.6 42.87 42.87 0 00-.34-6.09c-.21-1.13-2.3-.52-2.3-.52a9 9 0 01-1.12 4.87c-1.31 1.7-4.4 1.61-5.48 1.5s-3.24-1.08-5.36-.41c-.94.3-1.8 1-2.7.61s-1.3-3.04-1.33-3.22z" fill="#263238" opacity=".3"/><path d="M397.57 163.37s2.12-4.17 4-3.46.62 6.49-1.3 7.52a2.08 2.08 0 01-2.91-.72z" fill="#ad6359"/><path d="M401.16 161.56v.05a5.22 5.22 0 00-2.23 3.62 1.14 1.14 0 011.65-.54v.08a1.29 1.29 0 00-1.34.63 6.84 6.84 0 00-.51 1.22c0 .14-.28.1-.25-.05-.29-1.84.76-4.57 2.68-5.01zM387.49 162.86s.06 0 .06.07c0 .81 0 1.75.77 2v.05c-.9-.11-1-1.36-.83-2.12z" fill="#263238"/><path d="M388.24 162c1.31-.06 1.34 2.56.13 2.62s-1.23-2.53-.13-2.62zM383.35 162.89s-.06 0-.06.08c0 .81-.06 1.74-.79 2 .9-.07 1.02-1.31.85-2.08z" fill="#263238"/><path d="M382.61 162.06c-1.3-.09-1.37 2.53-.16 2.61s1.26-2.55.16-2.61zM389.26 160.82a8.71 8.71 0 01-1-.34 1.75 1.75 0 01-1-.55.54.54 0 01.08-.67 1.34 1.34 0 011.38-.16 2 2 0 011.17.85.59.59 0 01-.63.87zM381.58 160.75a8.83 8.83 0 001-.28 1.85 1.85 0 001-.49.57.57 0 00-.05-.68 1.35 1.35 0 00-1.37-.24 2 2 0 00-1.22.79.59.59 0 00.64.9zM388.9 170.22c-.2.19-.39.46-.68.49a2.25 2.25 0 01-.88-.19 1.06 1.06 0 001 .42.83.83 0 00.63-.72s-.05-.03-.07 0z" fill="#263238"/><path d="M388 167.8a2.77 2.77 0 01-1.83 1.26 3.64 3.64 0 01-1 .06h-.37a.19.19 0 01-.16-.18v-.16-1.58c-.23.12-1.39.66-1.37.33a40.94 40.94 0 011-8.38.08.08 0 01.15 0c0 2.61-.5 5.19-.56 7.8a5.11 5.11 0 011.3-.41c.09 0-.12 1.84-.09 2.12a3.82 3.82 0 002.85-.93c.08-.04.14.01.08.07z" fill="#263238"/><path d="M385.55 168.79a3.33 3.33 0 001.33 1 1.45 1.45 0 00.9.05c.64-.18.65-.78.52-1.28a3.47 3.47 0 00-.3-.78 4.2 4.2 0 01-2.45 1.01z" fill="#fff"/><path d="M405.85 180.19l11.07 57.3c8.44 0 15.23-.09 15.31-.22.16-.27-10.63-44.65-26.38-57.08z" fill="#263238"/><path d="M445.18 262.52c1.61 2.93 1.3 8.11 3.73 7.61 2.17-.45 2-4.06 2-4.06s1.46 4 3.66 2.88 1.24-5.08 1.24-5.08 1.07 3.41 3.18 2.11 1.9-4.79 1.9-4.79 1 .77 2.05-.82c1.54-2.27-.26-7.92-1.9-10.65s-9.66-11.5-10.91-12.82l-17.6 10.38s.68 6.19 1.41 9.29 6 12.65 8.42 11.51-1.36-7.82-1.93-9.65-.25-2.29.65-1.66a38.8 38.8 0 014.1 5.75z" fill="#ad6359"/><path d="M450.85 265.91c-.54-5-1.65-7.12-4.74-11-.06-.07 0-.18.11-.1 3.37 3.53 5.14 6 4.88 11.1-.01.23-.22.23-.25 0zM455.82 264.09c-1-5.16-2.2-7.45-5.14-11.76 0-.06.06-.14.1-.08 3.24 4 5 6.46 5.29 11.75.02.24-.2.33-.25.09zM460.88 261.15c-1.35-4.93-2.54-7.5-5.93-11.32-.08-.09.05-.21.14-.13a16.92 16.92 0 015.91 11.39c.07.32 0 .37-.12.06z" fill="#263238"/><path d="M407.18 181.76c15.41 13.51 40.55 50.8 43.56 55.93 2.05 3.48-16.11 14.68-17.14 12.11-1.33-3.29-20.75-40.22-26.49-55.6-3.17-8.47-3.11-15.2.07-12.44z" fill="#ad6359"/><path d="M451.76 234.82L431 247.13s-19.47-38.13-24.07-52.24c-5.12-15.76-5.47-20.39 5.53-8.41s39.3 48.34 39.3 48.34z" fill="#66f28d"/><path d="M406.7 196.93c.34.46.66.92 1 1.39l.5.73.16.24c-.74-2-1.45-4-2.15-6 1.24 3.28 2.59 6.51 3.94 9.74s2.55 6.32 4 9.4c.07.13-.14.25-.2.11-1.39-3.12-2.85-6.18-4.11-9.36-.43-1.06-.83-2.13-1.23-3.2a4.47 4.47 0 00-.45-.76l-.49-.72c-.32-.49-.64-1-.94-1.48-.08-.08-.05-.11-.03-.09z" fill="#263238"/><path fill="#66f28d" d="M453.55 235.52l-3.58-4.51-21.35 13.9 3.05 4.87 21.88-14.26z"/><path d="M429.8 244.21c7.94-6.1 17.21-11.31 18.76-12.34.07-.05.14.08.07.12-1.58.93-11.52 8-18.76 12.35-.08.05-.15-.08-.07-.13z" fill="#263238"/></g><g><path fill="#a6a6a6" d="M289.83 360.21l-1.84 11.04-12.47 67.32h-2.01l9.07-67.32 1.34-11.04h5.91z"/><path fill="#263238" d="M283.92 360.21h5.91l-1.84 11.04h-5.41l1.34-11.04z"/><path fill="#a6a6a6" d="M328.98 438.57h-2.01l-12.47-67.32-1.84-11.04h5.91l1.34 11.04 9.07 67.32z"/><path fill="#263238" d="M318.57 360.21l1.34 11.04h-5.41l-1.84-11.04h5.91z"/><path fill="#a6a6a6" d="M366.37 438.57h-2.01l-12.47-67.32-1.84-11.04h5.91l1.34 11.04 9.07 67.32z"/><path fill="#263238" d="M357.3 371.25h-5.41l-1.84-11.04h5.91l1.34 11.04z"/><path fill="#a6a6a6" d="M363.18 365.39h-91.35v-9.62h34.2l11.49-66.87h42.18l3.48 76.49z"/><path fill="#dbdbdb" d="M363.18 365.39h-4.98l-3.24-76.49h4.74l3.48 76.49z"/><path d="M173.19 430.82c1.69.58 50.12.75 52-.42.71-.43 1.15-7.49 1.43-16 0 0 1.64-2 4.08-4.83 7.07-8.33 20.87-24.51 20.87-24.51l-37.13-.2-16.35 24.71-2.71 4.1v.53s-18.57 8.22-20.47 9.72-3.41 6.33-1.72 6.9z" fill="#dc6a57"/><path d="M173.19 430.82c1.69.58 50.12.75 52-.42.71-.43 1.15-7.49 1.43-16 0 0 1.64-2 4.08-4.83h-32.65l-2.71 4.1v.53s-18.57 8.22-20.47 9.72-3.37 6.33-1.68 6.9z" fill="#37474f"/><path d="M173.19 430.82c1.69.58 50.12.75 52-.42.71-.43 1.15-7.49 1.43-16a2.44 2.44 0 010-.27l-31.25-.46v.53s-18.56 8.23-20.46 9.72-3.41 6.33-1.72 6.9z" fill="#37474f"/><path d="M173.74 428.94c8.17-.17 41.11-.09 49.2.36.06 0 .06.05 0 .05-8.09.35-41 0-49.2-.27-.17-.01-.17-.08 0-.14zM191.87 413.73c3.21-.59 7.14-.09 9.58 2.21.1.09 0 .22-.13.19a45.47 45.47 0 00-9.44-2 .2.2 0 01-.01-.4zM189.54 415.11c3.22-.58 7.14-.08 9.59 2.22.1.09 0 .22-.14.19a45.2 45.2 0 00-9.44-2 .21.21 0 01-.01-.41zM187.22 416.5c3.21-.58 7.14-.08 9.59 2.22.09.09 0 .22-.14.19a45.34 45.34 0 00-9.44-2 .21.21 0 01-.01-.41z" fill="#263238"/><path d="M189.14 411.28c2.26 1.78 5.22 2.51 7.87 3.5.27.11.49-.15.5-.4.06 0 .1-.05.08-.11a17.2 17.2 0 00-4.92-7.38c-1.34-1.13-3.69-1.92-5-.19s.14 3.55 1.47 4.58zm-.81-2.58c-.56-3.53 3.22-1.67 4.17-.79a17.4 17.4 0 011.7 1.84 49.75 49.75 0 013 4.25c-1.27-.57-2.58-1-3.87-1.54-1.57-.62-4.7-1.82-5-3.76z" fill="#263238"/><path d="M208.33 409.41c-.77-2-3.24-1.86-4.83-1.12a17.18 17.18 0 00-6.68 5.83.08.08 0 000 .13c-.05.24.09.55.38.52 2.82-.26 5.86-.19 8.52-1.31 1.58-.66 3.34-2.15 2.61-4.05zm-6.9 4.09c-1.38.16-2.76.26-4.14.47 1.31-1.13 2.56-2.32 4-3.32a19.33 19.33 0 012.12-1.33c1.15-.6 5.28-1.41 3.82 1.85-.82 1.83-4.15 2.14-5.8 2.33z" fill="#263238"/><path d="M193.1 413.84l18.9 1.86 18.66 1.83s37.82-49 40.13-51.31c5.25-5.25 46.7-17.82 58-29.07 12-11.92 6.76-27 6.76-27h-31.34s.08 12.21-1.59 12.73c-18.06 5.61-52.11 17.9-59.93 24.81-14.03 12.41-49.59 66.15-49.59 66.15z" fill="#455a64"/><path d="M199 408.09c5.3.5 3.79.28 9.09.84 2.59.28 19.63 2.09 22 2.77.05 0 0 .11 0 .11-2.47.12-19.47-2-22.06-2.31-5.29-.67-3.76-.53-9-1.25a.08.08 0 01-.03-.16z" fill="#263238"/><path d="M223 416.78l7.63.75s37.82-49 40.13-51.31c5.25-5.25 46.7-17.82 58-29.07 12-11.92 6.76-27 6.76-27h-12.37l-2 .53-62.25 37.49z" fill="#263238"/><path d="M235.75 440.88c1.7.54 50.13-.08 51.95-1.28.7-.44 1-7.5 1.17-16.05v-.26c0-1.76.05-3.58.06-5.41v-.76c.06-12.33-.13-25.12-.13-25.12l-32.4.32 1 24.89v1l.19 5.15v.53s-18.43 8.53-20.3 10.06-3.24 6.39-1.54 6.93z" fill="#dc6a57"/><path d="M235.75 440.88c1.7.54 50.13-.08 51.95-1.28.7-.44 1-7.5 1.17-16.05v-.26c0-1.76.05-3.58.06-5.41v-.76l-31.55.09v1l.19 5.15v.53s-18.43 8.53-20.3 10.06-3.22 6.39-1.52 6.93z" fill="#455a64"/><path d="M235.75 440.88c1.7.54 50.13-.08 51.95-1.28.7-.44 1-7.5 1.17-16.05v-.26h-31.25v.53s-18.43 8.53-20.3 10.06-3.27 6.46-1.57 7z" fill="#37474f"/><path d="M236.28 439c8.16-.3 41.1-.77 49.19-.45.06 0 .06 0 0 0-8.08.48-41 .68-49.19.54-.18.03-.18-.09 0-.09zM254.15 423.48c3.2-.64 7.13-.2 9.62 2 .1.09 0 .23-.13.2a45.57 45.57 0 00-9.48-1.85.2.2 0 01-.01-.35zM251.84 424.9c3.21-.64 7.14-.2 9.63 2.06.09.09 0 .22-.14.19a45.46 45.46 0 00-9.47-1.84.21.21 0 01-.02-.41zM249.54 426.33c3.21-.64 7.14-.2 9.63 2.06.09.09 0 .22-.14.19a44.82 44.82 0 00-9.47-1.84.21.21 0 01-.02-.41z" fill="#263238"/><path d="M251.38 421.08c2.29 1.74 5.26 2.42 7.92 3.37a.39.39 0 00.5-.41.09.09 0 00.08-.12 17.14 17.14 0 00-5-7.29c-1.35-1.11-3.71-1.86-5-.11s.12 3.55 1.5 4.56zm-.85-2.57c-.62-3.52 3.19-1.72 4.16-.86a18.5 18.5 0 011.72 1.82c1.13 1.32 2 2.77 3 4.19-1.28-.55-2.59-1-3.89-1.47-1.52-.6-4.66-1.74-4.99-3.68z" fill="#263238"/><path d="M270.54 418.89c-.81-2-3.28-1.8-4.85-1a17.22 17.22 0 00-6.59 5.94.09.09 0 000 .13c0 .24.1.55.39.51 2.81-.31 5.86-.29 8.49-1.45 1.59-.72 3.32-2.24 2.56-4.13zm-6.83 4.2c-1.38.19-2.76.31-4.13.54a48.74 48.74 0 013.92-3.38 18 18 0 012.1-1.37c1.13-.61 5.25-1.49 3.85 1.79-.77 1.81-4.1 2.2-5.74 2.42z" fill="#263238"/><path d="M256.3 423.45l35.26.79s-4.29-51.83-3.52-56.37c.36-2.1 42.58-8.28 56.13-22.5 11.67-12.24.93-35.19.93-35.19l-32-.83s-1.05 9.84 1.24 15.93c0 0-49.86 12-55.46 22.91-5.88 11.68-2.58 75.26-2.58 75.26z" fill="#455a64"/><path d="M255.84 363.1c.22-2.87.55-5.73 1-8.57.24-1.41.51-2.81.83-4.21a13 13 0 011.29-3.68c1.25-2.19 3.58-3.58 5.7-4.81a57.93 57.93 0 017.18-3.48c5.11-2.08 10.39-3.69 15.64-5.37 3.16-1 6.32-2 9.49-3s6.48-1.87 9.69-2.92a.06.06 0 010 .11c-2.81.94-5.57 2-8.36 3s-5.46 1.92-8.2 2.86l-8.1 2.81c-2.54.87-5.09 1.71-7.6 2.67a66.27 66.27 0 00-7.16 3.17 23.87 23.87 0 00-6.24 4.12c-1.86 1.9-2.25 4.66-2.75 7.16-.56 2.84-1 5.7-1.26 8.58-.66 6.35-1.14 12.33-1.4 18.7 0 .43-.24.78-.24.36-.08-5.83.04-11.68.49-17.5zM283.78 367.42a2.29 2.29 0 011.54-1.65c2-.92 4.05-1.71 6.11-2.47 8.16-3 16.59-5.2 24.81-8a103 103 0 0012.23-5c1.94-1 3.85-2 5.69-3.14a31.55 31.55 0 005.46-4.1c7-6.81 6.5-17.3 4.93-26.15-.21-1.21-.45-2.41-.68-3.62a.06.06 0 01.12 0c1.68 8.73 3.49 18.56-1.42 26.63-2.26 3.73-5.93 6.24-9.62 8.41a81.54 81.54 0 01-11.89 5.59c-8.14 3.13-16.59 5.32-24.86 8.07-2.11.7-4.22 1.43-6.29 2.23-1 .4-2.06.81-3.08 1.24s-2.42.76-2.72 1.86a4.77 4.77 0 000 1.6c.05.66.09 1.32.14 2l.27 3.86.54 7.62q1.08 15.35 2.14 30.68c.09 1.26.18 2.51.26 3.76 0 .15-.22.13-.23 0-.76-10.19-1.47-20.39-2.19-30.58q-.56-7.68-1.09-15.35l-.13-1.77a7.26 7.26 0 01-.04-1.72z" fill="#263238"/><path d="M333.25 315.87c0-.06.12-.05.11 0a11.21 11.21 0 00.33 4.61 6.76 6.76 0 002.18 2.91c2.32 1.86 5.26 2.1 8 2.83a.12.12 0 010 .23c-3 0-6.25-.69-8.61-2.62a6.87 6.87 0 01-2.22-3.16 8.7 8.7 0 01.21-4.8zM257.68 417.84c5.33 0 3.8-.11 9.13-.1 2.61 0 19.74.07 22.18.5.05 0 .05.1 0 .11-2.44.37-19.57 0-22.18 0-5.32-.11-3.79-.14-9.12-.31-.11-.04-.11-.2-.01-.2zM312.85 311.51c.15 1.95.26 3.91.5 5.86.11.92.2 1.85.38 2.76a1.78 1.78 0 00.49 1.05 2.25 2.25 0 001.18.4 1.28 1.28 0 001.59-1.25c.17-1.78-.35-8-.37-8.48 0-.1.33-.1.34 0 .48 3.91 1.13 8.89.3 9.74a2.6 2.6 0 01-3.39.24 2.46 2.46 0 01-.75-1.59c-.12-.85-.16-1.73-.22-2.58-.16-2-.33-4.09-.37-6.13-.01-.2.3-.21.32-.02zM313.84 322.21a5.7 5.7 0 01.15.74c.05.25.11.5.17.74s.11.5.18.74.11.49.16.74a.1.1 0 01-.18.06 6 6 0 01-.3-.69c-.08-.25-.16-.5-.23-.75s-.12-.49-.17-.74a3.44 3.44 0 01-.13-.78.18.18 0 01.35-.06z" fill="#263238"/><path d="M314.18 271.43c-1.15 5.86-13.25 21.54-25 30.45-7.06 5.36-36.33 6.38-42.37 4.92-6.86-1.65-4.88-17.86-.89-19 5-1.41 29.84 1.44 36.81-2.63A179 179 0 00303.35 271c6.15-5.13 11.92-5.13 10.83.43z" fill="#dd6a57"/><path d="M250 307.12c-2.39.08-10.56-1.21-16.49-3.4-2.87-1.07-10.81-5-10.16-7.27s3.07-1.33 3.07-1.33-3.1-2.16-2.24-4.39 4.58-.63 4.58-.63-3-2.45-2-4.61 4.49.07 4.49.07-2.88-2.12-1.29-3.54c1.91-1.72 6.76 2.78 10 3.8.74.23 15.25 3.62 15.25 3.62z" fill="#dd6a57"/><path d="M231.26 285.55c3.57 3.3 5.71 4.12 10.42 5 .09 0 .09.16 0 .15-4.69-.43-7.52-1.08-10.58-5-.16-.18-.01-.31.16-.15zM228.52 290c4 3.1 6.32 4 11.19 5.28a.07.07 0 010 .13c-4.87-.85-7.68-1.56-11.28-5.19-.2-.14-.09-.35.09-.22zM226.71 295.36c4.11 2.72 6.59 3.84 11.48 4.46a.09.09 0 010 .18 16.35 16.35 0 01-11.53-4.5c-.25-.21-.21-.31.05-.14z" fill="#263238"/><path fill="#ebebeb" d="M200.525 263.614l48.701 6.914-4.986 35.128-48.702-6.914z"/><path fill="#66f28d" d="M208.38 272.102l3.545.504-2.764 19.464-3.544-.503zM213.197 279.962l3.544.503-1.762 12.415-3.545-.503zM219.428 277.898l3.545.504-2.173 15.306-3.545-.503zM224.307 285.336l3.544.504-1.235 8.702-3.545-.503zM230.9 280.775l3.544.503-2.001 14.099-3.544-.504zM237.139 278.874l3.544.503-2.38 16.782-3.544-.503z"/><path d="M206.3 269.58q-.56 5.43-1.22 10.86c-.44 3.61-.89 7.23-1.4 10.83l-.38-.51 9.37 1.29 9.35 1.39c3.12.45 6.23 1 9.34 1.47s6.22 1 9.32 1.61c-3.14-.32-6.27-.66-9.4-1s-6.26-.75-9.38-1.18l-9.37-1.34-9.36-1.36-.45-.07.07-.44c.52-3.61 1.09-7.21 1.67-10.8s1.19-7.17 1.84-10.75z" fill="#c7c7c7"/><path d="M204.87 271.36a5.49 5.49 0 012.32.33 5.49 5.49 0 01-2.32-.33zM204.59 273.35a5.08 5.08 0 011.17 0 5 5 0 011.14.29 5.08 5.08 0 01-1.17 0 5 5 0 01-1.14-.29zM204.3 275.34a5.49 5.49 0 012.32.33 5.06 5.06 0 01-1.17 0 5.24 5.24 0 01-1.15-.33zM204 277.33a5.8 5.8 0 011.18.05 5.13 5.13 0 011.14.28 5.49 5.49 0 01-2.32-.33zM203.74 279.33a5.06 5.06 0 011.17 0 5.24 5.24 0 011.15.29 5.94 5.94 0 01-2.32-.33zM203.46 281.32a5.08 5.08 0 011.17 0 5 5 0 011.14.29 5.08 5.08 0 01-1.17 0 5 5 0 01-1.14-.29zM203.17 283.31a5.49 5.49 0 012.32.33 5.49 5.49 0 01-2.32-.33zM202.89 285.3a5.49 5.49 0 012.32.33 5.49 5.49 0 01-2.32-.33zM202.61 287.3a5.06 5.06 0 011.17 0 5.24 5.24 0 011.15.29 5.77 5.77 0 01-1.18-.05 5 5 0 01-1.14-.24zM202.33 289.29a5.08 5.08 0 011.17 0 5 5 0 011.14.29 5.47 5.47 0 01-2.31-.33zM216.64 270.53c1.29 0 2.57.13 3.85.25s2.55.29 3.82.46 2.54.38 3.8.62 2.52.5 3.77.83c-1.3 0-2.58-.13-3.85-.25s-2.55-.29-3.83-.46-2.53-.38-3.79-.63-2.52-.49-3.77-.82zM219.24 272.7a31.56 31.56 0 019.53 1.35 30.74 30.74 0 01-9.53-1.35zM204.86 295.55l-2.44-.35.34-2.45 2.45.35zm-1.88-.77l1.46.2.2-1.45-1.45-.21zM206.75 293.57c3.9.35 7.77.88 11.64 1.4s7.73 1.14 11.57 1.9c-3.9-.35-7.77-.88-11.64-1.4s-7.73-1.14-11.57-1.9zM206.61 294.55c2.22.12 4.41.38 6.6.68s4.36.67 6.52 1.18c-2.22-.12-4.41-.38-6.59-.68s-4.37-.68-6.53-1.18zM206.48 295.52c2.71.18 5.39.55 8.07.9s5.36.8 8 1.39c-2.71-.18-5.39-.55-8.08-.9s-5.34-.8-7.99-1.39z" fill="#c7c7c7"/><path d="M258.53 287.46a59.84 59.84 0 00-8.46-2.41c-2.72-.35-13.34 2.08-12.94 4.41.51 3 6.91 2.8 10 2.29 0 0 1.17 6.94 5.8 7.79s5.6-12.08 5.6-12.08z" fill="#dd6a57"/><path d="M237.54 290.23c2.44 2.4 6.5 1.47 9.56 1.21a.28.28 0 01.31.34c.69 2.88 2.5 6.73 5.4 7.87a.07.07 0 010 .14c-3.28-.8-5.36-4.44-5.91-7.64-3.15.32-7.26 1.07-9.35-1.89l-.01-.03z" fill="#263238"/><path d="M264.19 286.42l.81 22.32s18.76-1.62 25.79-6.45c8.16-5.61 17.69-17.52 22-24.79s5.08-16.44-7.91-8.31-21.7 14.79-23.81 15.59-16.88 1.64-16.88 1.64z" fill="#ebebeb"/><path fill="#ebebeb" d="M265.85 285.01l1.81 24.75-5.83.82-1.65-25.8 5.67.23z"/><path d="M266 286.89c0-.08-.14-.06-.14 0-.12 5.46 1 17.1 1.36 20.85a.13.13 0 00.25 0c-.06-3.74-1.37-18.94-1.47-20.85z" fill="#263238"/><path d="M301 323.05c1.21 1 50.74 1.58 51 1.24s-13.53-52.86-31.65-59.36c-2.87-1-10.37-.28-11.18.8-6.83 9.05-8.96 56.69-8.17 57.32z" fill="#ebebeb"/><path d="M303.86 283.76c-.15 1.24-.37 2.48-.56 3.72l-.18-1.58c0-.08-.14-.08-.13 0 .06.68.09 1.37.12 2v.85c-.09.84-.18 1.34-.22 2.19 0 .15.07.2.13-.07.17-.85.78-5.44.94-7.16.04-.01-.09-.03-.1.05z" fill="#263238"/><path fill="#66f28d" d="M313.5 277.44l-1.92-3.71-3.14 3.29.83 2.8 2.92.28 1.31-2.66z"/><path fill="#66f28d" d="M312.19 280.1l2.37 32.66-5.8 10.99-2.32-11.31 2.83-32.62 2.92.28z"/><path d="M309.1 265.47l2.78 6.7 8.27-8.61 2.4 2.71s-8 13.62-8.09 13l-2.84-5.77-4 4.08.21-10.13z" fill="#ebebeb"/><path d="M307.48 272.58c.09-1.68.14-3.36.3-5 0-.06.1-.09.12 0 .35 1.61 0 8 0 9.54.17-.17 3.67-3.59 3.71-3.54.61.92 2.7 5.12 2.84 5.5 1.27-2.16 6.66-10.7 8.17-12.75.05-.06.14 0 .1.06-1.11 2.28-8.08 13.54-8.18 13.52a64.82 64.82 0 01-3-6.11 45 45 0 01-4.14 4.35 50.44 50.44 0 01.08-5.57z" fill="#263238"/><path d="M311.85 273c2.75.41 7-4.1 8.61-7.6.1-.24-.45-2.63-1-5.57-.31-1.78-.63-3.78-.78-5.61 0-.38-1.26.42-1.26.42l-2.33.77-7.7 2.59a29.07 29.07 0 011.7 7 3.83 3.83 0 010 .76v.13c-.09 1.42.09 6.73 2.76 7.11z" fill="#dd6a57"/><path d="M309.08 265.73v.13a7 7 0 001.19 0c7.75-.81 7.9-10.77 7.9-10.77l-3.06.39-7.72 2.52a29.07 29.07 0 011.7 7 3.83 3.83 0 01-.01.73z" fill="#263238"/><path d="M318.94 240.45c1.86 3.86 1.51 15.91-1 19-3.6 4.43-10.39 5.84-14.38 1.31s-3.14-20.09-.28-23c4.24-4.22 12.91-3.02 15.66 2.69z" fill="#dd6a57"/><path d="M301.93 242.49c4 2.75 9.49-1.4 9.49-1.4a4.35 4.35 0 004.42 2.76s.78 6.79 2.57 6.78c2.72 0 3.57-9.27 2.71-11.08a4.84 4.84 0 00-3.16-2.29 4.46 4.46 0 00-1.86-2.7c-1.85-1.42-8.28.49-8.28.49a5.94 5.94 0 00-1.64-2.22 1.67 1.67 0 00-2.42.22 4.12 4.12 0 01.65 1.67c.32 2-1.3 2-1.29.18a2.76 2.76 0 01.64-1.85c-.8-1.18-2.11-1.56-2.9-.93-1.44 1.14-2.26 8.09 1.07 10.37zM308.35 249.55s.06 0 .06.07c-.07.81 0 1.74.71 2v.05c-.9-.13-.96-1.37-.77-2.12z" fill="#263238"/><path d="M309.11 248.75c1.3 0 1.27 2.56.07 2.59s-1.18-2.57-.07-2.59zM303.61 249.49s-.06 0-.06.07c0 .81-.1 1.73-.83 2 .9-.08 1.04-1.31.89-2.07z" fill="#263238"/><path d="M302.9 248.64c-1.29-.11-1.42 2.49-.22 2.59s1.32-2.49.22-2.59zM310.15 247.57c-.36-.1-.67-.24-1-.37a1.7 1.7 0 01-.95-.57.55.55 0 01.1-.66 1.37 1.37 0 011.37-.13 2 2 0 011.15.88.59.59 0 01-.67.85zM301.91 247.32a7.53 7.53 0 001-.26 1.69 1.69 0 001-.46.54.54 0 000-.67 1.36 1.36 0 00-1.36-.27 2 2 0 00-1.23.75.59.59 0 00.59.91zM309.12 256.68c-.15.22-.29.51-.57.59a2.22 2.22 0 01-.89 0 1.11 1.11 0 001.09.24.87.87 0 00.49-.82.082.082 0 00-.12-.01z" fill="#263238"/><path d="M308.13 254.35a2.69 2.69 0 01-1.84 1.2 3.64 3.64 0 01-1 0l-.36-.05a.2.2 0 01-.16-.19l.07-1.72c-.23.11-1.39.61-1.37.29a41.68 41.68 0 011.15-8.29.08.08 0 01.15 0c-.08 2.58-.61 5.14-.73 7.73a5 5 0 011.3-.38s-.15 2.11-.14 2.13a3.82 3.82 0 002.85-.85c.07.01.13.07.08.13z" fill="#263238"/><path d="M305.71 255.41a3.2 3.2 0 001.37.92 1.5 1.5 0 00.89 0c.63-.21.61-.8.46-1.3a3.22 3.22 0 00-.34-.75 4.21 4.21 0 01-2.38 1.13z" fill="#263238"/><path d="M307.08 256.33a1.5 1.5 0 00.89 0c.63-.21.61-.8.46-1.3a1.53 1.53 0 00-1.35 1.3z" fill="#ff9cbd"/><path d="M302 253.32c-1.19 0-2.17-1.47-2.17-3.27s1-3.28 2.17-3.28 2.17 1.47 2.17 3.28-1.01 3.27-2.17 3.27zm0-6.11c-.95 0-1.73 1.27-1.73 2.84s.78 2.83 1.73 2.83 1.73-1.27 1.73-2.83-.82-2.84-1.73-2.84zM309.31 253.32a3.28 3.28 0 113.06-3.27 3.17 3.17 0 01-3.06 3.27zm0-6.11a2.84 2.84 0 102.62 2.84 2.73 2.73 0 00-2.62-2.84z" fill="#66f28d"/><path d="M306.39 249.75c-1.64-.58-2.38 0-2.38 0l-.28-.35s.92-.7 2.81 0zM312.15 249.76l-.08-.43c.28-.06 7-1.29 7.7-1.33a8.19 8.19 0 012.75 1.07l-.21.38a8.59 8.59 0 00-2.49-1c-.59.02-5.27.87-7.67 1.31z" fill="#66f28d"/><path d="M317.54 251.16s2.15-4.15 4-3.43.59 6.49-1.34 7.51a2.07 2.07 0 01-2.9-.74z" fill="#dd6a57"/><path d="M321.14 249.37s.05 0 0 0a5.27 5.27 0 00-2.24 3.63 1.15 1.15 0 011.66-.54v.08a1.26 1.26 0 00-1.33.63 5.89 5.89 0 00-.52 1.21c-.05.14-.29.1-.26 0-.3-1.85.77-4.57 2.69-5.01z" fill="#263238"/><path d="M303.27 315.21a137.86 137.86 0 01-14 1.48c-3 .06-8.09.62-10.25 1.67-3.25 1.57-15.82 10.2-13.79 13.29 1.83 2.8 11.69-6 11.69-6s-10.73 8-7.9 10.94 12.64-8.44 12.64-8.44-10.83 8.45-7.43 11.05c2.57 2 12-7.87 12-7.87s-9.27 7.33-6.71 9.46c2.82 2.36 12.13-6.17 12.13-6.17 7.41 4.32 14.32 1.77 18 .63.93-.25-6.38-20.04-6.38-20.04z" fill="#dd6a57"/><path d="M279.81 323.13a42.5 42.5 0 00-10.31 9.77c-.17.25-.3.48-.29.46 2.24-2.22 9.43-9.18 10.64-10.18l-.04-.05zM284.15 327c-4 1.95-7.68 6.26-9.13 7.64-.12.1 0 .13.09 0 1.51-1.32 7.51-6.39 9.07-7.63.03-.01 0-.01-.03-.01zM287.6 330.41a20.84 20.84 0 00-6.5 5.8c-.1.13 0 .13.13 0 2.26-2.08 3.61-3.41 6.43-5.74.04-.01 0-.09-.06-.06z" fill="#263238"/><path d="M322.51 269.69c-1 6 2.61 36.78 2.21 37.89s-25.1 8.89-29.65 10.07c-3.16.82 5.25 18.81 11.32 18.11 9.4-1.07 34.06-7.71 38.13-15.42s-9-36.82-12-42.73-9.16-12.92-10.01-7.92z" fill="#dd6a57"/><path d="M323.57 307.12c1.59-1.6-1.87-24.19-1.74-32.82s2.52-9.05 8.74-.34 17.72 37.5 15.28 44.76-13.31 12.41-33.35 17l-11.09-21.92s20.95-5.47 22.16-6.68z" fill="#ebebeb"/><path d="M322 285.48c0-.09-.15-.08-.14 0 .08.5.28 2.19.51 4.41a5.55 5.55 0 00-.2-.52c-.22-.5-.46-1-.69-1.51a.07.07 0 10-.12.06 10.75 10.75 0 01.64 1.53c.09.26.18.51.26.76s.13.44.22.65c.63 6 1.44 15 1 15.81-.85 1-19.47 6.54-21.44 7.06a.07.07 0 000 .14c2.08-.65 20.06-5.24 21.67-6.71 1.42-1.32-1.51-19.67-1.71-21.68zM346.44 312.37c-.59-5.38-2.82-10.42-4.76-15.42-.59-1.5-1.18-3-1.8-4.49s-1.33-2.95-1.81-4.48a.07.07 0 10-.12 0c.59 1.32 1 2.74 1.48 4.11s.88 2.48 1.33 3.71c.9 2.49 1.86 5 2.75 7.44a46.93 46.93 0 012.14 7.33 17.45 17.45 0 010 7.71c-.73 2.59-2.5 4.49-4.36 6.33-.08.08 0 .24.13.17a13 13 0 004.22-5.14 14.25 14.25 0 00.8-7.27z" fill="#263238"/><path fill="#ebebeb" d="M296.98 313.86l7.08-1.48 10.5 23.93-5.87 2-11.71-24.45z"/><path d="M304.83 314.05c0-.08-.15 0-.12.07 1.73 5.18 7.35 17.49 9 20.9.06.13.27 0 .22-.1-1.35-3.58-8.31-19.12-9.1-20.87zM304.12 312.35c-.1-.05-.18 0-.28 0l-.4.1-.75.18c-.53.13-1.05.28-1.59.36a.07.07 0 100 .14c.51-.15 1-.23 1.56-.35l.75-.17.4-.09c.11 0 .23 0 .3-.12s.03-.04.01-.05z" fill="#263238"/></g><g><path fill="#a6a6a6" d="M135.86 360.21l1.84 11.04 12.46 67.32h2.01l-9.06-67.32-1.34-11.04h-5.91z"/><path fill="#263238" d="M141.77 360.21h-5.91l1.84 11.04h5.41l-1.34-11.04z"/><path fill="#a6a6a6" d="M96.71 438.57h2.01l12.46-67.32 1.85-11.04h-5.92l-1.34 11.04-9.06 67.32z"/><path fill="#263238" d="M107.11 360.21l-1.34 11.04h5.41l1.85-11.04h-5.92z"/><path fill="#a6a6a6" d="M59.32 438.57h2.01l12.46-67.32 1.84-11.04h-5.91l-1.34 11.04-9.06 67.32z"/><path fill="#263238" d="M68.38 371.25h5.41l1.84-11.04h-5.91l-1.34 11.04z"/><path fill="#a6a6a6" d="M62.5 365.39h91.35v-9.62h-34.19l-11.5-66.87H65.99l-3.49 76.49z"/><path fill="#dbdbdb" d="M62.5 365.39h4.98l3.25-76.49h-4.74l-3.49 76.49z"/><path d="M101.52 236.45c-4.9 3.33-11 32.69-13.09 35.82-1.51 2.22-3.4 4.44-3.31 5.68s5.37 7.39 15.37 9.33 19.86-2.84 20.86-4.1-1.64-5.57-1.54-9.46 3.56-25.11 1.44-31.44c-2.4-7.17-13.09-10.36-19.73-5.83z" fill="#263238"/><path d="M122.05 282a18.64 18.64 0 01-1.5-8c0-3.1.45-6.2.79-9.28.36-3.25.73-6.49 1.08-9.74a30.1 30.1 0 00.19-8.63 15.88 15.88 0 00-3.54-7.52s-.07 0 0 0a17 17 0 013.29 7.52c.52 3.06 0 6.2-.33 9.26s-.71 6.38-1.06 9.56c-.32 2.93-.68 5.88-.71 8.83 0 2.72.24 5.74 1.68 8.08 0 .07.15-.01.11-.08zM102.38 236.26c-2.55 1.38-3.8 4.13-4.82 6.76-1.38 3.59-2.65 7.22-3.84 10.87s-2.26 7.6-3.46 11.37a39.77 39.77 0 01-5.21 10.3c0 .08 0 .17.1.1 4.76-5.57 6.23-13.1 8.41-19.91q1.8-5.67 3.81-11.26c1.08-3 2.2-6.44 5-8.17.09-.03.05-.09.01-.06z" fill="#263238"/><path d="M104.72 235.22c-5.35 2.1-7.46 8.08-9.18 13.18-2.05 6.07-3.53 12.31-5.33 18.45-1 3.46-1.93 7.22-4.18 10.1-.06.09.06.2.13.11a20.43 20.43 0 003.44-7.15c1-3 1.83-6.12 2.68-9.2 1.68-6.1 3.22-12.4 5.85-18.17 1.39-3 3.46-6 6.61-7.26.04-.01.02-.07-.02-.06z" fill="#263238"/><path d="M168.24 352c-2.15 4.8-4.87 10.06-7.83 15.38-11.12 20.06-25.55 41-25.55 41l-26-12.8s8.92-16.17 15.86-30c1.15-2.3 2.25-4.54 3.25-6.62 3.15-6.62 5.23-11.71 4.6-12.52-2.17-2.8-29 .41-40.37-10.84-12-11.92-2.83-28.88-2.83-28.88h31.32s.49 4 1.84 5.07c.89.74 4.28 1.85 8.93 3.28 8.66 2.65 21.68 6.38 30.92 10.78 4.39 2.09 7.93 4.33 9.75 6.68 2.27 2.93.22 10.36-3.89 19.47z" fill="#eb9481"/><path d="M147.33 438.06c-1.77-.24-46.26-22.44-47.39-24.3-.14-.22 1.78-4.28 4.51-9.81 6.15-12.51 18.45-33.66 18.45-33.66l26.78 15-14.74 27.93s4.95 6 9 11.08a71.14 71.14 0 015 6.75c.97 2.24.15 7.26-1.61 7.01z" fill="#eb9481"/><path d="M147.33 438.06c-1.77-.24-46.26-22.44-47.39-24.3-.14-.22 1.78-4.28 4.51-9.81 9.88 7.79 37.48 26 39.46 24.05.78-.76.59-2.15 0-3.64a71.14 71.14 0 015 6.75c1 2.18.18 7.2-1.58 6.95z" fill="#37474f"/><path d="M168.24 352c-2.15 4.8-4.87 10.06-7.83 15.38l-35.69-1.81c1.15-2.3 2.25-4.54 3.25-6.62 3.15-6.62 5.23-11.71 4.6-12.52-2.17-2.8-29 .41-40.37-10.84-12-11.92-2.83-28.88-2.83-28.88h31.32s.49 4 1.84 5.07c.89.74 4.28 1.85 8.93 3.28z" fill="#263238"/><path d="M162.38 325.84c-3 2.32-5 7.29-5 7.29-19.28 6.54-24.18 14.11-24.81 13.3-2.17-2.8-29 .41-40.37-10.84-12-11.92-2.83-28.88-2.83-28.88h31.32s.49 4 1.84 5.07c2.55 2.12 25.64 7.3 39.85 14.06z" fill="#37474f"/><path d="M203.11 442.46c-1.72.45-51.31-3.08-53.07-4.38-.21-.15 0-4.63.42-10.78.91-13.91 2.77-36.36 2.77-36.36l31.94 1.89-3 31.44s6.86 3.65 12.51 6.82a70.57 70.57 0 017.18 4.33c1.82 1.63 2.98 6.58 1.25 7.04z" fill="#eb9481"/><path d="M203.11 442.46c-1.72.45-51.31-3.08-53.07-4.38-.21-.15 0-4.63.42-10.78 12.11 3.42 44.55 9.68 45.65 7.16.44-1-.27-2.22-1.38-3.36a70.57 70.57 0 017.18 4.33c1.77 1.62 2.93 6.57 1.2 7.03z" fill="#37474f"/><path d="M182.77 418.26L151.28 417s3.94-48.62.89-51.88c-1.54-1.65-11.87-3.49-24.2-6.19h-.07c-4.56-1-9.39-2.12-14.15-3.4-12.38-3.3-24.29-7.65-29.71-13.65-11.34-12.54 0-35.19 0-35.19h32s.79 9.86-1.65 15.9c0 0 23.51 3.45 43.31 9.87 11.21 3.64 21.24 8.24 25.12 13.71 7.54 10.72-.05 72.09-.05 72.09z" fill="#eb9481"/><path d="M157.66 332.48C141.17 338.54 128 359 128 359h-.07l-14.15-3.4c-12.38-3.3-24.29-7.65-29.71-13.65-11.34-12.54 0-35.19 0-35.19h32s.79 9.86-1.65 15.9c-.07-.05 23.44 3.4 43.24 9.82z" fill="#37474f"/><path d="M173 338.5a116.84 116.84 0 00-11.18-4.76 109.72 109.72 0 00-11.33-3.62c-2.22-.58-4.47-1.05-6.72-1.49a.07.07 0 000 .13c7.92 1.57 15.46 4.73 23 7.61 2.06.79 4.13 1.62 6.22 2.31.01.04.07-.13.01-.18zM153.48 369.87a10.37 10.37 0 00-.92-4.27 3.86 3.86 0 00-2.67-1.62c-.1 0-.11.1 0 .14a3.76 3.76 0 012.47 2.26 32.14 32.14 0 01.49 4.7 74.32 74.32 0 01.29 8.7c0 .18.26.17.27 0a68.15 68.15 0 00.07-9.91z" fill="#263238"/><path d="M111.14 305.89c2.89 3.15 7.36 6 12.09 8.35 5.56 2.78 18.23 8.63 19.2 8.95 2.42.78 11-15.67 9.73-18.09-.29-.55-28.28-9.72-29-10.8s-3.55-8.8-7.62-19.49c-2.71-7.13-8.27-11.27-8.94-1.61-.44 7.05.94 28.8 4.54 32.69z" fill="#eb9481"/><path d="M137.5 320.58a65.34 65.34 0 007 4.92c2 1.09 7.74 4.07 9.16 2 1-1.4-2.22-3.55-4.44-5.13-1.17-.83-2.46-2.53-1.89-3.28 1-1.3 4 .91 5.88 2.67 3.67 3.4 8.3 9.09 11.37 7.53 1.15-.59.35-2.32-1-4.14 2.31 2.29 4.87 4.32 6.18 3.71a1.46 1.46 0 00.75-1.85 1.9 1.9 0 002.14.14c1.08-.71 1-2.16.32-3.76a1 1 0 00.91-.34c2.48-2.4-4.95-12.59-8-14.07a73.33 73.33 0 00-19.13-5.81c-4.31 2.15-9.25 17.41-9.25 17.41z" fill="#eb9481"/><path d="M155.13 317.11c3.5 1.87 6 4.19 8.71 8.37 0 .08.19 0 .14-.07-2.3-4.33-4.06-6.25-8.76-8.53-.22-.11-.31.12-.09.23zM159.1 313.8c6.09 3.7 8.32 8.87 11.4 13.21a.05.05 0 10.08-.06c-2.66-4.45-4.14-9.23-11.31-13.36-.21-.12-.37.09-.17.21zM163.3 311.25c4.82 3 6.91 7.46 9.48 11.89a.09.09 0 00.17-.08c-2.18-4.78-4.45-9.41-9.55-11.93-.29-.13-.4-.05-.1.12z" fill="#263238"/><path d="M148.16 301.42l-10.28 20.08-.38.74s-23.82-10.93-27.25-16.6c0-.1-.11-.19-.15-.28-1-2.05-1.84-5.86-2.45-10.29a189.12 189.12 0 01-1.51-22.79c0-8.69 6-5.31 8.51 0s8.22 21.1 8.95 21.83 24.56 7.31 24.56 7.31z" fill="#66f28d"/><path d="M134 320a.1.1 0 01-.19-.06 10.62 10.62 0 01.93-2.42c.37-.85.74-1.7 1.12-2.55.72-1.64 1.47-3.25 2.23-4.87s1.56-3.3 2.37-4.93 1.72-3.23 2.52-4.87c.05-.09.17 0 .12.06-.84 1.68-1.55 3.43-2.34 5.14s-1.51 3.23-2.26 4.85-1.51 3.32-2.27 5c-.36.78-.72 1.56-1.07 2.34A10.86 10.86 0 01134 320zm12.32-17.83a3 3 0 00-.64-.33l-.66-.27c-.45-.18-.91-.34-1.35-.52-.08 0-.13.09 0 .12.44.2.87.43 1.3.64l.65.31a3.15 3.15 0 00.67.24.11.11 0 00-.01-.19zm-1.75 3.68a3 3 0 00-.64-.33l-.66-.26c-.45-.18-.9-.34-1.35-.53a.07.07 0 000 .13c.44.2.87.43 1.31.64.21.1.42.21.64.3a2.45 2.45 0 00.67.24.11.11 0 00-.01-.19zm-1.75 3.69a2.76 2.76 0 00-.64-.33c-.21-.1-.43-.18-.65-.27-.45-.17-.91-.33-1.35-.52-.08 0-.13.09 0 .13.44.2.87.42 1.3.64.21.1.43.21.65.3a2.55 2.55 0 00.67.24c.02.02.06-.13-.02-.19zm-1.82 3.69a3 3 0 00-.64-.33l-.66-.27c-.45-.18-.91-.34-1.35-.52-.08 0-.13.09 0 .12.44.2.87.43 1.3.64l.65.31a3.15 3.15 0 00.67.24.11.11 0 00.03-.19zm-1.75 3.68a2.56 2.56 0 00-.64-.32l-.66-.27c-.45-.18-.9-.34-1.35-.53a.07.07 0 000 .13c.44.2.87.43 1.31.64.21.1.42.21.64.3a2.87 2.87 0 00.67.25.11.11 0 00.07-.2zm-1.75 3.69a2.76 2.76 0 00-.64-.33c-.21-.1-.43-.18-.65-.27-.45-.17-.91-.33-1.35-.52a.07.07 0 00-.05.13c.44.2.87.43 1.3.64.21.1.43.21.65.3a2.55 2.55 0 00.67.24c.15.02.19-.12.11-.19z" fill="#263238"/><path d="M111.18 306.92a4 4 0 01-.25-1.42 3.9 3.9 0 01.25-1.42 3.7 3.7 0 01.25 1.42 3.77 3.77 0 01-.25 1.42zM121.94 306.05a3.94 3.94 0 011.42-.25 3.74 3.74 0 011.42.25 3.74 3.74 0 01-1.42.25 3.94 3.94 0 01-1.42-.25zM118 287.73a4.16 4.16 0 012.84 0 4.16 4.16 0 01-2.84 0zM128.12 311.92a4.19 4.19 0 012.85 0 4.19 4.19 0 01-2.85 0zM111.94 294.38a4 4 0 01-1.18-.83 3.86 3.86 0 01-.83-1.18 3.67 3.67 0 011.18.82 3.91 3.91 0 01.83 1.19zM132.77 317.46a4.2 4.2 0 012 2 4.09 4.09 0 01-2-2zM130.31 299.19a4.09 4.09 0 011.19.83 3.84 3.84 0 01.82 1.18 3.67 3.67 0 01-1.18-.82 3.91 3.91 0 01-.83-1.19zM120.38 297.59a4.09 4.09 0 01-2 2 4.2 4.2 0 012-2zM139.43 305.61a4.2 4.2 0 01-2 2 3.59 3.59 0 01.83-1.18 3.7 3.7 0 011.17-.82z" fill="#fff"/><path d="M118 287.73a4.16 4.16 0 012.84 0 4.16 4.16 0 01-2.84 0zM114.66 274a4.2 4.2 0 01-2-2 4.2 4.2 0 012 2zM115.31 280.11a3.86 3.86 0 01-.83 1.18 3.75 3.75 0 01-1.18.83 4.2 4.2 0 012-2z" fill="#fff"/><path d="M137.88 321.5l-.38.74s-23.82-10.93-27.25-16.6c0-.1-.11-.19-.15-.28-1-2.05-1.84-5.86-2.45-10.29z" fill="#263238"/><path d="M102.55 267.23c.15.79 3.62 6 7.17 6 1.16 0 1.41-6.31 1.41-6.31l.13-.46L113 260l-7.45-5.26-1.08-.7s-.36 1.8-.79 4.05c0 .1 0 .2-.06.32s-.06.24-.08.36c-.06.33-.13.68-.19 1s-.1.51-.14.79-.09.54-.13.81a42.23 42.23 0 00-.53 5.86z" fill="#eb9481"/><path d="M103.69 258.05a13.45 13.45 0 007.57 8.38L113 260l-7.45-5.26-1.08-.7s-.35 1.76-.78 4.01z" fill="#263238"/><path d="M122.36 249.93c.55 11.74-6.42 13.39-9 13.5-2.3.1-10.14.17-11.89-11.45s3.53-15.58 8.77-16.1 11.58 2.31 12.12 14.05z" fill="#eb9481"/><path d="M120.61 248c-.28 0-.53-.1-.8-.15a1.31 1.31 0 01-.78-.31.42.42 0 010-.51 1 1 0 011-.26 1.52 1.52 0 011 .51.45.45 0 01-.42.72zM112.5 247.8a7.55 7.55 0 00.79-.19 1.29 1.29 0 00.77-.34.42.42 0 000-.51 1 1 0 00-1-.22 1.51 1.51 0 00-.94.56.45.45 0 00.38.7zM114.49 251s-.06 0-.06.07c.06.8 0 1.72-.71 2 .89-.07.95-1.34.77-2.07z" fill="#263238"/><path d="M113.73 250.19c-1.29 0-1.26 2.54-.07 2.58s1.15-2.55.07-2.58z" fill="#263238"/><path d="M113.23 250.33c-.23.14-.45.4-.72.43s-.55-.23-.76-.49c0 .5.19 1 .72 1.07s.83-.38.95-.88c-.02-.06-.1-.19-.19-.13zM118.93 250.78s.07 0 .06.07c0 .8.09 1.72.81 2-.89-.09-1.02-1.32-.87-2.07z" fill="#263238"/><path d="M119.65 249.94c1.28-.1 1.39 2.48.19 2.58s-1.27-2.52-.19-2.58z" fill="#263238"/><path d="M120.19 250.09c.21.13.42.37.67.38s.48-.28.65-.56c0 .49-.11 1-.58 1.12s-.76-.3-.9-.79c-.03-.06.08-.24.16-.15zM114.45 257.55c.19.2.37.46.66.5a2.16 2.16 0 00.86-.17 1.08 1.08 0 01-1 .4.87.87 0 01-.61-.73s.06-.02.09 0zM117.74 254.59s.19 1.2.2 1.76c0 0-.14.08-.33.09a2.69 2.69 0 01-2.62-.95.06.06 0 01.08-.08 4.06 4.06 0 002.46.65c0-.16-.39-2-.3-2a5 5 0 011.28.27c-.32-2.5-1-4.92-1.32-7.41 0-.08.12-.11.14 0a40.42 40.42 0 011.77 7.92c.03.25-1.1-.15-1.36-.25z" fill="#263238"/><path d="M102.35 251.64c1.14-.26 1.75-3.47 1.75-3.47a15.16 15.16 0 008.34-3.52 22.42 22.42 0 003.73-4.57 22.78 22.78 0 002.73 3.75 26.89 26.89 0 003.1 2.77s.16-5.14-1.53-7.1c-2.46-2.86-7.25-6.19-13.67-3.27 0 0-4.7 2-5.91 5.87s-.09 9.9 1.46 9.54z" fill="#263238"/><path d="M103.42 251.91s-2.42-3.76-4.11-2.91 0 6.24 1.93 7.05a2 2 0 002.71-1z" fill="#eb9481"/><path d="M99.84 250.53v.05a5 5 0 012.46 3.24 1.09 1.09 0 00-1.62-.36v.07a1.23 1.23 0 011.32.47 6.6 6.6 0 01.6 1.11c.06.13.28.07.24-.07.16-1.77-1.14-4.26-3-4.51z" fill="#263238"/><path d="M102.22 255.4a1.57 1.57 0 00-.59 3.08 1.57 1.57 0 00.59-3.08z" fill="#fff"/><path d="M124 310.92c-.85 1.79-12.78 6.47-25.87 5.71A68.21 68.21 0 0179.9 313s8.76-31.46 10.69-35.27a29.86 29.86 0 016.8-9.14 15.18 15.18 0 013.08-2.08c.7-1.05.67-4.26 1.17-4.44s10.34 3.76 10.47 4a15.25 15.25 0 010 2.87c.66.66 10.28 13.4 10.87 17.39.69 4.7-2.39 9.19-2.39 9.19z" fill="#66f28d"/><path d="M111.18 306.92a4 4 0 01-.25-1.42 3.9 3.9 0 01.25-1.42 3.7 3.7 0 01.25 1.42 3.77 3.77 0 01-.25 1.42zM105.7 287a4.16 4.16 0 010-2.84 4.16 4.16 0 010 2.84zM93.74 279.94a4.19 4.19 0 010-2.85 4.19 4.19 0 010 2.85zM92.63 303a4.16 4.16 0 010-2.84 4.16 4.16 0 010 2.84zM100.64 299.19a3.74 3.74 0 011.42-.25 3.55 3.55 0 011.42.25 4.16 4.16 0 01-2.84 0zM90.55 287.4a4.19 4.19 0 012.85 0 4.19 4.19 0 01-2.85 0zM104.27 273.2a4.19 4.19 0 012.85 0 4.19 4.19 0 01-2.85 0zM89.45 311.92a4.16 4.16 0 012.84 0 4.16 4.16 0 01-2.84 0zM118 287.73a4.16 4.16 0 012.84 0 4.16 4.16 0 01-2.84 0zM109 314.22a4.19 4.19 0 012.85 0 3.77 3.77 0 01-1.42.25 4 4 0 01-1.43-.25zM101.05 309.91a3.91 3.91 0 011.19.83 3.84 3.84 0 01.82 1.18 3.7 3.7 0 01-1.18-.83 3.75 3.75 0 01-.83-1.18zM88.26 296.07a3.91 3.91 0 01-1.19-.83 3.84 3.84 0 01-.82-1.18 4.2 4.2 0 012 2zM111.94 294.38a4 4 0 01-1.18-.83 3.86 3.86 0 01-.83-1.18 3.67 3.67 0 011.18.82 3.91 3.91 0 01.83 1.19zM114.66 274a4.2 4.2 0 01-2-2 4.2 4.2 0 012 2zM101.64 281.12a4.2 4.2 0 01-2-2 4 4 0 012 2zM117.87 310.54a3.75 3.75 0 011.18.83 3.7 3.7 0 01.83 1.18 4.2 4.2 0 01-2-2zM120.38 297.59a4.09 4.09 0 01-2 2 4.2 4.2 0 012-2zM99.36 291.8a4.18 4.18 0 01-.83 1.18 3.79 3.79 0 01-1.19.83 4.06 4.06 0 012-2zM84.6 305.61a4.2 4.2 0 01-2 2 3.59 3.59 0 01.83-1.18 3.7 3.7 0 011.17-.82zM115.31 280.11a3.86 3.86 0 01-.83 1.18 3.75 3.75 0 01-1.18.83 4.2 4.2 0 012-2zM99.81 269a3.91 3.91 0 01-.83 1.19 3.84 3.84 0 01-1.18.82 4.2 4.2 0 012-2z" fill="#fff"/><path d="M93.43 276.72c2.09 12.18 24.39 34.58 31.38 34.81 11.5.37 29.62-8 34.79-11 2.23-1.32-5.08-20.07-7.76-19.35-3.21.86-26.32 13.1-27.5 11.88-.67-.69-12.07-10.34-18.76-16-9.3-7.88-12.86-4.52-12.15-.34z" fill="#eb9481"/><path d="M148.58 283.66s6.21-4.84 10.43-7.82c2.35-1.66 6.64-4.15 8.92-4.58 3.42-.65 18.13-1.16 18.33 2.41.18 3.22-12.51 2.06-12.51 2.06s12.91 0 12.42 4-14.67.69-14.67.69 13.27.35 12.12 4.31c-.87 3-13.87.8-13.87.8s11.4.38 10.64 3.5c-.84 3.45-13 2.17-13 2.17-3.28 7.61-8 9.89-11.46 11.12-.81.27-7.35-18.66-7.35-18.66z" fill="#eb9481"/><path d="M169.28 275.42c1.52-.05 3.06-.11 4.57 0s3 .22 4.54.45a26.14 26.14 0 015.75 1.43 56.78 56.78 0 00-10.33-1.47c-1.51-.08-3-.24-4.53-.33-.04-.02-.03-.08 0-.08zM168.88 280.89c1.94 0 3.86 0 5.8.08s3.75.37 5.67.61c.15 0 .09.09-.06.08-1.92-.16-3.72-.16-5.64-.3s-3.85-.35-5.78-.42c-.03 0-.02-.05.01-.05zM167.68 285.52a43.31 43.31 0 018.87.8c.15 0 .06.11-.09.09-2.94-.32-5.25-.59-8.77-.78a.06.06 0 01-.01-.11z" fill="#263238"/><path d="M148.37 280.82l10.35 21.46s-21.4 11.38-34.52 10.15-26.61-20.61-30.14-31.33 2.76-12.67 9.89-7 19.7 16.29 20.6 16.37 23.82-9.65 23.82-9.65z" fill="#66f28d"/><path d="M111.18 306.92a4 4 0 01-.25-1.42 3.9 3.9 0 01.25-1.42 3.7 3.7 0 01.25 1.42 3.77 3.77 0 01-.25 1.42zM105.7 287a4.16 4.16 0 010-2.84 4.16 4.16 0 010 2.84zM93.74 279.94a4.19 4.19 0 010-2.85 4.19 4.19 0 010 2.85zM149.06 296.49a4.19 4.19 0 010-2.85 4.19 4.19 0 010 2.85zM121.94 306.05a3.94 3.94 0 011.42-.25 3.74 3.74 0 011.42.25 3.74 3.74 0 01-1.42.25 3.94 3.94 0 01-1.42-.25zM147.64 303.23a4.16 4.16 0 012.84 0 4.16 4.16 0 01-2.84 0zM118 287.73a4.16 4.16 0 012.84 0 4.16 4.16 0 01-2.84 0zM109 314.22a4.19 4.19 0 012.85 0 3.77 3.77 0 01-1.42.25 4 4 0 01-1.43-.25zM145 287.38a4.09 4.09 0 01-1.19-.83 3.84 3.84 0 01-.82-1.18 3.67 3.67 0 011.18.82 3.91 3.91 0 01.83 1.19zM111.94 294.38a4 4 0 01-1.18-.83 3.86 3.86 0 01-.83-1.18 3.67 3.67 0 011.18.82 3.91 3.91 0 01.83 1.19zM130.31 299.19a4.09 4.09 0 011.19.83 3.84 3.84 0 01.82 1.18 3.67 3.67 0 01-1.18-.82 3.91 3.91 0 01-.83-1.19zM101.64 281.12a4.2 4.2 0 01-2-2 4 4 0 012 2zM120.38 297.59a4.09 4.09 0 01-2 2 4.2 4.2 0 012-2zM134.33 290a3.84 3.84 0 01-.82 1.18 3.91 3.91 0 01-1.19.83 4.2 4.2 0 012-2zM141.34 296.91a3.86 3.86 0 01-.83 1.18 3.7 3.7 0 01-1.18.83 3.7 3.7 0 01.83-1.18 3.86 3.86 0 011.18-.83zM139.43 305.61a4.2 4.2 0 01-2 2 3.59 3.59 0 01.83-1.18 3.7 3.7 0 011.17-.82z" fill="#fff"/><path d="M122.47 312.42a18.81 18.81 0 01-6.92-2.63 45 45 0 01-10.43-9.22 68.749 68.749 0 01-3.39-4.22l-.16-.12-.57-.42c-.38-.27-.74-.58-1.1-.88-.73-.63-1.41-1.32-2.14-2-.07-.06 0-.16.09-.1.71.66 1.48 1.21 2.24 1.8l.9.68c-.12-.16-.25-.32-.36-.48-1.42-2-2.66-4.13-3.95-6.23 0-.07.08-.14.12-.07a60.68 60.68 0 004.67 6.58 86.21 86.21 0 009.59 10.44 26.54 26.54 0 0011.46 6.64c.12.07.07.25-.05.23zm.41-23.07q-3-2.57-6-5c-.73-.59-1.47-1.16-2.2-1.73l-.26-.33c-.19-.22-.41-.44-.61-.65a16.73 16.73 0 01-1.29-1.38c-.06-.08-.18 0-.11.08a16.22 16.22 0 011.2 1.43l.06.07c-1-.77-2-1.52-3.08-2.26-.08-.05-.16.05-.08.11 2.11 1.64 4.08 3.39 6.15 5l6.08 4.84c.08.13.26-.06.14-.18zm30.62 11.22c-.39-.77-.76-1.54-1.14-2.31-.8-1.64-1.62-3.27-2.42-4.9l-2.34-4.82c-.82-1.69-1.73-3.35-2.5-5.06a.07.07 0 10-.12.06c.76 1.65 1.42 3.36 2.18 5s1.53 3.3 2.32 4.95 1.56 3.21 2.37 4.8l1.27 2.48a11.13 11.13 0 001.29 2.25c.07.08.19 0 .17-.11a11.24 11.24 0 00-1.08-2.34zm-5-18.44a2.6 2.6 0 00-.66.29c-.21.1-.42.22-.62.34-.42.23-.84.49-1.26.71-.08 0 0 .16.07.12.43-.21.88-.4 1.31-.6l.65-.31a2.92 2.92 0 00.61-.37.11.11 0 00-.07-.18zm1.75 3.68a2.69 2.69 0 00-.65.29l-.63.34c-.42.24-.83.49-1.26.71a.07.07 0 00.07.12c.43-.21.88-.4 1.32-.6l.64-.31a2.68 2.68 0 00.61-.37c.12-.07.03-.2-.07-.18zm1.76 3.68a2.6 2.6 0 00-.66.29l-.62.34c-.42.24-.84.49-1.26.72-.08 0 0 .16.07.12.43-.22.88-.41 1.31-.61l.65-.31a2.55 2.55 0 00.61-.37c.11-.07.03-.2-.11-.18zm1.75 3.69a3.11 3.11 0 00-.65.28c-.22.11-.42.23-.63.35-.42.23-.83.48-1.26.71a.07.07 0 00.07.12c.43-.22.88-.4 1.32-.61l.64-.31a2.65 2.65 0 00.61-.36.11.11 0 00-.07-.18zm1.76 3.68a2.76 2.76 0 00-.66.29c-.21.1-.42.22-.62.34-.42.23-.83.49-1.26.71-.08 0 0 .16.07.12.43-.21.88-.4 1.32-.6l.64-.31a2.92 2.92 0 00.61-.37.11.11 0 00-.07-.18zm1.76 3.68a2.6 2.6 0 00-.66.29l-.63.34c-.42.24-.83.49-1.25.72-.08 0 0 .15.06.12.44-.22.88-.41 1.32-.61l.64-.31a2.75 2.75 0 00.62-.37c.11-.07.03-.2-.07-.18zm-11.63 7.64c-.79.21-1.55.54-2.33.79s-1.56.51-2.34.75q-2.4.72-4.86 1.26c-1.6.35-3.21.66-4.82.95a39 39 0 01-5.17.6c-.09 0-.08.13 0 .13a37.75 37.75 0 005.12-.32 44.67 44.67 0 004.88-.93c1.66-.41 3.31-.87 4.93-1.39.79-.25 1.56-.51 2.33-.8a18.38 18.38 0 002.3-.92.07.07 0 00-.01-.12z" fill="#263238"/></g><g><path fill="#37474f" d="M103.43 345.01l-.15 11.41-1.59 86.9H99.9l-1.59-86.9-.14-11.41h5.26z"/><path fill="#263238" d="M98.17 345.01h5.26l-.15 11.41h-4.97l-.14-11.41z"/><path fill="#37474f" d="M339.69 345.01l-.14 11.41-1.59 86.9h-1.79l-1.59-86.9-.15-11.41h5.26z"/><path fill="#263238" d="M339.69 345.01l-.14 11.41h-4.97l-.15-11.41h5.26z"/><path fill="#37474f" d="M85.18 345.01l-.15 11.41-1.59 86.9h-1.78l-1.6-86.9-.14-11.41h5.26z"/><path fill="#263238" d="M79.92 345.01h5.26l-.15 11.41h-4.97l-.14-11.41z"/><path fill="#37474f" d="M321.44 345.01l-.14 11.41-1.59 86.9h-1.79l-1.59-86.9-.15-11.41h5.26z"/><path fill="#263238" d="M316.18 345.01h5.26l-.14 11.41h-4.97l-.15-11.41z"/><path fill="#263238" d="M63.71 338.02h289.58v9.68H63.71z"/></g><g><path fill="#455a64" d="M176.9 338.02h44.56l3.45-30.26h-44.56l-3.45 30.26z"/><path fill="#fff" d="M179.33 335.99h40.17l2.98-26.2h-40.16l-2.99 26.2z"/><path fill="#455a64" d="M151.71 335.97h45.72v2.05h-45.72z"/><path fill="#37474f" d="M151.71 335.97h23.01v2.05h-23.01z"/><path fill="#66f28d" d="M216.07 331.16l.12-.99-7.17-10.31-4.77 7.96-3.55-4.77-1.27 1.2-5.78-7.26-3.18 3.71-3.24-3.08-.45.48 3.74 3.55 3.11-3.63 5.73 7.21 1.26-1.19 3.69 4.97 4.75-7.94 7.01 10.09z"/><path fill="#66f28d" d="M186.55 318.74l-.54-1.83 1.86.45-1.32 1.38z"/><path fill="#c7c7c7" d="M183.6 333.52h32.33l2.41-21.13-.25-.02-2.38 20.9H183.6v.25z"/><path fill="#c7c7c7" d="M217.38 313.34h1.42v.25h-1.42zM217.22 314.68h1.41v.25h-1.41zM217.08 316.02h1.42v.25h-1.42zM216.93 317.36h1.41v.25h-1.41zM216.76 318.7h1.42v.25h-1.42zM216.62 320.04h1.42v.25h-1.42zM216.47 321.38h1.42v.25h-1.42zM216.34 322.71h1.42v.25h-1.42zM216.17 324.05h1.42v.25h-1.42zM216.03 325.39h1.42v.25h-1.42zM215.86 326.73h1.42v.25h-1.42zM215.7 328.07h1.42v.25h-1.42zM215.55 329.41h1.42v.25h-1.42zM215.42 330.75h1.42v.25h-1.42zM215.22 332.09h1.42v.25h-1.42z"/></g><g><path d="M79.71 387.27c-9.62 13-19.65 28.15-22.1 44.49a.22.22 0 00.43.08 96.94 96.94 0 014.25-13.08c6.33-1.74 12.53-3.17 15.85-9.45 3.39-6.45 3-14.87 2.32-21.89-.05-.42-.56-.42-.75-.15z" fill="#66f28d"/><path d="M62.39 418.64c4.32-9.7 9.87-19.44 16.92-27.41 0-.06.12 0 .08.07-4.62 5.68-8.13 11.87-11.56 18.16 3.19-3.23 6.68-6.13 9.7-9.56.06-.06.15 0 .09.1-3 3.59-6.26 7.5-10.17 10.16q-1.56 2.89-3.17 5.81c.26-.15.53-.28.8-.41v.07c-.29.15-.59.31-.9.44-.5.91-1 1.83-1.53 2.74-.07.19-.35.03-.26-.17zM65.6 415.25a56.21 56.21 0 007.4-4.93c.06-.05.15 0 .09.09a38.82 38.82 0 01-7.37 5c-.13.08-.24-.09-.12-.16z" fill="#263238"/><path d="M56.5 429.33c0 .2.36.19.35 0 0-5.38 0-10.78.09-16.19 1.38-2.78 4.34-4.32 6.39-6.55a28.61 28.61 0 003.84-5.34 38.43 38.43 0 004.45-14.84c.57-5.76-1.61-24.75-4-24.09-1.26.34-5.33 9.75-6.41 12.86a89.67 89.67 0 00-3.83 15.76c-2.01 12.65-1.84 25.65-.88 38.39z" fill="#66f28d"/><path d="M56.46 406.12c.29-6.81 1.83-13.69 3.26-20.29 1.55-7.11 3.36-13.81 7-20.15.06-.12.24 0 .18.1a75.35 75.35 0 00-5.64 15.47c.25-.38.55-.74.8-1.11.1-.14.34 0 .24.14a10.31 10.31 0 01-1.15 1.62c-1.25 5.1-2.15 10.28-2.93 15.47.06-.06.11-.14.17-.2a.05.05 0 01.08.06l-.31.52c-.39 2.63-.75 5.26-1.12 7.86 4.69-4 8.7-8.73 11-14.55-2.21 6-5.7 11.41-11.07 15.07l-.3 2.1c0 .15-.25.11-.25 0 0-.62 0-1.24.06-1.87a.14.14 0 01-.02-.24z" fill="#263238"/><path d="M58.67 396.25a108.24 108.24 0 009.55-16.45c0-.06.14 0 .12.05a53.14 53.14 0 01-9.49 16.54c-.09.1-.25-.03-.18-.14zM63.43 378.48c1.49-2.62 3.05-5.18 4.45-7.86 0-.07.14 0 .11.07a40.67 40.67 0 01-4.33 7.93.14.14 0 01-.23-.14zM62.85 379.63z" fill="#263238"/><path d="M52.86 413.77a54.72 54.72 0 01-1.26 10.6c.06.38.11.76.17 1.16a50.44 50.44 0 001.89-11.82.33.33 0 000-.36 78.21 78.21 0 00-1.19-16c-1.66-9.89-5.3-19.38-12.2-26.79a.49.49 0 00-.76.16c-2.78 7.07-1.81 15.51.56 22.57A41.17 41.17 0 0045.56 404c2.36 3.32 5.38 6.14 7.3 9.77z" fill="#66f28d"/><path d="M41.11 373.85c6.53 10.61 11.08 23.18 11.64 35.71 0 .22-.37.28-.4.06-.15-1.13-.33-2.25-.51-3.36a42.59 42.59 0 01-7.41-8.56.06.06 0 01.09-.07 90.62 90.62 0 007.2 7.84c-.47-2.77-1-5.5-1.68-8.18l-.51-.61c-.12-.13.07-.33.19-.2l.16.18a95.48 95.48 0 00-3.42-10.85c-1.66-2-3.52-3.7-4.74-6.09a.05.05 0 01.09-.05c1 1.37 1.92 2.74 3 4 .44.51.93 1 1.38 1.47A82.4 82.4 0 0040.85 374a.15.15 0 01.26-.15z" fill="#263238"/><path d="M42.43 386.93c2.11 2.85 4.52 5.56 6.48 8.5.06.08-.07.17-.14.1a43.4 43.4 0 01-6.48-8.53c-.06-.07.08-.15.14-.07zM49.21 396.09l.09.09c.06.06 0 .16-.1.09l-.09-.09a.07.07 0 11.1-.09z" fill="#263238"/><path d="M30.87 394.24a32.47 32.47 0 006.89 16.18 17.14 17.14 0 005.6 4.36c2.42 1.2 5 2.58 7.46 3.57a48.76 48.76 0 012.64 9.38l.24-.83c-1.6-13.81-10.54-25.62-22-33.2a.55.55 0 00-.83.54z" fill="#66f28d"/><path d="M34.82 398.32c-.08-.07 0-.21.11-.15a46.84 46.84 0 0114.58 18c.08.19-.18.35-.29.17-.53-.94-1.07-1.84-1.62-2.73-2.61-.49-5.08-2.33-7-4.07a.06.06 0 01.08-.08 15.83 15.83 0 003.3 2.32 35.21 35.21 0 003.32 1.31c-1-1.53-2-3-3-4.43a30.64 30.64 0 01-7.85-4.41c-.07-.06 0-.18.08-.13a78.63 78.63 0 007.29 3.9 64.76 64.76 0 00-5.15-6c-.89-.47-1.79-.94-2.65-1.44a.08.08 0 01.06-.14 9.56 9.56 0 012 1c-1.08-1.08-2.08-2.11-3.26-3.12zM35.06 403.09a2.75 2.75 0 01.44.32v.07a2.59 2.59 0 01-.46-.26c-.13-.05-.04-.22.02-.13z" fill="#263238"/><path fill="#455a64" d="M71.55 457.65H40.22l2.52-28.53.56-6.3h25.17l.55 6.3 2.53 28.53z"/><path fill="#263238" d="M69.02 429.12H42.74l.56-6.3h25.17l.55 6.3z"/><path fill="#455a64" d="M41.8 418.42h28.16v6.23H41.8z"/></g></svg>