<svg xmlns="http://www.w3.org/2000/svg" viewBox="0 0 500 500"><path fill="#dbdbdb" d="M65.26 348.87l27.93-4.72 24.17-24.61 43.23 44.95 29.9-18.58 21.09 17.15 41.32-45.4 32.51-3.01 34.86-51.58 37.88 37.95 22.37-34.62 13.96-2 18.56-34.4 36.26 60.01L500 500H0l65.26-151.13z"/><path fill="#fff" d="M70.15 414.75l-.62-.79 42.03-32.78 61.29-5.25.08.02 54.2 14.36 47.38-41.13.15-.02 66.38-9.54 49.5-33.3L413.48 254l.91.4-23.05 52.59-.12.08-49.81 33.51-.11.02-66.35 9.53-47.56 41.29-.26-.07-54.37-14.41-60.82 5.21-41.79 32.6z"/><circle cx="66.32" cy="414.1" r="5.78" fill="#dbdbdb"/><path d="M66.32 420.38a6.29 6.29 0 116.28-6.28 6.29 6.29 0 01-6.28 6.28zm0-11.57a5.29 5.29 0 105.28 5.29 5.29 5.29 0 00-5.28-5.29z" fill="#fff"/><circle cx="111.48" cy="381.66" r="5.78" fill="#dbdbdb"/><path d="M111.48 388a6.29 6.29 0 116.29-6.28 6.29 6.29 0 01-6.29 6.28zm0-11.57a5.29 5.29 0 105.29 5.29 5.29 5.29 0 00-5.29-5.34z" fill="#fff"/><path d="M178.59 375.56a5.79 5.79 0 11-5.78-5.78 5.78 5.78 0 015.78 5.78z" fill="#dbdbdb"/><path d="M172.81 381.84a6.28 6.28 0 116.28-6.28 6.29 6.29 0 01-6.28 6.28zm0-11.56a5.28 5.28 0 105.28 5.28 5.29 5.29 0 00-5.28-5.28z" fill="#fff"/><circle cx="226.99" cy="391" r="5.78" fill="#dbdbdb"/><path d="M227 397.28a6.29 6.29 0 116.28-6.28 6.29 6.29 0 01-6.28 6.28zm0-11.57a5.29 5.29 0 105.28 5.29 5.29 5.29 0 00-5.28-5.29z" fill="#fff"/><circle cx="274.73" cy="350.31" r="5.78" fill="#dbdbdb"/><path d="M274.73 356.59a6.28 6.28 0 116.28-6.28 6.28 6.28 0 01-6.28 6.28zm0-11.56a5.28 5.28 0 105.28 5.28 5.29 5.29 0 00-5.28-5.31z" fill="#fff"/><circle cx="341.23" cy="339.61" r="5.78" fill="#dbdbdb"/><path d="M341.23 345.89a6.28 6.28 0 116.28-6.28 6.29 6.29 0 01-6.28 6.28zm0-11.56a5.28 5.28 0 105.28 5.28 5.29 5.29 0 00-5.28-5.28z" fill="#fff"/><circle cx="390.99" cy="306.81" r="5.78" fill="#dbdbdb"/><path d="M391 313.09a6.29 6.29 0 116.28-6.28 6.29 6.29 0 01-6.28 6.28zm0-11.57a5.29 5.29 0 105.28 5.29 5.29 5.29 0 00-5.28-5.29z" fill="#fff"/><circle cx="414.2" cy="254.22" r="5.78" fill="#dbdbdb"/><path d="M414.2 260.5a6.29 6.29 0 116.29-6.28 6.29 6.29 0 01-6.29 6.28zm0-11.57a5.29 5.29 0 105.29 5.29 5.29 5.29 0 00-5.29-5.29z" fill="#fff"/><circle cx="110.24" cy="113.26" r="33.06" transform="rotate(-45 110.234 113.26)" fill="#dbdbdb"/><path d="M366.58 146.91l87.61-.13s-4.37-5.67-9.17-6.37c0 0-9.38-27.79-25-28-14.54-.16-20.34 17.13-20.34 17.13s-6.75-7.74-13.18-4.18-10.05 13.71-10.05 13.71-7.25 3.93-9.87 7.84zM212.82 247.06l-110.82.17s0-7.08 15.25-8.48c0 0 13.89-31 35.17-26.84 13.25 2.57 20.05 20.75 20.05 20.75s10-14.33 18-11.57 12.79 18 12.79 18 8.3 3.97 9.56 7.97zM385.2 215.5l-75.33.12S317 209 320.13 209s12.34-22.23 24.13-21.3 18.06 17.46 18.06 17.46 14.32-4.53 22.88 10.34zM110.24 146.22l-64.43.1s3.2-4.17 6.73-4.7c0 0 6.84-20.46 18.34-20.62 10.68-.15 15 12.55 15 12.55s4.94-5.71 9.68-3.11S103 140.5 103 140.5s5.3 2.86 7.24 5.72z" fill="#ebebeb"/><g><path fill="#66f28d" d="M332.85 358.79H308.6l3.53-38.36h17.19l3.53 38.36z"/><path fill="#37474f" d="M75.92 500h348.16l-29.67-46.58-22.36-13.58-36.47-81.25h-76.55l-8.48 15.34-5.78.37-15.71 20.26h-81.63l-17.19 23.78-18.82 12.42L75.92 500z"/><path fill="#ebebeb" d="M354.11 399.86h-.01l-23.59-21.21-18.21 21.39-15.74-21.39-27.45 46.75-16.29-28.14-12.69 24.94-9.81-9.38-14.7 35.17-20.17-34.32-10.98 15.62-12.55-15.83-23.24 22.59-18.44-17.72 17.19-23.77h81.63l15.71-20.26 5.78-.38 8.49-15.32h76.54l18.53 41.26z"/><path fill="#263238" d="M347.92 437.7l5.54 28.16 24.99 13.08-30.53-41.24zM117.27 493.57l18.82-18.62 2.49-18.29-21.31 36.91zM198.63 494.9l27.89-64.2.47 46.93-28.36 17.27zM330.63 414.35l13.52 30.45-11.3-14.1-2.22-16.35z"/></g><g><path d="M318.14 361c-2.09.68-61.49-.09-63.73-1.56-.86-.54-1.25-9.21-1.43-19.69v-.32c0-2.16-.07-4.39-.07-6.64v-.93l2.87-30.86 39.74.4-3.92 30.6-.05 1.21-.24 6.31v.65s22.6 10.47 24.9 12.34 4.01 7.81 1.93 8.49z" fill="#dd6a57"/><path d="M318.14 361c-2.09.68-61.49-.09-63.73-1.56-.86-.54-1.25-9.21-1.43-19.69v-.32c0-2.16-.07-4.39-.07-6.64v-.93l38.7.11-.05 1.21-.24 6.31v.65s22.6 10.47 24.9 12.34 4 7.84 1.92 8.52z" fill="#ebebeb"/><path d="M318.14 361c-1.07.34-17.21.31-33 0-3.17-.06-6.33-.14-9.33-.22-11.25-.31-20.55-.77-21.41-1.33s-1.25-9-1.42-19.25v-.44-.33h.02l38.28.07v.65s22.61 10.46 24.9 12.34 4.04 7.83 1.96 8.51z" fill="#455a64"/><path d="M317.5 358.67c-10-.37-50.42-.94-60.35-.56-.08 0-.08.06 0 .07 9.92.59 50.33.83 60.34.66.22-.01.22-.16.01-.17zM295.58 339.64c-3.94-.79-8.76-.24-11.81 2.52-.12.11 0 .28.16.24a54.79 54.79 0 0111.62-2.26.25.25 0 00.03-.5zM298.4 341.39c-3.93-.79-8.76-.24-11.81 2.52-.12.11 0 .28.17.24a54.54 54.54 0 0111.62-2.26.25.25 0 00.02-.5zM301.22 343.14c-3.93-.79-8.76-.24-11.81 2.53-.11.1 0 .27.17.23a55.81 55.81 0 0111.62-2.26.25.25 0 00.02-.5z" fill="#263238"/><path d="M293.92 339.61H247.3s10.12-92 9.79-93.76c-.17-.9-8.55-13.56-18.51-28.36-5.57-8.29-11.63-17.24-17-25.19-8.91-13.12-16-23.48-16-23.48h45.65s6.14 7.42 14.19 17.91c11.4 14.87 26.62 35.9 33.59 50.79 5.4 11.56-5.09 102.09-5.09 102.09z" fill="#263238"/><path d="M291.18 243.67c-.86-5.12-3.42-9.61-5.95-14.06a351.45 351.45 0 00-23-34.2q-1.25-1.57-2.52-3.15c-.05-.07-.17 0-.11.08a393.6 393.6 0 0122.62 33.73c2.59 4.46 5.49 9 7.15 13.87 1.76 5.18 1.51 10.68 1.24 16.07q-.84 16.68-2 33.33-1.19 16.85-2.71 33.65c-.12 1.37-.25 2.74-.37 4.12 0 .44.39.48.43 0 1.08-11.16 2.26-22.22 3.1-33.41s1.57-22.51 2.17-33.78c.29-5.36.86-10.92-.05-16.25zM292 332.31c-6.53-.14-4.65-.19-11.19-.25-3.2 0-24.21-.22-27.2.28-.06 0-.06.12 0 .13 3 .49 24 .31 27.2.28 6.54-.06 4.66-.12 11.19-.25a.1.1 0 100-.19z" fill="#455a64"/><path d="M253.25 239.57c-11.94-18.43-47.68-70.75-47.68-70.75h23.92z" fill="#37474f"/><path d="M156.27 400c2.09.65 61.48-.72 63.71-2.21.85-.56 1.16-9.22 1.22-19.7v-.33c0-2.16 5-38.46 5-38.46l-38.82.79-4.49 38.13v.65s-22.5 10.7-24.78 12.59-3.93 7.94-1.84 8.54z" fill="#dd6a57"/><path d="M156.27 400c2.09.65 61.48-.72 63.71-2.21.85-.56 1.16-9.22 1.22-19.7v-.33s.87-7.27.87-7.58l-38.33.68-.86 7.36v.65s-22.5 10.7-24.78 12.59-3.92 7.94-1.83 8.54z" fill="#ebebeb"/><path d="M156.27 400c2.09.65 61.48-.72 63.71-2.21.85-.56 1.16-9.22 1.22-19.7v-.33l-38.32.46v.65s-22.5 10.7-24.78 12.59-3.92 7.94-1.83 8.54z" fill="#455a64"/><path d="M156.89 397.72c10-.47 50.41-1.46 60.33-1.17.08 0 .09.06 0 .06-9.9.69-50.31 1.35-60.33 1.28-.21 0-.21-.16 0-.17zM178.61 378.47c3.93-.83 8.76-.33 11.83 2.4.12.11 0 .28-.16.24a54.65 54.65 0 00-11.64-2.11.25.25 0 01-.03-.53zM175.81 380.25c3.92-.83 8.75-.34 11.83 2.4.12.11 0 .28-.16.24a54.76 54.76 0 00-11.64-2.14.25.25 0 01-.03-.5zM173 382c3.92-.83 8.75-.34 11.83 2.4.12.11 0 .28-.17.24a54.65 54.65 0 00-11.66-2.11.25.25 0 010-.53z" fill="#263238"/><path d="M251.22 168.82s-5.47 33.34-5.84 34.41c0 0-2 1-5.71 2.66l-16.2 172.89-42.77.22 23.84-210.13z" fill="#263238"/><path d="M222 371.17c-6.54-.11-4.66-.17-11.2-.2-3.19 0-24.21-.11-27.19.39a.07.07 0 000 .14c3 .48 24 .21 27.2.16 6.53-.09 4.65-.13 11.19-.3a.1.1 0 000-.19zM214.21 193c-1.66 23.81-2.37 34.43-4.32 58.23s-4.27 47.73-7.15 71.52c-1.61 13.29-3.36 32-5.29 45.25 0 .09.13.12.14 0 4-23.54 6.8-52.73 9.21-76.47s4.32-47.55 6-71.36c1-13.47.8-13.74 1.7-27.21.02-.14-.27-.13-.29.04zM247.15 202.2a79.84 79.84 0 00-12.22 6.4c-.16.1 0 .34.12.26 4.13-2 8.34-3.94 12.35-6.17a.28.28 0 00-.25-.49zM245.58 183.1c-.67 4-1.05 8-1.5 12.06-.1 1-.22 1.93-.32 2.89a5.59 5.59 0 01-.7 2.54c-.86 1.35-2.42 2-3.82 2.59-.17.07-.1.33.08.27a9.18 9.18 0 004.06-2.15c1.29-1.35 1.25-3.41 1.44-5.15a111.46 111.46 0 00.94-13c0-.15-.16-.15-.18-.05z" fill="#455a64"/><path d="M240.73 184.32c-.14 2.88-.46 5.75-.7 8.62-.12 1.41-.22 2.83-.31 4.25s-.25 2.92-.21 4.36c0 .1.16.12.18 0 .23-1.37.27-2.79.38-4.17s.22-2.9.3-4.36c.16-2.9.24-5.82.5-8.72.01-.07-.14-.07-.14.02z" fill="#455a64"/><path d="M265.41 186.73L247.88 189l-26.32 3.34-20 2.54 2.95-26h46.68s6.17 7.36 14.22 17.85z" fill="#263238"/><path d="M217.57 123.17c-17.9 4.1-42 1.74-48.1-5.8-5.68-7.06-5.72-38.73-.52-53.55 1.13-3.23 25 4.56 24.34 8.16-1.57 8.42-4.38 27.43-1.76 30.69 2.33 2.9 16.28 6.75 29.22 9.48 15.72 3.31 3.95 9.39-3.18 11.02z" fill="#dd6a57"/><path d="M171.55 51.66c-2.75 5-4.35 17.48-3.58 20.63s21.86 6.59 24.3 4.31 10.37-19.88 9.36-25.6-27.24-4.54-30.08.66z" fill="#dd6a57"/><path d="M201.41 60.12c-2.62 1.52-2.92-2.44-2.92-2.44s-1 5.81-4.26 6.33-3.37-4.3-3.39-4.64c-.05.3-1.07 5.61-4.45 5.8s-2.87-4.66-2.83-5c-.14.27-2.06 3.86-4.66 3.41-4.47-.76.2-10.07-1.1-13.5 0 0-6.07 1.54-6.25 1.55 0 0 4.26-8.95 9-10.45a3.18 3.18 0 013.72 1.38s1.05-3 3.71-3.27c1.36-.11 2.76 2 2.76 2a4 4 0 013.26-2.45c1.9-.05 3 2 3 2s2-1.88 3.93-1.3c3.98 1.19 6.07 17.32.48 20.58z" fill="#dd6a57"/><path d="M197.27 41.19c0-.06.06-.08.08 0a28.19 28.19 0 011.18 16.74c0 .17-.35.17-.34 0a57.64 57.64 0 00-.92-16.74zM190.74 41.21c0-.06.09-.09.12 0a26.4 26.4 0 01.14 18.31c-.08.21-.36.31-.28.07 1.28-4.1 1.15-13.25.02-18.38zM183.25 60.56c2-5.82 2-11.71 1.1-17.76 0-.07.1-.08.13 0 1.24 2.84 1.42 6.75 1.3 9.8a16.35 16.35 0 01-2.32 8.05c-.06.07-.25.03-.21-.09z" fill="#263238"/><path d="M198.49 57.68a17.57 17.57 0 01-1.15 3.19 6.15 6.15 0 01-2 2.56 2 2 0 01-1.42.32 2.87 2.87 0 01-1.38-.6 3.62 3.62 0 01-1.16-2.71l-.05-2.44-.81 2.36a10.07 10.07 0 01-1.52 2.87 3.67 3.67 0 01-2.52 1.58 2.08 2.08 0 01-2.22-1.38 6.25 6.25 0 01-.21-3.14l.46-2.91-1.39 2.62a9.52 9.52 0 01-1.4 2 3.87 3.87 0 01-1.91 1.24 1.87 1.87 0 01-1.87-.61 4.14 4.14 0 01-.62-2.24 32.73 32.73 0 01.41-5.09c.1-.85.21-1.71.27-2.57a6.23 6.23 0 00-.2-2.58 6.83 6.83 0 010 2.55c-.13.85-.3 1.69-.47 2.53a27.72 27.72 0 00-.69 5.18 4.86 4.86 0 00.65 2.7 2.68 2.68 0 002.73 1 4.85 4.85 0 002.41-1.47 10.5 10.5 0 001.6-2.2l-.92-.32a7.27 7.27 0 00.2 3.72 3.06 3.06 0 001.3 1.57 3.36 3.36 0 002 .41 4.58 4.58 0 003.19-2 11 11 0 001.63-3.23l-.87-.13a4.36 4.36 0 001.61 3.28 3.59 3.59 0 001.75.65 2.6 2.6 0 001.8-.49 6.34 6.34 0 002-2.89 15.24 15.24 0 00.77-3.33z" fill="#263238"/><path d="M194.15 73.84s19.09-15 9.57-19.58c-2.82-1.36-16.06-3.59-16.56-.94-.65 3.42 4.71 5.38 8.26 6.08 0 0-7.21 4.18-5.79 10.07a6 6 0 004.52 4.37z" fill="#dd6a57"/><path d="M204.49 54.69a12.47 12.47 0 00-3.37-1.51 26.81 26.81 0 00-3.62-.86 42.48 42.48 0 00-7.41-.71 6.74 6.74 0 00-2 .27 2.48 2.48 0 00-1 .54 1.6 1.6 0 00-.39.48 1.78 1.78 0 00-.21.58 3.09 3.09 0 00.4 2.13 5.94 5.94 0 001.35 1.51 11.14 11.14 0 003.4 1.76 24.64 24.64 0 003.64.94l-.13-.8a15.49 15.49 0 00-2.15 1.74 14 14 0 00-1.88 2.12 9.88 9.88 0 00-1.27 2.51 7.22 7.22 0 00-.36 2.76 8.23 8.23 0 01.64-2.65 10 10 0 011.43-2.3 12.71 12.71 0 011.9-1.91 14 14 0 012.21-1.51l1-.53-1.16-.25a26.64 26.64 0 01-3.51-1 11 11 0 01-3-1.68 3 3 0 01-1.39-2.64c.09-.83 1.42-1 2.57-1.1s2.41 0 3.63.07 2.44.16 3.65.31a23.39 23.39 0 017.03 1.73z" fill="#263238"/><path d="M223.44 112.61c-7.71-2.42-29.13-6.23-31-10.45s1-25 1-25L162.5 73s-2.93 35.32 6.67 45.82 35.84 8.31 46.11 6.1 20.99-8.27 8.16-12.31z" fill="#66f28d"/><path d="M162.5 73s-2.93 35.33 6.67 45.82a12.08 12.08 0 001.37 1.3c10.51 9 38.14 9.17 48 7.06 6.57-1.42 10.08-6.63 10.74-9.65.39-1.7-1.18-3.41-5.81-4.87-7.71-2.41-29.13-6.23-31-10.45s1-25 1-25z" fill="#66f28d"/><g opacity=".1"><path d="M228.48 115.21v4.35a12.94 12.94 0 01-1.32 2.1 10.38 10.38 0 01-.7.84v-8.69a7 7 0 012.02 1.4zM223.16 112.54v12.73c-.28.18-.57.34-.87.5v-13.49zM219 111.4V127l-.48.11c-.47.1-1 .2-1.54.29v-16.51zM213.68 110.09v17.76h-.1l-.77.07v-18zM209.51 109.05v19.09c-.66 0-1.33.05-2 .06v-19.67l1.36.35zM204.2 107.63v20.6h-.87v-20.85zM200 106.36v21.77c-.67 0-1.34-.06-2-.11v-22.38c.65.24 1.32.48 2 .72zM193.84 103.63a8.7 8.7 0 00.87.53v23.6l-.87-.09zM190.55 76.78v50.48c-.68-.09-1.35-.2-2-.31V76.5zM185.23 76.05v50.27l-.87-.2V75.93zM181.07 75.48v49.78c-.69-.2-1.36-.42-2-.65v-49.4zM175.75 74.76v48.53c-.3-.13-.59-.27-.87-.41V74.64zM171.58 74.19v46.69c-.36-.25-.71-.53-1-.81a9.34 9.34 0 01-1-.9V73.91zM166.27 73.46v40.66c-.15-.35-.3-.7-.44-1.07s-.23-.58-.32-.87a1.92 1.92 0 01-.11-.31V73.35zM162.1 82.41V83.75c-.01-.47-.01-.91 0-1.34z"/></g><g opacity=".1"><path d="M222.17 125.83A15 15 0 01219 127l-.48.11c-.47.1-1 .2-1.54.29-1 .16-2.09.3-3.29.42h-18l-1-.09-.87-.09c-1.1-.11-2.2-.25-3.29-.41-.68-.09-1.35-.2-2-.31q-1.68-.28-3.3-.63l-.87-.2-1.2-.29zM227.16 121.66a10.38 10.38 0 01-.7.84h-52.25c-.52-.28-1-.56-1.49-.87zM229.25 117.48a5.72 5.72 0 01-.26.88h-60.17a13.9 13.9 0 01-1.41-2h61.8a2.11 2.11 0 01.04 1.12zM223.44 112.62c.44.14.86.28 1.25.43h-58.86c-.12-.29-.23-.58-.32-.87H222l.34.1.87.26zM208.85 108.88H164.5c-.18-.66-.34-1.34-.49-2h37.58c.56.18 1.14.35 1.74.52l.87.25c1.08.31 2.18.61 3.29.9zM193.75 103.57h-30.37c0-.29-.09-.58-.13-.87h29.5a5.2 5.2 0 001 .87zM191.85 99.4h-29c-.07-.67-.14-1.34-.2-2h29.15c-.03.71 0 1.38.05 2zM191.84 93.21v.87h-29.49v-.87zM192.21 87.9c-.06.67-.12 1.34-.17 2h-29.88v-2zM192.61 83.73c0 .28-.05.57-.08.87h-30.45v-.87zM193.26 78.42c-.08.53-.17 1.22-.27 2h-30.85c0-.71 0-1.39.06-2zM178.4 75.12h-16v-.87h9.6l2.85.39.87.12z"/></g><path d="M164.72 79.57c1.12 0 2.23.2 3.34.3s2.22.25 3.32.4q3.19.44 6.38.94l6.37 1c2.2.35 4.45.59 6.61 1.12a.08.08 0 110 .15c-2.22-.11-4.45-.51-6.65-.8s-4.34-.56-6.51-.86-4.34-.59-6.51-.93c-1.06-.16-2.12-.34-3.17-.55s-2.16-.32-3.19-.63c-.11-.03-.06-.14.01-.14z" fill="#263238"/><path d="M238.57 122.65c10.05 15.37 29.07 30.41 38.67 29.19 9-1.15 31-23.93 37.52-38.21 1.43-3.11-21.17-14.06-23.18-11-4.72 7.15-15.88 22.8-20 23.33-3.69.47-16.41-6.44-27.62-13.45-13.65-8.51-9.39 4.01-5.39 10.14z" fill="#dd6a57"/><path d="M313 115.67c-2.56 2-21.13-8.43-21.62-11.72a12.68 12.68 0 01.26-3.31 47.21 47.21 0 00-4.8-12.88c-2.8-4.72-7.51-11.41-5-13 3.61-2.35 10.58 5.39 14.31 10.08 1.22-3 2.56-5.5 3.87-6.66 4.35-3.85 24 13.39 23 19.21-.97 5.61-7.45 16.3-10.02 18.28z" fill="#dd6a57"/><path fill="#263238" d="M272.476 38.289l1.374-.838 97.732 160.237-1.374.838z"/><path d="M294.5 85.44c1.1 2.81 3.78-.1 3.78-.1s-2.86 5.12-.6 7.58 5.3-1.26 5.52-1.51c-.14.27-2.65 5-.13 7.28s5.13-1.85 5.29-2.12c-.06.3-.78 4.29 1.52 5.56 3.95 2.17 6.09-8 9.23-9.85 0 0 3.77 5 3.91 5.09s2.24-9.62-.52-13.72a3.15 3.15 0 00-3.75-1.23s1.06-3-.87-4.85c-1-.93-3.37-.18-3.37-.18a4 4 0 00-1.06-4c-1.45-1.22-3.61-.27-3.61-.27s-.38-2.69-2.26-3.45c-3.79-1.52-15.43 9.74-13.08 15.77z" fill="#dd6a57"/><path d="M309.47 73.25v-.08a28.07 28.07 0 00-11.31 12.32c-.07.16.16.35.28.18a57.69 57.69 0 0111.03-12.42zM314.55 77.31c.05 0 0-.12-.08-.09A26.36 26.36 0 00303 91.42c-.06.21.09.46.18.23 1.53-3.98 7.31-11.03 11.37-14.34zM308.38 97c2-5.8 5.71-10.37 10.16-14.52.06 0 0-.13-.08-.09-2.74 1.43-5.3 4.37-7.1 6.83a16.12 16.12 0 00-3.18 7.78c-.02.08.15.16.2 0z" fill="#263238"/><path d="M298.18 85.37c-.09.19.3.1.22.3-.34.85-1.95 6.13-.33 7.24 1.31.88 3.41-.26 4-1L303.7 90l-.83 2.34a9.89 9.89 0 00-.62 3.22 3.58 3.58 0 001 2.79 2.09 2.09 0 002.59.32 6.34 6.34 0 002.11-2.33l1.45-2.55-.54 2.87a9.87 9.87 0 00-.14 2.43 4 4 0 00.72 2.15 1.87 1.87 0 001.84.68 4.14 4.14 0 001.87-1.36 33.09 33.09 0 002.85-4.22c.45-.73.9-1.46 1.39-2.18a6.05 6.05 0 011.75-1.88 6.64 6.64 0 00-1.55 2c-.43.74-.82 1.5-1.21 2.27a28.05 28.05 0 01-2.68 4.46 4.86 4.86 0 01-2.18 1.7 2.65 2.65 0 01-2.76-.91 4.83 4.83 0 01-1-2.64 10.64 10.64 0 01.12-2.7l.92.32a7.28 7.28 0 01-2.47 2.77 2.93 2.93 0 01-2 .42 3.33 3.33 0 01-1.79-.9 4.53 4.53 0 01-1.25-3.54A11.17 11.17 0 01302 92l.76.44c-.84.93-3 2.46-5.24 1.34-2.61-1.87.09-7.43.66-8.41z" fill="#263238"/><path d="M298.28 85.34a6.17 6.17 0 01-1.64.86 1.42 1.42 0 01-1.4-.26 3 3 0 01-.68-1.48c-.11-.59-.21-1.23-.27-1.89a4.71 4.71 0 00-.38 2 2.82 2.82 0 00.76 2 2 2 0 001.1.48 2.06 2.06 0 001.11-.23 3.3 3.3 0 001.4-1.48z" fill="#263238"/><path d="M241.67 111c7.23 3.6 25.31 15.72 29.6 14s16.61-18.71 16.61-18.71l25.19 18.41s-22.39 27.48-36.59 28.37-31.57-18.89-37.48-27.61-9.37-20.46 2.67-14.46z" fill="#66f28d"/><g opacity=".1"><path d="M313.07 124.68s-.34.42-1 1.15l-.32.38v-2.47zM308.5 121.34v8.59l-.87.95V120.7zM304.33 118.29v16.07l-.94.95q-.52.54-1.08 1.08v-19.57zM299 114.41v25.13l-.87.8v-26.56zM294.85 111.36v31.87l-1.92 1.56a.39.39 0 00-.1.08v-35zM288.69 106.86h-.03v-.02l.03.02zM289.53 108.88v38.45l-.87.59v-39zM285.37 109.64V150l-.26.15q-.84.46-1.68.87h-.08v-38.84h.07zM280.05 116.37v36c-.29.1-.58.18-.87.25v-35.21zM275.89 121.11v32a15.23 15.23 0 01-2-.08v-29.92l.62-.58.87-.87zM270.57 125.13v27.22c-.29-.07-.58-.16-.87-.26v-27a4.31 4.31 0 00.87.04zM266.4 124.22v26.58c-.47-.22-.93-.45-1.4-.69l-.62-.33V123.4c.71.31 1.38.6 2.02.82zM261.09 121.83v26l-.87-.59v-25.86l.54.28zM256.92 119.61v25.15c-.68-.54-1.36-1.1-2-1.67v-24.62c.65.39 1.33.77 2 1.14zM251.61 116.59v23.53l-.87-.84v-23.2l.44.26zM247.44 114.17v21.71l-.52-.57c-.52-.56-1-1.12-1.5-1.67V113h.09zM242.12 111.2v18.45c-.31-.38-.6-.76-.87-1.12v-17.76l.42.2zM238 109.55v14.23c-.25-.41-.5-.83-.74-1.25l-.48-.87c-.28-.52-.55-1-.8-1.56v-10.73a5.52 5.52 0 012.02.18z"/></g><g opacity=".1"><path d="M285.11 150.11q-.84.46-1.68.87h-16.64l-.39-.18c-.47-.22-.93-.45-1.4-.69zM292.93 144.79a.39.39 0 00-.1.08c-.85.67-1.71 1.32-2.57 1.94h-30.61c-.91-.64-1.81-1.32-2.69-2zM297.84 140.62l-1 .87h-43.75l-.94-.87zM303.39 135.31q-.52.54-1.08 1.08l-1 .94h-52.5c-.47-.48-.92-1-1.37-1.45l-.52-.57zM307.39 131.14l-.82.87H244c-.25-.29-.49-.59-.72-.87zM312.11 125.83l-.32.38-1.43 1.64h-69.62c-.54-.72-1-1.4-1.45-2zM262.51 122.53h-25.29l-.48-.87h24l.33.17zM310.13 122.53h-35.64l.87-.87h33.58zM254.7 118.36h-19.55a20.43 20.43 0 01-.76-2h16.79l.43.25zM304.42 118.36h-26l.8-1 .87-1h21.61l.65.48 2 1.47zM245.51 113.05h-11.85a5.13 5.13 0 010-.87h10.3c.47.25 1 .53 1.48.82zM297.16 113.05h-14.43l.62-.78v-.09H296zM288.66 106.86v2h-2.72c.66-.87 1.17-1.57 1.51-2z"/></g><path d="M306.88 127.9c-.8-.77-1.74-1.39-2.61-2.09s-1.77-1.36-2.67-2c-1.73-1.27-3.49-2.52-5.25-3.75l-5.28-3.7c-1.82-1.27-3.62-2.66-5.54-3.78a.08.08 0 00-.09.13c1.68 1.46 3.56 2.71 5.34 4l5.29 3.9c1.77 1.3 3.54 2.58 5.33 3.85.88.62 1.77 1.22 2.67 1.81s1.78 1.26 2.74 1.75c.08.05.13-.02.07-.12zM264.45 149.81c-10.79-5.83-21.15-18-25.42-24.35-3.75-5.58-6.54-12.39-4.92-15 .65-1.08 2-1.46 4.43-.75z" fill="#263238"/><path d="M263.13 183.24c-.86 1.08-62 5.51-62.31 5.15-.92-.95 9.14-64.5 21.89-76.34 2.75-2.54 13.93-3 15.51-2.49 1.78.54 7.28 8.5 10 15.11 5.45 13.23 15.65 57.61 14.91 58.57z" fill="#66f28d"/><g opacity=".1"><path d="M261.09 171.86v11.81l-.87.12V168c.08.37.17.74.25 1.1s.13.59.19.87c.15.63.34 1.27.43 1.89zM256.1 151c.28 1.07.55 2.15.82 3.22v30l-2 .21v-38c0 .14.08.29.11.43q.44 1.63.87 3.3c.1.24.1.53.2.84zM250.79 132c.27.85.55 1.74.82 2.66v50l-.55.05h-.32v-52.87a.84.84 0 01.05.16zM247.44 122.91v62.16l-2 .17V119c.5.88 1 1.78 1.42 2.67q.22.44.42.87a3.26 3.26 0 01.16.37zM241.61 113.05c.17.23.34.46.51.71v71.77l-.87.07v-73zM238 109.51v76.36l-2 .16v-76.65a12.07 12.07 0 012 .13zM232.64 109.51v76.78l-.87.07v-76.78zM228.48 110v76.61l-2 .15v-76.34c.62-.16 1.3-.3 2-.42zM223.16 111.7V187l-.87.06v-74.6a4 4 0 01.29-.29 1.59 1.59 0 01.13-.13 3.34 3.34 0 01.45-.34zM219 117v70.29l-2 .14v-66.49c.42-.91.85-1.77 1.27-2.58.22-.46.47-.91.73-1.36zM213.68 129.13v58.55l-.87.06v-56.07l.18-.53q.33-1.02.69-2.01zM209.51 142.72V188l-1.13.07-.89.06v-38h.13c.27-1.1.54-2.2.82-3.3.17-.67.34-1.35.52-2s.36-1.42.55-2.11zM204.2 165.82v22.46l-.87.05v-18c0-.14 0-.29.08-.44s.11-.58.16-.87c.2-1.02.43-2.09.63-3.2z"/></g><g opacity=".1"><path d="M208.38 188l-.89.06-3.29.19-.87.05a19.94 19.94 0 01-2.51.06V188zM263.13 183.24a6.91 6.91 0 01-2 .43l-.87.12-3.3.38-2 .21-3.29.31-.55.05H201c.07-.61.16-1.28.27-2h61.84a1 1 0 01.02.5zM262.64 179.42h-60.85c0-.28.09-.57.13-.87h60.56c.06.3.12.59.16.87zM261.82 175.26h-59.36c.12-.65.23-1.33.36-2h58.57c.15.68.3 1.36.43 2zM260.66 169.94h-57.25c.05-.28.11-.58.16-.87h56.9c.07.3.13.59.19.87zM259.72 165.77h-55.51c.13-.66.26-1.34.4-2h54.63c.16.66.32 1.34.48 2zM258.45 160.46h-53.16l.18-.87h52.78c.07.29.14.58.2.87zM257.44 156.29h-51.25c.15-.67.3-1.34.46-2h50.29c.17.71.33 1.33.5 2zM256.1 151h-48.69c0-.11.06-.22.08-.32v-.55h48.39c.12.27.12.56.22.87zM255 146.81h-46.56c.17-.67.34-1.35.52-2h45.51c.15.52.29 1.06.43 1.59.04.12.1.27.1.41zM253.58 141.49h-43.73q.1-.44.24-.87h43.25c.07.29.16.58.24.87zM252.4 137.33H211c.2-.68.41-1.36.62-2h40.16zM250.79 132H212.7a3.38 3.38 0 01.11-.34l.18-.53h37.53c.07.23.15.46.22.7a.84.84 0 01.05.17zM249.42 127.85h-35.28c.25-.68.5-1.36.77-2h33.77c.24.6.48 1.28.74 2zM247.26 122.53h-31c.12-.3.25-.59.38-.87h30.2q.23.44.42.87zM245.06 118.36h-26.82c.25-.46.5-.91.75-1.34.13-.23.26-.46.4-.68h24.45c.41.66.82 1.33 1.22 2.02zM241.61 113.05h-19.86c.18-.21.36-.4.54-.58a4 4 0 01.29-.29H241l.3.4z"/></g><path fill="#263238" d="M234.45 124.3l2.44-5.14 3.88 3.68-.6 3.97-3.53.71-2.19-3.22z"/><path d="M236.64 127.52s1.17 25.37 10.41 35.5c9.09 10 23.35 7.91 23.35 7.91l11.84-5.58-9.77-7s-10.79 0-17.66-5.29-14.64-26.27-14.64-26.27z" fill="#263238"/><path d="M237.59 117.79c-3.13 1.39-9.67-2.57-12.64-6.21-.2-.25-.32-3.25-.64-6.9-.2-2.21-.47-4.67-.89-6.89-.08-.46 14.59.79 14.59.79a35.84 35.84 0 00.24 8.8 4.63 4.63 0 00.26.89 1.31 1.31 0 01.05.15c.6 1.68 2.05 8.04-.97 9.37z" fill="#dd6a57"/><path d="M238.56 108.42a9 9 0 01-1.42.34C229.79 110 225.5 101.49 224 97.7c2.63-.09 14 .88 14 .88a35.84 35.84 0 00.24 8.8 4.63 4.63 0 00.26.89 1.31 1.31 0 01.06.15z" fill="#263238"/><path d="M219 80.71c-1 5.18 3.32 19.32 7.25 22.14 5.68 4.08 14.17 3.57 17.43-3.08 3.17-6.45-2.74-24.78-7-27.25-6.44-3.65-16.32.55-17.68 8.19z" fill="#dd6a57"/><path d="M225.82 102.75" fill="none"/><path d="M231.89 88.44s-.06.06 0 .1c.31.95.51 2.08-.26 2.66 0 0 0 .06 0 0 .99-.42.71-1.92.26-2.76z" fill="#263238"/><path d="M230.75 87.69c-1.57.34-.78 3.46.68 3.14s.63-3.42-.68-3.14zM237.71 86.77s.08 0 .09.06c.22 1 .63 2 1.58 2.15v.06c-1.09.12-1.62-1.32-1.67-2.27z" fill="#263238"/><path d="M238.31 85.54c1.52-.51 2.44 2.57 1 3s-2.31-2.54-1-3zM229.15 86.58a11.65 11.65 0 001.1-.73c.42-.29.78-.47 1-1a.7.7 0 00-.31-.77 1.71 1.71 0 00-1.69.25 2.53 2.53 0 00-1.12 1.39.72.72 0 001.02.86zM239.11 83.67a11.43 11.43 0 01-1.31 0 2.16 2.16 0 01-1.35-.26.69.69 0 01-.17-.81 1.69 1.69 0 011.55-.73 2.49 2.49 0 011.7.55.72.72 0 01-.42 1.25zM233.54 97.41a1.51 1.51 0 001 .36 2.64 2.64 0 001-.5h.05a1.32 1.32 0 01-1.09.83 1.06 1.06 0 01-1-.66s0-.05.04-.03z" fill="#263238"/><path d="M233.82 94.27a3.38 3.38 0 002.56.9 4.21 4.21 0 001.2-.25l.21-.08.21-.09a.25.25 0 00.14-.26.38.38 0 000-.1v-.09c-.16-.75-.53-1.86-.53-1.86.31.07 1.85.34 1.73 0a51.23 51.23 0 00-3.81-9.62c-.05-.09-.21 0-.17.07.85 3.08 2.24 6 3.15 9.07a6 6 0 00-1.67-.08c-.1.06.73 2.14.78 2.48a4.73 4.73 0 01-3.67-.19c-.15-.05-.21.04-.13.1z" fill="#263238"/><path d="M237.05 94.78a4 4 0 01-1.32 1.55 1.75 1.75 0 01-1.06.29c-.82 0-1-.75-1-1.39a4.08 4.08 0 01.16-1 5.16 5.16 0 003.22.55z" fill="#263238"/><path d="M235.73 96.33a1.75 1.75 0 01-1.06.29c-.82 0-1-.75-1-1.39a1.87 1.87 0 012.06 1.1z" fill="#f7a9a0"/><path d="M240.2 76.86c-4.07 5-12.63 1.8-12.63 1.8a5.8 5.8 0 01-4.57 5.19s1.56 8.94-.72 9.6c-3.48 1-8.06-10.46-7.65-13.1s3.17-4.11 3.17-4.11a6 6 0 011.35-4.14c1.83-2.53 10.74-2.51 10.74-2.51a8 8 0 011.26-3.46 2.24 2.24 0 013.18-.63 5.27 5.27 0 00-.2 2.38c.34 2.65 2.41 2 1.7-.25a3.74 3.74 0 00-1.5-2.13c.57-1.8 2.09-2.79 3.34-2.28 2.25.91 5.92 9.46 2.53 13.64z" fill="#263238"/><path d="M223.37 92.13s-3.88-4.22-5.84-2.77 1.4 7.87 4 8.46a2.55 2.55 0 003.2-1.81z" fill="#dd6a57"/><path d="M218.54 91.18v.06c1.83.47 3 2 3.83 3.55a1.41 1.41 0 00-2.14-.1s0 .1.06.09a1.55 1.55 0 011.78.31 7.72 7.72 0 011 1.27c.1.15.37 0 .29-.14-.27-2.22-2.36-5.14-4.82-5.04z" fill="#263238"/><path d="M238.71 108.79l-2.45 8.91-11.82-9.57-2.61 3.8s12.32 15.95 12.29 15.17l2.68-7.75 5.65 4.54-1.88-12.79z" fill="#66f28d"/><path d="M241.88 117.51c-.38-2.1-.71-4.22-1.18-6.3 0-.08-.14-.1-.15 0-.19 2.09 1.31 10.11 1.52 12.05-.24-.2-5.22-4-5.25-3.89-.63 1.26-2.6 6.9-2.72 7.41-2-2.54-9.36-11.71-11.59-14.06a.07.07 0 00-.12.08c1.78 2.71 11.61 15.08 11.73 15a83.67 83.67 0 002.79-8.18c.86.84 5.94 5.15 5.92 4.83a68.18 68.18 0 00-.95-6.94z" fill="#263238"/><path d="M323.4 69.61l-17.62-28.86a5.44 5.44 0 001.13 1.31 6.09 6.09 0 001.65 1c4.6 1.87 13.23-.22 25.73-6.22l17.62 28.86c-12.5 6-21.13 8.09-25.73 6.22a5.86 5.86 0 01-1.65-1 5 5 0 01-1.13-1.31z" fill="#66f28d"/><path d="M323.4 69.61l-17.62-28.86a5.44 5.44 0 001.13 1.31 6.09 6.09 0 001.65 1c4.6 1.87 13.23-.22 25.73-6.22l17.62 28.86c-12.5 6-21.13 8.09-25.73 6.22a5.86 5.86 0 01-1.65-1 5 5 0 01-1.13-1.31z" opacity=".1"/><path d="M321.5 65.14a10.78 10.78 0 011 2.28 10.84 10.84 0 00.93 2.19l-17.65-28.86a10.27 10.27 0 01-.92-2.19 12.2 12.2 0 00-1-2.28z" fill="#66f28d"/><path d="M321.5 65.14a10.78 10.78 0 011 2.28 10.84 10.84 0 00.93 2.19l-17.65-28.86a10.27 10.27 0 01-.92-2.19 12.2 12.2 0 00-1-2.28z" opacity=".4"/><path d="M303.89 36.28l17.61 28.86a5.54 5.54 0 00-1.3-1.48 6.87 6.87 0 00-1.63-.94c-4.78-1.93-13.43.39-26.31 7.07l-17.62-28.86c12.88-6.68 21.53-9 26.31-7.06a6.54 6.54 0 011.63.94 5.57 5.57 0 011.31 1.47z" fill="#66f28d"/></g><g><path d="M281.17 65.4a16.37 16.37 0 01-27.36 10.36L245.62 77l4.1-7.08a16.19 16.19 0 01-1.13-7.92 16.38 16.38 0 0132.58 3.41z" fill="#fff"/><path d="M281.17 65.4a16.45 16.45 0 01-3.3 8.3 17.38 17.38 0 01-1.49 1.71 18.65 18.65 0 01-1.73 1.47 15.88 15.88 0 01-3.95 2.19 16.62 16.62 0 01-4.41 1.06 15.62 15.62 0 01-2.27 0 14.45 14.45 0 01-2.27-.24 16.49 16.49 0 01-8.1-4l.19.06-8.18 1.26-.59.09.3-.52 4.07-7.1v.28a16.58 16.58 0 011-14.59 16.45 16.45 0 0112.12-8.09 16.54 16.54 0 0118.61 18.12zm0 0a16.21 16.21 0 00-18.57-17.72 16 16 0 00-6.76 2.67 16.72 16.72 0 00-4.9 5.35 16.1 16.1 0 00-2.08 6.92 16.42 16.42 0 001.14 7.14l.06.15-.06.09-4.12 7.07-.29-.43 8.2-1.15h.11l.08.08a16.23 16.23 0 007.84 4 15.12 15.12 0 002.22.27 16.74 16.74 0 002.24 0 16 16 0 004.38-1 15.4 15.4 0 004-2.13 18.34 18.34 0 001.73-1.44 19.79 19.79 0 001.49-1.69 16.44 16.44 0 003.29-8.18z" fill="#263238"/><path fill="#66f28d" d="M262.97 73.04l-7-7.08 2.35-2.32 4.09 4.13 8.49-13.31 2.78 1.78-10.71 16.8z"/></g></svg>