<svg xmlns="http://www.w3.org/2000/svg" viewBox="0 0 500 500"><path fill="#ebebeb" d="M73.55 67.08h160.32v245.83H73.55z"/><path fill="#fff" d="M82.29 76.93H150v109.34H82.29zM157.44 76.93h67.7v109.34h-67.7zM82.29 193.72H150v109.34H82.29zM157.44 193.72h67.7v109.34h-67.7z"/><path fill="#ebebeb" d="M123.28 76.93l-40.99 40.99V93.74L99.1 76.93h24.18zM82.29 299.03L150 231.32v24.17l-47.58 47.58H82.29v-4.04zM211.77 193.72l-54.33 54.34v-24.18l30.15-30.16h24.18zM225.14 156.18v24.18l-5.92 5.92h-24.18l30.1-30.1zM225.14 277.74v24.17l-1.16 1.16h-24.17l25.33-25.33zM86.17 193.72h12.08l-15.96 15.96V197.6l3.88-3.88zM93.61 186.28L150 129.89v12.09l-44.3 44.3H93.61zM215.04 76.93l-57.6 57.6v-12.08l45.52-45.52h12.08zM143.15 76.93l-60.86 60.86v-3.02l57.83-57.84h3.03zM120.13 303.07L150 273.2v3.02l-26.85 26.85h-3.02zM225.14 198.06v3.02l-67.7 67.7v-3.03l67.7-67.69z"/><circle cx="372.47" cy="120.05" r="45.99" transform="rotate(-83.06 372.47 120.044)" fill="#ebebeb"/><circle cx="374.58" cy="121.07" r="43.89" fill="#dbdbdb"/><circle cx="374.58" cy="121.07" r="41.12" fill="#fff"/><path d="M414.76 112.35c-18.72 11.34-49.49 30-66.69 40.15a41 41 0 01-11.23-15.11l56.88-52.72a41.15 41.15 0 0121.04 27.68zM415.67 122.51a40.92 40.92 0 01-2.67 13.36l-51.28 24.25a41.87 41.87 0 01-6.48-2.78c15.44-8.96 43.76-25.24 60.43-34.83z" fill="#ebebeb" opacity=".5"/><path fill="#c7c7c7" d="M374.18 82.94h.79v6.23h-.79zM355.169 88.23l.693-.4 3.115 5.395-.693.4zM341.342 102.334l.395-.685 5.396 3.115-.395.685zM336.45 120.67h6.23v.79h-6.23zM341.356 139.807l5.395-3.115.395.685-5.395 3.115zM355.189 153.92l3.112-5.396.693.4-3.112 5.396zM374.18 152.97h.79v6.23h-.79zM390.183 148.9l.693-.4 3.115 5.395-.693.4zM401.987 137.344l.395-.684 5.395 3.115-.395.684zM406.48 120.67h6.23v.79h-6.23zM402.006 104.763l5.395-3.116.395.684-5.395 3.116zM390.188 93.254l3.112-5.397.693.4-3.112 5.397z"/><path fill="#c7c7c7" d="M375.18 85.76l1.35 38.09-3.9-.05 1.49-38.05 1.06.01z"/><path fill="#a6a6a6" d="M398.9 107.79l-25.62 16.35-1.86-3.42 26.97-13.86.51.93z"/><circle cx="374.58" cy="121.07" r="1.33" fill="#c7c7c7"/><g><path fill="#ebebeb" d="M18.72 357.7h462.55v126.67H18.72z"/><path fill="#263238" d="M18.67 357.7l57.82-.25 57.82-.09 115.63-.18 115.64.18 57.82.09 57.82.25-57.82.26-57.82.09-115.64.18-115.63-.18-57.82-.09-57.82-.26z"/></g><g><path fill="#f7f7f7" d="M394.46 432.75l30.17-17.81 38.33 12.83-31.47 19.12-37.03-14.14z"/><path d="M430.29 441.93c1.86-1.37 3.77-2.64 5.69-3.9s3.87-2.48 5.83-3.68 3.93-2.37 5.94-3.48l3-1.67c1-.53 2-1.08 3.07-1.58-.92.69-1.88 1.33-2.82 2l-2.87 1.91c-1.91 1.27-3.87 2.47-5.82 3.67s-3.94 2.37-5.95 3.48-4 2.23-6.07 3.25zM435.28 434.69A61.15 61.15 0 01442 430a59.15 59.15 0 017.27-3.83 67.21 67.21 0 01-14 8.52zM421.2 439c1.86-1.37 3.77-2.65 5.69-3.91s3.87-2.47 5.83-3.68 3.93-2.36 5.94-3.48l3-1.67c1-.52 2-1.08 3.07-1.58-.92.7-1.88 1.33-2.82 2l-2.87 1.91c-1.91 1.27-3.87 2.47-5.82 3.68s-3.94 2.36-5.95 3.47-4 2.26-6.07 3.26zM420 435.53c3.16-2.38 6.47-4.5 9.82-6.55s6.78-4 10.35-5.71c-3.16 2.39-6.47 4.51-9.83 6.56s-6.73 3.99-10.34 5.7zM424 428.92a42.89 42.89 0 015.58-4 41.22 41.22 0 016.1-3.12 47.09 47.09 0 01-11.68 7.12z" fill="#dbdbdb"/><path fill="#f7f7f7" d="M304.04 412.78l47.66-18.61 45.99 27.72-47.42 19.29-46.23-28.4z"/><path d="M349.6 435.53c3.11-1.49 6.25-2.87 9.4-4.24s6.33-2.68 9.51-4 6.37-2.56 9.59-3.77l4.82-1.82c1.63-.56 3.24-1.17 4.87-1.71-1.55.75-3.12 1.45-4.68 2.17l-4.72 2.07c-3.15 1.38-6.33 2.68-9.51 4s-6.37 2.56-9.59 3.77-6.43 2.42-9.69 3.53zM361.82 425.65c3.39-1.8 6.91-3.33 10.45-4.78s7.13-2.79 10.82-3.87a131.94 131.94 0 01-21.27 8.65zM344.9 427.62c2.72-1.32 5.47-2.55 8.23-3.75s5.54-2.37 8.33-3.52 5.59-2.24 8.42-3.29l4.23-1.58c1.43-.49 2.84-1 4.28-1.47-1.35.67-2.73 1.28-4.09 1.93l-4.13 1.83c-2.76 1.22-5.55 2.36-8.33 3.51s-5.6 2.24-8.42 3.29-5.65 2.11-8.52 3.05zM342.68 423.62c2.51-1.24 5.06-2.38 7.61-3.51s5.13-2.19 7.71-3.26 5.18-2.08 7.8-3l3.93-1.45c1.32-.45 2.63-.93 4-1.35-1.24.63-2.52 1.2-3.78 1.8l-3.82 1.71c-2.55 1.13-5.13 2.2-7.71 3.26s-5.18 2.08-7.8 3-5.27 1.94-7.94 2.8zM330.81 423.54c3.1-1.48 6.25-2.87 9.4-4.23s6.33-2.69 9.5-4 6.38-2.57 9.6-3.78l4.82-1.81c1.62-.57 3.23-1.17 4.87-1.71-1.55.75-3.12 1.44-4.68 2.16l-4.73 2.07c-3.14 1.38-6.32 2.69-9.5 4s-6.37 2.57-9.59 3.77-6.43 2.43-9.69 3.53zM330.42 418.79c2.74-1.33 5.53-2.57 8.32-3.79s5.61-2.4 8.43-3.56 5.66-2.27 8.51-3.33l4.29-1.6c1.44-.49 2.87-1 4.33-1.49-1.37.68-2.76 1.3-4.14 2l-4.16 1.8c-2.79 1.23-5.61 2.39-8.42 3.55s-5.66 2.27-8.52 3.34-5.74 2.13-8.64 3.08zM321.41 417.55c3.11-1.49 6.25-2.87 9.41-4.24s6.32-2.68 9.5-4 6.37-2.56 9.59-3.77l4.83-1.81c1.62-.57 3.23-1.18 4.86-1.72-1.55.75-3.12 1.45-4.68 2.17l-4.72 2.07c-3.15 1.38-6.33 2.68-9.5 4s-6.38 2.56-9.6 3.77-6.43 2.43-9.69 3.53zM332.33 408.2c3.62-1.89 7.34-3.5 11.1-5.05s7.56-3 11.47-4.12c-3.61 1.89-7.34 3.5-11.09 5.05s-7.57 2.92-11.48 4.12z" fill="#dbdbdb"/></g><g><path d="M119.23 269.23c11 14.25 30.6 20 47.81 21.5 17.54 1.48 37.33.21 53.39-7.65 7-3.43 13.54-8.51 17.72-15.2 4.5-7.17 5.16-14.8.6-21.69-3.68-5.57-11.86-9.65-11.78-14.68s4.24-8.92 5.46-13.73c2.08-8.22-2.24-14.5-7.87-20-13.32-13-9.33-29.7-17.37-45.68-4.57-9.09-17.66-25.93-41.8-18.82-9.17 2.71-15.57 11-19.45 19.56-4.56 10.11-1.7 23.58-7.22 33.28-4.73 8.27-11.44 9.48-16 18.17-2 3.76-3 8.18.9 17.23 1.4 3.28 2.85 8.25 1.44 12.09-2 5.32-8.29 7.65-10.46 13.19-2.95 7.67-.23 16.14 4.63 22.43z" fill="#263238"/><path d="M232.76 269.9c8.26-1.21 12-12.6 6.88-18.55-3.24-3.77-8.17-5.58-11.42-9.33-5.34-6.18-.38-11.58 2.67-17.5 6.61-12.82-1.95-21.71-11-29.87-6.88-6.2-8.18-13.18-8.48-22.13 0-.13.23-.15.24 0 .53 6.59 1.33 13.07 5.79 18.3 3.64 4.25 8.52 7.2 12 11.61 5.89 7.39 6.49 15.31 2.11 23.56-1.26 2.36-3.62 5-4.16 7.63-1.26 6.14 3.27 9.39 7.57 12.49 3.3 2.38 7 5 8.15 9.15 1.8 6.25-3.86 14.59-10.26 15.15-.31.02-.43-.41-.09-.51z" fill="#263238"/><path d="M228.17 276.1c5.1-3 10.63-5.71 13.69-11.06 4.52-7.91-.87-14-5.91-19.76-2.16-2.46-4-4.92-3.79-8.33.25-5.13 4-9.37 4.71-14.45 1.65-12.11-10.1-19.63-16-28.62-6-9.18-7.79-19.85-9.85-30.39 0-.22.31-.3.35-.07 2.72 13.47 6.46 26.13 15.71 36.63 6.45 7.31 13.32 15.24 10.12 25.63-.79 2.56-2.32 4.87-3.05 7.42-1.45 5.07-.14 8.39 3.14 12.08s6.81 7.19 7.34 12.17c1 9.66-8.6 15.92-16.12 19.51a.43.43 0 01-.34-.76zM112.47 243.79c4.13-5.83 10.66-8.69 9-17.07-1.14-5.78-4.21-10.41-3-16.51 1-5.06 4.22-9 8-12.25 4.83-4.2 10.17-7.58 13.71-13.07 3.86-6 5.62-13 7.43-19.82 0-.13.27-.08.24.06-1.91 9.24-4.24 18.72-11.22 25.59-3.63 3.59-8 6.3-11.65 9.92-6.49 6.53-6.45 13.72-3.7 21.93 1.26 3.78 2.38 7.56.66 11.38s-5.34 6.19-7.88 9.39c-10.79 13.57 5.65 30.92 19.28 33.46.61.11.54 1.06-.09 1-10.2-1.59-21-11-23.19-21.09a16.12 16.12 0 012.41-12.92z" fill="#263238"/><path d="M112.91 251.08c.11-6.11 3.89-9.47 6.82-14.25 4.6-7.52-.15-15-.72-22.9-.39-5.53 1.84-10.22 5.24-14.26 4.57-5.44 10.42-9.31 14.16-15.54a39.69 39.69 0 005.46-22.13c0-.15.21-.12.22 0 .78 10.88-2.54 21.1-9.77 28.87-4.58 4.93-10.76 9-13.32 15.58-2.72 7 .81 13.45 1.75 20.45a15.57 15.57 0 01-2.94 11.79c-1.85 2.61-4.11 5-5.13 8.15-1.39 4.27-.48 9 1.26 13.08 5.48 12.83 18.87 20.89 31.63 23 .45.07.41.81 0 .74A44.44 44.44 0 01118.31 266c-3.08-4.24-5.5-9.52-5.4-14.92z" fill="#263238"/><path fill="#66f28d" d="M150.42 409.88l136.8-36.02 63.65 34.12-133.82 44.58-66.63-42.68z"/><path d="M158.9 409.27l61 39.21 125.41-41.69-61.53-32.68s-37.53 4.94-39.28 5.48-18.3 7.42-18.3 7.42-23.22 4-24.8 4.57-42.5 17.69-42.5 17.69z" fill="#f7f7f7"/><path fill="#dbdbdb" d="M226.21 387.01l7.45 4.83 7.4 4.89 14.74 9.89 14.64 10.03 7.29 5.07 7.24 5.13-7.45-4.83-7.4-4.89-14.74-9.89-14.64-10.03-7.29-5.07-7.24-5.13zM237.86 415.59c1.58-.52 3.19-1 4.8-1.38s3.23-.81 4.85-1.19 3.26-.72 4.9-1 3.28-.61 4.94-.83c-1.59.52-3.2 1-4.81 1.39s-3.23.81-4.85 1.18-3.24.72-4.88 1-3.28.61-4.95.83zM209.88 431.92c4.13-2 8.3-3.87 12.47-5.74s8.37-3.69 12.57-5.52c2.09-.92 4.21-1.78 6.34-2.63a9.83 9.83 0 011.69-.5l1.68-.39 3.35-.75c4.48-.94 9-1.86 13.46-2.68-4.43 1.15-8.88 2.21-13.33 3.29l-3.33.79a25.11 25.11 0 00-3.26.89c-2.11.85-4.21 1.78-6.32 2.66l-12.63 5.35c-4.22 1.77-8.44 3.53-12.69 5.23zM214.15 434.72q6-2.91 12.08-5.68c4-1.88 8.11-3.66 12.17-5.48q3-1.35 6.14-2.63c.52-.21 1-.42 1.58-.62s1.1-.28 1.64-.41l3.26-.74c4.35-.92 8.71-1.81 13.09-2.59-4.31 1.13-8.63 2.16-13 3.21l-3.24.78c-.54.13-1.09.25-1.59.42s-1 .4-1.52.61l-6.12 2.64c-4.09 1.75-8.15 3.57-12.24 5.3s-8.13 3.47-12.25 5.19zM218.39 437c4.08-1.79 8.19-3.51 12.31-5.21s8.26-3.35 12.4-5c2.08-.81 4.12-1.64 6.28-2.36l6.44-1.8c4.3-1.16 8.6-2.32 12.94-3.38-4.24 1.4-8.5 2.69-12.77 4l-6.41 1.88c-2.06.7-4.14 1.57-6.22 2.35-4.16 1.59-8.29 3.26-12.46 4.83s-8.32 3.2-12.51 4.69zM279.82 416.74q5.7-2.78 11.55-5.16c1-.4 1.95-.81 2.94-1.18.5-.18 1-.36 1.53-.52l1.53-.4 6.11-1.63c4.06-1.09 8.15-2.12 12.23-3.18s8.16-2.07 12.26-3.08c-4.05 1.19-8.09 2.37-12.15 3.5s-8.11 2.3-12.18 3.4l-6.09 1.66-1.52.42c-.47.15-1 .34-1.46.53l-2.94 1.13c-3.91 1.55-7.83 3.09-11.81 4.51zM275.7 413.51q5.66-2.38 11.41-4.43c1.93-.68 3.83-1.4 5.83-1.93l5.9-1.61c3.93-1.08 7.88-2.11 11.82-3.16s7.89-2.05 11.85-3.05c-3.91 1.18-7.81 2.35-11.73 3.48s-7.84 2.28-11.77 3.37l-5.88 1.66c-1 .26-1.92.6-2.89.92l-2.9 1q-5.77 1.98-11.64 3.75zM271.72 410.64c3.75-1.55 7.53-3 11.35-4.36 1.91-.67 3.8-1.38 5.76-2l5.91-1.45c3.94-1 7.88-1.87 11.83-2.79s7.89-1.81 11.85-2.68c-3.91 1.06-7.82 2.11-11.74 3.12s-7.84 2-11.77 3c-2 .5-3.94 1-5.88 1.49l-5.74 1.91q-5.75 2.01-11.57 3.76zM268.32 408.51c3.6-1.94 7.29-3.64 11.06-5.22.47-.2.94-.39 1.43-.56a12.15 12.15 0 011.51-.42l3-.65 6-1.27c8-1.66 16-3.28 24-4.8-7.92 1.87-15.87 3.65-23.81 5.43l-6 1.31-3 .67a16.61 16.61 0 00-2.83 1c-3.8 1.47-7.53 3.11-11.36 4.51zM264.59 405.92c3.6-1.94 7.29-3.64 11.06-5.23.47-.2.94-.38 1.43-.55a10.41 10.41 0 011.52-.42l3-.65 6-1.27c8-1.66 15.95-3.29 23.95-4.81-7.92 1.88-15.87 3.66-23.81 5.44l-6 1.31-3 .67a16.61 16.61 0 00-2.83 1c-3.76 1.47-7.49 3.1-11.32 4.51zM260.86 403.32c3.6-1.93 7.29-3.63 11.06-5.22.47-.2.94-.38 1.43-.55a10.41 10.41 0 011.52-.42l3-.65 6-1.28c8-1.66 15.95-3.28 23.95-4.8-7.92 1.88-15.87 3.66-23.81 5.43l-6 1.32-3 .67a17.48 17.48 0 00-2.83 1c-3.76 1.47-7.49 3.1-11.32 4.5zM257.13 400.73c3.6-1.93 7.29-3.64 11.06-5.22.47-.2.94-.39 1.43-.56a10.36 10.36 0 011.52-.41l3-.66 6-1.27c8-1.66 16-3.28 24-4.8-7.92 1.88-15.87 3.66-23.81 5.43l-6 1.32-3 .67a16 16 0 00-2.83 1c-3.81 1.47-7.5 3.1-11.37 4.5zM252.32 398.65c3.6-1.94 7.29-3.64 11.06-5.23.47-.19.94-.38 1.43-.55a11.83 11.83 0 011.52-.42l3-.65 6-1.27c8-1.66 16-3.28 24-4.8-7.92 1.87-15.87 3.65-23.81 5.43l-6 1.31-3 .67a16.91 16.91 0 00-2.83 1c-3.81 1.47-7.54 3.11-11.37 4.51zM247.64 396.59c3.6-1.94 7.29-3.64 11.06-5.23.47-.2.94-.38 1.43-.55a10.41 10.41 0 011.52-.42l3-.65 6-1.27c8-1.66 15.95-3.29 23.95-4.8-7.92 1.87-15.87 3.65-23.81 5.43l-6 1.31-3 .67a16.91 16.91 0 00-2.83 1c-3.76 1.47-7.49 3.11-11.32 4.51zM243.91 394c3.59-1.94 7.28-3.64 11-5.22.47-.2.94-.39 1.43-.55a9.29 9.29 0 011.52-.42l3-.6 6-1.17c8-1.52 16-3 24-4.36-7.95 1.73-15.91 3.36-23.87 5l-6 1.21-3 .62a16.46 16.46 0 00-2.82 1c-3.71 1.49-7.43 3.08-11.26 4.49zM240.18 391.4c3.59-1.93 7.27-3.63 11-5.21.47-.2.94-.38 1.43-.55a9 9 0 011.52-.41l3-.55 6-1.05c8-1.35 16-2.66 24-3.85-8 1.56-15.95 3-23.93 4.48l-6 1.09-3 .57a15.05 15.05 0 00-2.81 1c-3.67 1.46-7.39 3.08-11.21 4.48zM236.45 388.81c3.58-1.92 7.26-3.62 11-5.2.47-.2.94-.39 1.43-.55a7.74 7.74 0 011.52-.41l3-.46 6-.86c4-.56 8-1.05 12.05-1.57s8-1 12.06-1.44c-8 1.27-16 2.45-24 3.65l-6 .9-3 .48a14.41 14.41 0 00-2.8.94c-3.71 1.5-7.44 3.12-11.26 4.52zM222.72 440.65c4.17-1.7 8.37-3.32 12.58-4.93s8.44-3.15 12.66-4.72c2.12-.78 4.22-1.53 6.39-2.25l6.47-1.95c4.32-1.25 8.64-2.51 13-3.68-4.26 1.49-8.54 2.88-12.83 4.27l-6.44 2c-2.1.71-4.22 1.53-6.34 2.27l-12.72 4.55c-4.25 1.53-8.49 3.01-12.77 4.44zM282.9 419.9c4.22-1.61 8.47-3.15 12.72-4.67s8.54-3 12.81-4.46c2.14-.74 4.26-1.44 6.46-2.12l6.53-1.81c4.36-1.17 8.72-2.34 13.11-3.42-4.3 1.4-8.62 2.71-12.95 4l-6.51 1.9c-2.12.66-4.27 1.44-6.41 2.14l-12.86 4.29c-4.29 1.42-8.59 2.82-12.9 4.15z"/><path d="M170.67 243c6.78 20.66 44.82 72.41 66.41 75.58 14.08 2.06 65.33-8.17 77.21-14.48 13.91-7.38-6-49.75-15.17-48.36-12.26 1.86-43.67 14.53-54.19 14.92-6.05.23-35.5-24.58-63.52-47.62-10.85-8.89-14.79 7.66-10.74 19.96z" fill="#dd6a57"/><path d="M312.65 250c7.42-.21 15.9-1.05 23.25 1.47s10.35 14.25 9.45 17.05-9.3 19.33-16.7 16.95 1.38-14.33 1.6-16 .57-3.68-.88-4-29.58 3.53-29.58 3.53z" fill="#dd6a57"/><path d="M312.8 251.19c.42.13 22.74-1.3 30.09 1.21s10.35 14.26 9.45 17-9.3 19.34-16.69 17 1.38-14.34 1.59-16 .57-3.68-.87-4-29.59 3.43-29.59 3.43z" fill="#dd6a57"/><path d="M333.44 284.66c-.54-1.46-.13-3.27.17-4.76a16.18 16.18 0 011.79-4.64 26.47 26.47 0 002.21-3.78 8.58 8.58 0 00.22-4.24c-.23-1.22-1.43-1.21-2.47-1.18a37.59 37.59 0 00-4.61.52c-1.64.25-3.27.53-4.9.8a41.46 41.46 0 00-5.06 1c-.12 0-.11.24 0 .23a41.08 41.08 0 004.29-.48c1.62-.21 3.24-.4 4.86-.58s3-.4 4.53-.54a4.55 4.55 0 012.14 0c.52.31.35 1.79.33 2.28a7.23 7.23 0 01-1.54 3.91 22.3 22.3 0 00-2.07 3.81 11.46 11.46 0 00-.93 4 16.08 16.08 0 00.74 3.75c.07.15.36.07.3-.1z" fill="#263238"/><path d="M283.1 263.05s26.5-12.08 32-14.42c10.95-4.69 51.73-7.81 56.92-6.73s3.7 12-24.21 14.79c-14.7 1.49-19.37 8.14-20.45 12.31s.39 13.06 7.33 15.08 14.64-6.58 21.32-5.66-1.22 11.17-7.84 16.43-16.54 8.15-23.17 8.49-27.64 2.33-27.64 2.33z" fill="#dd6a57"/><path d="M344.75 282c-3.24 1.18-7 2.83-10.47 1.86s-5.12-4-5.83-7.43-.61-7 1.25-10.09a16.88 16.88 0 017.2-6.21 41 41 0 0111.33-3.2c.17 0 .11-.29-.07-.27-3.62.4-14.77 1.26-19.54 9.33-1.95 3.29-1.9 6.81-1.2 10.31.64 3.23 2 6.59 5.26 7.93 4 1.64 8.52-.54 12.24-2.07.16-.07 0-.23-.17-.16z" fill="#263238"/><path d="M227 257.84s-9.66 9.33-18.43 17.82c-6.9 6.73-13.27 12.93-13.87 13.65a284.69 284.69 0 01-22.64-42.53c-8.42-20.15-1.4-29.48 8.09-26.4a17.16 17.16 0 014.08 2c11.33 7.52 42.77 35.46 42.77 35.46z" fill="#66f28d"/><path d="M169.23 238.49a.87.87 0 11-.87-.87.87.87 0 01.87.87zm12.5-.87a.87.87 0 10.88.87.87.87 0 00-.88-.87zm13.38 0a.87.87 0 10.87.87.87.87 0 00-.87-.87zm-20.06-9.73a.87.87 0 10.87.87.87.87 0 00-.87-.87zm13.37 0a.87.87 0 10.87.87.87.87 0 00-.87-.87zm-6.69 28.55a.88.88 0 10.88.88.87.87 0 00-.88-.88zm13.38 0a.88.88 0 10.87.88.87.87 0 00-.87-.88zm13.37 0a.88.88 0 10.87.88.87.87 0 00-.87-.88zm13.37 0a.88.88 0 10.88.88.87.87 0 00-.88-.88zm-46.8-9.73a.87.87 0 10.87.87.87.87 0 00-.87-.87zm13.37 0a.87.87 0 10.87.87.87.87 0 00-.87-.87zm13.37 0a.87.87 0 10.88.87.87.87 0 00-.88-.87zm12.76.25a.87.87 0 101.32 1.14zm-19.44 28.31a.87.87 0 10.87.87.87.87 0 00-.87-.87zm-6.69-9.74a.88.88 0 10.87.87.87.87 0 00-.87-.87zm13.37 0a.88.88 0 10.88.87.87.87 0 00-.88-.87zm13.38 0a.88.88 0 10.87.87.88.88 0 00-.87-.87z" fill="#fff"/><path d="M211.59 272.74l-3 2.92c-6.9 6.73-13.28 12.93-13.87 13.65a284.69 284.69 0 01-22.64-42.53c-.49-1.18-.94-2.33-1.33-3.45-.21-.6-.41-1.19-.59-1.77-5.2-16.53 1.38-24 10-21.18l.18.07z" fill="#263238"/><path d="M201 353.1l-2.85-47.72s12.84-14.2 10-27c-1.43-6.5-23.58-55.87-25.75-57.9-8.73-8.13-23.46-4.89-29.5-.32-33.48 25.3-57.07 79.59-68.39 133z" fill="#66f28d"/><path d="M201 353.1l-2.85-47.72s12.84-14.2 10-27c-1.43-6.5-23.58-55.87-25.75-57.9-8.73-8.13-23.46-4.89-29.5-.32-33.48 25.3-57.07 79.59-68.39 133z" fill="#66f28d"/><path d="M198.1 305.38l2.9 47.72H84.45c11.32-53.37 34.91-107.66 68.39-133a19.57 19.57 0 014.24-2.37c7.14-3 18.18-3.91 25.26 2.69 2.17 2 24.32 51.4 25.75 57.9 2.85 12.86-9.99 27.06-9.99 27.06z" fill="#66f28d"/><path d="M155.86 219.67a.87.87 0 11-.87-.87.87.87 0 01.87.87zm12.5-.87a.87.87 0 10.87.87.87.87 0 00-.87-.87zm12.59.51a.87.87 0 00.79 1.23.85.85 0 00.5-.16 14.06 14.06 0 00-1.24-1.07zm-39.33 18.31a.87.87 0 10.87.87.88.88 0 00-.87-.87zm13.37 0a.87.87 0 10.87.87.87.87 0 00-.86-.87zm13.37 0a.87.87 0 10.87.87.87.87 0 00-.87-.87zm13.37 0a.87.87 0 10.88.87.87.87 0 00-.88-.87zm-33.43-9.73a.87.87 0 10.88.87.87.87 0 00-.88-.87zm13.38 0a.87.87 0 10.87.87.87.87 0 00-.87-.87zm13.37 0a.87.87 0 10.87.87.87.87 0 00-.87-.87zm-46.81 28.55a.88.88 0 10.88.88.87.87 0 00-.88-.88zm13.38 0a.88.88 0 100 1.75.88.88 0 000-1.75zm13.37 0a.88.88 0 10.87.88.87.87 0 00-.86-.88zm13.37 0a.88.88 0 10.87.88.87.87 0 00-.87-.88zm13.37 0a.88.88 0 10.88.88.87.87 0 00-.88-.88zm13.38 0a.88.88 0 10.87.88.87.87 0 00-.87-.88zm-60.18-9.73a.87.87 0 10.87.87.87.87 0 00-.87-.87zm13.37 0a.87.87 0 10.88.87.87.87 0 00-.88-.87zm13.38 0a.87.87 0 10.87.87.87.87 0 00-.87-.87zm13.37 0a.87.87 0 10.87.87.87.87 0 00-.87-.87zm13.37 0a.87.87 0 10.87.87.87.87 0 00-.87-.87zm-73.55 28.56a.87.87 0 10.87.87.87.87 0 00-.87-.87zm13.37 0a.87.87 0 10.88.87.87.87 0 00-.88-.87zm13.38 0a.87.87 0 10.87.87.88.88 0 00-.87-.87zm13.37 0a.87.87 0 10.87.87.87.87 0 00-.86-.87zm13.37 0a.87.87 0 10.87.87.87.87 0 00-.87-.87zm13.37 0a.87.87 0 10.88.87.87.87 0 00-.88-.87zm13.38 0a.87.87 0 10.87.87.87.87 0 00-.87-.87zm-73.55-9.74a.88.88 0 10.87.87.87.87 0 00-.87-.87zm13.37 0a.88.88 0 10.87.87.87.87 0 00-.87-.87zm13.37 0a.88.88 0 000 1.75.88.88 0 100-1.75zm13.38 0a.88.88 0 10.87.87.87.87 0 00-.87-.87zm13.37 0a.88.88 0 10.87.87.87.87 0 00-.87-.87zm13.37 0a.88.88 0 10.87.87.87.87 0 00-.87-.87zm13.37 0a.88.88 0 10.88.87.87.87 0 00-.88-.87zm-99.62 28.89c-.19.46-.38.93-.56 1.4a.87.87 0 00.76-.86.82.82 0 00-.2-.54zm12.7-.33a.87.87 0 10.87.87.87.87 0 00-.87-.87zm13.37 0a.87.87 0 10.88.87.87.87 0 00-.88-.87zm13.38 0a.87.87 0 10.87.87.88.88 0 00-.87-.87zm13.37 0a.87.87 0 10.87.87.87.87 0 00-.86-.87zm13.37 0a.87.87 0 10.87.87.87.87 0 00-.87-.87zm13.37 0a.87.87 0 10.88.87.87.87 0 00-.88-.87zm13.38 0a.87.87 0 10.87.87.87.87 0 00-.87-.87zm-86.93-9.73a.87.87 0 10.88.87.87.87 0 00-.88-.87zm13.38 0a.87.87 0 10.87.87.87.87 0 00-.87-.87zm13.37 0a.87.87 0 10.87.87.87.87 0 00-.87-.87zm13.37 0a.87.87 0 10.88.87.87.87 0 00-.88-.87zm13.38 0a.87.87 0 10.87.87.87.87 0 00-.87-.87zm13.37 0a.87.87 0 10.87.87.87.87 0 00-.87-.87zm13.37 0a.87.87 0 10.87.87.87.87 0 00-.87-.87zm13.37 0a.87.87 0 10.88.87.87.87 0 00-.88-.87zM101.5 312.91a.88.88 0 10.87.88.87.87 0 00-.87-.88zm13.37 0a.88.88 0 10.87.88.87.87 0 00-.87-.88zm13.37 0a.88.88 0 10.88.88.87.87 0 00-.88-.88zm13.38 0a.88.88 0 100 1.75.88.88 0 000-1.75zm13.37 0a.88.88 0 10.87.88.87.87 0 00-.86-.88zm13.37 0a.88.88 0 10.87.88.87.87 0 00-.87-.88zm13.37 0a.88.88 0 10.88.88.87.87 0 00-.88-.88zm13.38 0a.88.88 0 10.87.88.87.87 0 00-.87-.88zm-86.93-9.73a.87.87 0 10.88.87.87.87 0 00-.88-.87zm13.38 0a.87.87 0 10.87.87.87.87 0 00-.87-.87zm13.37 0a.87.87 0 10.87.87.87.87 0 00-.87-.87zm13.37 0a.87.87 0 10.88.87.87.87 0 00-.88-.87zm13.38 0a.87.87 0 10.87.87.87.87 0 00-.87-.87zm13.37 0a.87.87 0 10.87.87.87.87 0 00-.87-.87zm13.37 0a.87.87 0 10.87.87.87.87 0 00-.87-.87zM94.81 322a.88.88 0 10.87.87.87.87 0 00-.87-.87zm6.69 9.74a.87.87 0 10.87.87.87.87 0 00-.87-.87zm13.37 0a.87.87 0 10.87.87.87.87 0 00-.87-.87zm13.37 0a.87.87 0 10.88.87.87.87 0 00-.88-.87zm13.38 0a.87.87 0 10.87.87.88.88 0 00-.87-.87zm13.37 0a.87.87 0 10.87.87.87.87 0 00-.86-.87zm13.37 0a.87.87 0 10.87.87.87.87 0 00-.87-.87zm13.37 0a.87.87 0 10.88.87.87.87 0 00-.88-.87zm13.38 0a.87.87 0 10.87.87.87.87 0 00-.87-.87zM108.18 322a.88.88 0 10.88.87.87.87 0 00-.88-.87zm13.38 0a.88.88 0 10.87.87.87.87 0 00-.87-.87zm13.37 0a.88.88 0 10.87.87.87.87 0 00-.87-.87zm13.37 0a.88.88 0 000 1.75.88.88 0 100-1.75zm13.38 0a.88.88 0 10.87.87.87.87 0 00-.87-.87zm13.37 0a.88.88 0 10.87.87.87.87 0 00-.87-.87zm13.37 0a.88.88 0 10.87.87.87.87 0 00-.87-.87zm-93.61 18.83a.87.87 0 10.87.87.87.87 0 00-.87-.87zm-6.68 9.73a.88.88 0 10.87.87.87.87 0 00-.87-.87zm13.37 0a.88.88 0 10.87.87.87.87 0 00-.87-.87zm13.37 0a.88.88 0 10.87.87.87.87 0 00-.87-.87zm13.37 0a.88.88 0 000 1.75.88.88 0 100-1.75zm13.38 0a.88.88 0 10.87.87.88.88 0 00-.87-.87zm13.37 0a.88.88 0 10.87.87.87.87 0 00-.86-.87zm13.37 0a.88.88 0 10.87.87.87.87 0 00-.87-.87zm13.37 0a.88.88 0 000 1.75.88.88 0 100-1.75zm13.38 0a.88.88 0 10.87.87.87.87 0 00-.87-.87zm-86.93-9.73a.87.87 0 10.88.87.87.87 0 00-.88-.87zm13.38 0a.87.87 0 10.87.87.87.87 0 00-.87-.87zm13.37 0a.87.87 0 10.87.87.87.87 0 00-.87-.87zm13.37 0a.87.87 0 10.88.87.87.87 0 00-.88-.87zm13.38 0a.87.87 0 10.87.87.87.87 0 00-.87-.87zm13.37 0a.87.87 0 10.87.87.87.87 0 00-.87-.87zm13.37 0a.87.87 0 10.87.87.87.87 0 00-.87-.87z" fill="#fff"/><path d="M157.08 217.77L125.44 353.1h-41c11.32-53.37 34.91-107.66 68.39-133a19.57 19.57 0 014.25-2.33z" fill="#263238"/><path d="M183.64 220.05s1.22 17.42-1.95 17.78c-9.75 1.11-20.89-12.11-21.53-14.22-.16-.54.35-14.1.77-24.64.27-6.78.51-12.31.51-12.31l25.25 13.79-2.84 18.29z" fill="#dd6a57"/><path d="M186.69 200.45l-2.84 18.29A37.12 37.12 0 01160.93 199c.27-6.78.51-12.31.51-12.31l3.18 1.6z" fill="#263238"/><path d="M209.9 172.26c3.67 32.28-15.25 38.12-22.21 38.91-6.32.71-27.93 2.33-34.91-29.4s6.86-43.64 21.23-46 32.22 4.23 35.89 36.49z" fill="#dd6a57"/><path d="M203.39 168c-.77-.06-1.46-.24-2.21-.37a3.6 3.6 0 01-2.19-.81 1.16 1.16 0 01-.06-1.41 2.88 2.88 0 012.79-.79 4.22 4.22 0 012.71 1.38 1.23 1.23 0 01-1.04 2zM181 169.69a21 21 0 002.17-.56 3.59 3.59 0 002.11-1 1.16 1.16 0 00-.06-1.41 2.91 2.91 0 00-2.86-.55 4.2 4.2 0 00-2.57 1.61 1.23 1.23 0 001.21 1.91zM185.64 177.69c0-.08-.17.12-.16.21.22 2.2.09 4.76-1.85 5.62-.06 0 0 .14 0 .13 2.44-.51 2.56-3.91 2.01-5.96z" fill="#263238"/><path d="M183.51 175.52c-3.57 0-3.37 7.1-.06 7.13s3.05-7.1.06-7.13z" fill="#263238"/><path d="M182.12 175.93c-.61.42-1.2 1.15-2 1.25s-1.55-.62-2.14-1.32c-.06-.08-.12 0-.12.08 0 1.37.59 2.76 2.06 2.92s2.27-1.09 2.57-2.47c.11-.26-.12-.63-.37-.46zM199.46 176.3c0-.08.17.1.17.19 0 2.22.32 4.76 2.34 5.45.06 0 .05.13 0 .12-2.47-.29-2.89-3.67-2.51-5.76z" fill="#263238"/><path d="M201.39 174c3.55-.34 4 6.79.68 7.11s-3.66-6.87-.68-7.11z" fill="#263238"/><path d="M202.9 174.33c.59.35 1.19 1 1.86 1s1.32-.8 1.77-1.57c.05-.08.11 0 .12.07.11 1.36-.25 2.8-1.55 3.14s-2.12-.8-2.53-2.14c-.07-.24.1-.64.33-.5zM187.19 194.62c.52.53 1 1.25 1.84 1.34a6 6 0 002.39-.52.08.08 0 01.09.12 3 3 0 01-2.83 1.15 2.34 2.34 0 01-1.7-2c.02-.12.14-.16.21-.09zM196.12 186.27s.58 3.28.65 4.84c0 .15-.37.23-.9.28a.07.07 0 01-.06 0 7.44 7.44 0 01-7.3-2.48.16.16 0 01.22-.23 11.13 11.13 0 006.84 1.67c.09-.43-1.19-5.59-.95-5.62a13.67 13.67 0 013.57.67c-1-6.88-3.14-13.53-4.05-20.39a.21.21 0 01.4-.12c2.71 6.82 4.06 14.7 5.3 21.77.16.89-3.09-.15-3.72-.39z" fill="#263238"/><path d="M182.33 188.92a10.14 10.14 0 1110.14-12.39 10.14 10.14 0 01-10.14 12.39zm.47-18.92a8.42 8.42 0 00-2.17.22 8.77 8.77 0 102.17-.22zM205.49 186.66c-3.88-.1-7.3-4.16-7.78-9.42a12.09 12.09 0 011.48-7.26A6.32 6.32 0 01210 169a12.1 12.1 0 012.78 6.87c.51 5.56-2.44 10.4-6.58 10.79a5 5 0 01-.71 0zm-.56-18.88a4.34 4.34 0 00-.51 0 5.42 5.42 0 00-4.07 2.88 10.87 10.87 0 00-1.3 6.44c.45 4.82 3.57 8.5 7 8.18s5.81-4.5 5.36-9.32a10.77 10.77 0 00-2.45-6.09 5.55 5.55 0 00-4.03-2.09z" fill="#66f28d"/><path d="M192.24 177.73l-1-1c1.42-1.42 4.8-3.48 7.51-1.07l-.9 1c-2.4-2.11-5.48.94-5.61 1.07zM147.48 184.48l-1.25-.51c.24-.58 2.4-5.74 5.37-6.51 2.78-.71 21-.69 21.81-.69v1.36c-5.23 0-19.31.09-21.46.64-1.95.51-3.89 4.3-4.47 5.71z" fill="#66f28d"/><path d="M154.6 179.83c7.52-.06 7.27-11.9 7.27-11.9s8.51-.92 8.91-14.68c0 0 4.23 8.23 15.82 9.74 2.45.32-5.86-5.89-5.86-5.89s10 8.73 28.15 5.06c1.28-.26-1.78-19.45-16.19-25.77s-27.24-2.39-35.94 6.77c0 0-10.4 5-11.41 15s6.33 21.69 9.25 21.67z" fill="#263238"/><path d="M158.19 183.67s-7.36-9.95-11.89-7.3 1.19 17.2 6.64 19.07a5.49 5.49 0 007.28-3.15z" fill="#dd6a57"/><path d="M148 180.5c-.08 0-.1.12 0 .15 3.83 1.43 5.91 4.89 7.41 8.49-1.17-1.37-2.72-2.1-4.56-.71-.1.07 0 .23.11.2a3.38 3.38 0 013.74 1.08 16.24 16.24 0 011.87 3c.18.33.79.14.65-.25v-.09c-.05-4.87-3.98-11.52-9.22-11.87z" fill="#263238"/><path d="M156 193.92a1.14 1.14 0 11-1.13-1.13 1.14 1.14 0 011.13 1.13zM152.77 192a.72.72 0 11-.72-.72.72.72 0 01.72.72z" fill="#fff"/><path d="M146.85 182.8l-2.21.54a.45.45 0 01-.55-.33.46.46 0 01.33-.55l2.21-.55a.46.46 0 01.55.34.46.46 0 01-.33.55zM146.55 181.37l-2.27.22a.45.45 0 01-.49-.41.44.44 0 01.4-.49l2.27-.23a.45.45 0 01.49.41.46.46 0 01-.4.5z" fill="#66f28d"/><path d="M185.14 225.41c.14 1.91.23 3.81.18 5.72a31.14 31.14 0 01-.52 5.64c-.39 1.81-.93 3.7-2.22 4.9s-3.26 1-5 .42c-3.54-1.14-6.72-3.36-9.74-5.63q-2.26-1.72-4.36-3.68a40.56 40.56 0 01-4-4.11 41.9 41.9 0 007.87 8.37 41.35 41.35 0 004.67 3.41 24.29 24.29 0 005.24 2.57 9.46 9.46 0 003 .46 4.9 4.9 0 001.55-.3 4.46 4.46 0 001.34-.86 6.89 6.89 0 001.63-2.57 13 13 0 00.72-2.85 36.57 36.57 0 00-.36-11.49z" fill="#263238"/><path d="M196.09 328.79s-5.35-10.53 2.12-13.6 11.07 8.19 11.07 8.19z" fill="#455a64"/><path d="M240.64 399.79l-1.07 11.51-.33 3.8-2.94-2.45-8.85-7.45-31.53-76.84 13.19-5.41 31.53 76.85z" fill="#455a64"/><path fill="#37474f" d="M239.58 411.31l-.34 3.8-2.94-2.45 3.28-1.35zM194.627 328.405l15.395-6.317 1.253 3.053-15.395 6.317zM196.016 331.784l15.395-6.317 1.253 3.053-15.395 6.317z"/><path fill="#37474f" d="M197.28 334.83l4.97-2.04 8.67 28.92-1.88.65-11.76-27.53z"/><path d="M129.22 234.9C88.54 265.53 37.21 345.75 45 365.65c7.11 18.17 69.58 36.43 106.36 41.45 7 1 11.91-58.76 4.46-60.07-13.31-2.33-43.49-15.29-44.38-15.51-1.91-.47 29.76-68.77 40.24-90.15 14.6-29.79-4.68-19.88-22.46-6.47z" fill="#dd6a57"/><path d="M230.39 360.84c-.73 6.73-17.17 3.54-17.17 3.54a12.46 12.46 0 014.29 7.33c.69 5.1-7 8.41-7 8.41a15.45 15.45 0 013.29 8.46c.17 4.94-7.11 9.4-7.11 9.4a13.5 13.5 0 01-1.79 9.25c-4.81 7.22-18.05 6.83-26.47 6.67s-32.14-8.49-36.82-9.62l.56-54s38-10 47.82-8.43c8.31 1.31 41.5 8.71 40.4 18.99z" fill="#dd6a57"/><path d="M213.11 364.17c-8.5-3.55-17.83-5.05-26.85-6.41-.2 0-.25.29 0 .31 9 1.25 17.86 4.92 26.78 6.52a.22.22 0 00.07-.42zM210.35 379.42a23.61 23.61 0 00-6.19-1.05c-2.22-.22-4.43-.41-6.66-.55q-6.66-.45-13.35-.56c-.19 0-.25.3 0 .32 4.43.3 8.85.67 13.27 1.16q3.3.36 6.62.78a28.66 28.66 0 006.26.5.32.32 0 00.05-.6zM206.5 398c-1.66-.72-3.83-.57-5.62-.65q-3-.13-6.08-.31c-4.06-.23-8.11-.46-12.15-.83-.2 0-.25.29 0 .31 4.1.4 8.2.85 12.31 1.21q3 .27 6.05.5c1.72.14 3.85.5 5.53 0a.11.11 0 00-.04-.23z" fill="#263238"/><path d="M133.17 287.78s-40.49-22.13-41.34-22.5c0 0 17.59-18.79 37.66-33.5 14.52-10.65 25.08-15.63 28.77-13.84 3 1.44.54 8.27-.59 12.59-5.49 20.98-24.5 57.25-24.5 57.25z" fill="#66f28d"/><path d="M129.12 238.49a.88.88 0 11-.88-.87.87.87 0 01.88.87zm12.5-.87a.87.87 0 10.87.87.88.88 0 00-.87-.87zm13.37 0a.87.87 0 00-.87.87.86.86 0 00.8.86c.19-.53.37-1.06.55-1.58a.81.81 0 00-.47-.15zm-20-9.72l-.94.63a.85.85 0 000 .23.88.88 0 101-.86zm13.26 0a.87.87 0 10.88.87.87.87 0 00-.83-.88zm-46.8 28.55a.88.88 0 10.87.88.87.87 0 00-.82-.89zm13.37 0a.88.88 0 10.87.88.87.87 0 00-.82-.89zm13.37 0a.88.88 0 10.88.88.87.87 0 00-.83-.89zm13.38 0a.88.88 0 100 1.75.88.88 0 000-1.75zm-20.06-9.73a.87.87 0 10.87.87.87.87 0 00-.82-.88zm13.37 0a.87.87 0 10.87.87.87.87 0 00-.82-.88zm13.37 0a.87.87 0 10.88.87.87.87 0 00-.83-.88zm-53.44 18.81a.88.88 0 10.87.87.87.87 0 00-.87-.87zm20.06 9.74a.87.87 0 10.87.87.87.87 0 00-.87-.87zm13.37 0a.87.87 0 10.88.87.87.87 0 00-.88-.87zm-20.06-9.74a.88.88 0 10.88.87.87.87 0 00-.88-.87zm13.38 0a.88.88 0 10.87.87.87.87 0 00-.87-.87zm13.37 0a.88.88 0 10.87.87.87.87 0 00-.87-.87zm-.87 19.7a.85.85 0 00.17.52l.7-1.39a.87.87 0 00-.87.87zM155 218.8a.87.87 0 10.87.87.87.87 0 00-.87-.87z" fill="#fff"/></g><g><path d="M384.79 365.18h-31.45c-2.69 0 1.2-7.64 11-10.57s23.54 7.71 20.45 10.57z" fill="#37474f"/><path d="M372.45 365.18a7.31 7.31 0 01.23-2.63 9.51 9.51 0 011-2.47 8 8 0 011.75-2 6.19 6.19 0 012.36-1.22 20.52 20.52 0 00-1.79 1.74 14.07 14.07 0 00-1.44 2 27.83 27.83 0 00-2.11 4.58z" fill="#263238"/><path d="M376.18 357.91a13 13 0 012.81.92 16 16 0 012.58 1.47 10 10 0 012.2 2.07 4.32 4.32 0 011 2.81 6.17 6.17 0 00-1.61-2.29 17.11 17.11 0 00-2.19-1.77c-1.52-1.12-3.16-2.12-4.79-3.21z" fill="#263238"/><path fill="#455a64" d="M461.29 348.53H321.2l22.28-104.3h140.09l-22.28 104.3z"/><path fill="#37474f" d="M466.47 348.53H326.38l22.28-104.3h140.09l-22.28 104.3z"/><path fill="#263238" d="M390.91 311.13h-3.28l4.99-23.39h3.28l-4.99 23.39zM397.4 311.13h-3.29l4.99-23.39h3.28l-4.98 23.39zM403.88 311.13h-3.29l4.99-23.39h3.29l-4.99 23.39zM410.36 311.13h-3.28l4.98-23.39h3.29l-4.99 23.39zM416.84 311.13h-3.28l4.99-23.39h3.28l-4.99 23.39zM423.33 311.13h-3.29l4.99-23.39h3.28l-4.98 23.39zM429.81 311.13h-3.29l4.99-23.39h3.29l-4.99 23.39z"/><path fill="#455a64" d="M426.85 375.76h-68.9v-5.34l68.9-2.23v7.57z"/><path fill="#455a64" d="M445.58 375.76h-36.99l-22.28-58.44h36.99l22.28 58.44z"/><path fill="#263238" d="M451.67 375.76h-36.99l-22.28-58.44h36.99l22.28 58.44z"/><path fill="#455a64" d="M346.15 371.14H258.8v-5.79l87.35-2.41v8.2z"/></g><g><path fill="#37474f" d="M40.91 441.19h105.74v13.34H40.91z"/><path fill="#455a64" d="M61.65 441.19h4.31v13.34h-4.31zM123.88 441.19h10.33v13.34h-10.33z"/><path d="M85.93 444.73l-2.53 3.51a.26.26 0 01-.22.12.24.24 0 01-.23-.12l-2.53-3.5v6.49a.28.28 0 01-.55 0v-7.31a.27.27 0 01.11-.22.28.28 0 01.39.07l2.8 3.89 2.8-3.89a.28.28 0 01.39-.07l.07.09a.3.3 0 010 .15v7.31a.28.28 0 01-.27.27.27.27 0 01-.27-.27zM92.94 449.46h-3.6l-.7 1.86a.28.28 0 01-.26.18h-.1a.29.29 0 01-.16-.36l2.74-7.32a.29.29 0 01.27-.17.26.26 0 01.27.17l2.75 7.32a.3.3 0 01-.15.36h-.1a.29.29 0 01-.26-.18zm-3.4-.56h3.2l-1.59-4.24zM96.82 444.15h-2.38a.28.28 0 01-.28-.28.28.28 0 01.28-.27h5.3a.28.28 0 01.27.27.28.28 0 01-.27.28h-2.38v7.08a.28.28 0 01-.27.27.28.28 0 01-.27-.27zM106.69 447.82h-4.06v3.41a.28.28 0 01-.55 0v-7.36a.28.28 0 01.55 0v3.41h4.06v-3.41a.28.28 0 01.27-.27.28.28 0 01.28.27v7.36a.28.28 0 01-.28.27.28.28 0 01-.27-.27z" fill="#fff"/><path fill="#66f28d" d="M40.91 384.98h105.74v17.2H40.91z"/><path d="M92.06 396.26a.24.24 0 01.35 0 4.37 4.37 0 002.6 1 2.94 2.94 0 001.74-.52 1.44 1.44 0 00.67-1.17 1.25 1.25 0 00-.64-1.08 5.11 5.11 0 00-1.83-.65 5 5 0 01-1.86-.66 1.63 1.63 0 01-.81-1.38 1.83 1.83 0 01.82-1.48 3.25 3.25 0 011.91-.57 4.41 4.41 0 012.43.91.25.25 0 01.07.35.24.24 0 01-.34.07 3.9 3.9 0 00-2.16-.84 2.85 2.85 0 00-1.62.48 1.38 1.38 0 00-.62 1.08 1.13 1.13 0 00.59 1 4.66 4.66 0 001.69.6 5.3 5.3 0 012 .72 1.78 1.78 0 01.87 1.49 2 2 0 01-.89 1.58 3.49 3.49 0 01-2 .62 4.89 4.89 0 01-2.91-1.14.28.28 0 01-.06-.41zM103.7 389.73a4.2 4.2 0 012.55.87.28.28 0 010 .39.27.27 0 01-.39.06 3.55 3.55 0 00-2.21-.77 3.45 3.45 0 100 6.9 3.39 3.39 0 002.19-.76.27.27 0 01.39.06.27.27 0 010 .4 4.19 4.19 0 01-2.55.86 4 4 0 110-8zM108.72 390.11a.27.27 0 01.27-.27.28.28 0 01.28.27v7.36a.28.28 0 01-.28.27.28.28 0 01-.27-.27zM112.07 390.11a.28.28 0 01.28-.27h4.06a.28.28 0 010 .55h-3.78v3.13h3.3a.28.28 0 010 .55h-3.3v3.11h3.78a.28.28 0 01.27.29.28.28 0 01-.27.27h-4.09a.28.28 0 01-.25-.27zM119.33 391v6.47a.28.28 0 01-.27.27.28.28 0 01-.27-.27v-7.25a.28.28 0 01.1-.3.28.28 0 01.39.07l4.78 6.63v-6.43a.28.28 0 01.55 0v7.28a.28.28 0 01-.28.27.25.25 0 01-.21-.11h-.05zM131.21 389.73a4.2 4.2 0 012.55.87.27.27 0 010 .39.26.26 0 01-.38.06 3.57 3.57 0 00-2.21-.77 3.45 3.45 0 100 6.9 3.41 3.41 0 002.19-.76.27.27 0 01.39.06.28.28 0 010 .4 4.19 4.19 0 01-2.55.86 4 4 0 110-8zM136.14 390.11a.28.28 0 01.27-.27h4.06a.28.28 0 010 .55h-3.77v3.13h3.3a.28.28 0 010 .55h-3.3v3.11h3.77a.27.27 0 01.27.29.27.27 0 01-.27.27h-4.08a.27.27 0 01-.25-.27z" fill="#fff"/><path fill="#455a64" d="M49.81 384.98h26.57v17.2H49.81z"/><path fill="#66f28d" d="M54.81 387.38h16.58v3.02H54.81zM54.81 392.07h16.58v3.02H54.81zM54.81 396.75h16.58v3.02H54.81z"/><path fill="#37474f" d="M31.03 402.17h108v17.63h-108z"/><path fill="#66f28d" d="M93.99 407.89h25.94v6.19H93.99zM132.94 411a3.43 3.43 0 11-3.43-3.43 3.43 3.43 0 013.43 3.43z"/><path d="M41.11 407a.27.27 0 01.27-.27h4.06a.26.26 0 01.27.27.27.27 0 01-.27.28h-3.78v3.12H45a.28.28 0 01.27.29.28.28 0 01-.27.31h-3.3v3.11h3.78a.28.28 0 010 .55h-4.13a.26.26 0 01-.24-.27zM48.37 407.89v6.46a.28.28 0 01-.55 0v-7.24a.26.26 0 01.11-.3.28.28 0 01.38.06l4.78 6.64v-6.43a.28.28 0 01.27-.27.28.28 0 01.29.27v7.27a.28.28 0 01-.29.27.24.24 0 01-.21-.1zM59.61 411.07a.27.27 0 01-.28-.27.27.27 0 01.28-.28h2.47a.28.28 0 01.25.28v2.75a.33.33 0 01-.11.2 4 4 0 01-2.55.87 4 4 0 110-8 4.12 4.12 0 012.57.9.28.28 0 010 .38.3.3 0 01-.4 0 3.49 3.49 0 10-2.2 6.14 3.53 3.53 0 002.09-.68v-2.32zM64.82 414.62a.28.28 0 01-.27-.27V407a.28.28 0 01.27-.27.27.27 0 01.28.27v7.07h3.78a.28.28 0 110 .55zM71 407a.28.28 0 01.27-.27.28.28 0 01.29.27v7.35a.28.28 0 01-.29.27.28.28 0 01-.27-.27zM74 413.14a.24.24 0 01.35 0 4.38 4.38 0 002.6 1 3 3 0 001.73-.52 1.48 1.48 0 00.68-1.18 1.27 1.27 0 00-.64-1.08 5.32 5.32 0 00-1.83-.64A4.91 4.91 0 0175 410a1.62 1.62 0 01-.82-1.37 1.84 1.84 0 01.83-1.48 3.22 3.22 0 011.9-.58 4.34 4.34 0 012.44.92.25.25 0 01.07.35.24.24 0 01-.34.06 4 4 0 00-2.17-.83 2.82 2.82 0 00-1.61.47 1.4 1.4 0 00-.62 1.09 1.14 1.14 0 00.59 1 4.49 4.49 0 001.69.59 5.47 5.47 0 012 .73 1.75 1.75 0 01.87 1.48A2 2 0 0179 414a3.44 3.44 0 01-2 .62 4.89 4.89 0 01-2.91-1.14.25.25 0 01-.09-.34zM86.5 411h-4.06v3.4a.27.27 0 01-.28.27.28.28 0 01-.27-.27V407a.28.28 0 01.27-.27.27.27 0 01.28.27v3.4h4.06V407a.28.28 0 01.56 0v7.35a.28.28 0 01-.56 0z" fill="#fff"/><path fill="#263238" d="M35.75 369.42h54.56v15.57H35.75zM90.31 369.42h50.44v15.57H90.31z"/><path fill="#fff" d="M35.75 371.03h54.56v12.34H35.75z"/><path d="M40.5 373.57q8.58-.13 17.15-.18l7.76-.06 17.15.06c5.71 0 2 .09 7.75.18-5.71.09-2 .15-7.75.18l-17.15.05-7.76-.05c-5.72-.03-11.43-.1-17.15-.18zM40.5 376q8.58-.14 17.15-.18l7.76-.06 17.15.06c5.71 0 2 .09 7.75.18-5.71.09-2 .15-7.75.18l-17.15.05-7.76-.05c-5.72-.04-11.43-.11-17.15-.18zM40.5 378.41q8.58-.14 17.15-.18l7.76-.06 17.15.06c5.71 0 2 .09 7.75.18-5.71.09-2 .15-7.75.18l-17.15.05-7.76-.05q-8.58-.04-17.15-.18zM40.5 380.83q8.58-.13 17.15-.18l7.76-.06 17.15.06c5.71 0 2 .09 7.75.18-5.71.09-2 .15-7.75.18l-17.15.05-7.76-.06q-8.58 0-17.15-.17z" fill="#dbdbdb"/><path fill="#455a64" d="M101.49 369.42h7.1v15.57h-7.1zM133.37 369.42h4.77v15.57h-4.77z"/><path fill="#66f28d" d="M134.59 441.19H73.14V419.8h61.45zM73.14 441.19H26.48V419.8h46.66z"/><path fill="#fff" d="M134.59 438.97H73.14v-16.95h61.45z"/><path d="M130.61 435.48q-7.19.13-14.36.18l-14.37.06-14.37-.06q-7.19 0-14.37-.18 7.19-.14 14.37-.18l14.37-.05 14.37.05c4.75.03 9.57.1 14.36.18zM130.61 432.16q-7.19.12-14.36.18l-14.37.05-14.37-.05q-7.19-.06-14.37-.18 7.19-.14 14.37-.19l14.37-.05 14.37.06q7.19.02 14.36.18zM130.61 428.83q-7.19.14-14.36.18l-14.37.05-14.37-.06q-7.19 0-14.37-.18 7.19-.13 14.37-.18l14.37-.06 14.37.06q7.19.06 14.36.19zM130.61 425.5q-7.19.13-14.36.18l-14.37.06-14.37-.06q-7.19 0-14.37-.18c4.79-.08 9.58-.15 14.37-.18l14.37-.05 14.37.05c4.75.03 9.57.1 14.36.18z" fill="#dbdbdb"/><path fill="#455a64" d="M33.91 419.79h8.73v21.39h-8.73z"/></g></svg>