<svg xmlns="http://www.w3.org/2000/svg" viewBox="0 0 500 500"><path d="M257.05 260.2H65.36V61.94h191.69zm-187.69-4h183.69V65.94H69.36z" fill="#ebebeb"/><path fill="#ebebeb" d="M157.65 66.98h4v191.21h-4z"/><path fill="#ebebeb" d="M61.73 70.03h198.95v5.57H61.73zM61.73 76.29h198.95v5.57H61.73zM61.73 82.56h198.95v5.57H61.73zM61.73 88.82h198.95v5.57H61.73zM61.73 95.09h198.95v5.57H61.73zM61.73 101.36h198.95v5.57H61.73zM61.73 107.62h198.95v5.57H61.73zM61.73 113.89h198.95v5.57H61.73zM61.73 120.16h198.95v5.57H61.73z"/><path fill="#263238" d="M247.8 68.9h1v128.39h-1z"/><path fill="#263238" d="M250.08 201.94h-3.55l.89-5.1h1.77l.89 5.1zM251.41 68.9h1v185.73h-1z"/><path fill="#263238" d="M253.68 258.38h-3.55l.89-5.1h1.77l.89 5.1z"/><path fill="#dbdbdb" d="M55.53 61.16h211.36v11.65H55.53z"/><path d="M373.44 88.32c0-.84.11-3.06.11-4 0-4.07-1.44-5.91-5.23-6-1.79-.11-2.85-1.17-2.85-2.68s1.06-2.56 2.85-2.67c3.79-.17 5.23-2 5.23-6.08 0-1-.11-3.18-.11-4 0-5.41 2.29-8.87 10.93-10.76a2.41 2.41 0 011.5 4.57c-5.4 1.67-6.18 3.4-6.18 7.19 0 1.12.11 3 .11 4.13 0 4.34-2.12 6.46-5.8 7.63 3.74 1.23 5.8 3.29 5.8 7.64 0 1.17-.11 3-.11 4.12 0 3.79.78 5.52 6.18 7.19a2.41 2.41 0 01-1.5 4.58c-8.64-1.94-10.93-5.4-10.93-10.86zM406.11 62.85c0 .83-.11 3.06-.11 4 0 4.13 1.5 5.91 5.29 6.08a2.68 2.68 0 110 5.35c-3.79.11-5.29 1.95-5.29 6 0 1 .11 3.17.11 4 0 5.46-2.29 8.92-10.93 10.82a2.4 2.4 0 01-1.45-4.58c5.35-1.67 6.13-3.4 6.13-7.19 0-1.11-.11-3-.11-4.12 0-4.35 2.12-6.47 5.8-7.64-3.74-1.22-5.8-3.29-5.8-7.63 0-1.17.11-3 .11-4.13 0-3.79-.78-5.52-6.13-7.19a2.4 2.4 0 011.45-4.57c8.64 1.95 10.93 5.39 10.93 10.8zM405 257.47a2.36 2.36 0 01-1.64 4 2.51 2.51 0 01-1.73-.67l-10.52-10.68c-.11 0-.15-.11-.19-.22a.39.39 0 00-.11-.08 1.08 1.08 0 01-.11-.3.19.19 0 01-.11-.15c0-.07 0-.18-.08-.22s-.07-.15-.07-.19v-.26-.22-.45c0-.08.07-.12.07-.15s0-.19.08-.3 0 0 0-.08a2.45 2.45 0 01.18-.33.08.08 0 01.08-.08.64.64 0 01.22-.26l10.52-10.67a2.44 2.44 0 013.37 0 2.37 2.37 0 010 3.37l-8.87 9zM414.55 258.66l9.18-21.83a2.07 2.07 0 012.73-1.08 2 2 0 011.05 2.66l-9.18 21.86a2.06 2.06 0 01-1.91 1.24 1.78 1.78 0 01-.74-.15 2 2 0 01-1.13-2.7zM445.63 249.86a1.28 1.28 0 01-.26.26l-10.52 10.68a2.45 2.45 0 01-3.37 0 2.37 2.37 0 010-3.37l8.87-9-8.87-9a2.37 2.37 0 010-3.37 2.44 2.44 0 013.37 0l10.52 10.67a1.59 1.59 0 01.26.26v.08a2.44 2.44 0 01.19.33v.08a1.15 1.15 0 00.11.33V248.94a1.76 1.76 0 00-.11.33v.12c0 .12-.11.32-.19.47z" fill="#ebebeb"/><path d="M469.86 160.33a7.88 7.88 0 01-7.3 7.86h-44.62a9.26 9.26 0 01-.86-18.48 15.6 15.6 0 0130.23-4.88 9.15 9.15 0 014.14-1 9.27 9.27 0 019.25 8.69 7.63 7.63 0 011.28-.1 7.87 7.87 0 017.88 7.91z" fill="#dbdbdb"/><g><path fill="#263238" d="M66.73 420.76l45.82-.25 45.82-.08 91.63-.17 91.63.17 45.82.08 45.82.25-45.82.24-45.82.09-91.63.17-91.63-.17-45.82-.09-45.82-.24z"/></g><g fill="#ebebeb"><ellipse cx="86.08" cy="459.52" rx="44.28" ry="8.5"/><ellipse cx="263.97" cy="445.33" rx="174.42" ry="18.91"/></g><g><path fill="#fff" d="M280.48 61.59h79.11v50.47h-79.11z"/><path d="M360.09 112.56H280V61.09h80.11zm-79.11-1h78.11V62.09H281z" fill="#ebebeb"/><path fill="#66f28d" d="M280.48 61.59h79.11v9.54h-79.11z"/><path d="M360.09 71.64H280V61.09h80.11zm-79.11-1h78.11v-8.55H281z" fill="#ebebeb"/><path d="M289.43 66.43A2.4 2.4 0 11287 64a2.4 2.4 0 012.43 2.43z" fill="#a6a6a6"/><path d="M299.24 66.43a2.4 2.4 0 11-2.4-2.4 2.4 2.4 0 012.4 2.4z" fill="#ebebeb"/><path d="M309.05 66.43a2.4 2.4 0 11-2.4-2.4 2.4 2.4 0 012.4 2.4z" fill="#fff"/><path d="M294.13 90a9.75 9.75 0 019.75-9.57 10 10 0 016.12 2.08 1.58 1.58 0 01.26 2.13 1.55 1.55 0 01-2.12.29 6.63 6.63 0 00-4.29-1.46 7 7 0 00-4.78 1.91 6.54 6.54 0 00-1.91 4.62 6.45 6.45 0 001.94 4.62 7 7 0 004.78 1.92 6.7 6.7 0 004.29-1.47 1.61 1.61 0 012.12.3 1.57 1.57 0 01-.29 2.13 9.94 9.94 0 01-6.15 2.08 9.73 9.73 0 01-9.72-9.58zM314.86 95a1.39 1.39 0 011.94-.18 8.69 8.69 0 005.08 2 5.76 5.76 0 003.32-1 2.39 2.39 0 001.14-1.92 1.53 1.53 0 00-.23-.85 2.5 2.5 0 00-.8-.79 10.45 10.45 0 00-3.64-1.26h-.06a14.35 14.35 0 01-3.43-1 5.75 5.75 0 01-2.47-2.07 4.07 4.07 0 01-.61-2.18 4.88 4.88 0 012.13-3.88 7.82 7.82 0 014.6-1.41 10.44 10.44 0 015.79 2.12 1.37 1.37 0 01.37 1.89 1.33 1.33 0 01-1.88.4 7.76 7.76 0 00-4.28-1.7 5.09 5.09 0 00-3 .9 2.13 2.13 0 00-1 1.68 1.22 1.22 0 00.19.74 2.46 2.46 0 00.71.69 9 9 0 003.33 1.17h.05a15.8 15.8 0 013.67 1.12 6.13 6.13 0 012.65 2.21 4.26 4.26 0 01.64 2.25A5.14 5.14 0 01326.8 98a8.38 8.38 0 01-4.92 1.51 11.49 11.49 0 01-6.81-2.66 1.42 1.42 0 01-.21-1.85zM332.33 95a1.39 1.39 0 011.94-.18 8.66 8.66 0 005.07 2 5.79 5.79 0 003.33-1 2.42 2.42 0 001.14-1.92 1.53 1.53 0 00-.24-.85 2.5 2.5 0 00-.8-.79 10.45 10.45 0 00-3.64-1.26h-.05a14.35 14.35 0 01-3.43-1 5.69 5.69 0 01-2.47-2.07 4.08 4.08 0 01-.62-2.18 4.91 4.91 0 012.13-3.88 7.82 7.82 0 014.6-1.41 10.44 10.44 0 015.79 2.12 1.37 1.37 0 01.38 1.89 1.34 1.34 0 01-1.89.4 7.76 7.76 0 00-4.28-1.7 5.09 5.09 0 00-3 .9 2.13 2.13 0 00-1 1.68 1.29 1.29 0 00.19.74 2.39 2.39 0 00.72.69 9 9 0 003.32 1.17h.05a15.51 15.51 0 013.67 1.12 6.16 6.16 0 012.66 2.21 4.26 4.26 0 01.64 2.25 5.15 5.15 0 01-2.28 4.07 8.35 8.35 0 01-4.92 1.51 11.43 11.43 0 01-6.8-2.66 1.4 1.4 0 01-.21-1.85z" fill="#ebebeb"/><path fill="#fff" d="M306.14 107.82h108.05v76.51H306.14z"/><path d="M414.7 184.83H305.64v-77.51H414.7zm-108.06-1H413.7v-75.51H306.64z" fill="#ebebeb"/><path fill="#66f28d" d="M306.14 107.82h108.05v9.54H306.14z"/><path d="M414.7 117.87H305.64v-10.55H414.7zm-108.06-1H413.7v-8.55H306.64z" fill="#ebebeb"/><path d="M315.1 112.66a2.4 2.4 0 11-2.4-2.4 2.4 2.4 0 012.4 2.4z" fill="#a6a6a6"/><path d="M324.91 112.66a2.41 2.41 0 11-2.4-2.4 2.4 2.4 0 012.4 2.4z" fill="#ebebeb"/><path d="M334.72 112.66a2.41 2.41 0 11-2.41-2.4 2.4 2.4 0 012.41 2.4z" fill="#fff"/><path fill="#ebebeb" d="M316.38 136.35h5.1v1.86h-5.1zM325.2 136.35h34.65v1.86H325.2z"/><path fill="#66f28d" d="M362.98 136.35h9.69v1.86h-9.69z"/><path fill="#ebebeb" d="M385.15 161.29h9.69v1.86h-9.69z"/><path fill="#a6a6a6" d="M374.78 136.35h16.75v1.86h-16.75z"/><path fill="#ebebeb" d="M321.48 141.34h5.1v1.86h-5.1z"/><path fill="#a6a6a6" d="M330.18 141.34h22.49v1.86h-22.49zM360.36 161.29h22.49v1.86h-22.49zM325.2 156.3h20.77v1.86H325.2z"/><path fill="#66f28d" d="M330.18 146.33H340v1.86h-9.82z"/><path fill="#a6a6a6" d="M369.47 151.32h9.82v1.86h-9.82zM342.85 146.33h33.14v1.86h-33.14z"/><path fill="#66f28d" d="M325.2 161.29h33.14v1.86H325.2zM373.7 141.34h26.59v1.86H373.7z"/><path fill="#ebebeb" d="M355.08 141.34h16.52v1.86h-16.52zM377.92 146.33h16.52v1.86h-16.52zM321.48 146.33h5.1v1.86h-5.1z"/><path fill="#a6a6a6" d="M316.38 151.32h5.1v1.86h-5.1z"/><path fill="#ebebeb" d="M325.2 151.32h14.23v1.86H325.2zM330.18 166.28h14.23v1.86h-14.23z"/><path fill="#66f28d" d="M362.52 171.27h22.93v1.86h-22.93zM346.86 166.28h22.28v1.86h-22.28z"/><path fill="#ebebeb" d="M341.52 171.27h18.36v1.86h-18.36z"/><path fill="#a6a6a6" d="M371.75 166.28h28.54v1.86h-28.54zM330.18 171.27h8.73v1.86h-8.73z"/><path fill="#ebebeb" d="M348.04 156.3h24.63v1.86h-24.63z"/><path fill="#66f28d" d="M374.78 156.3h20.74v1.86h-20.74zM342.5 151.32h24.59v1.86H342.5z"/><path fill="#ebebeb" d="M316.38 156.3h5.1v1.86h-5.1zM316.38 161.29h5.1v1.86h-5.1z"/><path fill="#a6a6a6" d="M321.48 166.28h5.1v1.86h-5.1z"/><path fill="#ebebeb" d="M321.48 171.27h5.1v1.86h-5.1z"/><path d="M319.53 131.44a.43.43 0 010 .63.42.42 0 01-.31.13.44.44 0 01-.32-.13l-2-2v-.05-.06a.07.07 0 000-.05v-.05a.13.13 0 000-.06v-.07l2-2a.47.47 0 01.63 0 .43.43 0 010 .63l-1.66 1.68zM321.32 131.67l1.71-4.09a.4.4 0 01.51-.2.39.39 0 01.2.5L322 132a.39.39 0 01-.35.23.32.32 0 01-.14 0 .37.37 0 01-.19-.56zM327.13 130l-.05.05-2 2a.42.42 0 01-.31.13.44.44 0 01-.32-.13.45.45 0 010-.63l1.66-1.67-1.66-1.68a.45.45 0 010-.63.47.47 0 01.63 0l2 2h.05v.31a.64.64 0 010 .07.16.16 0 000 .18z" fill="#66f28d"/><path fill="#fff" d="M385.01 177.64h79.11v50.47h-79.11z"/><path d="M464.62 228.6h-80.11v-51.46h80.11zm-79.11-1h78.11v-49.46h-78.11z" fill="#ebebeb"/><path fill="#66f28d" d="M385.01 177.64h79.11v9.54h-79.11z"/><path d="M464.62 187.68h-80.11v-10.54h80.11zm-79.11-1h78.11v-8.54h-78.11z" fill="#ebebeb"/><path d="M394 182.48a2.41 2.41 0 11-2.41-2.4 2.4 2.4 0 012.41 2.4z" fill="#a6a6a6"/><path d="M403.77 182.48a2.4 2.4 0 11-2.4-2.4 2.39 2.39 0 012.4 2.4z" fill="#ebebeb"/><path d="M413.58 182.48a2.4 2.4 0 11-2.4-2.4 2.39 2.39 0 012.4 2.4z" fill="#fff"/><path d="M399.78 206.05a9.76 9.76 0 019.75-9.57 9.89 9.89 0 016.14 2.08 1.53 1.53 0 01-1.86 2.42 6.61 6.61 0 00-4.28-1.47 7 7 0 00-4.78 1.92 6.54 6.54 0 00-1.94 4.62 6.46 6.46 0 001.94 4.63 7 7 0 004.78 1.91 6.64 6.64 0 004.28-1.46 1.62 1.62 0 012.13.29 1.57 1.57 0 01-.27 2.13 9.94 9.94 0 01-6.14 2.07 9.72 9.72 0 01-9.75-9.57zM425.27 207.73h-3.78a1.46 1.46 0 01-1.46-1.46 1.48 1.48 0 011.46-1.47h3.78v-3.69a1.5 1.5 0 011.51-1.52 1.52 1.52 0 011.52 1.52v3.69h3.77a1.48 1.48 0 011.46 1.47 1.46 1.46 0 01-1.46 1.46h-3.77v3.69a1.52 1.52 0 01-1.52 1.52 1.5 1.5 0 01-1.51-1.52zM441.75 207.73H438a1.46 1.46 0 01-1.46-1.46 1.48 1.48 0 011.46-1.47h3.78v-3.69a1.5 1.5 0 011.51-1.52 1.53 1.53 0 011.52 1.52v3.69h3.77a1.48 1.48 0 011.46 1.47 1.46 1.46 0 01-1.46 1.46h-3.77v3.69a1.53 1.53 0 01-1.52 1.52 1.5 1.5 0 01-1.51-1.52z" fill="#ebebeb"/><path fill="#455a64" d="M397.61 93.79h53.89v19.95h-53.89z"/><path d="M405.39 107.91v-8.85a.82.82 0 01.83-.83.83.83 0 01.84.83v3.6h3.88v-3.6a.82.82 0 01.83-.83.83.83 0 01.84.83v8.85a.83.83 0 01-.84.82.81.81 0 01-.83-.82v-3.6h-3.88v3.6a.83.83 0 01-.84.82.81.81 0 01-.83-.82zM422.45 99.9h-2.39v8a.81.81 0 01-.82.82.83.83 0 01-.83-.82v-8H416a.83.83 0 01-.82-.84.81.81 0 01.82-.83h6.41a.82.82 0 01.82.83.84.84 0 01-.78.84zM434.78 99.06v8.85a.84.84 0 01-.84.82.82.82 0 01-.83-.82v-6.32l-2.16 3a.8.8 0 01-.67.35.83.83 0 01-.69-.35l-2.15-3v6.32a.83.83 0 01-1.66 0v-8.85a.83.83 0 01.82-.83h.05a.8.8 0 01.66.35l3 4.14 3-4.14a.8.8 0 01.67-.35.86.86 0 01.8.83zM438.41 107.91v-8.85a.83.83 0 01.82-.83.84.84 0 01.84.83v8h4.07a.83.83 0 010 1.66h-4.91a.82.82 0 01-.82-.81z" fill="#fff"/><path fill="#455a64" d="M270.68 158.43h44.41v19.95h-44.41z"/><path d="M283.89 169.3h-1.84v3.25a.84.84 0 01-1.67 0v-8.85a.83.83 0 01.83-.82h2.68a3.21 3.21 0 110 6.42zm-1.84-1.67h1.84a1.55 1.55 0 100-3.09h-1.84zM289.13 172.55v-8.85a.83.83 0 011.66 0v3.6h3.89v-3.6a.81.81 0 01.83-.82.83.83 0 01.84.82v8.85a.83.83 0 01-.84.83.82.82 0 01-.83-.83V169h-3.89v3.6a.83.83 0 11-1.66 0zM303.28 169.3h-1.85v3.25a.84.84 0 01-.84.83.83.83 0 01-.82-.83v-8.85a.82.82 0 01.82-.82h2.69a3.21 3.21 0 110 6.42zm-1.85-1.67h1.85a1.55 1.55 0 100-3.09h-1.85z" fill="#fff"/></g><g><path fill="#a6a6a6" d="M257.5 324.43l2.58 15.51 17.52 94.61h2.83l-12.74-94.61-1.89-15.51h-8.3z"/><path fill="#263238" d="M265.8 324.43h-8.3l2.58 15.51h7.61l-1.89-15.51z"/><path fill="#a6a6a6" d="M202.48 434.55h2.83l17.51-94.61 2.59-15.51h-8.31l-1.88 15.51-12.74 94.61z"/><path fill="#263238" d="M217.1 324.43l-1.88 15.51h7.6l2.59-15.51h-8.31z"/><path fill="#a6a6a6" d="M149.94 434.55h2.82l17.52-94.61 2.58-15.51h-8.3l-1.88 15.51-12.74 94.61z"/><path fill="#263238" d="M162.68 339.94h7.6l2.58-15.51h-8.3l-1.88 15.51z"/><path fill="#a6a6a6" d="M154.41 331.72h128.38v-13.53h-48.06l-16.15-113.97h-59.27l-4.9 127.5z"/><path fill="#dbdbdb" d="M154.41 331.72h7l4.56-127.5h-6.66l-4.9 127.5z"/></g><g><path d="M238.61 213.21l-2.48-.26c.07-3.19-1.44-8.24-1.18-5.75a24.83 24.83 0 01-.25 5.61l-37.86-3.88c0-4.82 2.93-12.44 2.93-12.44-2.83 3.7-4.34 9.19-5 12.23l-4-.41c-.11-2.89 1.39-7.65 1.39-7.65-1.28 1.81-2.3 5.33-2.83 7.51l-4.51-.47a29.67 29.67 0 017-16.17c3.51-4.25 5-7.94 5.6-17.81.68-11.85 8.94-15.14 10.22-16.45 11.31-11.61 29.94.11 28.08 14.83-1.4 11.08-2.7 12.28 1.38 22.77 3.08 7.88 1.51 18.34 1.51 18.34z" fill="#263238"/><path d="M213.81 208.29c5.73 20.88 10.51 37.06 16.49 41 4.83 3.17 11.61 5.4 18.58 7a176.62 176.62 0 0022.6 3.23c2.34.19 4.29.31 5.67.41 3.42.22 9-22.36 6.6-25.11-.56-.63-2.81-1.12-6-1.52-10.64-1.33-31.6-1.65-32.85-2.84s-8-10.18-17.2-21.93c-6.32-8.12-11.5-10.51-13.62-8.26-1.16 1.23-1.37 3.99-.27 8.02z" fill="#eb9481"/><path d="M270.29 257.6a82.53 82.53 0 0010.17 3.75c2.77.69 10.78 2.47 11.84-.5.73-2-3.86-3.63-7.08-4.83-1.69-.63-3.82-2.31-3.36-3.4.79-1.91 5.16-.18 8.05 1.36 5.58 3 13.08 8.42 16.32 5.53 1.22-1.1-.32-2.95-2.53-4.75 3.56 2.06 7.34 3.71 8.74 2.55a1.84 1.84 0 00.32-2.51 2.42 2.42 0 002.67-.52c1.09-1.22.47-2.95-.83-4.7a1.34 1.34 0 001-.71c2.26-3.74-10.12-13.79-14.3-14.61-12.31-2.45-25.25-.92-25.25-.92-4.65 4.01-5.77 24.25-5.76 24.26z" fill="#eb9481"/><path d="M287.82 245.56a19.91 19.91 0 018.25 2.84c2.92 1.85 5.28 4.44 8 6.55.08.06 0 .17-.09.11-1.28-1.1-2.68-2.07-4-3.12s-2.56-2.09-3.92-3a19.78 19.78 0 00-8.24-3.31s-.04-.07 0-.07zM289.9 240.3a49.9 49.9 0 019.59 2.93c3.32 1.54 6 4.16 8.57 6.67q2.34 2.26 4.59 4.63c.06.06 0 .17-.1.11q-4-3.9-8.16-7.55a26 26 0 00-8.83-5.12c-1.86-.64-3.77-1.12-5.67-1.61-.04-.01-.03-.06.01-.06zM293.16 235.65c3.14.52 5.88 1 8.7 2.54a45.15 45.15 0 018.68 6.94c1.42 1.41 2.79 2.87 4.14 4.34.06.06-.05.16-.1.1a103.07 103.07 0 00-9.86-9.06 20.32 20.32 0 00-5.44-3.26 36.78 36.78 0 00-6.13-1.58s-.01-.02.01-.02zM213.81 208.29c5.73 20.88 10.51 37.06 16.49 41 4.83 3.17 11.61 5.4 18.58 7l-34.77-56c-1.19 1.21-1.4 3.97-.3 8z" fill="#263238"/><path d="M212 204.77c.6 6.36 4.77 17.3 4.77 17.3l22.07-1.87s-8.53-12.5-17.41-19.61a12.16 12.16 0 00-2.73-1.67c-3.87-1.66-7.26-.11-6.7 5.85z" fill="#66f28d"/><path d="M212 204.77c0 .33.07.68.13 1s.1.55.16.84a101.93 101.93 0 004.48 15.43l.88-.07.86-.07 6.94-.59 1-.09 6.91-.59.89-.07 2.54-.22-18.09-21.42c-3.87-1.66-7.31-.1-6.7 5.85z" fill="#263238"/><path d="M372.23 434.5c-2.38.79-72.25.21-74.83-1.46-.31-.18-.39-6.5-.36-15.15v-.17a172.08 172.08 0 00-1.2-18.27l-.12-1c-1.84-16.13-5-31.81-5-31.81l43.73-.16 6 32 .11 1 1.23 11.92s9.42 4 17.62 7.93c5.06 2.42 9.45 4.63 10.46 5.44 2.67 2.11 4.74 8.96 2.36 9.73z" fill="#eb9481"/><path d="M372.23 434.5c-2.38.79-72.25.21-74.83-1.46-.31-.18-.39-6.5-.36-15.15v-.17a172.08 172.08 0 00-1.2-18.27l-.12-1h44.76l.11 1 1.23 11.92s9.42 4 17.62 7.93c5.06 2.42 9.45 4.63 10.46 5.44 2.64 2.14 4.71 8.99 2.33 9.76z" fill="#ebebeb"/><path d="M372.52 434.77c-2.45.79-72.41 0-75.06-1.68-1-.64-1.94-11.44-.86-23.36l45.1.54s25.79 12.27 28.5 14.46 4.8 9.27 2.32 10.04z" fill="#66f28d"/><path d="M371.55 432c-11.73-.42-59.05-1-70.67-.5-.1 0-.1.07 0 .07 11.61.67 58.94.85 70.66.62.25-.05.25-.19.01-.19zM365.72 422.16a9.41 9.41 0 00-7 2.79 9.1 9.1 0 00-2.69 6.24c0 .07.13.07.14 0a10.89 10.89 0 019.59-8.88.08.08 0 00-.04-.15zM345.37 411.48c-4.69-.11-10.15 1.49-13.11 5.29-.11.15.1.31.24.24a64.57 64.57 0 0112.95-4.95.3.3 0 00-.08-.58zM349 412.94c-4.69-.12-10.15 1.48-13.11 5.29-.12.14.1.3.24.23a65.33 65.33 0 0112.94-4.95.29.29 0 00-.07-.57zM352.59 414.39c-4.7-.12-10.16 1.48-13.11 5.29-.12.14.09.31.23.24a64.43 64.43 0 0113-4.95.3.3 0 00-.12-.58zM356.2 415.84c-4.7-.12-10.16 1.48-13.11 5.29-.12.15.09.31.23.24a64.43 64.43 0 0112.95-4.95.3.3 0 00-.07-.58zM304 420.35c-5.26 0-5.34 8.15-.06 8.19s5.32-8.14.06-8.19z" fill="#263238"/><path d="M350.58 399c-2.36-2-5.37-.1-6.86 1.93a24.55 24.55 0 00-4.39 12 .12.12 0 00.14.13.57.57 0 00.84.39c3.37-2.27 7.25-4.29 9.82-7.53 1.5-1.92 2.68-5.02.45-6.92zm-5.87 9.92c-1.63 1.16-3.3 2.23-4.89 3.45.87-2.33 1.62-4.69 2.72-6.93a26.88 26.88 0 011.75-3.15c1-1.54 5.69-5.41 6.1-.3.23 2.83-3.74 5.56-5.68 6.94z" fill="#263238"/><path d="M327.65 414.51c4.08.67 8.31-.44 12.33-1a.58.58 0 00.36-.86.12.12 0 000-.19 24.68 24.68 0 00-11.3-5.9c-2.46-.5-6 .12-6.37 3.19-.36 2.87 2.6 4.37 4.98 4.76zm-2.81-2.7c-3.13-4.06 2.92-4.32 4.72-3.88a27.38 27.38 0 013.41 1.16c2.32.92 4.46 2.15 6.67 3.29-2 .17-3.95.5-5.94.74-2.37.28-7.13.93-8.86-1.31z" fill="#263238"/><path d="M344.11 395l-50.71-.22s-17.57-67.62-21.69-72.35c-7.63-8.76-68.28-4.52-84.75-22.69-16-17.6 0-49.46 0-49.46h44.91a156.23 156.23 0 002.56 17.1s56.51 9 73.29 26.39C320.53 307 344.11 395 344.11 395z" fill="#37474f"/><path d="M340.62 387c-3.13-.25-6.24-.57-9.37-.7s-6.28-.19-9.42-.24q-9.36-.15-18.71 0c-3.52.07-7 .22-10.57.24-.09 0-.07.16 0 .16 6.33 0 12.68.25 19 .41s12.39.36 18.59.46c3.49.05 7-.05 10.45-.08.18.04.18-.25.03-.25zM286.36 344.19q-3-9.76-6.53-19.36c-1-2.73-1.82-5.85-3.78-8.08s-4.81-2.9-7.52-3.49c-13-2.87-26.28-4-39.37-6.27a139.64 139.64 0 01-19.16-4.55 48.26 48.26 0 01-8.88-3.7 25.3 25.3 0 01-6.75-5.56 30.71 30.71 0 01-6.68-15.18 45.75 45.75 0 011.75-19.65c.46-1.55 1-3.09 1.57-4.6 0-.09-.11-.13-.15 0-4.38 11.39-6.18 24.54 0 35.64a26.67 26.67 0 005 6.46 27.41 27.41 0 007.42 4.9c5.85 2.73 12.29 4.35 18.58 5.71 13 2.8 26.35 3.91 39.47 6.24a95.93 95.93 0 019.5 2 10.13 10.13 0 014.05 2 10.26 10.26 0 012.49 3.79c1.28 3.05 2.3 6.23 3.39 9.36s2.24 6.48 3.3 9.73q6.36 19.55 11.2 39.54l1.17 4.87c0 .16.27.09.24-.07a401.75 401.75 0 00-10.31-39.73z" fill="#263238"/><path d="M295.9 446.3c-2.46.51-71.76-8.35-74.13-10.31-.28-.22.46-6.49 1.44-15.09.57-5 1.71-11.27 3-17.65 3.57-16.95 8.63-35 8.63-35l45.43 7.58-9.19 32.28-3.15 11s9.34 5.65 17 10.54c4.73 3 8.84 5.72 9.74 6.64 2.45 2.48 3.69 9.52 1.23 10.01z" fill="#eb9481"/><path d="M295.9 446.3c-2.46.51-71.76-8.35-74.13-10.31-.28-.22.46-6.49 1.44-15.09.57-5 1.71-11.27 3-17.65l44.87 4.85-3.15 11s9.34 5.65 17 10.54c4.73 3 8.84 5.72 9.74 6.64 2.45 2.49 3.69 9.53 1.23 10.02z" fill="#ebebeb"/><path d="M296.19 446.54c-2.53.51-71.94-8.26-74.38-10.27-.92-.76.11-11.51 2.55-23.22l43.75 5.63s24.48 15.14 26.89 17.62 3.71 9.7 1.19 10.24z" fill="#66f28d"/><path d="M295.54 443.64c-11.6-1.76-58.55-7.74-70.15-8.6-.09 0-.1.06 0 .08 11.45 2 58.45 7.59 70.13 8.71.24.02.27-.15.02-.19zM290.88 433.24a9.39 9.39 0 00-7.32 2 9.17 9.17 0 00-3.39 5.88c0 .07.13.09.15 0a10.88 10.88 0 0110.54-7.72.08.08 0 00.02-.16zM271.89 420.3c-4.65-.65-10.26.31-13.63 3.75-.14.14.06.32.2.27a65.4 65.4 0 0113.43-3.44.29.29 0 000-.58zM275.3 422.16c-4.64-.66-10.25.31-13.63 3.75-.13.13.06.32.21.26a64.75 64.75 0 0113.43-3.43.29.29 0 00-.01-.58zM278.72 424c-4.65-.65-10.25.31-13.63 3.75-.13.14.06.32.21.27a64.59 64.59 0 0113.43-3.43.3.3 0 00-.01-.59zM282.14 425.87c-4.65-.66-10.25.31-13.63 3.75-.13.13.06.32.21.26a64.59 64.59 0 0113.43-3.43.29.29 0 00-.01-.58zM229.75 424.37c-5.22-.65-6.23 7.47-1 8.12s6.25-7.49 1-8.12z" fill="#263238"/><path d="M278.49 408.51c-2.11-2.25-5.32-.72-7 1.13a24.65 24.65 0 00-5.77 11.36.12.12 0 00.13.15.58.58 0 00.79.49c3.61-1.88 7.69-3.44 10.62-6.36 1.74-1.7 3.23-4.64 1.23-6.77zm-7 9.18c-1.76 1-3.54 1.83-5.26 2.86 1.13-2.21 2.15-4.46 3.5-6.57a25.1 25.1 0 012.1-2.92c1.2-1.41 6.26-4.73 6.09.4-.06 2.82-4.31 5.07-6.39 6.23z" fill="#263238"/><path d="M253.93 421.28c4 1.13 8.31.51 12.37.39a.57.57 0 00.46-.8.13.13 0 000-.2 24.63 24.63 0 00-10.54-7.15c-2.39-.78-5.94-.56-6.69 2.43s2.08 4.66 4.4 5.33zm-2.47-3c-2.65-4.39 3.39-4 5.13-3.31a26.77 26.77 0 013.25 1.54 73.2 73.2 0 016.25 4c-2-.07-4 0-6 0-2.37.09-7.17.18-8.63-2.24z" fill="#263238"/><path d="M282.4 406.18l-55.3-6.73s19.27-76.12 18.4-77.26c-3.05-3.94-49.71-2.35-65.62-18.17-16.85-16.75-.68-53.78-.68-53.78l42 .16s.28 16.6 2.17 18.16c1.25 1 59.27 10.83 68.71 23.15 14.39 18.82-9.68 114.47-9.68 114.47z" fill="#37474f"/><path d="M296 298.5a20.47 20.47 0 00-3.34-5.8 23.66 23.66 0 00-5.57-4.74 81.45 81.45 0 00-13.92-6.71 148.68 148.68 0 00-15.1-5.07c-5.19-1.46-10.45-2.69-15.72-3.82s-10.54-2-15.82-3l-2.49-.46c2.72-1.08 5.42-2.22 8.14-3.34a.14.14 0 00-.08-.26 43.77 43.77 0 00-15.45 6.16c-.07 0 0 .17.06.14 2.36-.77 4.68-1.65 7-2.56 4.79 1 9.55 2.07 14.32 3.13 5.16 1.15 10.3 2.37 15.38 3.81 10.08 2.86 20.1 6.22 29.42 11.06 4.22 2.19 8.21 4.93 10.58 9.17 2.2 3.93 2.86 8.53 3 13a131.36 131.36 0 01-.85 15q-.76 8.46-1.78 16.89c-.69 5.62-4.64 35.08-5.09 36.34-.06.17.23.29.31.12.58-1.2 7.41-43.76 7.92-49.48.47-5.27 1-10.57 1.06-15.86A36.61 36.61 0 00296 298.5z" fill="#263238"/><path d="M251.68 316.07a27 27 0 00-4.48-.8l-5-.79-9.95-1.58c-6.37-1-12.76-1.94-19.11-3.06-10.83-1.92-22.6-5.41-28.83-15.26a20.87 20.87 0 01-2.91-7.44 60.54 60.54 0 01-.67-9.8 124.27 124.27 0 011.27-19.75c.23-1.61.52-3.2.83-4.79 0-.1-.13-.14-.15 0a133.56 133.56 0 00-2.35 19.33q-.21 4.86 0 9.72a29.42 29.42 0 001.34 8.79c3.56 10.27 14 15.82 23.91 18.36 6.11 1.57 12.4 2.37 18.63 3.34l19.63 3.08 4.9.77c1.32.21 3.71.16 4 1.86a5.53 5.53 0 01-.2 2.06c-.19.86-.37 1.71-.56 2.57l-1.08 5q-2.12 9.75-4.17 19.51c-2.79 13.1-5.41 26.24-8.12 39.36l-1 4.88c0 .08.11.12.13 0 2.87-13.07 5.8-26.14 8.64-39.22q2.16-9.88 4.22-19.78c.69-3.26 1.37-6.51 2-9.77a19.72 19.72 0 00.77-4.29 2.38 2.38 0 00-1.69-2.3zM281.22 399.38c-3.23-.68-6.45-1.43-9.71-2s-6.54-1.07-9.82-1.55q-9.76-1.45-19.59-2.57c-3.69-.43-7.4-.77-11.09-1.23-.1 0-.1.14 0 .15 6.63.84 13.23 2 19.83 3.05s12.92 2.08 19.4 3c3.64.54 7.29.92 10.94 1.38.16.07.19-.19.04-.23z" fill="#263238"/><path d="M234.59 259.47a81.61 81.61 0 01-8.81 1.25c-4.65.46-11.14.88-19.52.87h-3.93c-7.75-.13-16.92-.6-27.53-1.67 0 0 12.28-45.25 24.82-60 .28-.34.57-.66.86-1l.17-.18a13.39 13.39 0 013.35-2.59c.22-.12.44-.23.67-.33 4.83-2.22 9.93-.38 13.61 2.77 1.17 1 14.39 18.2 15.56 24.76 1 5.79-2.9 12-2.9 12z" fill="#66f28d"/><path d="M206.26 261.59h-3.93c-7.75-.13-16.92-.6-27.53-1.67 0 0 12.28-45.25 24.82-60 .28-.34.57-.66.86-1l.17-.18a13.39 13.39 0 013.35-2.59c.22-.12.44-.23.67-.33z" fill="#263238"/><path d="M196.08 204.09C185 221 171.94 250 180 255c13.19 8.19 48.69 9.23 56.79 9.14 3.5 0 7.43-23.45 4.74-26.06s-39.7.19-40.26-2c-.31-1.26 2.62-12.89 4.41-27 2.03-16.37-6.46-9.77-9.6-4.99z" fill="#eb9481"/><path d="M235.24 237s10.53-1.47 17.47-2.11c3.87-.35 10.56-.37 13.52.66 4.43 1.56 22 10.88 19.8 15.19-2 3.89-16-6-16-6s15.06 8.77 11.83 13-17.61-9.07-17.61-9.07 15.28 9.35 11.26 13.21c-3 2.91-16.75-8.42-16.75-8.42s13.07 8.13 10.08 11.26c-3.31 3.47-16.62-6.2-16.62-6.2-9 6.68-16 6.2-20.9 5.27-1.21-.26 3.92-26.79 3.92-26.79z" fill="#eb9481"/><path d="M265 241.33c1.81 1 3.64 1.93 5.36 3s3.39 2.31 5 3.58a34.76 34.76 0 015.76 5.57c-3.29-3.45-9.36-7.57-11.08-8.69s-3.36-2.33-5.08-3.45c-.05.02.04-.03.04-.01zM260.83 247.45c2.26 1.33 4.54 2.57 6.74 4s5.18 3.53 7.26 5.1c.16.12.05.4-.11.29-2.14-1.49-5.3-3.49-7.46-4.95s-4.26-3-6.46-4.39c-.04-.02 0-.07.03-.05zM256.31 252.06a58.86 58.86 0 019.84 6.91c.15.12 0 .17-.17 0-3.23-2.36-5.74-4.24-9.73-6.84-.06.01-.01-.13.06-.07z" fill="#263238"/><path d="M235.17 236.86c4.8-.67 17.48-2.57 22.32-2.84a22.61 22.61 0 0111.8 2.11 56.6 56.6 0 0115.48 10.94c.88 1 2.19 2.53 1.36 3.85-1 1.61-5.64.78-10.87-2.83-.19-.13-.1-.24.09-.13 7.27 4.46 9.81 3.5 10.37 2.5.37-.65-.19-1.61-.69-2.34a15.4 15.4 0 00-2.74-2.79 66.1 66.1 0 00-11.09-7.4 25.73 25.73 0 00-13.95-3.23c-5 .24-17.11 2.17-22.08 2.34-.1.01-.11-.17 0-.18z" fill="#263238"/><path d="M282.36 255.49a10.77 10.77 0 00-2.44-3.33 24.66 24.66 0 00-3.62-3.38c-.06 0-.14 0-.08.09a38.57 38.57 0 013.24 3.28 20.85 20.85 0 011.5 2 3.85 3.85 0 01.89 2.29c-.14 1.61-2.13 1.83-3.36 1.57a13.86 13.86 0 01-2.33-.78 22.57 22.57 0 01-3-1.67c-.08-.06-.26 0-.18.05 2 1.44 5.75 4.47 8.29 2.84a2.47 2.47 0 001.09-2.96z" fill="#263238"/><path d="M180.9 222.55l23.37-.25 2.37-17.37c1.08-8 .47-13.05-8.92-4.24-6.51 6.11-16.82 21.86-16.82 21.86z" fill="#66f28d"/><path d="M208.49 194.86c-4.58 1.31-4.12 6.46-2.41 10.08s5.07 7.81 7.52 7.69 2.91-6.28 2.91-6.28 3.49 3.82 5.32 2.49-1.84-8.36-4.45-10.54c-3.78-3.17-6.47-4.14-8.89-3.44z" fill="#fff"/><path d="M206 197.77c.2 1.1 5.09 8.4 10.07 8.39 1.63 0 2-8.88 2-8.88l.17-.65 2.46-9.08-10.46-7.39-1.52-1s-.51 2.53-1.11 5.69l-.09.45c0 .18-.07.34-.1.51-.1.47-.19 1-.28 1.43s-.13.72-.19 1.11-.12.76-.19 1.15a60.38 60.38 0 00-.76 8.27z" fill="#eb9481"/><path d="M207.58 184.86a18.85 18.85 0 0010.63 11.77l2.46-9.08-10.46-7.39-1.52-1s-.51 2.54-1.11 5.7z" fill="#263238"/><path d="M233.82 173.45c.76 16.49-9 18.82-12.59 19-3.23.14-14.24.23-16.71-16.1s5-21.9 12.33-22.62 16.2 3.27 16.97 19.72z" fill="#eb9481"/><path d="M231.36 170.71a10.52 10.52 0 01-1.12-.21 1.87 1.87 0 01-1.11-.43.6.6 0 010-.72 1.46 1.46 0 011.42-.37 2.19 2.19 0 011.37.72.63.63 0 01-.56 1.01zM220.79 171a10.52 10.52 0 001.11-.26 1.86 1.86 0 001.08-.49.57.57 0 000-.71 1.46 1.46 0 00-1.44-.31 2.21 2.21 0 00-1.33.79.63.63 0 00.58.98zM222.86 174.94c0-.05-.09.05-.08.1.09 1.12 0 2.42-1 2.84v.06c1.22-.23 1.34-1.94 1.08-3z" fill="#263238"/><path d="M221.8 173.81c-1.81-.05-1.78 3.58-.1 3.63s1.62-3.59.1-3.63z" fill="#263238"/><path d="M221.09 174c-.32.21-.62.57-1 .61s-.78-.33-1.07-.69h-.06c0 .7.27 1.41 1 1.51s1.16-.53 1.33-1.23c.04-.08-.08-.27-.2-.2zM229 174.65c0-.05.09 0 .09.1 0 1.12.11 2.41 1.13 2.79v.06c-1.22-.17-1.43-1.89-1.22-2.95z" fill="#263238"/><path d="M230 173.47c1.81-.14 1.95 3.49.28 3.62s-1.79-3.5-.28-3.62z" fill="#263238"/><path d="M230.77 173.68c.29.18.59.52.93.53s.68-.4.92-.78c.05.7-.15 1.43-.81 1.59s-1.07-.43-1.26-1.12c.01-.09.1-.29.22-.22zM222.87 183.61c.26.27.52.64.92.69a2.86 2.86 0 001.22-.24l.05.06a1.52 1.52 0 01-1.45.56 1.21 1.21 0 01-.85-1c-.01-.09.07-.11.11-.07zM227.32 180s.26 1.67.28 2.46c0 .08-2.87.73-4.17-1.19a.08.08 0 01.11-.11 5.68 5.68 0 003.46.91c.05-.22-.55-2.85-.43-2.86a6.63 6.63 0 011.81.37c-.45-3.5-1.46-6.91-1.86-10.4a.11.11 0 01.2-.06 56.51 56.51 0 012.49 11.12c.07.46-1.57-.1-1.89-.24z" fill="#263238"/><path d="M228.19 175.34c-.07-2.59 1.26-4.73 3-4.78s3.17 2 3.24 4.6-1.26 4.73-3 4.78-3.16-2.02-3.24-4.6zm.63 0c.07 2.24 1.23 4 2.59 4s2.43-1.89 2.36-4.13-1.22-4-2.59-4-2.42 1.87-2.36 4.11zM216.4 175.67a4.39 4.39 0 114.52 4.57 4.55 4.55 0 01-4.52-4.57zm.63 0a3.76 3.76 0 103.64-4.17 3.92 3.92 0 00-3.67 4.16z" fill="#37474f"/><path d="M224.94 175c2.33-.89 3.41-.16 3.42-.15l.37-.5s-1.33-1-4 .06zM216.71 175.26l.09-.63c-.41-.06-10-1.55-11.07-1.58s-3.62 1.47-3.9 1.65l.32.53a12.12 12.12 0 013.51-1.55h.05c.8.02 7.54 1.04 11 1.58z" fill="#37474f"/><path d="M205.77 176.88c4 0 5.65-12.41 5.83-13.94-.07 1-.38 6.09 0 6.31a4 4 0 001.28-.2 11.94 11.94 0 01.21-1.83c0-.28.09.62.21 1.73l.75-.18a14.79 14.79 0 01.52-3.88c.13-.48.19 1.7.59 3.62a48.4 48.4 0 0110.67-1.51 26.24 26.24 0 012.65.1c.06-1.52-.06-3.13 0-2.78a14.86 14.86 0 01.54 2.83l1.14.12c.18-2.13-.72-5.57-.4-5a15.07 15.07 0 011.89 5.33c1.45.33 1.84.63 1.89.25a17.78 17.78 0 00-5.05-11.22c-4.9-4.94-14.95-6.47-20.89.68 0 0-4.79 2.9-5.69 7.8s1.52 11.78 3.86 11.77z" fill="#263238"/><path d="M207.2 176.24s-3.39-5.29-5.78-4.1 0 8.76 2.72 9.89a2.79 2.79 0 003.8-1.35z" fill="#eb9481"/><path d="M202.17 174.29s-.06.06 0 .07c1.89.86 2.83 2.69 3.47 4.56a1.55 1.55 0 00-2.29-.51c-.05 0 0 .11 0 .1a1.73 1.73 0 011.86.68 8.37 8.37 0 01.84 1.56c.09.18.4.1.34-.1v-.05c.17-2.45-1.6-5.96-4.22-6.31z" fill="#263238"/></g><g><path fill="#455a64" d="M181.58 257.76h58.24v2.61h-58.24z"/><path fill="#263238" d="M210.51 257.76h29.31v2.61h-29.31z"/><path fill="#37474f" d="M211.19 260.37h-56.76l-8.02-38.54h56.76l8.02 38.54z"/><path d="M183.2 242a3.34 3.34 0 01-3.39 3.78 4.31 4.31 0 01-4.18-3.78 3.34 3.34 0 013.39-3.78 4.3 4.3 0 014.18 3.78z" fill="#fff"/><path fill="#37474f" d="M321.84 260.38h-47.3v-3.68l47.3-1.53v5.21z"/><path fill="#455a64" d="M370.33 244.27h-82.84l13.17-61.68h82.85l-13.18 61.68z"/><path fill="#37474f" d="M373.4 244.27h-82.85l13.18-61.68h82.85l-13.18 61.68z"/><path fill="#263238" d="M328.71 222.15h-1.94l2.95-13.84h1.95l-2.96 13.84zM332.55 222.15h-1.94l2.95-13.84h1.94l-2.95 13.84zM336.38 222.15h-1.94l2.95-13.84h1.94l-2.95 13.84zM340.22 222.15h-1.95l2.95-13.84h1.95l-2.95 13.84zM344.05 222.15h-1.94l2.95-13.84H347l-2.95 13.84zM347.88 222.15h-1.94l2.95-13.84h1.94l-2.95 13.84zM351.72 222.15h-1.95l2.96-13.84h1.94l-2.95 13.84z"/><path fill="#455a64" d="M349.97 260.38h-40.75v-3.17l40.75-1.32v4.49z"/><path fill="#455a64" d="M361.05 260.37h-21.88l-13.18-34.56h21.88l13.18 34.56z"/><path fill="#263238" d="M364.65 260.37h-21.88l-13.18-34.56h21.88l13.18 34.56z"/><path fill="#455a64" d="M122.87 244.27h25.57l-13.18-61.68h-25.57l13.18 61.68z"/><path fill="#37474f" d="M119.8 244.27h25.57l-13.17-61.68h-25.57l13.17 61.68z"/><path fill="#263238" d="M123.29 222.15h.36l-2.95-13.84h-.36l2.95 13.84zM124.06 222.15h.36l-2.95-13.84h-.36l2.95 13.84zM124.83 222.15h.37l-2.95-13.84h-.36l2.94 13.84zM125.61 222.15h.36l-2.95-13.84h-.36l2.95 13.84zM126.38 222.15h.37l-2.95-13.84h-.37l2.95 13.84zM127.16 222.15h.36l-2.95-13.84h-.36l2.95 13.84zM127.93 222.15h.36l-2.95-13.84h-.36l2.95 13.84zM128.7 222.15h.37l-2.95-13.84h-.37l2.95 13.84z"/><path fill="#455a64" d="M119.31 260.38h30.59v-3.17l-30.59-1.32v4.49z"/><path fill="#455a64" d="M108.23 260.37h11.72l13.18-34.56h-11.72l-13.18 34.56z"/><path fill="#263238" d="M108.23 260.37h8.12l13.17-34.56h-8.11l-13.18 34.56z"/><path d="M270 260.41h-31.2c-2.67 0 1.19-7.59 10.91-10.49S273 257.56 270 260.41z" fill="#37474f"/><path d="M257.72 260.41a7.48 7.48 0 01.22-2.62 9.29 9.29 0 011-2.44 7.88 7.88 0 011.74-2 6.09 6.09 0 012.34-1.21 20.14 20.14 0 00-1.8 1.77 13.76 13.76 0 00-1.42 2 27.48 27.48 0 00-2.08 4.5z" fill="#263238"/><path d="M261.41 253.19a13.09 13.09 0 012.8.91 16.24 16.24 0 012.56 1.46 9.63 9.63 0 012.17 2.06 4.2 4.2 0 011 2.79 6.31 6.31 0 00-1.6-2.28 17.66 17.66 0 00-2.17-1.75c-1.51-1.1-3.17-2.07-4.76-3.19z" fill="#263238"/></g><g><path fill="#455a64" d="M96.73 383.7h26.49v4.66H96.73z"/><path fill="#455a64" d="M137.58 451.85h-2.86l-23.33-108.91-1.33-6.21-4.19-19.55-1.56-7.29-5.87-27.36-2.05-9.58h10.19l1.66 9.58 1.09 6.29.73 4.19 4.18 24.17 1.35 7.78 21.99 126.89z"/><path fill="#263238" d="M106.58 272.95l1.66 9.58h-9.8l-2.05-9.58h10.19zM115.59 324.96l-4.2 17.98-1.33-6.21-4.19-19.55-1.56-7.29 5.02-21.07.73 4.19 4.18 24.17 1.35 7.78z"/><path fill="#455a64" d="M123.72 272.95l-2.05 9.58-7.43 34.65-4.18 19.55-24.67 115.12h-2.85l23.33-134.67 4.19-24.17 1.81-10.48 1.66-9.58h10.19z"/><path fill="#263238" d="M123.72 272.95l-2.05 9.58h-9.8l1.66-9.58h10.19z"/><path fill="#455a64" d="M403.61 272.95l-38.33 178.9h-2.85l30.99-178.9h10.19z"/><path fill="#455a64" d="M376.28 272.95l38.33 178.9h2.85l-30.99-178.9h-10.19z"/><path fill="#455a64" d="M376.62 383.7h26.49v4.66h-26.49zM80.73 260.38h338.54v12.57H80.73z"/></g><g><path d="M78.26 371.65c-7.32-15-20.12-22.77-34.56-18.5s-16.7 24.4-5.89 29.48 21.55-9.76 27.24-12.81 13.21 1.83 13.21 1.83z" fill="#66f28d"/><path d="M85.35 411.7c0-1.82-.11-3.63-.18-5.44q-.18-5.43-.38-10.86c-.25-6.63-1-13.13-3.7-19.23a29.79 29.79 0 00-11.61-13.38 24.62 24.62 0 00-6.11-2.64 14.29 14.29 0 00-7.12-3.91A29.08 29.08 0 0046.1 356c-.12 0-.12.2 0 .19a24.54 24.54 0 019.61.68 20 20 0 013.87 1.51 17.3 17.3 0 012.24 1.42 20.83 20.83 0 00-8.82.08 20.3 20.3 0 00-3.06 1 9 9 0 00-2.41-.2 14.31 14.31 0 00-3.12.44 23.47 23.47 0 00-5.94 2.6c-.11.06 0 .22.1.16a22.26 22.26 0 015.79-2.18 18.79 18.79 0 013-.44 15.32 15.32 0 011.66 0 19.18 19.18 0 00-9.33 9.3c-.05.11.11.21.16.09a17.55 17.55 0 0111.9-9.53c.31-.08.64-.12 1-.19-.11.47-.09 1-.15 1.46-.1.73-.22 1.46-.37 2.18A37.18 37.18 0 0151 369a35.12 35.12 0 01-1.75 4.27 21.09 21.09 0 01-2.44 4.12c-.09.1.08.23.15.11.87-1.36 1.88-2.61 2.67-4a30.77 30.77 0 001.95-4.2 28.3 28.3 0 001.29-4.51c.16-.81.29-1.63.38-2.45a5.32 5.32 0 00.09-1.49 19.57 19.57 0 015.13-.11c-.64 3.59-1.33 7.33-3.34 10.45-.07.1.11.2.17.09a44 44 0 002.48-5.13 19.63 19.63 0 001.22-5.38 23.82 23.82 0 018.48 2.84A28 28 0 0178.77 376 46.32 46.32 0 0183 393.65c.48 7.69.58 15.42 1.35 23.09 0 .5.84.67.94.1a27.56 27.56 0 00.06-5.14zM68.43 361.58a8.05 8.05 0 00-1.66-1.53c-.6-.5-1.21-1-1.86-1.42a13.84 13.84 0 00-4.16-1.93c-.12 0-.16.16 0 .19a11 11 0 014.1 2c.61.45 1.2.93 1.77 1.43a10.8 10.8 0 001.68 1.42c.07.08.21-.05.13-.16z" fill="#263238"/><path d="M45.07 367a43.87 43.87 0 00-3.35 4.45 26.72 26.72 0 00-2.5 4.95c0 .05.06.08.09 0a59.07 59.07 0 015.9-9.29c.08-.04-.06-.17-.14-.11zM60.82 365.55a11 11 0 01-.83 2.72 17.51 17.51 0 01-1.39 2.41.05.05 0 00.08.06 9.76 9.76 0 002.32-5.15c0-.12-.16-.17-.18-.04z" fill="#263238"/><path d="M84.33 372s10.36-13 30.36-8.41c19 4.39 27.78 39.25 8.57 43.42s-15.82-28.09-22.82-33.56c-5.14-4-12.52-3.13-16.11-1.45z" fill="#66f28d"/><path d="M130.14 382.65a39.45 39.45 0 00-4.12-3.16 18.09 18.09 0 00-4.4-2.19A26.33 26.33 0 00119 374a25.84 25.84 0 00-6-4.82h.6a30.71 30.71 0 013.18 0 17.56 17.56 0 016.17 1.53.09.09 0 00.08-.17 28.24 28.24 0 00-6.16-1.86 17.34 17.34 0 00-3.13-.27c-.56 0-1.12.05-1.68.1h-.32a26.2 26.2 0 00-5.76-2.12l.55-.15a27 27 0 013-.49 23 23 0 016 .09c.12 0 .16-.17 0-.19a38.23 38.23 0 00-6-.24 25.3 25.3 0 00-5 .65 27.74 27.74 0 00-3.65-.42c-7-.29-14.58 2.32-18.87 8.05S76.76 387.06 76 394a154.39 154.39 0 00-.77 29.07c0 .58.85.47.87-.07.26-8.22.55-16.44 1.34-24.63.36-3.8.76-7.6 1.39-11.36a33.52 33.52 0 012.76-9.36 17.11 17.11 0 016.75-7.25 22.77 22.77 0 019.57-2.95 26 26 0 019 .84 5.83 5.83 0 000 1.77 9.56 9.56 0 00.44 2.19 11.44 11.44 0 00.83 1.94c.37.69.84 1.3 1.25 2 .07.1.23 0 .16-.11a8.94 8.94 0 01-1.55-3.95 13.88 13.88 0 01-.24-2v-1.55a26.47 26.47 0 018.73 4.61c.49.39 1 .8 1.42 1.22a9.57 9.57 0 00-1.7 2.09 20.84 20.84 0 00-1.78 3.16 27.42 27.42 0 00-1.85 7c0 .12.18.16.19 0A20.38 20.38 0 01115 380a28.14 28.14 0 011.77-2.93c.34-.48.69-1 1-1.42.2-.24.41-.5.6-.76a27.47 27.47 0 015.67 8 13.38 13.38 0 00-2.34 3.37 31 31 0 00-1.87 4 66.28 66.28 0 00-2.39 8.16c0 .12.16.16.19 0a34.32 34.32 0 012.83-8c.6-1.25 1.23-2.48 1.9-3.7a35.66 35.66 0 001.88-3.5 25.68 25.68 0 012.28 9.26c0 .13.2.11.19 0a32.33 32.33 0 00-4.49-14.22c1.22.52 2.45 1 3.63 1.66a20.65 20.65 0 014.15 2.88c.11.08.23-.07.14-.15z" fill="#263238"/><path d="M115.47 383.39c-.6 2-1.36 3.89-1.9 5.89a22.56 22.56 0 00-.88 5.88s.09.06.09 0a57.57 57.57 0 012.87-11.71.1.1 0 10-.18-.06zM128.14 378.49a11.23 11.23 0 00-2.65-1.89 18.33 18.33 0 00-3.07-1.08c-.11 0-.15.16 0 .18a12.25 12.25 0 013 1.22 22.28 22.28 0 012.72 1.67c-.02.05.06-.04 0-.1z" fill="#263238"/><path d="M94.17 354.63s1.92-23.4 19.31-31c14.53-6.34 22.84 10 12.58 20-8.31 8.08-21.63 4.43-31.89 11z" fill="#66f28d"/><path d="M122.84 328.18a72.93 72.93 0 00-7.74 3.66 56.78 56.78 0 00-6 4c.28-.59.54-1.21.83-1.79.45-.91.94-1.79 1.47-2.65a25 25 0 013.84-4.85c.09-.08-.06-.22-.14-.13a38.51 38.51 0 00-4 4.7 29.9 29.9 0 00-1.65 2.64 10.77 10.77 0 00-1.17 2.7l-.19.14a57 57 0 00-8.31 8.13c.05-.23.1-.46.16-.67.32-1.15.68-2.28 1-3.4a29 29 0 013.15-6.83c.06-.1-.11-.2-.17-.09a53.06 53.06 0 00-3.64 6.66 24.7 24.7 0 00-1.2 3.45 15 15 0 00-.57 2.35c-.76 1-1.5 1.93-2.21 2.93-7.46 10.63-11.21 23.49-12.11 36.36A113.7 113.7 0 0084 397a72.19 72.19 0 001 11.56c0 .24.43.17.42-.06-.08-3.38-.43-6.75-.5-10.13s.06-6.79.33-10.16a94.24 94.24 0 013.79-19.91 71.36 71.36 0 018.85-18.72c.73-.15 1.46-.34 2.18-.53s1.74-.45 2.6-.69a25.4 25.4 0 004.85-1.78c.11 0 0-.22-.1-.16a15.55 15.55 0 01-4.92 1.7c-1.36.27-2.77.45-4.14.76a65.39 65.39 0 014.05-5.32 29.93 29.93 0 009.89-.74 40.72 40.72 0 005.07-1.57c1.74-.67 3.39-1.54 5.11-2.26a.09.09 0 10-.08-.17 29.24 29.24 0 01-10 3.29 62.79 62.79 0 01-9.38.77c1.23-1.42 2.51-2.8 3.87-4.1 4.57-4.35 10-8.35 16-10.43.11-.03.11-.22-.05-.17z" fill="#263238"/><path d="M108.68 328.25a27.69 27.69 0 00-2.13 3.12A16.34 16.34 0 00105 335s0 .06.07 0c.58-1.14 1.07-2.33 1.65-3.48a18 18 0 012.08-3.16c.1-.07-.04-.21-.12-.11zM124.86 336a18.32 18.32 0 01-3.57 1.49 32.35 32.35 0 01-3.63 1c-.06 0 0 .11 0 .1a17.29 17.29 0 003.76-.82 30.77 30.77 0 003.58-1.57c.07-.05 0-.2-.14-.2z" fill="#263238"/><path d="M80.65 350.42c-.11 1-2.63-8.5-17.34-16.94C50 325.82 34 305.89 47.11 293.29c10.57-10.16 38.42 12 33.54 57.13z" fill="#66f28d"/><path d="M90.78 404.92a261.23 261.23 0 00-2.34-29.58 133 133 0 00-6.21-26.47c-1.1-3.09-2.35-6.14-3.7-9.13a21.46 21.46 0 00-.06-3.5c-.08-1.5-.21-3-.35-4.49s-.29-3-.47-4.47-.49-3-.55-4.46a.1.1 0 10-.19 0 31.13 31.13 0 01.53 4.73c.11 1.44.19 2.89.24 4.33s0 2.9 0 4.35v1.63c-1.38-2.92-2.87-5.8-4.47-8.6 1-6.1-.3-12.47-1.54-18.44 0-.12-.21-.06-.19.06a51.61 51.61 0 011 9.45c.06 2.5-.06 5-.07 7.51-.35-.6-.7-1.2-1.06-1.79q-2.9-4.65-6.15-9.05a14.37 14.37 0 00-.15-4.34 33.28 33.28 0 00-1.05-4.8q-.7-2.34-1.63-4.6c-.64-1.54-1.49-3-2.1-4.56a.09.09 0 10-.17.08 22.75 22.75 0 011.84 4.61 42.83 42.83 0 011.2 4.58c.31 1.55.57 3.1.78 4.66.15 1 .24 2.11.42 3.16a113.38 113.38 0 00-10.3-12c-.09-.09-.21.05-.13.14a135.93 135.93 0 0114.95 20.34l.47.82c-.81-.51-1.74-.91-2.5-1.33q-2.13-1.18-4.29-2.36t-4.16-2.28c-.72-.39-1.42-.81-2.15-1.18a16.79 16.79 0 01-2.49-1.38c-.11-.08-.23.09-.11.15 1.41.78 2.67 1.94 4 2.81s2.77 1.72 4.2 2.52c2.62 1.46 5.46 2.51 8 4 1.79 3.12 3.43 6.33 5 9.59-1.56-1-3.16-2-4.78-2.86-1-.58-2.08-1.15-3.14-1.71a15.87 15.87 0 01-3-1.79.1.1 0 00-.14.14 28.28 28.28 0 005.65 3.93c1.89 1.1 3.8 2.17 5.77 3.13q2.35 5.17 4.25 10.53c6.2 17.53 8.47 36.14 9.56 54.62.32 5.51.49 11 .56 16.53s-.23 11-.21 16.53c0 .16.26.2.29 0 .66-4.89.77-9.86 1-14.78s.25-9.98.14-14.98z" fill="#263238"/><path d="M64.05 325.56a70.44 70.44 0 01-7.81-4.05 79.42 79.42 0 01-7.42-4.71s-.09 0 0 .07a62.72 62.72 0 007.12 5 72.8 72.8 0 008.06 3.85c.07.05.17-.12.05-.16zM68.32 305.74c-.22-.85-.49-1.69-.78-2.53a.09.09 0 000-.1L67 301.7a.67.67 0 00-.07-.17c0-.09-.07-.18-.11-.27s.09.33.14.49a1.38 1.38 0 00.04.25 70.87 70.87 0 012.18 10c0 .1.18.11.17 0a34.18 34.18 0 00-1.03-6.26z" fill="#263238"/><path fill="#37474f" d="M106.32 408.47l-1.05 12.44-3.21 37.94H67.64l-3.21-37.94-1.05-12.44h42.94z"/><path fill="#263238" d="M106.32 408.47l-1.05 12.44H64.43l-1.05-12.44h42.94z"/><path fill="#37474f" d="M60 403.48h49.69v11.93H60z"/></g></svg>