<svg xmlns="http://www.w3.org/2000/svg" viewBox="0 0 500 500"><path d="M41.54 202.37a3 3 0 013.09 0l.79.45.82.41a3 3 0 011.76 2.59l.11 3.8 12.39-.39-.12-3.8a3 3 0 011.56-2.67 17 17 0 001.57-1 3 3 0 013.07-.2l3.35 1.8 5.86-10.93-3.35-1.79a2.93 2.93 0 01-1.56-2.64 16.35 16.35 0 00-.07-1.85 3 3 0 011.37-2.77l3.23-2-6.53-10.53-3.25 2a2.94 2.94 0 01-3.08 0l-.79-.45-.76-.4a3 3 0 01-1.73-2.56l-.12-3.81-12.43.37.12 3.79a3 3 0 01-1.56 2.67 17.11 17.11 0 00-1.57 1 3 3 0 01-3.08.2l-3.34-1.8-5.86 10.93 3.34 1.79a3 3 0 011.54 2.67q0 .93.06 1.86a3 3 0 01-1.37 2.74l-3.22 2 6.53 10.53zm3.1-19.56a10.15 10.15 0 114.16 13.75 10.16 10.16 0 01-4.16-13.75zM76.6 158.28a2.07 2.07 0 011.92-1h1.28a2.06 2.06 0 011.91 1l1.29 2.3 7.52-4.34-1.33-2.3a2.07 2.07 0 01.08-2.17 11.19 11.19 0 00.64-1.12 2.08 2.08 0 011.84-1.14h2.66v-8.68h-2.62a2.08 2.08 0 01-1.79-1.14 11.19 11.19 0 00-.64-1.12 2.05 2.05 0 01-.08-2.16l1.33-2.31-7.61-4.34-1.34 2.32a2.06 2.06 0 01-1.9 1h-1.24a2.07 2.07 0 01-1.92-1l-1.33-2.31-7.52 4.34 1.33 2.3a2.07 2.07 0 01-.07 2.16 11.42 11.42 0 00-.65 1.13 2.08 2.08 0 01-1.84 1.14h-2.65v8.68h2.65a2.08 2.08 0 011.84 1.14 11.42 11.42 0 00.65 1.13 2.07 2.07 0 01.07 2.16l-1.33 2.3 7.52 4.34zM72 145.17a7.11 7.11 0 117.12 7.11 7.12 7.12 0 01-7.12-7.11zM379.76 59.09a2.07 2.07 0 011 1.92v1.28a2.06 2.06 0 01-1 1.91l-2.31 1.33 4.34 7.52 2.3-1.33a2.07 2.07 0 012.17.08c.36.23.73.45 1.12.65a2.06 2.06 0 011.14 1.83v2.66h8.68v-2.66a2.06 2.06 0 011.14-1.83c.39-.2.76-.42 1.12-.65a2.07 2.07 0 012.17-.08l2.3 1.33 4.34-7.52-2.27-1.34a2.06 2.06 0 01-1-1.9v-.64-.64a2.07 2.07 0 011-1.92l2.31-1.33-4.34-7.52-2.3 1.33a2.05 2.05 0 01-2.16-.07 11.42 11.42 0 00-1.13-.65 2.07 2.07 0 01-1.17-1.85v-2.64h-8.68V49a2.07 2.07 0 01-1.14 1.84 11.42 11.42 0 00-1.13.65 2.05 2.05 0 01-2.16.07l-2.3-1.33-4.34 7.52zm13.11-4.56a7.12 7.12 0 11-7.11 7.12 7.12 7.12 0 017.11-7.12zM216.5 396.85h186.69l3.89-76.6H212.61l3.89 76.6z" fill="#ebebeb"/><path d="M394.34 355.31h-78l-1.46-26.59h81.22zm-77.16-.94h76.28l1.59-24.71h-79.23zM392.9 385.91h-73.55l-1.2-24h76.25zm-72.66-.91H392l1.38-22.13h-74.24z" fill="#dbdbdb"/><path d="M362.83 344.9h-13.11l-.83-6.42h14.77zm-12.28-.9H362l.58-4.53H350zM362.83 377.11h-13.11l-.83-6.41h14.77zm-12.28-.94H362l.58-4.53H350zM302.53 355.31h-78L223 328.72h81.22zm-77.16-.94h76.28l1.59-24.71H224zM301.09 385.91h-73.55l-1.2-24h76.25zm-72.66-.91h71.78l1.38-22.13h-74.26z" fill="#dbdbdb"/><path d="M271 344.9h-13.09l-.83-6.42h14.77zm-12.26-.9h11.45l.59-4.53h-12.63zM271 377.11h-13.09l-.83-6.41h14.77zm-12.28-.94h11.45l.59-4.53h-12.61z" fill="#dbdbdb"/><path fill="#ebebeb" d="M233.24 396.85l-1.17 8.35-2.36 16.77h-4.61v-25.12h8.14z"/><path fill="#dbdbdb" d="M233.24 396.85l-1.17 8.35h-6.97v-8.35h8.14z"/><path fill="#ebebeb" d="M386.45 396.85l1.17 8.35 2.36 16.77h4.61v-25.12h-8.14z"/><path fill="#dbdbdb" d="M386.45 396.85l1.17 8.35h6.97v-8.35h-8.14z"/><g fill="#ebebeb"><ellipse cx="361.11" cy="451.92" rx="106.25" ry="18.45"/><ellipse cx="95.65" cy="452.35" rx="46.8" ry="11.22"/></g><g><path fill="#263238" d="M29.71 422.48l55.07-.24 55.07-.09 110.15-.17 110.15.17 55.07.08 55.07.25-55.07.24-55.07.09-110.15.17-110.15-.17-55.07-.09-55.07-.24z"/></g><g><path d="M94.51 46.44a42 42 0 1042 42 42 42 0 00-42-42zm0 61.58a19.61 19.61 0 1119.61-19.6A19.6 19.6 0 0194.51 108z" fill="#455a64"/><path d="M70.57 62.25a.37.37 0 01.55-.48l6.48 7.33a.37.37 0 010 .52.36.36 0 01-.51 0zM80.43 67.1h-.05a.36.36 0 01-.46-.18l-4.24-8.81a.36.36 0 01.16-.48l1.74-.84a5.26 5.26 0 014.56 9.47zm1.43-1.51a4.52 4.52 0 00-3.93-8.14l-1.43.69 3.92 8.14zM87.31 53.58a.36.36 0 01.31-.4l5.38-.66a.37.37 0 01.4.32.36.36 0 01-.32.41l-5 .61.5 4.13 4.42-.54a.36.36 0 01.4.33.35.35 0 01-.31.4l-4.36.54.5 4.11 5-.61a.35.35 0 01.4.33.36.36 0 01-.31.4L89 63.6h-.07a.37.37 0 01-.38-.31zM102.78 61.52l-4.68-1-1.43 2.23a.37.37 0 01-.38.16h-.13a.39.39 0 01-.11-.52l5.6-8.76a.4.4 0 01.4-.15.37.37 0 01.3.3L103.89 64a.36.36 0 01-.29.42h-.14a.38.38 0 01-.28-.31zm-4.26-1.66l4.15.88-.89-6z" fill="#fff"/><path fill="#455a64" d="M102.58 48.18H86.44l.89-11.42h14.36l.89 11.42zM71.85 53.62L60.44 65.04l-7.45-8.71 10.15-10.16 8.71 7.45zM53.97 79.2v16.14l-11.42-.89V80.09l11.42-.89zM59.41 109.92l11.42 11.42-8.71 7.45-10.16-10.15 7.45-8.72zM84.98 127.81h16.15l-.89 11.42H85.88l-.9-11.42zM115.71 122.37l11.42-11.42 7.45 8.71-10.16 10.16-8.71-7.45zM133.59 96.79V80.65l11.43.89V95.9l-11.43.89zM128.16 66.06l-11.42-11.41 8.71-7.45 10.15 10.15-7.44 8.71z"/><path d="M97.3 78.17v19.64a1.86 1.86 0 01-1.87 1.83 1.81 1.81 0 01-1.83-1.83V81.43l-1.33.76a1.66 1.66 0 01-.93.27 1.87 1.87 0 01-1-3.43l4.1-2.43s.1 0 .13-.07.1-.06.17-.1h.19a.24.24 0 01.14 0 .45.45 0 01.23 0h.5a.39.39 0 01.2.06h.13c.03 0 .14.1.2.1l.14.1s.1.06.13.1.1.1.13.13a.34.34 0 01.1.13l.14.14v.16c0 .03.07.1.07.17s0 .13.07.17a1.57 1.57 0 000 .16.29.29 0 00.07.24z" fill="#263238"/><path d="M135.26 43.91c-1.19 10.11-7.69 12-8.78 14.66a45.58 45.58 0 00-1.36 5.17h-10.57a44.89 44.89 0 00-1.35-5.17c-1.08-2.7-7.58-4.57-8.75-14.69-.77-6.64 4.24-17.13 15.42-17.12s16.13 10.5 15.39 17.15z" fill="#66f28d"/><path fill="#fff" d="M113.772 47.657l.679-.126 3.119 16.813-.679.126zM122.1 64.366l3.158-16.806.678.127-3.157 16.806z"/><path d="M119.85 53.24a3.21 3.21 0 01-2.46-2 1.27 1.27 0 01-.89.47c-1.61 0-2.25-3.3-2.27-3.44l.34-.06c.16.87.83 3.15 1.93 3.15a1.06 1.06 0 00.73-.45 7.38 7.38 0 01-.78-3c0-.94.36-1.47 1-1.47a1 1 0 01.91.51c.49.87.12 2.57-.5 3.66q-.11.18-.21.33c.56 1.07 1.36 1.93 2.22 1.93.77 0 1.46-.71 2-1.65a4.34 4.34 0 01-1-2.84c0-1.2.45-1.94 1.19-1.94.6 0 .94.59.94 1.61a7.89 7.89 0 01-.76 3.11 1.48 1.48 0 001 .41c1 0 1.79-2.29 2-3.18l.33.1c-.09.35-1 3.42-2.37 3.42a1.84 1.84 0 01-1.17-.44 2.75 2.75 0 01-2.18 1.77zm2.15-6.42c-.63 0-.85.85-.85 1.59a4.33 4.33 0 00.78 2.51 7.37 7.37 0 00.66-2.84c0-.38-.06-1.26-.59-1.26zm-4.6 0c-.53 0-.64.62-.64 1.13a6.83 6.83 0 00.66 2.67l.09-.14c.57-1 .91-2.59.5-3.32a.65.65 0 00-.61-.34z" fill="#fff"/><path fill="#263238" d="M113.39 63.16h13.04v2.55h-13.04zM113.31 66.239l13.04.013-.002 2.55-13.04-.013zM113.307 69.199l13.04.013-.002 2.55-13.04-.013z"/><path d="M163.85 173.11a50.24 50.24 0 1050.21 50.24 50.29 50.29 0 00-50.21-50.24zm0 89.78a39.55 39.55 0 1139.52-39.54 39.53 39.53 0 01-39.52 39.54zm0-89.78a50.24 50.24 0 1050.21 50.24 50.29 50.29 0 00-50.21-50.24zm0 89.78a39.55 39.55 0 1139.52-39.54 39.53 39.53 0 01-39.52 39.54zm0-124.23a84.68 84.68 0 1084.66 84.69 84.69 84.69 0 00-84.66-84.69zm0 139.74a55.06 55.06 0 1155-55 55.12 55.12 0 01-55 55zm0-105.29a50.24 50.24 0 1050.21 50.24 50.29 50.29 0 00-50.21-50.24zm0 89.78a39.55 39.55 0 1139.52-39.54 39.53 39.53 0 01-39.52 39.54z" fill="#66f28d"/><path d="M118.45 180.3a1.92 1.92 0 00-1.76-.41 3.26 3.26 0 00-1.2.56h-.07l-1.7 1.91 3.11 2.76a.36.36 0 010 .52.37.37 0 01-.51 0L109 179.2a.37.37 0 010-.48l1.94-2.19a3 3 0 015.11 2.86l.16-.06a2.63 2.63 0 012.68.5 4.07 4.07 0 001 .7.53.53 0 00.29.06.37.37 0 01.65.35 1 1 0 01-.11.15.83.83 0 01-.8.19 3.77 3.77 0 01-1.47-.98zm-6.93-3.3l-1.72 1.94 3.39 3 1.67-1.88.09-.1a2.27 2.27 0 00-3.43-3zM116.35 171.43a.35.35 0 010-.5l4.11-3.47a.36.36 0 01.51.05.36.36 0 010 .52l-3.85 3.24 2.68 3.18 3.36-2.84a.36.36 0 01.52.06.35.35 0 010 .5l-3.37 2.83 2.67 3.16 3.84-3.24a.37.37 0 01.52.06.36.36 0 010 .51l-4.09 3.45a.36.36 0 01-.48-.07zM128.06 172.41a.31.31 0 01.37-.28 5.82 5.82 0 003.65-.66 4 4 0 001.61-1.8 2 2 0 00-.06-1.8 1.66 1.66 0 00-1.48-.78 7.1 7.1 0 00-2.52.54 6.46 6.46 0 01-2.58.54 2.19 2.19 0 01-1.88-1 2.48 2.48 0 01-.09-2.25 4.25 4.25 0 011.76-2 5.8 5.8 0 013.4-.66.34.34 0 01.32.35.33.33 0 01-.34.31 5.25 5.25 0 00-3 .56 3.81 3.81 0 00-1.49 1.66 1.79 1.79 0 000 1.66 1.5 1.5 0 001.33.68 6.15 6.15 0 002.33-.5 7.37 7.37 0 012.78-.58 2.38 2.38 0 012 1.09 2.65 2.65 0 01.09 2.41 4.57 4.57 0 01-1.87 2.11 6.56 6.56 0 01-4.09.74.34.34 0 01-.24-.34zM133.87 159.67a.37.37 0 01.19-.47l4.95-2.1a.36.36 0 01.47.2.35.35 0 01-.19.48l-4.62 2 1.62 3.82 4-1.71a.37.37 0 01.29.68l-4.05 1.71 1.61 3.81 4.63-2a.37.37 0 01.48.21.36.36 0 01-.19.47l-4.93 2.09a.38.38 0 01-.45-.21zM150.62 161.8L146 163l-.29 2.63a.38.38 0 01-.27.32h-.14a.38.38 0 01-.32-.41l1.11-10.34a.4.4 0 01.3-.3.37.37 0 01.4.13l5.95 8.52a.39.39 0 01-.07.51l-.13.05a.39.39 0 01-.39-.15zm-4.55.41l4.11-1.06-3.45-4.94zM159.74 160.89a1.91 1.91 0 00-1-1.5 3.33 3.33 0 00-1.26-.4h-.08l-2.53.26.41 4.13a.37.37 0 01-.34.39.36.36 0 01-.39-.32l-1-9.73a.37.37 0 01.29-.39h.08l2.91-.29a3 3 0 011.82 5.57l.15.06a2.66 2.66 0 011.64 2.19 3.94 3.94 0 00.25 1.19.53.53 0 00.18.24.38.38 0 01.42.2.39.39 0 01-.19.5h-.18a.86.86 0 01-.72-.42 3.73 3.73 0 01-.46-1.68zm-2.82-7.15l-2.58.25.45 4.51 2.5-.25h.14a2.26 2.26 0 00-.51-4.5zM169.41 152.72a5.64 5.64 0 013.31 1.38.38.38 0 010 .53.35.35 0 01-.51 0 4.86 4.86 0 00-2.87-1.22 4.6 4.6 0 10-.62 9.17 4.5 4.5 0 003-.83.36.36 0 01.51.13.34.34 0 01-.08.52 5.55 5.55 0 01-3.46.91 5.33 5.33 0 11.72-10.63zM181.91 160.77l-5.24-1.3-1.1 4.39a.37.37 0 01-.45.26.37.37 0 01-.26-.44l2.37-9.49a.35.35 0 01.43-.26.36.36 0 01.28.44l-1.1 4.4 5.24 1.3 1.1-4.39a.37.37 0 01.71.18l-2.36 9.49a.38.38 0 01-.46.26.38.38 0 01-.26-.44z" fill="#fff"/><path fill="#66f28d" d="M173.78 140.2h-19.39l1.93-19.35h15.53l1.93 19.35zM130.87 146.37l-16.79 9.69-8-17.72 13.44-7.77 11.35 15.8zM96.8 173.16l-9.7 16.79-15.79-11.35 7.76-13.44 17.73 8zM80.69 213.4v19.39l-19.36-1.93v-15.53l19.36-1.93zM86.85 256.31l9.7 16.79-17.73 8-7.76-13.45 15.79-11.34zM113.65 290.38l16.79 9.69-11.35 15.8-13.45-7.76 8.01-17.73zM153.89 306.49h19.39l-1.94 19.36h-15.52l-1.93-19.36zM196.79 300.32l16.79-9.69 8.01 17.73-13.45 7.76-11.35-15.8zM230.87 273.53l9.69-16.79 15.8 11.35-7.77 13.45-17.72-8.01zM246.98 233.29V213.9l19.35 1.93v15.53l-19.35 1.93zM240.81 190.38l-9.69-16.79 17.72-8 7.77 13.45-15.8 11.34zM214.02 156.31l-16.79-9.69 11.34-15.8 13.45 7.77-8 17.72z"/><path d="M171.22 235.66a1.81 1.81 0 01-1.83 1.83h-11.85a1.81 1.81 0 01-1.37-.6 1.83 1.83 0 01.1-2.59l9.86-8.93a4.17 4.17 0 001.4-3.19 4.32 4.32 0 00-1.1-2.9 4.22 4.22 0 00-3.2-1.4 4.37 4.37 0 00-2.89 1.1l-1 .93a1.8 1.8 0 01-2.59-.13 1.84 1.84 0 01.13-2.6l1-.93a7.85 7.85 0 015.36-2.06 8 8 0 015.93 2.63 7.83 7.83 0 012.06 5.36 8 8 0 01-2.63 5.92l-6.29 5.7h7.09a1.83 1.83 0 011.82 1.86zM229.76 183.91l-6 4.52-11.06-14.59-4-5.34a9.25 9.25 0 002.32-1.31 9.63 9.63 0 003.06-4l4.3 5.66z" fill="#263238"/><path d="M218 149.55a16.28 16.28 0 10-3 22.84 16.72 16.72 0 003.38-3.51 16.3 16.3 0 00-.38-19.33zm-7 17.64a9.25 9.25 0 01-2.32 1.31 9.68 9.68 0 112.32-1.31z" fill="#263238"/><path d="M442.2 124.29a19.15 19.15 0 10-17.29 20.85 19.14 19.14 0 0017.29-20.85zm-17.5 18.52a16.82 16.82 0 1115.18-18.3 16.82 16.82 0 01-15.18 18.3zm17.5-18.52a19.15 19.15 0 10-17.29 20.85 19.14 19.14 0 0017.29-20.85zm-17.5 18.52a16.82 16.82 0 1115.18-18.3 16.82 16.82 0 01-15.18 18.3zm17.5-18.52a19.15 19.15 0 10-17.29 20.85 19.14 19.14 0 0017.29-20.85zm-17.5 18.52a16.82 16.82 0 1115.18-18.3 16.82 16.82 0 01-15.18 18.3zm38.63-20.48a40.37 40.37 0 10-36.45 43.94 40.38 40.38 0 0036.45-43.94zm-38.14 25.77a22.14 22.14 0 1120-24.08 22.16 22.16 0 01-20 24.08zm-3.82-41.1a19.16 19.16 0 1020.83 17.3 19.15 19.15 0 00-20.83-17.3zm3.33 35.82a16.82 16.82 0 1115.18-18.3 16.82 16.82 0 01-15.18 18.29zm17.5-18.52a19.15 19.15 0 10-17.29 20.85 19.14 19.14 0 0017.29-20.86zm-17.5 18.52a16.82 16.82 0 1115.18-18.3 16.82 16.82 0 01-15.18 18.29zm17.5-18.52a19.15 19.15 0 10-17.29 20.85 19.14 19.14 0 0017.29-20.86zm-17.5 18.52a16.82 16.82 0 1115.18-18.3 16.82 16.82 0 01-15.18 18.29z" fill="#66f28d"/><path fill="#66f28d" d="M427.28 86.81l-15.46 1.44-.16-11.02 13.75-1.28 1.87 10.86zM398.34 94.76l-9.91 11.94-7.91-7.67 8.82-10.63 9 6.36zM383.5 120.84l1.43 15.45-11.02.17-1.28-13.75 10.87-1.87zM391.44 149.78l11.94 9.91-7.68 7.91-10.62-8.82 6.36-9zM417.52 164.62l15.46-1.43.16 11.02-13.75 1.28-1.87-10.87zM446.46 156.68l9.91-11.95 7.91 7.68-8.82 10.63-9-6.36zM461.3 130.6l-1.43-15.46 11.02-.16 1.28 13.75-10.87 1.87zM453.36 101.66l-11.95-9.91 7.68-7.91 10.63 8.82-6.36 9z"/><path d="M398.7 121.45v.06a.37.37 0 01-.45.19l-9.25-3.25a.36.36 0 01-.22-.45l.64-1.81a5.25 5.25 0 019.9 3.48zm-.06-2.07a4.51 4.51 0 10-8.51-3l-.53 1.5 8.52 3zM394.08 107a.37.37 0 01-.05-.51l3.35-4.2a.37.37 0 01.57.46l-3.13 3.93 3.24 2.59 2.74-3.43a.37.37 0 01.52-.05.36.36 0 01.06.5l-2.74 3.44 3.23 2.58 3.13-3.93a.36.36 0 01.52 0 .35.35 0 01.06.5l-3.32 4.12a.34.34 0 01-.48 0zM405.8 105.78a.32.32 0 01.37-.28 5.74 5.74 0 003.65-.66 3.91 3.91 0 001.6-1.79 1.92 1.92 0 00-.05-1.8 1.66 1.66 0 00-1.48-.78 7.1 7.1 0 00-2.52.54 6.45 6.45 0 01-2.57.54 2.19 2.19 0 01-1.88-1 2.44 2.44 0 01-.1-2.25 4.35 4.35 0 011.76-2 5.78 5.78 0 013.39-.66.32.32 0 01.32.35.3.3 0 01-.33.31 5.14 5.14 0 00-3 .57 3.67 3.67 0 00-1.5 1.66 1.83 1.83 0 000 1.65 1.52 1.52 0 001.33.68 6.2 6.2 0 002.34-.5 7.37 7.37 0 012.78-.58 2.37 2.37 0 012 1.08 2.65 2.65 0 01.09 2.41 4.55 4.55 0 01-1.87 2.12 6.54 6.54 0 01-4.09.74.36.36 0 01-.24-.35zM412.77 93.18a.37.37 0 01.71-.21l2.71 9.39a.37.37 0 01-.7.21zM424.16 97.07a.35.35 0 01-.36-.37.36.36 0 01.38-.36l3.24.09a.38.38 0 01.33.38l-.1 3.6v.06a.5.5 0 01-.14.27 5.39 5.39 0 11-3.14-9.59 5.51 5.51 0 013.37 1.28.37.37 0 01-.49.55 4.64 4.64 0 10-3.14 8.09 4.73 4.73 0 002.79-.83l.09-3.09zM435 94.82l-3.85 7.68a.36.36 0 01-.65-.32l4.32-8.61a.36.36 0 01.3-.3.37.37 0 01.42.31l1.73 10.74 3.84-7.65a.36.36 0 01.65.33l-4.34 8.65a.35.35 0 01-.49.15.34.34 0 01-.2-.24.19.19 0 010-.08z" fill="#fff"/><path d="M431.32 130.55a1.83 1.83 0 01-1.86 1.83h-.33v2.53a1.84 1.84 0 01-3.67 0v-2.53H415a1.66 1.66 0 01-1.14-.4 1.79 1.79 0 01-.3-2.57l12.32-15.31.07-.07a.36.36 0 00.1-.13.57.57 0 00.17-.1l.13-.1c.07 0 .1-.07.2-.07a.15.15 0 01.13-.1.81.81 0 01.2-.06.19.19 0 00.14 0h.56a.27.27 0 00.17 0s.13 0 .2.06h.13l.17.13.16.1s.1 0 .1.07a1.53 1.53 0 00.13.13l.1.13a1.15 1.15 0 01.13.17.28.28 0 00.07.13c0 .07 0 .1.07.2s0 .1 0 .14a.38.38 0 010 .2v13.71h.33a1.86 1.86 0 011.98 1.91zm-5.86-10.06l-6.62 8.22h6.62z" fill="#263238"/><path d="M461.6 86.75s2.78-4.57-1.26-6.58-5.87 3-5.87 3z" fill="#dd6a57"/><path fill="#455a64" d="M438.34 116.99l7.13 3.54 16.22-33.97-7.13-3.54-16.22 33.97z"/><path fill="#263238" d="M453.41 83.89l8.32 4.14.65-1.35-8.32-4.14-.65 1.35zM452.7 85.39l8.32 4.13.65-1.35-8.33-4.13-.64 1.35z"/><path d="M438.34 117l.68 5.53.21 1.82 1.56-.94 4.68-2.87-.31-1.2-1.11.5-.32-1.21-1.11.5-.3-1.2-1.13.49-.3-1.2-1.12.49-.31-1.2z" fill="#fff"/><path fill="#37474f" d="M439.02 122.52l.21 1.82 1.56-.94-1.77-.88z"/><path d="M441.3 115.88c1-2.41 2-4.79 3.06-7.16s2.17-4.7 3.26-7.06 2.26-4.66 3.44-7 2.37-4.62 3.65-6.88c-1 2.42-2 4.79-3.06 7.16s-2.17 4.71-3.26 7.06-2.26 4.67-3.44 7-2.37 4.62-3.65 6.88zM444.53 117.43c1-2.42 2-4.79 3.05-7.16s2.18-4.71 3.26-7.06 2.27-4.67 3.44-7 2.37-4.61 3.65-6.87c-.95 2.41-2 4.79-3.05 7.16s-2.18 4.7-3.27 7.06-2.26 4.66-3.44 7-2.37 4.6-3.64 6.87z" fill="#263238"/><path d="M318.5 96.52a53.76 53.76 0 1053.75 53.76 53.76 53.76 0 00-53.75-53.76zm0 78.86a25.11 25.11 0 1125.1-25.1 25.11 25.11 0 01-25.1 25.1z" fill="#455a64"/><path fill="#455a64" d="M328.83 98.75h-20.67l1.15-14.63h18.38l1.14 14.63zM289.49 105.72l-14.62 14.61-9.54-11.15 13-13 11.16 9.54zM266.59 138.46v20.67l-14.63-1.14V139.6l14.63-1.14zM273.56 177.81l14.61 14.61-11.15 9.54-13-13 9.54-11.15zM306.3 200.7h20.67l-1.14 14.63h-18.39l-1.14-14.63zM345.65 193.74l14.61-14.62 9.54 11.16-13 13-11.15-9.54zM368.54 160.99v-20.67l14.63 1.14v18.39l-14.63 1.14zM361.58 121.65l-14.62-14.62 11.16-9.54 13 13-9.54 11.16z"/><path d="M286.7 159.08a.32.32 0 01-.11-.45 5.73 5.73 0 00.82-3.61 4 4 0 00-1-2.18 1.92 1.92 0 00-1.68-.66 1.67 1.67 0 00-1.29 1.06 6.81 6.81 0 00-.48 2.53 6.44 6.44 0 01-.51 2.58 2.16 2.16 0 01-1.64 1.34 2.45 2.45 0 01-2.11-.79 4.26 4.26 0 01-1.13-2.39 5.81 5.81 0 01.71-3.39.34.34 0 01.45-.15.3.3 0 01.15.43 5.14 5.14 0 00-.66 3 3.74 3.74 0 00.94 2 1.82 1.82 0 001.55.6 1.51 1.51 0 001.14-1 6 6 0 00.45-2.35 7 7 0 01.55-2.78 2.36 2.36 0 011.78-1.44 2.68 2.68 0 012.26.86 4.64 4.64 0 011.22 2.55 6.6 6.6 0 01-.92 4.05.35.35 0 01-.49.19zM278.24 145.3l-.43 3.13a.37.37 0 01-.42.31.38.38 0 01-.31-.41l1-7a.37.37 0 01.41-.31.36.36 0 01.32.41l-.43 3.13 9.32 1.28a.36.36 0 11-.1.72zM289.14 134.74a1.89 1.89 0 00-1.8.12 3.26 3.26 0 00-1 .89l-.06.05-1.05 2.32 3.78 1.72a.37.37 0 01.18.49.37.37 0 01-.48.18l-8.91-4a.37.37 0 01-.19-.45l1.21-2.66a3 3 0 015.73 1.21l.13-.1a2.64 2.64 0 012.71-.32 4.44 4.44 0 001.16.38.48.48 0 00.29 0 .4.4 0 01.39-.27.41.41 0 01.34.41l-.06.18a.87.87 0 01-.72.42 3.8 3.8 0 01-1.65-.57zm-7.6-1.15l-1.07 2.41 4.12 1.87 1-2.3.06-.12a2.27 2.27 0 00-4.15-1.82zM294.68 126.6l-3.12 3.63 1.28 2.32a.38.38 0 010 .42.9.9 0 01-.1.09.38.38 0 01-.5-.15l-5-9.11a.4.4 0 01.07-.42.36.36 0 01.4-.13l9.77 3.58a.38.38 0 01.23.46s0 .08-.07.12a.4.4 0 01-.41.1zm-3.5 3l2.77-3.22-5.66-2.07zM294.6 117.52l-2.6 1.83a.37.37 0 01-.51-.1.36.36 0 01.08-.5l5.76-4.08a.37.37 0 01.42.6l-2.58 1.83 5.44 7.67a.37.37 0 01-.08.51.38.38 0 01-.51-.09zM302.24 112.61a.37.37 0 01.22-.46l5.06-1.78a.37.37 0 01.25.69l-4.74 1.67 1.38 3.91 4.14-1.45a.37.37 0 01.25.69l-4.15 1.46 1.37 3.9 4.74-1.66a.36.36 0 01.47.23.37.37 0 01-.22.46L306 122h-.05a.38.38 0 01-.44-.23zM318.07 114.76a.36.36 0 01-.38-.35.37.37 0 01.36-.39l3.24-.07a.38.38 0 01.34.37l.08 3.6v.08a.43.43 0 01-.13.27 5.49 5.49 0 01-3.37 1.23 5.33 5.33 0 11-.23-10.65 5.51 5.51 0 013.43 1.11.37.37 0 01.05.51.38.38 0 01-.52.07 4.59 4.59 0 100 7.26l-.07-3.09zM328.46 115.85l-2-5.62a.37.37 0 01.21-.46.33.33 0 01.47.2l1.89 5.25 4.44-3.41a.34.34 0 01.5.09.36.36 0 01-.07.51l-4.74 3.59-1.32 4.52a.36.36 0 01-.45.25.37.37 0 01-.25-.45z" fill="#fff"/><path d="M323.27 149.49a8.11 8.11 0 012.43 5.82 8.27 8.27 0 01-14.12 5.86 1.88 1.88 0 112.66-2.66 4.47 4.47 0 003.17 1.3 4.59 4.59 0 003.19-1.3 4.46 4.46 0 001.33-3.2 4.32 4.32 0 00-1.33-3.16 4.42 4.42 0 00-3.16-1.33 1.67 1.67 0 01-1.37-.6 1.9 1.9 0 01-.07-2.66l3.4-3.46H314a1.88 1.88 0 010-3.76h9.82a1.87 1.87 0 011.9 1.86 2 2 0 01-.24.9 2.64 2.64 0 01-.33.47l-4.19 4.32a7.7 7.7 0 012.31 1.6z" fill="#263238"/><circle cx="354.57" cy="104.31" r="6.25" fill="#66f28d"/><path fill="#66f28d" d="M347.94 109.6h13.25v1.91h-13.25z"/><path opacity=".1" d="M347.94 109.6h13.25v1.91h-13.25z"/><path fill="#66f28d" d="M341.15 135.9h26.84v1.91h-26.84z"/><path opacity=".1" d="M341.15 135.9h26.84v1.91h-26.84z"/><path fill="#66f28d" d="M341.15 141.26h26.84v1.91h-26.84z"/><path opacity=".1" d="M341.15 141.26h26.84v1.91h-26.84z"/><path fill="#66f28d" d="M342.15 137.81h24.84v3.45h-24.84zM349.16 111.51h10.81v1.91h-10.81zM365.55 135.9h-22s5-5 6.05-11c.88-5.06 1.3-11.48 1.3-11.48h7.25s.43 6.42 1.31 11.48c1.08 5.99 6.09 11 6.09 11z"/><path d="M56 44.48l-.59-.82c1.05-.75 1.67-1.12 1.7-1.13l.51.86A18.65 18.65 0 0056 44.48zM318 217.27c-1.36 0-2.71-.06-4-.14l.06-1c1.29.08 2.63.12 4 .14zm4-.08l-.05-1c1.33-.06 2.66-.17 3.93-.33l.12 1c-1.24.14-2.58.26-3.94.33zm-12.05-.4c-1.34-.15-2.67-.34-4-.56l.17-1c1.29.22 2.6.41 3.93.56zm20-.56l-.2-1c1.31-.26 2.6-.58 3.83-.94l.28 1c-1.18.35-2.49.71-3.86.94zm-27.93-.8c-1.32-.32-2.62-.67-3.88-1.07l.29-1c1.24.38 2.53.73 3.82 1zm35.72-1.43l-.37-.93a36 36 0 003.56-1.65l.47.89c-1.18.58-2.4 1.14-3.66 1.69zm-43.32-1c-1.25-.49-2.49-1-3.69-1.6l.43-.9c1.18.56 2.4 1.09 3.62 1.57zm50.44-2.83l-.56-.83a36.39 36.39 0 003.15-2.36l.64.77a40 40 0 01-3.23 2.46zm-57.7-.63c-1.16-.66-2.31-1.37-3.43-2.12l.56-.83c1.09.73 2.23 1.43 3.36 2.08zm-6.7-4.47c-1-.8-2.09-1.66-3.1-2.55l.65-.75c1 .87 2 1.72 3.06 2.51zm70.6-.05l-.71-.7c.9-.91 1.79-1.9 2.64-2.93l.77.63c-.87 1.1-1.76 2.11-2.7 3.04zm-76.65-5.23c-.93-.92-1.87-1.89-2.8-2.89l.73-.68c.92 1 1.85 2 2.77 2.85zm81.78-1l-.82-.57c.74-1.06 1.46-2.18 2.15-3.33l.86.51c-.71 1.23-1.44 2.37-2.19 3.45zm-87.25-4.93c-.83-1-1.68-2-2.53-3.12l.78-.62c.85 1.08 1.7 2.12 2.52 3.09zm91.39-2l-.88-.46c.58-1.13 1.17-2.33 1.73-3.57l.91.41c-.57 1.34-1.16 2.56-1.76 3.7zM264 187.61c-.79-1.07-1.57-2.16-2.35-3.25l.82-.58c.77 1.09 1.55 2.17 2.33 3.24zm99.71-3l-.92-.38c.48-1.19 1-2.44 1.43-3.72l.94.35c-.5 1.31-.99 2.57-1.48 3.77zm-104.35-3.57c-.75-1.1-1.49-2.2-2.24-3.32l.84-.55c.74 1.11 1.48 2.21 2.23 3.31zm107.12-4l-.95-.31c.42-1.26.82-2.52 1.22-3.81l.95.3c-.42 1.33-.83 2.6-1.25 3.86zm-111.57-2.67l-2.22-3.35.84-.55 2.21 3.35zm113.93-5l-1-.28c.37-1.27.72-2.55 1.08-3.85l1 .26q-.55 1.99-1.11 3.91zm-118.37-1.68c-.75-1.1-1.5-2.21-2.26-3.3l.82-.57c.76 1.1 1.52 2.2 2.26 3.31zm120.48-6.07l-1-.25q.49-1.92 1-3.87l1 .24c-.37 1.34-.7 2.64-1.03 3.92zm-125-.5c-.78-1.08-1.57-2.16-2.37-3.22l.8-.6c.81 1.07 1.6 2.15 2.38 3.23zm-4.82-6.37c-.84-1.06-1.7-2.09-2.54-3.07l.76-.65c.85 1 1.71 2 2.57 3.1zm131.82-.9l-1-.24 1-3.89 1 .24zm-137-5.15c-.91-1-1.85-1.94-2.77-2.86l.7-.71c.94.92 1.88 1.9 2.8 2.89zm138.93-2.61l-1-.25c.32-1.29.65-2.58 1-3.88l1 .25c-.43 1.33-.76 2.62-1.08 3.92zm-289-2.42c-1.34 0-2.7-.1-4-.22l.09-1c1.31.11 2.64.19 4 .21zm4-.07v-1c1.31-.08 2.64-.2 3.94-.37l.13 1c-1.39.21-2.75.33-4.09.41zm140.35-.48c-1-.89-2-1.75-3-2.57l.63-.78c1 .83 2.06 1.71 3.06 2.61zM77.79 143a67.35 67.35 0 01-4-.8l.23-1c1.27.31 2.58.57 3.88.78zm20.07-.39l-.2-1c1.29-.27 2.58-.59 3.85-1l.27 1c-1.28.39-2.6.71-3.92.99zm-27.92-1.47a61.08 61.08 0 01-3.8-1.35l.37-.93c1.21.48 2.47.93 3.73 1.32zm35.68-.67l-.3-1 3.82-1.2.3.95c-1.26.45-2.54.85-3.82 1.24zm271.16-2.09l-1-.26c.34-1.29.69-2.59 1.05-3.88l1 .27c-.36 1.27-.71 2.57-1.05 3.86zM224 138.19c-1.07-.77-2.17-1.52-3.28-2.22l.53-.84c1.13.71 2.25 1.47 3.34 2.25zm-161.58 0a63.68 63.68 0 01-3.57-1.88l.5-.87c1.13.65 2.31 1.27 3.5 1.84zm50.81-.13l-.3-.95 3.8-1.23.31.95zm7.61-2.47l-.31-.95 3.81-1.24.31 1zm-65.42-1.42c-1.11-.76-2.2-1.56-3.25-2.39l.62-.79c1 .82 2.1 1.61 3.2 2.35zm161.89-.2c-1.15-.63-2.34-1.24-3.52-1.81l.43-.9c1.2.57 2.4 1.19 3.57 1.84zm-88.86-.84l-.3-1L132 131l.3 1zm7.64-2.37l-.29-1c1.29-.39 2.57-.76 3.85-1.12l.27 1zm242.8-.09l-1-.28c.37-1.28.76-2.57 1.15-3.84l1 .3c-.38 1.24-.76 2.52-1.13 3.8zm-168.73-.12c-1.1-.45-2.23-.87-3.36-1.27l-.35-.12.33-.95.26.09c1.24.44 2.39.87 3.5 1.33zm-161-1.41c-1-.92-1.94-1.88-2.84-2.87l.74-.67c.88 1 1.82 1.91 2.78 2.81zm94.66-.55l-.25-1c1.3-.34 2.59-.67 3.89-1l.23 1c-1.31.31-2.6.64-3.9.98zm58.89-.66c-1.27-.39-2.56-.75-3.83-1.08l.25-1c1.28.34 2.58.7 3.87 1.09zm-51.13-1.22l-.21-1c1.31-.28 2.62-.55 3.93-.8l.19 1c-1.33.23-2.64.5-3.94.78zm43.43-.78c-1.29-.27-2.61-.53-3.91-.75l.17-1c1.32.23 2.64.48 3.95.77zm-35.59-.7l-.16-1c1.34-.21 2.68-.4 4-.56l.12 1c-1.38.14-2.67.33-3.99.54zm27.75-.63a74.15 74.15 0 00-4-.41l.08-1c1.33.11 2.67.25 4 .41zm-19.85-.34l-.09-1c1.34-.11 2.69-.2 4-.26v1c-1.23 0-2.61.13-3.94.24zm11.92-.31q-1.74-.06-3.45-.06h-.53v-1h.53c1.15 0 2.32 0 3.49.06zm-135.53-.77c-.82-1.06-1.61-2.17-2.34-3.29l.84-.55c.71 1.1 1.49 2.19 2.29 3.23zm337.6-.14l-.95-.31c.42-1.28.86-2.54 1.31-3.8l.94.34c-.48 1.23-.91 2.49-1.33 3.73zm-342-6.63c-.64-1.18-1.23-2.4-1.76-3.63l.91-.4c.53 1.21 1.11 2.4 1.73 3.56zm344.69-.89l-.93-.36c.49-1.26 1-2.49 1.52-3.72l.92.4c-.51 1.21-1.03 2.44-1.51 3.68zM36.06 109c-.43-1.26-.81-2.56-1.14-3.87l1-.24c.32 1.28.7 2.55 1.12 3.79zm351.08-.78l-.9-.43c.59-1.24 1.19-2.45 1.8-3.6l.88.47c-.59 1.12-1.19 2.34-1.78 3.55zm3.71-7l-.86-.5c.68-1.17 1.4-2.32 2.12-3.43l.84.55c-.72 1.04-1.42 2.16-2.1 3.33zm-356.75 0c-.12-.72-.23-1.44-.32-2.17s-.15-1.23-.21-1.83l1-.1c.06.6.13 1.2.2 1.81s.19 1.42.31 2.12zm361.12-6.64l-.81-.59c.8-1.08 1.64-2.15 2.48-3.15l.77.64c-.83.94-1.66 1.99-2.44 3.05zm-362-1.38c-.05-1.12-.08-2.25-.08-3.36v-.66h1v.66c0 1.1 0 2.21.08 3.32zm367-4.68l-.72-.69c.93-1 1.89-1.93 2.86-2.82l.68.74c-.88.83-1.83 1.76-2.75 2.72zM34.35 85.17l-1-.07c.09-1.34.23-2.69.4-4l1 .13c-.17 1.29-.3 2.62-.4 3.94zm371.76-2l-.63-.78c1-.83 2.13-1.64 3.23-2.4l.57.82c-1.08.7-2.15 1.49-3.17 2.31zm6.5-4.5l-.52-.86c1.15-.68 2.34-1.33 3.54-1.93l.45.89c-1.18.54-2.35 1.23-3.47 1.85zm-377.2-1.36l-1-.2c.27-1.32.59-2.64.94-3.92l1 .27a58.46 58.46 0 00-.94 3.85zm2.11-7.64l-.94-.33c.45-1.26 1-2.52 1.48-3.75L39 66c-.55 1.19-1 2.43-1.48 3.67zm3.18-7.25l-.89-.42c.63-1.19 1.3-2.36 2-3.5l.85.53c-.66 1.06-1.35 2.22-1.96 3.39zm4.19-6.72l-.81-.59c.79-1.09 1.63-2.15 2.5-3.18l.76.65c-.85 1-1.67 2.05-2.45 3.12zM50 49.65l-.71-.7c.95-1 1.94-1.9 2.94-2.77l.66.76c-.96.85-1.89 1.76-2.89 2.71zM420.11 74.86l-.39-.92c.62-.26 1.24-.51 1.88-.75l.36.94c-.63.23-1.24.48-1.85.73z" fill="#263238"/><circle cx="57.36" cy="42.96" r="8.15" transform="rotate(-22.38 57.37 42.971)" fill="#263238"/><circle cx="200.14" cy="126.13" r="8.15" fill="#263238"/><circle cx="421.78" cy="73.66" r="8.15" fill="#263238"/><circle cx="318.86" cy="218.38" r="8.15" fill="#263238"/></g><g><path d="M93.1 339.66a45.82 45.82 0 01-.89 17.57 49.11 49.11 0 01-2.69 7.77c-1.4 3.22-2.86 6.36-2.51 9.88.34.22-.83.19-.86-.16-9.4-5.35-21.46-6.33-28.69-15.08-3.43-4.14-5.16-9.39-6-14.65-.89-5.72-1.13-12.05.34-17.69 1.25-4.77 4-9.36 8.51-11.7s10.68-2.2 15.55-.69c10.53 3.25 15.75 14.58 17.24 24.75z" fill="#66f28d"/><path d="M97.92 409.24c-1.28-4.28-2.56-8.55-3.88-12.82-2.58-8.35-5.26-16.68-8.23-24.9q-2.67-7.39-5.62-14.64a88.1 88.1 0 011.12-9.09c.78-3.64 1.93-7.16 3-10.73.06-.22-.29-.33-.38-.12-2.11 4.91-4.86 11.2-4.93 17-2.3-5.47-4.75-10.86-7.39-16.17a69 69 0 01.39-13.45c0-.21-.28-.27-.31-.06a47.15 47.15 0 00-.92 11.88c-2-4-4.15-7.93-6.42-11.81-.2-.35-.69 0-.51.36 3.54 6.8 6.81 13.74 9.89 20.78A45.23 45.23 0 0059 336.93c-.24-.08-.41.26-.17.36a53.79 53.79 0 0115.94 10.55q3.32 7.74 6.32 15.58c-5.89-5.76-13.93-9.55-21.72-11.59-.27-.07-.34.34-.08.42 9 2.71 16 7.82 22.86 13.95q1.2 3.18 2.34 6.36 4.37 12.09 8.3 24.32 1.89 5.85 3.73 11.73c1.31 4.21 2.34 8.67 4 12.74.17.38.86.3.77-.17a122 122 0 00-3.37-11.94z" fill="#263238"/><path d="M82.33 331.43a23.5 23.5 0 00-3.39 8.44c0 .07.11.12.14 0a73.65 73.65 0 013.67-8.28c.14-.23-.26-.41-.42-.16zM65.56 351a25 25 0 00-8.43-2.84c-.08 0-.13.1-.05.14 1.36.56 2.78.95 4.15 1.48s2.77 1.22 4.12 1.67a.24.24 0 00.21-.45zM60.84 327.45a17 17 0 00-2.72-1.67.14.14 0 00-.12.22 17 17 0 002.67 1.73c.14.12.33-.16.17-.28z" fill="#263238"/><path d="M124.79 371.58c-6.77 2-13.58 3.87-20.35 5.86-.58.17-12-21.76-7.89-33.06 3.82-10.45 12.57-18.28 23-21.83 4.83-1.64 10.77-3 15.88-1.9 4.54 1 7.75 4.73 9.22 9 2 5.8 1.34 12.72.25 18.65a32.7 32.7 0 01-6.66 15.22c-3.59 4.27-8.18 6.48-13.45 8.06z" fill="#66f28d"/><path d="M134.6 350.74a91.21 91.21 0 01-13.27 5.26 55.93 55.93 0 00-8.86 3.2c2.86-6.37 6-12.61 9.32-18.8 4.38-1.26 9-3.23 12.27-6.33a.19.19 0 00-.24-.29c-3.61 2.55-7.59 4.08-11.58 5.81q1.35-2.51 2.74-5c.25-.46-.38-.92-.69-.47a142.82 142.82 0 00-9.62 16.16 74.65 74.65 0 01-.7-14.8.1.1 0 00-.19 0 49.36 49.36 0 00.16 16.27c-2.37 4.74-4.53 9.59-6.48 14.51-.77-3-1.77-5.86-2.44-8.84a40.26 40.26 0 01-1-13 .1.1 0 00-.2 0 45.93 45.93 0 002.84 23.92c-1.13 3-2.21 5.93-3.2 8.91a177.49 177.49 0 00-9 47 .29.29 0 00.58 0 232.47 232.47 0 0110.09-46.42c2-5.9 4.22-11.63 6.7-17.25 4-1.18 8-2.79 11.91-4.15s7.76-2.86 11-5.38a.14.14 0 00-.14-.31z" fill="#263238"/><path d="M140.91 344.37c-4.14 1.47-8.06 3.53-12.2 5-.19.07-.08.37.12.33 4.37-.9 8.71-2.25 12.24-5.12.14-.08-.01-.26-.16-.21zM107.11 335.44c0-.22-.28-.35-.34-.12-1.14 3.81-1.92 7.86-.82 11.76 0 .16.29.16.3 0 .19-3.94-.02-7.77.86-11.64zM124.21 326.62a10.15 10.15 0 00-1.79 6.49c0 .15.24.23.28.06.5-2.19 1.34-4.18 2-6.3a.28.28 0 00-.49-.25z" fill="#263238"/><path d="M44.26 381.26c2 6.29 6.7 15 14.17 15.07 4.84.05 9.72-.53 14.57-.6 5.2-.08 10.41-.06 15.59.25.43 0-.62-15.57-13.11-23.16-3.5-2.12-7.78-2.8-11.75-3.66a54.54 54.54 0 00-13.88-1.44c-2.87.11-5.26.72-6.28 3.66s-.26 6.88.69 9.88z" fill="#66f28d"/><path d="M49.63 373.37c3 .78 6.1 1.68 9.15 2.65a32.51 32.51 0 00-2.52-2.46c-1.31-1.09-2.75-1.95-4.15-2.91-.12-.08 0-.3.1-.24a17.15 17.15 0 017.37 5.86c3.8 1.22 7.56 2.58 11.18 4.06a41.87 41.87 0 017.15 3.77 29.25 29.25 0 00-2.59-4.51c-1.66-2.14-3.9-3.34-6.07-4.87a.19.19 0 01.2-.33A17.77 17.77 0 0179.19 385a41.21 41.21 0 017.08 6.44c8.27 9.38 14.78 21.87 14.8 34.62 0 .3-.49.39-.55.07a70.51 70.51 0 00-15.76-33.85c-.59-.69-1.2-1.35-1.81-2a55.76 55.76 0 00-6.83-.51c-2.66 0-5.3.39-8 .6-4.36.36-9.18.41-13.11-1.78a.18.18 0 01.14-.33c8.76 3.19 18-.86 26.75 1a41.31 41.31 0 00-13-8.36l-.81-.32c-5.63.68-11.57 2.14-17.05.32-.16-.06-.09-.31.07-.26 5.3 1.32 10.38-.34 15.6-.61-5.69-2.21-11.49-4-17.19-6.18-.39-.17-.41-.61.11-.48z" fill="#263238"/><path d="M47.15 378.91a75 75 0 008.19.62c.06 0 .08.1 0 .12a17.07 17.07 0 01-8.27-.53c-.07-.04-.07-.23.08-.21zM65.65 373.51a13.43 13.43 0 014 2.82c.15.13 0 .38-.2.27-.69-.5-1.4-1-2.11-1.44a19.39 19.39 0 01-2-1.25c-.11-.15.09-.48.31-.4z" fill="#263238"/><path d="M109.76 393.79c-.1.21.2.4.32.19a.27.27 0 00.19.13 125.86 125.86 0 0015.26 2.66c4.13.37 8.89.6 12.51-1.8 4.9-3.25 8.12-11.93 5.47-17.45-3.13-6.55-12.57-3-17.31-.67a34.72 34.72 0 00-16.44 16.94z" fill="#66f28d"/><path d="M106.09 396.82a49 49 0 019.11-6.94 31.29 31.29 0 019.24-9.41c.18-.13.34.16.17.28a42.15 42.15 0 00-7.78 8.19 87.35 87.35 0 0111.43-5.2 15.27 15.27 0 016.14-6.15s.11.05.06.09a25.07 25.07 0 00-5.54 5.82c2.32-.87 4.66-1.68 7-2.46.21-.07.29.26.09.33-4.17 1.63-8.44 3.35-12.58 5.34a48.33 48.33 0 0015.23 0c.14 0 .2.18.06.22a30.06 30.06 0 01-16.16.24 77.39 77.39 0 00-7.66 4.29 19.45 19.45 0 016.19.51 47.06 47.06 0 0010.91 1.18.13.13 0 010 .25c-6.31 1.09-12.28-1.78-18.54-1a48.3 48.3 0 00-6.52 5.33 48.88 48.88 0 00-9.51 13.41c-2.63 5.36-4.06 11-6.19 16.59a.2.2 0 01-.39-.11c1.84-10.96 7.28-23.01 15.24-30.8z" fill="#263238"/><path d="M125.14 381.84a7 7 0 011.62-2 6.33 6.33 0 011.86-1.4c.06 0 .1.06.06.11-.52.58-1.24 1-1.8 1.58s-1 1.23-1.59 1.78a.09.09 0 01-.15-.07zM135.55 385.23c.94-.24 1.93-.22 2.88-.41a27.3 27.3 0 002.8-.84c.12 0 .19.14.08.21a9.28 9.28 0 01-5.76 1.33.15.15 0 010-.29z" fill="#263238"/><path fill="#455a64" d="M80.07 414.12l.83 9.41 2.81 31.79h24.89l3.52-31.79 1.04-9.41H80.07z"/><path fill="#263238" d="M80.07 414.12l.83 9.41h31.22l1.04-9.41H80.07z"/><path fill="#455a64" d="M115.62 419.19H77.6v-7.64h38.02z"/></g><g><path d="M334.52 454.81c2 .65 59.27-.1 61.43-1.51.83-.52 1.21-8.87 1.37-19v-.32c0-2.08.06-4.23.06-6.4v-.89l-37.31.1v1.17l.23 6.09v.62s-21.79 10.09-24 11.9-3.79 7.6-1.78 8.24z" fill="#ebebeb"/><path d="M334.51 454.81c1 .33 16.59.29 31.8 0 3.06-.06 6.1-.13 9-.21 10.84-.3 19.8-.75 20.63-1.29s1.2-8.64 1.37-18.55v-.42-.33h-.05l-36.9.07v.63s-21.79 10.08-24 11.89-3.85 7.57-1.85 8.21z" fill="#66f28d"/><path d="M335.14 452.58c9.65-.36 48.6-.91 58.17-.54.07 0 .07.06 0 .06-9.56.57-48.51.81-58.17.64-.2 0-.2-.15 0-.16zM356.27 434.23c3.79-.75 8.44-.23 11.38 2.44.11.1 0 .26-.16.22a53.87 53.87 0 00-11.2-2.18.24.24 0 01-.02-.48zM353.55 435.92c3.79-.76 8.44-.23 11.38 2.44.11.1 0 .26-.16.22a53.87 53.87 0 00-11.2-2.18.24.24 0 01-.02-.48zM350.83 437.61c3.79-.76 8.44-.23 11.38 2.43.11.11 0 .27-.16.23a53.22 53.22 0 00-11.2-2.18.24.24 0 01-.02-.48z" fill="#263238"/><path d="M366.31 454.8c3.06-.06 6.1-.13 9-.21 10.84-.3 19.8-.75 20.63-1.29s1.2-8.64 1.37-18.55v-.42-.33h-.05c-5.03 3.55-22.85 15.41-30.95 20.8z" fill="#263238"/><path d="M357.87 434.2h41.23s-8.3-96.31-8-98c.41-2.16 2.84-11.91 6.08-24.64 1-4 2.11-8.26 3.25-12.69 3.08-12 6.47-25.08 9.42-36.48 4.43-17.07 7.89-30.33 7.89-30.33h-34.92s-4.07 12.91-9.2 29.71c-8.37 27.3-19.55 64.88-20.65 74-1.79 14.78 4.9 98.43 4.9 98.43z" fill="#37474f"/><path d="M359.69 427.17c6.3-.13 4.49-.18 10.79-.25 3.08 0 23.34-.2 26.22.28a.06.06 0 010 .12c-2.88.48-23.14.3-26.22.27-6.3-.06-4.49-.11-10.79-.24a.09.09 0 010-.18zM383.37 330.32c1.35-6 3.37-11.8 5.13-17.65q5.36-17.84 10.78-35.65 2.72-8.91 5.44-17.81c.93-3 1.85-6 2.78-9s2-5.83 2.79-8.79c.34-1.2.53-.54.09 1-.87 3.07-1.72 6.15-2.62 9.22q-2.67 9.12-5.36 18.22-5.4 18.14-10.82 36.23l-5.46 18.14a73.78 73.78 0 00-2.23 8.78 40.42 40.42 0 00-.36 9.39c.39 6.31 1.12 12.61 1.71 18.91s1.16 12.61 1.75 18.92q1.74 18.82 3.45 37.66c.14 1.59.28 3.18.41 4.78 0 .53-.77.49-.82 0-1.36-12.42-2.4-24.87-3.57-37.3L383 348.24c-.29-3.11-.62-6.22-.62-9.34a38.69 38.69 0 01.99-8.58z" fill="#263238"/><path d="M386.79 232.07c2.43 18.77 7 54 10.42 79.5 7.89-30.94 20.56-79.5 20.56-79.5z" fill="#263238"/><path d="M378.21 455.36c2 .66 59.26.12 61.43-1.28.83-.52 1.24-8.87 1.44-19v-.32c0-2.08.08-4.22.09-6.4v-.89h-37.3v1.16l.21 6.09v.63s-21.83 10-24.05 11.8-3.83 7.56-1.82 8.21z" fill="#ebebeb"/><path d="M378.21 455.36c2 .66 59.26.12 61.43-1.28.83-.52 1.24-8.87 1.44-19v-.32l-36.95-.07v.63s-21.83 10-24.05 11.8-3.88 7.59-1.87 8.24z" fill="#66f28d"/><path d="M378.83 453.13c9.65-.32 48.61-.73 58.17-.32.08 0 .08.06 0 .06-9.56.53-48.51.63-58.17.42-.2 0-.2-.15 0-.16zM400 434.87c3.79-.75 8.44-.21 11.37 2.47.11.1 0 .26-.16.23a52.57 52.57 0 00-11.19-2.22.24.24 0 01-.02-.48zM397.3 436.54c3.79-.74 8.45-.2 11.37 2.48.12.1 0 .26-.16.22a53.71 53.71 0 00-11.19-2.24.24.24 0 01-.02-.46zM394.58 438.22c3.79-.74 8.44-.2 11.37 2.48.11.1 0 .26-.16.22a54 54 0 00-11.19-2.22.24.24 0 01-.02-.48z" fill="#263238"/><path d="M384 232.07s.81 16.72 4.63 30c.31 1.1.64 2.18 1 3.21a62.52 62.52 0 0110.08 5.18s.4 13.45.8 28.46c.45 16.77.91 35.48.82 39.45-.35 14.84 1.85 96.48 1.85 96.48l41.23.16s-7.45-91.16-7.4-96.6c.08-8.74-2-47.38-3.6-75.56-1-17.36-1.79-30.74-1.79-30.74z" fill="#37474f"/><path d="M404.55 427.47c6.29-.1 4.49-.16 10.78-.19 3.09 0 23.34-.11 26.22.38.07 0 .06.12 0 .13-2.88.46-23.14.2-26.22.16-6.3-.09-4.49-.13-10.78-.29a.1.1 0 010-.19zM428.11 238c.76 23 1.56 46 2.59 69s2.42 46.14 4.36 69.15c1.07 12.86 2.09 30.95 3.48 43.77a.07.07 0 01-.14 0c-3-22.81-4.67-51-6.15-74s-2.47-46-3.26-68.95c-.44-13-.78-26-1.17-39 0-.13.28-.11.29.03zM387.87 264.24a77.38 77.38 0 0111.79 6.18.14.14 0 01-.13.24c-4-1.93-8-3.79-11.9-5.94a.27.27 0 01.24-.48z" fill="#263238"/><path d="M387.64 250.06c.27 1.46.63 2.91.94 4.37s.52 2.76.88 4.11a7.07 7.07 0 001.91 3.45c.54.5 1.13.94 1.7 1.39.31.25.64.49 1 .74 0-.2-.07-.39-.11-.59-.09-.56-.19-1.11-.28-1.67-.21-1.24-.41-2.47-.59-3.71-.38-2.43-.72-4.89-1.23-7.29a.08.08 0 01.16 0c.6 2.38 1.27 4.74 1.8 7.15.26 1.18 1.18 7 1.22 7.42s.08.85.09 1.28a4.72 4.72 0 010 1.3c0 .11-.15.09-.19 0a5.61 5.61 0 01-.37-1.27c-.11-.42-.2-.84-.28-1.26 0-.15 0-.31-.07-.47-.57-.34-1.1-.8-1.64-1.19s-1.17-.83-1.71-1.29a6.54 6.54 0 01-2.1-3.27 23.62 23.62 0 01-.68-4.19c-.19-1.65-.32-3.31-.55-5-.07-.07.08-.07.1-.01z" fill="#263238"/><path d="M406.15 188.93c-5.69 9.48-30 30-38.55 30.44-6.19.36-27.68-16.63-33.45-22.61-5.57-5.76 14.63-21.42 18.13-18.26 4.94 4.45 15.76 17.29 18.15 17.7 1.67.28 12-4.56 28-13.7 8.92-5.06 11.12.77 7.72 6.43z" fill="#ad6359"/><path d="M345.05 169.49c-3.45-2-7.24-4.45-11.34-5.09s-8.43 4.16-8.7 5.7-.41 11.44 3.67 12.15 2.91-7.11 3.21-7.93.65-1.87 1.41-1.66 13.11 9 13.11 9z" fill="#ad6359"/><path d="M344.69 170c-.23 0-10.41-6.27-14.51-6.9s-8.43 4.15-8.7 5.69-.41 11.44 3.67 12.16 2.91-7.11 3.21-7.93.65-1.88 1.41-1.67 13.11 9 13.11 9z" fill="#ad6359"/><path d="M326.62 180.67a4.91 4.91 0 001.11-2.29 8.66 8.66 0 00.31-2.63 14 14 0 01-.11-2.33 4.64 4.64 0 01.95-2.06c.42-.52 1-.22 1.46 0a20.49 20.49 0 012.05 1.39l2.11 1.6a21 21 0 012.15 1.72s0 .14-.07.1a22 22 0 01-1.91-1.29c-.71-.5-1.43-1-2.15-1.48s-1.32-.94-2-1.38c-.24-.16-.71-.53-1-.51s-.61.75-.73 1a4 4 0 00-.24 2.23 11.88 11.88 0 010 2.31 6 6 0 01-.54 2.09 8.55 8.55 0 01-1.29 1.59c-.05.11-.16 0-.1-.06z" fill="#263238"/><path d="M355.76 183s-9.51-12.3-11.5-14.76c-4-4.93-22.48-16.54-25.2-17.32s-4.72 4.73 7.75 13c6.57 4.36 7.13 8.65 6.59 10.89s-3.42 6.07-7.2 5.3-5.28-6.75-8.66-8-2.2 5.58-.38 9.71a23.6 23.6 0 008.84 9.78c3.07 1.8 12.47 8 12.47 8z" fill="#ad6359"/><path d="M322 176.6c1.24 1.36 2.61 3.08 4.48 3.48s3.42-.63 4.6-2.06a7.33 7.33 0 001.92-5.08 9 9 0 00-1.86-4.71 21.49 21.49 0 00-4.55-4.33c-.07-.06 0-.16.1-.11 1.61 1.09 6.66 4.27 6.91 9.26a7.51 7.51 0 01-2 5.17c-1.11 1.36-2.59 2.61-4.46 2.43-2.27-.21-3.89-2.37-5.26-4-.11-.09.01-.12.12-.05z" fill="#263238"/><path d="M352.68 178.85L337 207.09s23.41 13.8 31 13 29.6-18.64 38.22-30.34c5.25-7.12 1.55-13.15-8.67-7.81-10.52 5.48-25.26 13-26.31 13.21s-18.56-16.3-18.56-16.3z" fill="#66f28d"/><path d="M369 199.53a7.86 7.86 0 01-1.67 3.64 7 7 0 01.6-1.93 7.52 7.52 0 011.07-1.71zM348 193.22a7.28 7.28 0 01-.6 1.92 7.11 7.11 0 01-1.07 1.71 7.62 7.62 0 011.67-3.63zM390.85 188.68a6.93 6.93 0 01-.6 1.92 6.53 6.53 0 01-1.07 1.71 6.93 6.93 0 01.6-1.92 7.11 7.11 0 011.07-1.71zM367.32 214.79a7 7 0 01-1.93-.6 6.7 6.7 0 01-1.71-1.07 7 7 0 011.93.6 7.31 7.31 0 011.71 1.07zM344.23 206.73a7 7 0 01-1.93-.6 7.31 7.31 0 01-1.71-1.07 7 7 0 011.93.6 7.18 7.18 0 011.71 1.07zM354.7 184.55a7 7 0 01-1.93-.59 7.31 7.31 0 01-1.71-1.07 7 7 0 011.93.59 7.31 7.31 0 011.71 1.07zM380.61 196.85a7 7 0 01.94 1.79 6.83 6.83 0 01.46 2 7.35 7.35 0 01-.95-1.79 7.16 7.16 0 01-.45-2zM356.18 201.37a7.08 7.08 0 01.94 1.78 7.16 7.16 0 01.45 2 7.08 7.08 0 01-.94-1.78 7.24 7.24 0 01-.45-2zM399.48 189.84a7.08 7.08 0 01.94 1.78 7.16 7.16 0 01.45 2 7.84 7.84 0 01-1.39-3.75zM391.53 203.1a7.35 7.35 0 011.79-.95 7.16 7.16 0 012-.45 7 7 0 01-1.79.94 7.17 7.17 0 01-2 .46zM358.89 193a7.31 7.31 0 011.79-.94 7.16 7.16 0 012-.45 7.31 7.31 0 01-1.79.94 7.16 7.16 0 01-2 .45zM374.78 208.81a7.31 7.31 0 011.79-.94 7.16 7.16 0 012-.45 7.31 7.31 0 01-1.79.94 7.16 7.16 0 01-2 .45zM350.18 212.83a7.41 7.41 0 011.78-.94 7.16 7.16 0 012-.45 6.77 6.77 0 01-1.78.94 7.24 7.24 0 01-2 .45z" fill="#fff"/><path d="M351.11 197.1c1-2.15 5.06-10.75 5.9-13 0 0 0-.07-.06 0-1.21 2-5.45 10.33-6.48 12.48a132.54 132.54 0 00-5.78 13c0 .08.09.16.14.08 2.37-4.03 4.26-8.33 6.28-12.56zM406.23 189.8c-7 9.48-22.79 23-32.55 28.22l29.94-38c5.38-.49 6.63 4.32 2.61 9.78z" fill="#263238"/><path d="M435.87 256.91c-.15.15-60.56-4-61.07-4.64-.7-.93 18.42-62.32 23.21-71.34 2-3.84 11.81-4.4 15.67-.76 9.67 9.09 16.4 38.49 17.81 47.3 2.35 14.53 4.92 28.91 4.38 29.44z" fill="#66f28d"/><path d="M407.07 197.72a7.88 7.88 0 01-1.67 3.63 6.83 6.83 0 01.6-1.92 6.53 6.53 0 011.07-1.71zM400.15 222.69a6.93 6.93 0 01-.6 1.92 6.81 6.81 0 01-1.07 1.71 6.93 6.93 0 01.6-1.92 7.31 7.31 0 011.07-1.71zM393.3 249.86a7.86 7.86 0 01-1.67 3.64 7.6 7.6 0 011.67-3.64zM421.23 216.72a7.86 7.86 0 01-1.67 3.64 6.89 6.89 0 01.6-1.93 6.7 6.7 0 011.07-1.71zM430 234.45a7.28 7.28 0 01-.6 1.92 7.11 7.11 0 01-1.07 1.71 6.93 6.93 0 01.6-1.92 6.53 6.53 0 011.07-1.71zM406.23 244.31a7.33 7.33 0 01-.59 1.93 7.23 7.23 0 01-1.08 1.71 7.86 7.86 0 011.67-3.64zM388.32 212.14a7.1 7.1 0 01-.6 1.93 6.88 6.88 0 01-1.07 1.71 6.89 6.89 0 01.6-1.93 7.31 7.31 0 011.07-1.71zM414.29 209a7.86 7.86 0 01-3.64-1.67 7.86 7.86 0 013.64 1.67zM419.77 231a7.33 7.33 0 01-1.93-.59 7.23 7.23 0 01-1.71-1.08 7.86 7.86 0 013.64 1.67zM416.86 255.69l-1.07-.07-.41-.18a7.31 7.31 0 01-1.71-1.07 7 7 0 011.93.6 7.56 7.56 0 011.26.72zM394.28 234.85a7 7 0 01-1.93-.59 7.31 7.31 0 01-1.71-1.07 7 7 0 011.93.59 7.31 7.31 0 011.71 1.07zM414.29 189.86a7.33 7.33 0 01-1.93-.59 7 7 0 01-1.71-1.08 7.86 7.86 0 013.64 1.67zM419.7 193.07a7.31 7.31 0 01.94 1.79 7.17 7.17 0 01.45 2 7.08 7.08 0 01-.94-1.78 7.16 7.16 0 01-.45-2.01zM427.8 221.29a7.08 7.08 0 01.94 1.78 7.16 7.16 0 01.45 2 7.31 7.31 0 01-.94-1.79 7.17 7.17 0 01-.45-1.99zM427.1 246.69a7.35 7.35 0 01.95 1.79 7.17 7.17 0 01.45 2 6.77 6.77 0 01-.94-1.78 7.17 7.17 0 01-.46-2.01zM398.37 209.36a7.29 7.29 0 01.94 1.79 7.09 7.09 0 01.45 2 7.74 7.74 0 01-1.39-3.75zM407.17 232.18a7.31 7.31 0 01.94 1.79 7.17 7.17 0 01.45 2 7.08 7.08 0 01-.94-1.78 7.16 7.16 0 01-.45-2.01zM383.26 241.49a7.41 7.41 0 01.94 1.78 7.16 7.16 0 01.45 2 7.74 7.74 0 01-1.39-3.75zM399.48 189.84a7.08 7.08 0 01.94 1.78 7.16 7.16 0 01.45 2 7.84 7.84 0 01-1.39-3.75zM391.53 203.1a7.35 7.35 0 011.79-.95 7.16 7.16 0 012-.45 7 7 0 01-1.79.94 7.17 7.17 0 01-2 .46zM415.89 242.88a7.31 7.31 0 011.79-.94 7.16 7.16 0 012-.45 7.31 7.31 0 01-1.79.94 7.16 7.16 0 01-2 .45zM383.82 225.82a7 7 0 011.79-.94 7.09 7.09 0 012-.45 7.08 7.08 0 01-1.78.94 7.16 7.16 0 01-2.01.45zM426.1 205.26a7.74 7.74 0 01-1.5.74 7.16 7.16 0 01-2 .45 7.14 7.14 0 011.79-.94 7.35 7.35 0 011.63-.41.75.75 0 01.08.16zM397.13 242.88a7.31 7.31 0 011.79-.94 7.16 7.16 0 012-.45 7.31 7.31 0 01-1.79.94 7.16 7.16 0 01-2 .45zM406.23 218.11a7.31 7.31 0 011.79-.94 7.16 7.16 0 012-.45 7.31 7.31 0 01-1.79.94 7.16 7.16 0 01-2 .45z" fill="#fff"/><path d="M397.64 181.91s.05 0 0 0c-.35 2.73-1 9.07 3.32 9a9.2 9.2 0 004.79-2 23.68 23.68 0 003.9-3.45 35.65 35.65 0 003.72-4.51c0-.07.15 0 .1.08-1.13 1.6-2.1 3.29-3.39 4.78a21.05 21.05 0 01-4.22 3.83 9.12 9.12 0 01-5.08 1.9 3.46 3.46 0 01-3.34-2.85 15.27 15.27 0 01.2-6.78z" fill="#263238"/><path fill="#ebebeb" d="M354.66 269.4l36.85-3.63-21.87-45.58-36.85 3.63 21.87 45.58z"/><path fill="#c7c7c7" d="M352.14 269.65l36.85-3.63-21.87-45.58-36.85 3.63 21.87 45.58z"/><path d="M363.21 220.83a3.28 3.28 0 001.79 1.77c.37.15.42-.32.06-.46a2.44 2.44 0 01-1.19-1.11 2.72 2.72 0 01-.11-.25 1.73 1.73 0 01-.15-.9.59.59 0 01.18-.34h.07a.39.39 0 01.26 0 .88.88 0 01.45.23 2.52 2.52 0 01.42.45c.07.08.12.17.19.26v.06a.41.41 0 01.05.09v.06l.52-.05a3.88 3.88 0 00-.59-.86 2 2 0 00-1.5-.76.81.81 0 00-.75.83 2.15 2.15 0 00.3.98zM360.32 221.11a3.3 3.3 0 001.77 1.77c.37.16.42-.31.05-.46a2.43 2.43 0 01-1.19-1.11c0-.08-.08-.17-.11-.25a1.77 1.77 0 01-.14-.89.64.64 0 01.17-.35h.13a.45.45 0 01.26 0 1.14 1.14 0 01.45.23 2.22 2.22 0 01.41.46 1.64 1.64 0 01.19.25v.06a.47.47 0 01.06.09v.06l.53-.05a3.88 3.88 0 00-.59-.86 2 2 0 00-1.51-.76.83.83 0 00-.75.84 2.2 2.2 0 00.27.97zM357.44 221.4a3.26 3.26 0 001.77 1.77c.37.15.41-.32.05-.46a2.53 2.53 0 01-1.19-1.11 2.72 2.72 0 01-.11-.25 1.72 1.72 0 01-.14-.9.53.53 0 01.17-.34h.07a.39.39 0 01.26 0 .88.88 0 01.45.23 2 2 0 01.42.45c.07.08.12.17.19.26v.06a.41.41 0 010 .09v.06l.52-.05a3.66 3.66 0 00-.59-.86 2 2 0 00-1.5-.76.8.8 0 00-.75.83 2.15 2.15 0 00.38.98zM354.55 221.68a3.3 3.3 0 001.77 1.77c.37.15.42-.32.05-.46a2.41 2.41 0 01-1.18-1.11 1.36 1.36 0 01-.11-.25 1.71 1.71 0 01-.15-.89.57.57 0 01.18-.35h.07a.57.57 0 01.26 0 1.14 1.14 0 01.45.23 2 2 0 01.41.46 1.64 1.64 0 01.19.25v.06a.47.47 0 01.06.09v.06l.52-.05a3.88 3.88 0 00-.59-.86 2 2 0 00-1.5-.76.81.81 0 00-.75.83 2.11 2.11 0 00.32.98zM351.67 222a3.22 3.22 0 001.77 1.76c.37.16.41-.31.05-.46a2.46 2.46 0 01-1.19-1.1 2 2 0 01-.11-.26 1.67 1.67 0 01-.14-.89.58.58 0 01.17-.35h.11a.46.46 0 01.26 0 1.07 1.07 0 01.45.23 2.25 2.25 0 01.42.46c.07.08.12.17.19.26v.06a.41.41 0 01.05.09v.06h.52a3.88 3.88 0 00-.58-.87 2.08 2.08 0 00-1.51-.76.81.81 0 00-.75.84 2.15 2.15 0 00.29.93zM348.78 222.25a3.3 3.3 0 001.77 1.77c.37.15.42-.32.06-.46a2.44 2.44 0 01-1.19-1.11 1.36 1.36 0 01-.11-.25 1.73 1.73 0 01-.15-.9.54.54 0 01.18-.34h.07a.46.46 0 01.26 0 1.07 1.07 0 01.45.23 2.52 2.52 0 01.42.45 2.4 2.4 0 01.18.26v.06a.47.47 0 01.06.09v.06h.52a3.88 3.88 0 00-.59-.86 2 2 0 00-1.5-.76.81.81 0 00-.75.83 2.11 2.11 0 00.32.93zM345.9 222.53a3.26 3.26 0 001.77 1.77c.37.16.42-.31.05-.46a2.46 2.46 0 01-1.19-1.1l-.11-.26a1.77 1.77 0 01-.14-.89.58.58 0 01.17-.35h.06a.49.49 0 01.27 0 1.21 1.21 0 01.45.23 2.22 2.22 0 01.41.46c.07.08.13.17.19.25v.07a.19.19 0 01.05.09v.06l.52-.06a4.06 4.06 0 00-.58-.86 2 2 0 00-1.51-.76.82.82 0 00-.75.84 2.09 2.09 0 00.34.97zM343 222.82a3.33 3.33 0 001.77 1.77c.37.15.42-.32.06-.46a2.44 2.44 0 01-1.19-1.11 2.72 2.72 0 01-.11-.25 1.73 1.73 0 01-.15-.9.54.54 0 01.18-.34h.07a.46.46 0 01.26 0 .88.88 0 01.45.23 2.52 2.52 0 01.42.45c.07.08.12.17.19.26v.06a.47.47 0 01.06.09v.06l.52-.05a3.88 3.88 0 00-.59-.86 2 2 0 00-1.5-.76.81.81 0 00-.75.83 2.25 2.25 0 00.31.98zM340.13 223.1a3.3 3.3 0 001.77 1.77c.37.16.42-.31.05-.46a2.43 2.43 0 01-1.19-1.11 2.72 2.72 0 01-.11-.25 1.77 1.77 0 01-.14-.89.64.64 0 01.17-.35H340.8a.45.45 0 01.26 0 1.21 1.21 0 01.45.23 2.22 2.22 0 01.41.46 2.35 2.35 0 01.19.25v.06a.41.41 0 010 .09v.06h.53a3.88 3.88 0 00-.59-.86 2 2 0 00-1.51-.76.82.82 0 00-.75.84 2.2 2.2 0 00.34.92zM337.25 223.39a3.28 3.28 0 001.76 1.77c.37.15.42-.32.06-.46a2.48 2.48 0 01-1.19-1.11 2.72 2.72 0 01-.11-.25 1.73 1.73 0 01-.15-.9.59.59 0 01.18-.34h.07a.39.39 0 01.26 0 .88.88 0 01.45.23 2.23 2.23 0 01.42.45c.07.08.12.17.19.26v.06a.41.41 0 01.05.09v.06l.52-.05a3.66 3.66 0 00-.59-.86 2 2 0 00-1.5-.76.8.8 0 00-.75.83 2.15 2.15 0 00.33.98zM334.36 223.67a3.3 3.3 0 001.77 1.77c.37.15.42-.32.05-.46a2.48 2.48 0 01-1.19-1.11c0-.08-.08-.17-.11-.25a1.79 1.79 0 01-.14-.89.64.64 0 01.17-.35h.07a.45.45 0 01.26 0 1.14 1.14 0 01.45.23 2.22 2.22 0 01.41.46 1.64 1.64 0 01.19.25v.06a.2.2 0 01.05.09v.06l.53-.05a3.88 3.88 0 00-.59-.86 2 2 0 00-1.51-.76.83.83 0 00-.75.83 2.22 2.22 0 00.34.98zM331.48 224a3.26 3.26 0 001.77 1.77c.37.15.41-.32.05-.46a2.53 2.53 0 01-1.19-1.11 2 2 0 01-.11-.26 1.67 1.67 0 01-.14-.89.53.53 0 01.17-.34h.07a.46.46 0 01.26 0 1 1 0 01.45.24 2 2 0 01.42.45c.07.08.12.17.19.26v.06a.41.41 0 01.05.09v.06l.52-.05a3.93 3.93 0 00-.59-.87 2 2 0 00-1.5-.76.81.81 0 00-.75.84 2.15 2.15 0 00.33.97z" fill="#a6a6a6"/><path d="M420.9 188c9.86 13.73 31.08 45.09 24.82 52.33-10.3 11.92-35.42 22.35-43.29 24.71-3.4 1-15.56-23.67-12.35-25.7 3.84-2.44 28.45-12.11 28.57-13.3s-4.47-18.19-6-31.52c-1.86-16.52 4.13-12.25 8.25-6.52z" fill="#ad6359"/><path d="M402.45 237.61s-10.35-3-17.21-4.7c-3.83-.93-10.54-1.94-13.66-1.34-4.68.9-23.65 7.66-22.11 12.3 1.39 4.2 17-3.68 17-3.68s-16.41 6.56-13.8 11.3 19-6.49 19-6.49-16.7 7.12-13.24 11.59c2.62 3.37 18.05-6 18.05-6s-14.32 6.22-11.78 9.8c2.81 4 17.59-3.76 17.59-3.76 8 8 14.93 9.1 20.18 8.38 1.18-.14-.02-27.4-.02-27.4z" fill="#ad6359"/><path d="M371.19 237.89c-12.46 3.91-17.37 9.64-17.2 9.52 3.81-3 10.51-6.2 12.4-7.08s2.95-1.5 4.83-2.37c.05-.02.02-.08-.03-.07zM375.23 244.31A44.32 44.32 0 00361 251c-.15.12-.06.16.12.07 2.37-1.18 11.75-5.62 14.17-6.67l-.06-.09zM379.08 249.6a33 33 0 00-10.88 5.48c-.17.12 0 .17.16.07 3.58-1.89 6.38-3.39 10.77-5.42.07-.03.03-.16-.05-.13z" fill="#263238"/><path d="M397.65 235.52l13.85 29.55s33-17.8 35.53-26.17-20-45.15-26.79-52.66-9-4.43-8.85 4.14 6.93 35.25 6.76 35.74-20.5 9.4-20.5 9.4z" fill="#66f28d"/><path d="M421.23 216.72a7.86 7.86 0 01-1.67 3.64 6.89 6.89 0 01.6-1.93 6.7 6.7 0 011.07-1.71zM430 234.45a7.28 7.28 0 01-.6 1.92 7.11 7.11 0 01-1.07 1.71 6.93 6.93 0 01.6-1.92 6.53 6.53 0 011.07-1.71zM406.23 244.31a7.33 7.33 0 01-.59 1.93 7.23 7.23 0 01-1.08 1.71 7.86 7.86 0 011.67-3.64zM419.77 231a7.33 7.33 0 01-1.93-.59 7.23 7.23 0 01-1.71-1.08 7.86 7.86 0 013.64 1.67zM417.31 256a7 7 0 01-1.93-.6 7.31 7.31 0 01-1.71-1.07 7.86 7.86 0 013.64 1.67zM442.82 239.56a7.86 7.86 0 01-3.64-1.67 6.89 6.89 0 011.93.6 6.7 6.7 0 011.71 1.07zM435.38 211.44a7 7 0 01-1.93-.6 6.7 6.7 0 01-1.71-1.07 7.86 7.86 0 013.64 1.67zM414.29 189.86a7.33 7.33 0 01-1.93-.59 9.12 9.12 0 01-1-.53v-.38a7.9 7.9 0 011.18.43 7.31 7.31 0 011.75 1.07zM419.7 193.07a7.31 7.31 0 01.94 1.79 7.17 7.17 0 01.45 2 7.08 7.08 0 01-.94-1.78 7.16 7.16 0 01-.45-2.01zM427.8 221.29a7.08 7.08 0 01.94 1.78 7.16 7.16 0 01.45 2 7.31 7.31 0 01-.94-1.79 7.17 7.17 0 01-.45-1.99zM427.1 246.69a7.35 7.35 0 01.95 1.79 7.17 7.17 0 01.45 2 6.77 6.77 0 01-.94-1.78 7.17 7.17 0 01-.46-2.01zM407.17 232.18a7.31 7.31 0 01.94 1.79 7.17 7.17 0 01.45 2 7.08 7.08 0 01-.94-1.78 7.16 7.16 0 01-.45-2.01zM415.89 242.88a7.31 7.31 0 011.79-.94 7.16 7.16 0 012-.45 7.31 7.31 0 01-1.79.94 7.16 7.16 0 01-2 .45zM422.63 206.45a7.84 7.84 0 013.75-1.39 7.08 7.08 0 01-1.78.94 7.16 7.16 0 01-1.97.45zM438.54 227a7.08 7.08 0 011.78-.94 7.16 7.16 0 012-.45 7.08 7.08 0 01-1.78.94 7.24 7.24 0 01-2 .45zM400.89 241.49a4 4 0 01-.34.23l-.08-.18a3 3 0 01.42-.05z" fill="#fff"/><path d="M415.69 213.52c-.44-2-.88-4-1.31-6-.21-1-.43-2.09-.66-3.13l-.33-1.44c-.05-.23-.13-.47-.17-.71-.14-.88 0-.1-.24-.95 0-.06-.1 0-.1 0 .06.55-.05.33.05.75s.12.62.17.94c.07.49.15 1 .22 1.46.16 1 .34 2 .53 3 0 .13 0 .26.08.39a.42.42 0 000-.1c-.36-1.08-.74-2.14-1.12-3.21h-.08c.26 1.11.55 2.2.91 3.28.2.62.45 1.23.69 1.83.26 1.32.52 2.64.79 4 .86 4.07 1.75 8.16 2.93 12.15-1.73.79-3.49 1.5-5.22 2.3s-3.45 1.62-5.18 2.44-3.44 1.63-5.15 2.47l-2.5 1.19c-.88.45-1.72 1-2.61 1.43-.09 0 0 .17.08.13.93-.43 1.92-.73 2.85-1.14s1.65-.7 2.47-1.07c1.74-.78 3.47-1.59 5.2-2.4s3.46-1.61 5.18-2.44 3.39-1.74 5.1-2.57a.64.64 0 00.2-.36c-.82-4.09-1.86-8.16-2.78-12.24zM411.42 247.18c-1-2.14-5.21-10.68-6.42-12.72h-.06c.76 2.17 4.65 10.71 5.68 12.86a130.55 130.55 0 006.54 12.68c0 .07.18 0 .14-.06-1.67-4.37-3.84-8.54-5.88-12.76zM435.28 250.45c-.76.44-1.47 1-2.19 1.47l-2.24 1.55a53.29 53.29 0 01-4.49 2.94c-.09 0 0 .18.08.13 1.58-.9 3.19-1.74 4.72-2.73a23.68 23.68 0 004.2-3.25.07.07 0 00-.08-.11z" fill="#263238"/><path d="M401 188c3.07.51 8.6-4.88 10.41-8.76.12-.27-.45-3-1-6.24-.32-2-.63-4.23-.77-6.29 0-.42-1.41.45-1.41.45l-2.62.82-8.67 2.71a33.12 33.12 0 011.77 7.82 4.71 4.71 0 010 .85v.15c-.22 1.59-.71 7.95 2.29 8.49z" fill="#ad6359"/><path d="M398.65 179.33v.15a8.7 8.7 0 001.34 0c8.67-.77 9-11.89 9-11.89l-3.42.38-8.67 2.71a33.12 33.12 0 011.77 7.82 4.71 4.71 0 01-.02.83z" fill="#263238"/><path d="M410.88 152.83c1.46 4.57-.78 17.85-4 20.85-4.68 4.34-12.41 4.85-16.13-.78-3.6-5.47-.37-22.72 3.24-25.46 5.32-4.02 14.74-1.36 16.89 5.39z" fill="#ad6359"/><path d="M407.2 173.54" fill="none"/><path d="M398 161.6s.07.06.06.09c-.18.89-.23 1.94.53 2.37v.05c-1.03-.3-.95-1.69-.59-2.51z" fill="#263238"/><path d="M398.91 160.8c1.45.13 1.09 3-.26 2.91s-.97-3.02.26-2.91zM392.86 160.8s-.07 0-.07.07c-.09.9-.34 1.93-1.19 2.12v.06c1.02-.05 1.33-1.38 1.26-2.25z" fill="#263238"/><path d="M392.18 159.76c-1.44-.29-1.91 2.6-.58 2.87s1.78-2.63.58-2.87zM400.22 159.61a12 12 0 01-1.08-.53 1.93 1.93 0 01-1-.76.61.61 0 01.19-.73 1.54 1.54 0 011.55 0 2.23 2.23 0 011.17 1.13.65.65 0 01-.83.89zM391.24 158.16c.41 0 .78-.1 1.19-.16a1.9 1.9 0 001.18-.39.6.6 0 00.06-.75 1.51 1.51 0 00-1.48-.48 2.21 2.21 0 00-1.47.69.66.66 0 00.52 1.09zM398.14 169.76c-.25.19-.5.45-.83.44a2.39 2.39 0 01-.94-.35s-.06 0 0 0a1.19 1.19 0 001.08.63 1 1 0 00.81-.7c-.02-.02-.09-.04-.12-.02zM397.52 167a3.09 3.09 0 01-2.21 1.11 3.76 3.76 0 01-1.11-.09.8.8 0 01-.21-.05h-.19a.24.24 0 01-.16-.22V167.58c.06-.69.26-1.74.26-1.74-.27.1-1.63.52-1.57.16a46.75 46.75 0 012.35-9.13.08.08 0 01.16 0c-.42 2.88-1.34 5.67-1.8 8.56a5 5 0 011.5-.26c.09 0-.42 2-.43 2.33a4.31 4.31 0 003.3-.59c.11-.09.18-.02.11.09z" fill="#263238"/><path d="M394.65 167.67A3.61 3.61 0 00396 169a1.62 1.62 0 001 .19c.75-.1.85-.76.78-1.34a3.47 3.47 0 00-.21-.9 4.73 4.73 0 01-2.92.72z" fill="#263238"/><path d="M396 169a1.62 1.62 0 001 .19c.75-.1.85-.76.78-1.34A1.69 1.69 0 00396 169z" fill="#ff98b9"/><path d="M391.34 153.26c4.23 3.23 10.46-1 10.46-1a4.77 4.77 0 004.67 3.26s.49 7.46 2.44 7.55c3 .13 4.42-9.94 3.58-12a5.31 5.31 0 00-3.34-2.68 4.84 4.84 0 00-1.87-3c-2-1.66-9.08.08-9.08.08a6.52 6.52 0 00-1.68-2.52 1.84 1.84 0 00-2.66.1 4.54 4.54 0 01.62 1.87c.24 2.19-1.54 2.1-1.42.13a3.09 3.09 0 01.8-2c-.81-1.33-2.22-1.82-3.12-1.18-1.64 1.13-2.92 8.71.6 11.39z" fill="#263238"/><path d="M408.2 163.66s3-4.26 5-3.18-.36 7.28-2.65 8.11a2.31 2.31 0 01-3.1-1.27z" fill="#ad6359"/><path d="M412.46 162.24v.06a5.87 5.87 0 00-3.06 3.65 1.27 1.27 0 011.92-.33s0 .09-.05.08a1.44 1.44 0 00-1.57.49 7 7 0 00-.76 1.26c-.08.15-.33.07-.28-.1 0-2.07 1.6-4.92 3.8-5.11z" fill="#263238"/><path d="M398.59 179.25l3.15 7.59 9.37-9.75 2.72 3.06s-9.09 15.44-9.16 14.75l-3.22-6.54L397 193l.23-11.48z" fill="#fff"/><path d="M396.76 187.3c.11-1.9.16-3.81.35-5.69 0-.07.11-.1.13 0 .4 1.82 0 9.06 0 10.8.19-.2 4.16-4.07 4.2-4 .7 1 3.06 5.79 3.22 6.23 1.44-2.45 6.95-11.37 8.66-13.69.05-.07.16 0 .12.06-1.27 2.59-8.57 14.59-8.68 14.56a74.49 74.49 0 01-3.37-6.91c-.67.84-4.67 5.21-4.69 4.92a61.68 61.68 0 01.06-6.28z" fill="#263238"/></g></svg>