<svg xmlns="http://www.w3.org/2000/svg" viewBox="0 0 500 500"><circle cx="449.45" cy="180.7" r="24.91" transform="rotate(-2.84 450.033 180.893)" fill="#ebebeb"/><g fill="#fff" fill-rule="evenodd"><path d="M446.06 190.61c-.66-.41-1.23-1-2.12-.93-.33 0-.26-.25-.26-.43v-9.95c0-.25 0-.44.28-.58 2.53-1.27 3.63-3.79 5.18-5.94a9.93 9.93 0 001.84-7.53c-.1-.74.25-1.08.92-1.23a1.66 1.66 0 011.89.6 13.47 13.47 0 011.45 4.34 16.27 16.27 0 01-.46 3.73c-.12.91-.33 1.81-.5 2.74.22.16.48.07.72.08h8.4c1.19 0 1.76.34 1.93 1.12a2.25 2.25 0 01-1.22 2.43c-.21.11-.59 0-.62.34s.37.3.56.44c1 .69.83 2.13-.35 3-.28.2-.83.11-.84.52s.51.33.74.56a1.9 1.9 0 01-.81 2.93 3.7 3.7 0 00-.5.19c-.14.09-.27.2 0 .39a1.65 1.65 0 010 3l-.36.27a2.41 2.41 0 01-1.48.32h-13.23a1.56 1.56 0 01-1.16-.41zM433.56 184.76v-6.33c0-.42 0-.63.57-.63h7.71c.51 0 .58.17.58.62v12.73c0 .54-.14.69-.68.68h-7.48c-.62 0-.71-.21-.7-.76.02-2.07 0-4.2 0-6.31z"/></g><path d="M163.39 134.86H49.22v-73.2h114.17zm-113.17-1h112.17v-71.2H50.22z" fill="#ebebeb"/><path d="M163.39 72.26H49.22v-10.6h114.17zm-113.17-1h112.17v-8.6H50.22z" fill="#ebebeb"/><path d="M58.72 67a2.42 2.42 0 11-2.41-2.42A2.41 2.41 0 0158.72 67z" fill="#c7c7c7"/><path d="M68.57 67a2.41 2.41 0 11-2.41-2.42A2.41 2.41 0 0168.57 67z" fill="#ebebeb"/><circle cx="76.02" cy="67.03" r="2.41" fill="#66f28d"/><path d="M40.26 224.5a24.91 24.91 0 1130.11 18.29 24.9 24.9 0 01-30.11-18.29z" fill="#ebebeb"/><path d="M77.17 221.7c-3.76 7.59-12.72 12.09-12.72 12.09s-9-4.5-12.71-12.09c-3.13-6.33-1.15-13.17 3.8-14.67 7.09-2.14 8.91 10.21 8.91 10.21s1.82-12.35 8.92-10.21c4.95 1.5 6.93 8.34 3.8 14.67z" fill="#fff"/><path d="M388.09 78.39a25 25 0 01-26.2 0 24.91 24.91 0 1126.2 0z" fill="#ebebeb"/><circle cx="374.99" cy="54.35" r="7.58" fill="#fff"/><path d="M388.09 75.26v3.13a25 25 0 01-26.2 0v-3.13a13.1 13.1 0 1126.2 0z" fill="#fff"/><g><path fill="#263238" d="M61.99 393.82l46.5-.24 46.51-.09 93-.17 93 .17 46.51.09 46.5.24-46.5.24-46.51.09-93 .17-93-.17-46.51-.09-46.5-.24z"/></g><g fill="#ebebeb"><ellipse cx="144.65" cy="435.04" rx="113.82" ry="16.39"/><ellipse cx="361.78" cy="435.04" rx="113.82" ry="16.39"/></g><g><path fill="#37474f" d="M82.32 92.89h335.52v249.69H82.32z"/><path fill="#fff" d="M99.27 109.13H400.9v179.3H99.27z"/><path fill="#c7c7c7" d="M82.32 305.75h335.52v36.83H82.32z"/><path fill="#37474f" d="M178.53 387.59h143.11v11.96H178.53z"/><path fill="#c7c7c7" d="M304.59 387.6H195.57l2.77-20.76.13-.98.26-1.94.13-.98.26-1.95.04-.3.09-.68.27-1.95.12-.97 1.94-14.5h97l1.82 13.67.1.66.3 2.27.08.66.12.84.19 1.43.08.65.3 2.28.1.65 2.92 21.9z"/><path fill="#263238" d="M99.27 109.13H400.9v9.7H99.27z"/><path d="M107 114a2.41 2.41 0 11-2.4-2.41A2.4 2.4 0 01107 114z" fill="#c7c7c7"/><path d="M116.79 114a2.41 2.41 0 11-2.4-2.41 2.4 2.4 0 012.4 2.41z" fill="#fff"/><path d="M126.62 114a2.41 2.41 0 11-2.41-2.41 2.41 2.41 0 012.41 2.41z" fill="#66f28d"/><path d="M256.05 321.69a6.08 6.08 0 11-6.05-6.09 6.08 6.08 0 016.05 6.09z" fill="#37474f"/><path fill="#a6a6a6" d="M301 360.69H199.16l.09-.68.27-1.95.12-.97 1.94-14.5h97l1.82 13.67.1.66.3 2.27.08.66.12.84z"/><path fill="#66f28d" d="M99.27 118.82H400.9v40.19H99.27z"/><path d="M383.44 272.65H261.56V187h121.88zm-120.88-1h119.88V188H262.56z" fill="#ebebeb"/><path fill="#ebebeb" d="M260.743 187.063l.57-.82 121.007 84.115-.57.82z"/><path d="M262.35 272.56l-.58-.82c1.16-.81 116.12-81.06 120.87-84.64l.6.8c-4.76 3.59-119.73 83.85-120.89 84.66z" fill="#ebebeb"/><path fill="#263238" d="M192.85 118.82h114.46v35.1H192.85z"/><path fill="#ebebeb" d="M160.53 170.06h79.41v1.62h-79.41zM160.53 174.14h61.37v1.62h-61.37zM160.53 178.22h74.65v1.62h-74.65zM160.53 182.3h81.18v1.62h-81.18zM160.53 186.38h42.09V188h-42.09zM160.53 190.47h79.66v1.62h-79.66zM160.53 194.55h66.31v1.62h-66.31zM160.53 198.63h83.35v1.62h-83.35zM160.53 202.71h79.66v1.62h-79.66zM160.53 206.79h83.35v1.62h-83.35z"/><path fill="#fff" d="M117.22 129.81h11.71v1.62h-11.71zM117.22 133.89h11.71v1.62h-11.71zM117.22 137.97h11.71v1.62h-11.71z"/><path fill="#66f28d" d="M262.06 170.06h120.88v8.97H262.06z"/><path fill="#a6a6a6" d="M117.22 170.05h38.35v38.36h-38.35z"/><circle cx="136.4" cy="182.3" r="6.93" fill="#fff"/><path d="M148.38 201.43v7h-24v-7a12 12 0 1124 0zM216.8 145.85v-7a.65.65 0 01.65-.66h1.69a2.26 2.26 0 012.26 2.26 2.23 2.23 0 01-.46 1.36 2.54 2.54 0 01-1.34 4.7h-2.15a.65.65 0 01-.65-.66zm1.31-4.45h1a1 1 0 00.94-1 .94.94 0 00-.94-.94h-1zm0 3.78h1.49a1.22 1.22 0 001.22-1.23 1.23 1.23 0 00-1.22-1.23h-1.49zM223.86 145.85v-7a.65.65 0 01.65-.66.66.66 0 01.66.66v6.34h3.23a.67.67 0 01.65.67.66.66 0 01-.65.65h-3.89a.64.64 0 01-.65-.66zM236.63 139.22a4.36 4.36 0 010 6 3.89 3.89 0 01-2.84 1.27 4 4 0 01-2.91-1.27 4.42 4.42 0 010-6 3.93 3.93 0 012.91-1.27 3.81 3.81 0 012.84 1.27zm-.15 3a3.1 3.1 0 00-.81-2.08 2.57 2.57 0 00-3.8 0 3 3 0 00-.81 2.08 3 3 0 00.81 2.07 2.53 2.53 0 003.8 0 3 3 0 00.81-2.07zM239.81 142.24a4.33 4.33 0 014.38-4.29 4.41 4.41 0 012.71.92.68.68 0 11-.83 1.07 3.11 3.11 0 00-1.88-.64 3 3 0 00-2.14.87 2.82 2.82 0 000 4.11 3 3 0 002.14.87 3.32 3.32 0 001.63-.45v-1.63h-1.7a.69.69 0 01-.68-.68.66.66 0 01.68-.66h2.37a.66.66 0 01.68.66V145a1.2 1.2 0 010 .2v.06a.62.62 0 01-.23.29 4.4 4.4 0 01-2.7.92 4.32 4.32 0 01-4.43-4.23zM256.2 143.27h-1.47v2.58a.66.66 0 01-1.32 0v-7a.66.66 0 01.66-.66h2.13a2.55 2.55 0 110 5.09zm-1.47-1.27h1.47a1.23 1.23 0 100-2.45h-1.47zM266.9 139.22a4.36 4.36 0 010 6 3.89 3.89 0 01-2.84 1.27 4 4 0 01-2.91-1.27 4.42 4.42 0 010-6 4 4 0 012.91-1.27 3.81 3.81 0 012.84 1.27zm-.15 3a3.1 3.1 0 00-.81-2.08 2.57 2.57 0 00-3.8 0 3 3 0 00-.81 2.08 3 3 0 00.81 2.07 2.53 2.53 0 003.8 0 3 3 0 00.81-2.07zM270.12 144.44a.62.62 0 01.87-.09 3.88 3.88 0 002.27.92 2.58 2.58 0 001.49-.44 1.09 1.09 0 00.51-.86.7.7 0 00-.11-.38 1.17 1.17 0 00-.35-.36 5 5 0 00-1.63-.55 6.23 6.23 0 01-1.53-.47 2.63 2.63 0 01-1.11-.92 1.92 1.92 0 01-.27-1 2.18 2.18 0 01.95-1.73 3.49 3.49 0 012.06-.63 4.61 4.61 0 012.59 1 .61.61 0 01.17.84.6.6 0 01-.85.18 3.39 3.39 0 00-1.91-.76 2.24 2.24 0 00-1.33.4 1 1 0 00-.45.75.56.56 0 00.08.33 1.06 1.06 0 00.32.31 4 4 0 001.49.53 6.44 6.44 0 011.64.5 2.73 2.73 0 011.19 1 1.92 1.92 0 01.28 1 2.27 2.27 0 01-1 1.84 3.69 3.69 0 01-2.2.68 5.09 5.09 0 01-3-1.19.63.63 0 01-.17-.9zM283.22 139.5h-1.89v6.35a.65.65 0 01-1.3 0v-6.35h-1.88a.67.67 0 01-.66-.66.65.65 0 01.66-.66h5.07a.66.66 0 01.66.66.67.67 0 01-.66.66zM204.42 148.99h91.31v1.21h-91.31z" fill="#fff"/><path fill="#ebebeb" d="M117.22 213.98h58.67v58.67h-58.67z"/><path fill="#ebebeb" d="M175.88 255.05h-58.66v-41.08h58.66z"/><path d="M124.08 225.65a4.86 4.86 0 104.86-4.86 4.85 4.85 0 00-4.86 4.86z" fill="#dbdbdb"/><path fill="#c7c7c7" d="M143.27 246.12h32.62l-16.31-22.11-16.31 22.11z"/><path fill="#dbdbdb" d="M130.48 246.22h26.93l-13.46-14.39-13.47 14.39z"/><path fill="#dbdbdb" d="M117.22 246.2h58.66v8.85h-58.66z"/><path fill="#fff" d="M121.39 259.13h50.34v1.62h-50.34zM121.39 263.21h34.88v1.62h-34.88zM121.39 267.29h42.42v1.62h-42.42z"/><path fill="#ebebeb" d="M185.21 213.98h58.67v58.67h-58.67z"/><path fill="#dbdbdb" d="M243.87 255.05h-58.66v-41.08h58.66z"/><circle cx="214.54" cy="235.06" r="11.16" fill="#ebebeb"/><path fill="#fff" d="M209.2 229v12.12l12.83-6.06L209.2 229zM189.38 259.13h50.34v1.62h-50.34zM189.38 263.21h34.88v1.62h-34.88zM189.38 267.29h42.42v1.62h-42.42zM322.8 129.81h60.19v9.78H322.8z"/><path fill="#263238" d="M373.21 129.81h9.78v9.78h-9.78z"/><path fill="#fff" d="M377.52 134.444l.9-.683 2.772 3.659-.901.682z"/><path d="M379.42 132.24a2.46 2.46 0 11-3.46-.46 2.47 2.47 0 013.46.46z" fill="#fff"/><path d="M378.64 132.84a1.48 1.48 0 11-2.07-.27 1.48 1.48 0 012.07.27z" fill="#263238"/></g><g><path d="M217.83 436.38c-1.9.63-56 .47-58.1-.83-.78-.49-1.22-8.39-1.47-17.93-.06-2.06-.1-4.18-.14-6.35 0-2.56-.07-5.15-.09-7.67-.06-11.31.09-21.27.09-21.27h35.25V411.27l-.18 6.35s20.7 9.34 22.8 11 3.73 7.14 1.84 7.76z" fill="#f7a9a0"/><path d="M217.83 436.38c-1.9.63-56 .47-58.1-.83-.78-.49-1.22-8.39-1.47-17.93-.06-2.06-.1-4.18-.14-6.35 0-2.56-.07-5.15-.09-7.67h35.32v7.67l-.18 6.35s20.7 9.34 22.8 11 3.75 7.14 1.86 7.76z" fill="#fff"/><path d="M218 436.46c-1.23.41-24.29.49-41.08.14-3.89-.08-7.44-.19-10.31-.31-3.95-.18-6.6-.4-7-.67-.95-.61-1.41-12.19-1.62-24.41h35.41l-.18 6.38s20.78 9.41 22.9 11.08 3.77 7.16 1.88 7.79z" fill="#66f28d"/><path d="M217.22 434.28c-9.13-.25-46-.4-55 .05-.07 0-.07.05 0 .06 9 .44 45.87.29 55 0 .19.04.19-.1 0-.11zM194.48 415.57c-3.59-.68-8-.14-10.74 2.41-.1.1 0 .25.16.21a50.51 50.51 0 0110.56-2.19.23.23 0 00.02-.43zM197.07 417.14c-3.59-.68-8-.14-10.74 2.41-.11.1 0 .25.15.21a50.74 50.74 0 0110.57-2.16.23.23 0 00.02-.46zM199.65 418.71c-3.59-.68-8-.14-10.73 2.41-.11.1 0 .25.15.21a50.74 50.74 0 0110.57-2.16.23.23 0 00.01-.46zM202.24 420.28c-3.59-.68-8-.14-10.73 2.41-.11.1 0 .25.15.21a51.18 51.18 0 0110.56-2.17.23.23 0 00.02-.45z" fill="#263238"/><path d="M201.13 407.29c-1.4-2-4-1.08-5.53.17a19.11 19.11 0 00-5.56 8.21.1.1 0 00.09.13.45.45 0 00.56.45c3-1.09 6.27-1.89 8.82-3.85 1.49-1.15 2.95-3.27 1.62-5.11zm-6.28 6.39c-1.45.57-2.91 1.07-4.34 1.69a57.56 57.56 0 013.35-4.72 20.6 20.6 0 011.91-2c1.07-1 5.31-3 4.66.91-.35 2.12-3.86 3.44-5.58 4.12z" fill="#263238"/><path d="M180.92 414.71c3 1.27 6.36 1.21 9.5 1.53a.45.45 0 00.43-.58.1.1 0 00.05-.15 19.17 19.17 0 00-7.42-6.56c-1.77-.84-4.54-1-5.41 1.21s1.12 3.84 2.85 4.55zm-1.62-2.57c-1.6-3.65 3-2.72 4.29-2.05a21.48 21.48 0 012.41 1.51c1.58 1.13 3 2.47 4.42 3.74-1.53-.25-3.08-.36-4.62-.55-1.89-.23-5.61-.63-6.5-2.65z" fill="#263238"/><path d="M146.37 232.14s9.52 94.21 9.75 95.4c0 .16.1 2 .19 4.93.51 16.22 1.78 66.79 1.78 66.79H197s-2.53-59.9-4-73.87c-1.86-17.82-13.55-93.25-13.55-93.25z" fill="#455a64"/><path d="M160.75 330.87q-1.8-30.63-5.41-61.1c-1.36-11.45-3-22.85-4.63-34.26 0-.1-.18-.1-.16 0 3 20.31 5.14 40.78 7 61.22s3.12 40.88 3.95 61.37c.48 11.61.83 23.22 1.21 34.83a.22.22 0 00.43 0c-.58-20.7-1.14-41.4-2.39-62.06z" fill="#263238"/><path d="M194.5 393a30.13 30.13 0 00-3.16-.13c-1.16 0-2.33-.05-3.5-.1q-3.37-.12-6.75-.17c-4.54-.08-9.09-.05-13.62.09l-3.74.13c-1.33.05-2.67.17-4 .17-.1 0-.09.12 0 .12 2.28 0 4.59.19 6.88.28s4.5.12 6.75.15c4.53.06 9.09 0 13.62-.14 1.24 0 2.49-.07 3.74-.11l2-.08a17.45 17.45 0 001.77-.06.08.08 0 10.01-.15zM146.37 232.14s9.52 94.21 9.75 95.4c0 .16.1 2 .19 4.93l18.32-100.33z" fill="#263238"/><path d="M80.83 411c-1.72-1-37-42.11-37.32-44.53-.14-.92 5.55-6.4 12.61-12.82 1.52-1.4 3-2.9 4.72-4.26 2.1-1.71 4.23-3.41 6.3-5 9-7 16.79-12.52 16.79-12.52l22.37 25.93-15.92 12.95-6.53 5.32-4.93 4s6.46 21.77 6.56 24.46-2.94 7.47-4.65 6.47z" fill="#f7a9a0"/><path d="M80.83 411c-1.72-1-37-42.11-37.32-44.53-.14-.92 5.55-6.4 12.61-12.82 1.52-1.4 3-2.9 4.72-4.26 2.1-1.71 4.23-3.41 6.3-5 6.93 8 17 19.31 23.24 26.36l-6.53 5.32-4.93 4s6.46 21.77 6.56 24.46-2.94 7.47-4.65 6.47z" fill="#fff"/><path d="M80.88 411.19c-1.72-1-37.17-42.35-37.53-44.78-.16-1.13 8.31-9 17.43-17.18L83.91 376l-5 4s6.49 21.89 6.6 24.6-2.91 7.62-4.63 6.59z" fill="#66f28d"/><path d="M82 409.18c-5.77-7.08-29.72-35.06-36-41.61-.05-.05-.09 0 0 0 5.56 7.13 29.74 34.92 35.89 41.66.11.19.25.09.11-.05zM81.33 379.74c-1.82-3.17-5.1-6.14-8.83-6.56-.15 0-.17.19-.06.26A50.34 50.34 0 0181 380a.23.23 0 00.33-.26zM81.84 382.72c-1.83-3.16-5.11-6.14-8.84-6.55-.14 0-.16.19-.06.25a50.39 50.39 0 018.54 6.58.23.23 0 00.36-.28zM82.34 385.71c-1.83-3.17-5.11-6.14-8.84-6.56-.14 0-.16.19-.06.26A49.94 49.94 0 0182 386a.23.23 0 00.34-.29zM82.84 388.69c-1.83-3.16-5.11-6.14-8.84-6.55-.14 0-.16.19-.06.25a50.53 50.53 0 018.55 6.61.23.23 0 00.35-.31z" fill="#263238"/><path d="M92 379.36c.55-2.33-1.82-3.76-3.75-4.08a19.24 19.24 0 00-9.85 1.16.1.1 0 000 .15.45.45 0 000 .72c2.77 1.54 5.53 3.52 8.69 4.16 1.78.38 4.34.1 4.91-2.11zm-9-.58c-1.38-.72-2.71-1.51-4.11-2.18 1.92-.22 3.82-.52 5.76-.55a20.11 20.11 0 012.8.11c1.43.18 5.76 2 2.35 4.12-1.86 1.15-5.15-.64-6.8-1.5z" fill="#263238"/><path d="M73.13 368.9c1 3.07 3.23 5.61 5.05 8.2a.45.45 0 00.72-.05.09.09 0 00.1-.05 19.14 19.14 0 00.12-9.91c-.52-1.89-2.19-4.1-4.45-3.3s-2.11 3.32-1.54 5.11zM74 366c1.71-3.61 4 .5 4.35 1.91a21.49 21.49 0 01.4 2.77 55.89 55.89 0 01.06 5.79c-.82-1.33-1.74-2.57-2.6-3.87-1.01-1.53-3.14-4.6-2.21-6.6z" fill="#263238"/><path d="M179.4 232.14s-2.39 14.25-11.55 21.6c0 0-21.49 65.17-26.31 72.15-8 11.56-47.78 42.19-47.78 42.19l-25.7-29.8s38.58-27.41 41.6-31.58c2-2.77 17.06-44.68 16.79-46.13-3.12-17.28 4.68-28.47 4.68-28.47z" fill="#455a64"/><path d="M134.17 234.68a41.36 41.36 0 00-3.61 10.87 35 35 0 00-.51 5.77c0 2.08.22 4.15.29 6.22a22.28 22.28 0 01-.64 6.3c-.49 2-1.11 4-1.7 5.94q-1.83 6-3.88 12-4.08 11.91-9 23.49a17.79 17.79 0 01-2.87 5 30.7 30.7 0 01-4.66 3.84l-10.38 7.78-20.88 15.67v.05c-.23.17 0 .56.24.39 7-5.23 11.41-8.56 18.41-13.79l10.59-7.91c1.67-1.25 3.37-2.47 5-3.76a13.82 13.82 0 003.57-4 46.66 46.66 0 002.41-5.29c.82-2 1.63-3.93 2.41-5.9q2.31-5.79 4.4-11.66t4-12c.63-2 1.25-4.06 1.85-6.09a45.48 45.48 0 001.48-5.93c.62-4.11-.29-8.26-.09-12.39a37.43 37.43 0 012.4-11.68 30.26 30.26 0 011.28-2.85c.07-.09-.07-.17-.11-.07zM147.57 235.17a13 13 0 01-4.44 7 16 16 0 01-8.49 3.35c-.52.07-.53.86 0 .84 6.33-.25 12.54-4.59 13.17-11.2.03-.16-.21-.16-.24.01zM173.72 249.15a35.32 35.32 0 00-6.38 3.77c-2.11 1.45-4.05 3.11-6.08 4.66a.08.08 0 00.09.13c2.14-1.36 4.38-2.56 6.5-4a42.36 42.36 0 006-4.42.11.11 0 00-.13-.14z" fill="#263238"/><path d="M174 235.92c-.27 1.46-.63 2.91-.94 4.37s-.52 2.76-.88 4.11a7.07 7.07 0 01-1.91 3.45c-.54.5-1.13.94-1.7 1.39-.31.25-.64.49-1 .74 0-.2.07-.39.11-.59.09-.56.19-1.12.28-1.67.21-1.24.41-2.47.59-3.71.38-2.43.72-4.89 1.23-7.3 0-.09-.13-.13-.16 0-.6 2.38-1.27 4.74-1.8 7.15-.26 1.18-1.18 7-1.22 7.42s-.08.85-.09 1.28a4.72 4.72 0 000 1.3c0 .11.15.09.19 0a5.38 5.38 0 00.37-1.26c.11-.42.2-.84.28-1.26 0-.15 0-.31.07-.47.57-.34 1.1-.81 1.64-1.19s1.17-.83 1.71-1.29a6.54 6.54 0 002.1-3.27 23.77 23.77 0 00.68-4.19c.19-1.65.32-3.32.55-5a.08.08 0 00-.1-.01zM97.38 362.31c-.57-.86-1.32-1.66-2-2.47s-1.5-1.79-2.23-2.7a304.66 304.66 0 00-4.29-5.22C86 348.45 83 345 79.89 341.7c-.85-.92-1.7-1.83-2.56-2.74s-1.87-1.9-2.74-2.91c-.06-.07-.15 0-.09.09 1.51 1.71 2.87 3.6 4.3 5.37s2.86 3.48 4.32 5.2c2.92 3.47 5.94 6.88 9 10.19.86.91 1.69 1.84 2.54 2.76.45.49.91 1 1.37 1.45s.76.91 1.21 1.31a.08.08 0 00.14-.11zM167.65 210.63a36.28 36.28 0 01-7.8 2.55c5.19-5.3 8.08-19.45 7.14-17.56-4.49 9-13.07 18-15.48 18A27.12 27.12 0 01136 206.1c6.46-5.85 9.77-20.14 9.23-19.35-5.76 8.43-14.28 12.09-15.52 11.77-3.52-5.54-4.88-10.54-4.12-10.83 5.58-2.07 11.72-9.45 17.57-17.41 5.78-7.84 9.65-15.69 16.68-22.23 6.42-6 16.09-5.05 20.48-.1 11.49 12.95-9.14 61.05-12.67 62.68z" fill="#263238"/><path d="M168.38 145.4c-4.07 0-8.1 2.71-10.91 5.47-3.74 3.68-6.71 8.15-10.05 12.18a99 99 0 01-22.81 20.52.17.17 0 00.17.3c8.84-3.79 15.94-10.6 22.17-17.86 3.18-3.72 6-7.74 9-11.53a29.35 29.35 0 015.71-5.59 18.24 18.24 0 016.77-2.77.37.37 0 00-.05-.72z" fill="#263238"/><path d="M168.32 187.89c2.72 5.63 21.6 23.65 37.13 29.24 5.7 2.05 30.28-3.85 36.1-6.31 6.81-2.89 2.28-19.88-2.07-19.86-5.44 0-28.75 5.61-33.73 5.49-6.06-.15-20.12-9.41-32.07-14.06-6.16-2.39-7.46 1.15-5.36 5.5z" fill="#f7a9a0"/><path d="M241.55 210.82c2.19-.8 11.91-5.36 14.33-7.23s9-7.76 7.76-9.76-3.31-.43-3.31-.43 2.38-2.93.94-4.83-4.56.65-4.56.65 2.22-3.18.66-5-4.29 1.29-4.29 1.29 2.17-2.81.26-3.74c-2.3-1.13-5.72 4.52-8.55 6.39-.64.42-13.63 7.66-13.63 7.66z" fill="#f7a9a0"/><path d="M253.32 185.28c-2.53 4.15-4.35 5.53-8.63 7.65-.08 0 0 .18.05.14 4.38-1.7 6.92-3.09 8.78-7.67.1-.23-.08-.31-.2-.12zM256.9 188.89c-3 4.08-5 5.59-9.28 8.14-.06 0 0 .15.06.12 4.44-2.16 6.94-3.61 9.4-8.08.11-.2-.08-.37-.18-.18zM260.1 193.52c-3.19 3.74-5.27 5.49-9.78 7.43a.09.09 0 00.06.17 16.27 16.27 0 009.83-7.49c.16-.26.09-.34-.11-.11z" fill="#263238"/><path d="M227.31 195.12a59.45 59.45 0 016-6.44c2.14-1.71 12.45-5.14 13.32-3 1.12 2.82-4.44 6-7.37 7.16 0 0 2.6 6.52-.91 9.65s-11.04-7.37-11.04-7.37z" fill="#f7a9a0"/><path d="M246.65 186.6c-.84 3.31-4.78 4.62-7.53 6a.28.28 0 00-.09.45c.9 2.81 1.36 7-.52 9.51-.06.07 0 .16.1.1 2.39-2.39 2.27-6.57 1.08-9.58 2.85-1.36 6.74-2.85 7-6.46-.01-.03-.04-.04-.04-.02z" fill="#263238"/><path d="M216.74 194.84s3.6-1.08 3.93-.08-1.51 2.44-1.51 2.44 2.51 0 2.83 1.59-2.31 2.6-2.31 2.6 2.72.78 2.81 1.91c.12 1.52-2.2 2.32-2.2 2.32s2.64.21 2.74 1.7-2.3 2.22-2.3 2.22 2.78.35 3.05 1.47c.31 1.33-2.42 2.52-2.42 2.52s2.63.43 2.79 1.58-2.44 2.1-3.8 2.11z" fill="#fff"/><path d="M220.81 217.41s-13.35.76-15.23.09a57.76 57.76 0 01-6-2.55c-14.79-7.21-26.51-19.85-30.09-24.48-3.77-4.89-3.78-10.78 2.57-8.94.47.14 1 .32 1.51.54 7.84 3.25 29.43 13.88 31.67 14.05s12.19-1.79 12.19-1.79z" fill="#66f28d"/><path d="M199.56 215c-14.79-7.21-26.51-19.85-30.09-24.48-3.77-4.89-3.78-10.78 2.57-8.94z" fill="#263238"/><path d="M181.31 219.29l.26 22.92a75.48 75.48 0 01-8.38 0 196.8 196.8 0 01-22-2.28c-7.21-1.13-15.7-2.77-25.45-5.15 0 0 17.36-40.58 31-52.68q.47-.42.93-.78l.18-.15c6.25-4.91 12.58-2.22 16.46 2.16 1 1.09 11 18.85 11.27 25.12.19 5.55-4.27 10.84-4.27 10.84z" fill="#66f28d"/><path d="M173.19 242.23a196.8 196.8 0 01-22-2.28c1-10.69 4.42-47 5.52-57.83q.47-.42.93-.78z" fill="#263238"/><path d="M154.17 190.64c1.88 13.09 6.63 39.56 14 46 9.68 8.47 32.08 10 38.72 10.48 2.89.21 5.4-18.92 3.25-21.14S185 223 183 221.93s-12-20.87-16.93-31c-6.24-12.67-12.64-5.45-11.9-.29z" fill="#f7a9a0"/><path d="M227.74 229.3c3.62.07 8.45-2.83 9.19-.24.66 2.31-2.88 4-2.88 4s4.6-.61 4.61 2.08-4.26 3.73-4.26 3.73 4.26-.33 4.08 2.35-4.1 3.89-4.1 3.89 1.22.55.24 2.38c-1.41 2.62-7.74 3.73-11.19 3.53s-15.9-3.51-17.8-4l1.13-22.12s6.29-2.46 9.64-3.32 15.15-.63 15.29 2.3-8.2 2.63-10.25 3-2.32.91-1.27 1.47a44.34 44.34 0 007.57.95z" fill="#f7a9a0"/><path d="M233.85 233.05c-5.1 2-7.68 2-13 1-.1 0-.16.13 0 .16 5.09 1.47 8.32 1.94 13.13-.89.21-.17.11-.32-.13-.27zM234.6 238.73c-5.48 1.61-8.27 1.63-13.89 1-.08 0-.1.12 0 .14 5.46 1.1 8.69 1.51 13.95-.82.22-.14.19-.4-.06-.32zM234.31 245.07c-5.41 1.18-8.48 1.33-13.85 0a.1.1 0 00-.06.2 18.43 18.43 0 0013.93 0c.32-.15.32-.27-.02-.2z" fill="#263238"/><path d="M192.34 221.69s4.09.1 4.1 1.25-2.39 2-2.39 2 2.58.89 2.39 2.61-3.27 1.91-3.27 1.91 2.56 1.73 2.27 2.94c-.38 1.61-3.06 1.66-3.06 1.66s2.67 1.11 2.26 2.69-3.13 1.52-3.13 1.52 2.76 1.3 2.66 2.55c-.12 1.48-3.35 1.8-3.35 1.8s2.57 1.33 2.35 2.58-3.24 1.35-4.65.9z" fill="#fff"/><path d="M194.05 221.51l-4.51 25s-18.88-4.83-22.89-10.82c-5-7.48-11.51-31-12.93-43.53s7.42-12.88 12.57-2.63c5 9.95 15.62 29.71 16.45 30.56 1.08 1.14 11.31 1.42 11.31 1.42z" fill="#66f28d"/><path d="M181.43 217.55c-.51-1-1.52-3.11-2-4-1-1.84-2.05-3.68-3.1-5.51s-2.08-3.67-3.16-5.48c-.19-.3-.36-.62-.55-.93 0-.22-.8-2.76-.92-3.4 0-.1-.18-.07-.15 0a13.66 13.66 0 01.35 1.91c0 .12 0 .24.08.36-.69-1.19-1.38-2.39-2.08-3.54-.05-.09-.19 0-.14.07 1.39 2.5 2.15 4.1 3.2 6.14s2.11 3.93 3.18 5.88 2.19 3.89 3.29 5.82a39 39 0 002.09 3.37c.48.68.48.3-.09-.69z" fill="#263238"/><path d="M163.18 180.41c.22.86 4.44 6.42 8.4 6.18 1.29-.09 1.15-7.15 1.15-7.15l.11-.52 1.52-7.33-8.67-5.37-1.25-.71s-.28 2-.61 4.57v.36a3.12 3.12 0 00-.06.41c-.06.38-.11.77-.16 1.15s-.07.58-.09.89-.06.61-.1.92a47.36 47.36 0 00-.24 6.6z" fill="#f7a9a0"/><path d="M163.83 170.08a15 15 0 009 8.84l1.52-7.33-8.67-5.37-1.25-.71s-.27 2.04-.6 4.57z" fill="#263238"/><path d="M163.18 164.24s-3-4-4.79-3 .44 7 2.64 7.72a2.22 2.22 0 002.95-1.25z" fill="#f7a9a0"/><path d="M159.09 162.93s-.05 0 0 .06a5.62 5.62 0 013 3.45 1.24 1.24 0 00-1.84-.3v.09a1.36 1.36 0 011.51.44 7.09 7.09 0 01.75 1.2c.07.14.32.06.26-.1-.01-1.98-1.58-4.69-3.68-4.84z" fill="#263238"/><path d="M184.12 159.76c1.4 13.06-6.27 15.38-9.09 15.67-2.55.28-11.29.87-14-12s2.89-17.63 8.7-18.56 12.99 1.83 14.39 14.89z" fill="#f7a9a0"/><path d="M181.5 158a8.89 8.89 0 01-.9-.15 1.47 1.47 0 01-.88-.33.47.47 0 010-.57 1.15 1.15 0 011.13-.32 1.72 1.72 0 011.09.57.49.49 0 01-.44.8zM172.42 158.65c.31-.05.58-.15.88-.22a1.5 1.5 0 00.86-.4.47.47 0 000-.57 1.16 1.16 0 00-1.15-.23 1.73 1.73 0 00-1 .64.5.5 0 00.41.78zM174.29 161.89s-.07.05-.06.09c.08.89 0 1.92-.77 2.27v.05c.99-.2 1.05-1.58.83-2.41z" fill="#263238"/><path d="M173.44 161c-1.44 0-1.38 2.86-.05 2.88s1.26-2.88.05-2.88z" fill="#263238"/><path d="M172.87 161.17c-.24.17-.48.47-.79.5s-.62-.25-.86-.54h-.05c0 .55.23 1.11.83 1.18s.92-.43 1-1c.07-.05 0-.2-.13-.14zM179.88 161.37s.08 0 .07.08c0 .89.12 1.92.93 2.2 0 0 0 .06 0 0-.99-.07-1.15-1.44-1-2.28z" fill="#263238"/><path d="M180.67 160.42c1.44-.12 1.59 2.76.26 2.88s-1.46-2.77-.26-2.88z" fill="#263238"/><path d="M181.28 160.58c.24.14.48.41.75.41s.53-.32.72-.63h.05c0 .55-.11 1.14-.64 1.27s-.85-.33-1-.88c-.04-.07.03-.23.12-.17zM174.88 168.74c.21.22.41.51.74.55a2.46 2.46 0 001-.2s.06 0 0 0a1.21 1.21 0 01-1.15.46 1 1 0 01-.68-.81c-.01-.01.06-.03.09 0zM178.51 165.39s.23 1.33.25 2c0 .06-.15.09-.37.11a3 3 0 01-3-1c0-.06 0-.13.1-.09a4.48 4.48 0 002.75.69c0-.17-.46-2.26-.36-2.27a5.37 5.37 0 011.44.28c-.4-2.79-1.24-5.48-1.59-8.26a.09.09 0 01.17 0 45.85 45.85 0 012.08 8.81c.09.26-1.22-.17-1.47-.27z" fill="#263238"/><path d="M161.8 164.3c2.16 0 2.31-4.55 2.31-4.55s4.36-.32 5.32-6.71a9.72 9.72 0 01-1.53 5.34s7.63-1.41 10.38-8.1c0 0-1 3.38-2.17 4.64a9.09 9.09 0 004.54-3.89s1.63 3.61 2.75 4.56c0 0-1.36-13.45-13.73-11.05 0 0-7.77 1.12-10.1 7.52s2.23 12.24 2.23 12.24z" fill="#263238"/><path d="M164 178.56c-1.6.15-4.26.73-7.6 3.87 0 0 8.19 5.31 15.24 4.6 2.52-.25 3-4.49 3-4.49a13.45 13.45 0 00-10.64-3.98z" fill="#f7a9a0"/></g><g><path d="M325.79 436.6c1.9.64 56.29.83 58.37-.47.79-.49 1.28-8.41 1.6-18 .07-2.07.13-4.21.17-6.38l4.41-29-36.34-.24-3.43 29 .14 6.39s-20.86 9.24-23 10.91-3.82 7.19-1.92 7.79z" fill="#dd6a57"/><path d="M325.79 436.6c1.9.64 56.29.83 58.37-.47 1-.6 1.48-12.17 1.77-24.38l-35.38-.23.14 6.39s-20.86 9.24-23 10.91-3.8 7.18-1.9 7.78z" fill="#fff"/><path d="M325.79 436.6c1.9.64 56.29.83 58.37-.47.79-.49 1.28-8.41 1.6-18l-35.07-.22s-20.86 9.24-23 10.91-3.8 7.18-1.9 7.78z" fill="#66f28d"/><path d="M326.58 434.42c9.11-.19 45.91-.1 54.94.4.07 0 .07.06 0 .06-9 .39-45.83 0-54.94-.31-.2 0-.2-.14 0-.15zM331.21 426.88a7.35 7.35 0 015.45 2.24 7.1 7.1 0 012 4.88c0 .05-.1.05-.11 0a8.47 8.47 0 00-7.36-7 .06.06 0 01.02-.12zM347.15 418.8c3.65 0 7.88 1.27 10.13 4.26.09.11-.08.24-.18.18a50.86 50.86 0 00-10-4 .23.23 0 01.05-.44zM344.33 419.89c3.65 0 7.88 1.26 10.13 4.26.09.11-.08.24-.18.18a50.7 50.7 0 00-10-4 .23.23 0 01.05-.44zM341.51 421c3.65 0 7.87 1.26 10.13 4.26.09.11-.08.23-.19.18a50.37 50.37 0 00-10-4 .23.23 0 01.06-.44zM338.69 422.07c3.65 0 7.87 1.26 10.13 4.25.09.12-.08.24-.19.19a49.78 49.78 0 00-10-4 .23.23 0 01.06-.44zM379.23 426.16c4.09 0 4.06 6.38-.05 6.36s-4.06-6.39.05-6.36z" fill="#263238"/><path d="M343.51 414.4c2 2.55 5 4.16 7.55 6a.45.45 0 00.66-.29.09.09 0 00.11-.1 19.21 19.21 0 00-3.28-9.35c-1.13-1.59-3.46-3.1-5.31-1.57s-.87 3.82.27 5.31zm-.16-3c.38-4 3.95-.91 4.74.3a20.83 20.83 0 011.33 2.46c.82 1.76 1.39 3.6 2 5.42-1.22-1-2.51-1.82-3.76-2.74-1.46-1.11-4.51-3.28-4.31-5.46z" fill="#263238"/><path d="M364.8 417.69c-.28-2.39-3-2.91-4.92-2.55a19.11 19.11 0 00-8.88 4.46.09.09 0 000 .15.45.45 0 00.27.67c3.12.49 6.39 1.41 9.57.93 1.91-.28 4.22-1.41 3.96-3.66zm-8.6 2.51c-1.54-.21-3.06-.49-4.61-.64 1.73-.86 3.41-1.79 5.23-2.48a19.18 19.18 0 012.66-.86c1.41-.33 6.1-.06 3.62 3.06-1.36 1.72-5.1 1.17-6.9.92z" fill="#263238"/><path d="M443.77 248.64s-42.22 71.84-43.35 76.88c-1.74 7.75-10.95 84.28-10.95 84.28l-43.94-.8s7.58-67.48 14.75-89.71c5.17-16 42.43-69.12 42.43-69.12z" fill="#66f28d"/><path d="M349.53 402.28c6.31 0 28.67-.3 37.07.48a.06.06 0 010 .12c-2.9.42-30.77-.23-37.07-.43a.09.09 0 110-.17zM436.57 255.23c-2.77 4.34-5.69 8.59-8.52 12.9s-5.65 8.61-8.43 12.94q-8.36 13-16.3 26.23a79.37 79.37 0 00-6.58 12.8 77.59 77.59 0 00-3.74 13.79c-.86 4.71-1.43 9.47-2 14.23l-1.7 15.21-3.47 31.11c-.15 1.27-.29 2.54-.41 3.82 0 .18.31.22.34 0 1.29-10.3 2.36-20.64 3.54-31q.87-7.71 1.75-15.41c.54-4.78 1.06-9.56 1.8-14.31a95.09 95.09 0 013.1-13.84 66.26 66.26 0 016.07-13.44c5.09-8.78 10.48-17.41 15.87-26s10.92-17.34 16.6-25.87c.71-1.06 1.41-2.11 2.14-3.14.13-.02-.01-.1-.06-.02z" fill="#263238"/><path d="M406.44 442.64c2 .13 56-14.1 57.65-15.89a.8.8 0 00.13-.36c.21-1.77-2.55-8.4-4.49-16.88-.12-.54-1.13-3.12-2.56-6.59-3.91-9.56-10.9-25.95-10.9-25.95L411 386l13 26.08 1.76 6.14s-17.76 14.25-19.44 16.41-1.87 7.87.12 8.01z" fill="#dd6a57"/><path d="M406.44 442.64c2 .13 56-14.1 57.65-15.89a.8.8 0 00.13-.36c.21-1.77-2.55-8.4-4.49-16.88-.12-.54-1.13-3.12-2.56-6.59L424 412.08l1.76 6.14s-17.76 14.25-19.44 16.41-1.87 7.87.12 8.01z" fill="#fff"/><path d="M406.45 442.63c2 .14 56-14.09 57.64-15.88.64-.67-.76-8-4.35-17.24l-34 8.71s-17.74 14.25-19.42 16.41-1.87 7.87.13 8z" fill="#66f28d"/><path d="M406.66 440.33c8.76-2.5 44.37-11.79 53.23-13.6.07 0 .08 0 0 .06-8.63 2.67-44.31 11.67-53.21 13.69-.18.04-.21-.09-.02-.15zM409.22 431.85a7.37 7.37 0 015.84.79 7.08 7.08 0 013.19 4.2c0 .05-.08.08-.11 0a8.46 8.46 0 00-8.89-4.91c-.08.07-.1-.05-.03-.08zM422.57 420c3.52-1 7.94-.79 10.89 1.53.11.09 0 .25-.14.23a49.94 49.94 0 00-10.69-1.31.23.23 0 01-.06-.45zM420.12 421.76c3.52-1 7.94-.78 10.89 1.53.11.09 0 .26-.14.23a49.94 49.94 0 00-10.69-1.31.23.23 0 01-.06-.45zM417.67 423.53c3.52-1 7.94-.78 10.89 1.54.11.08 0 .25-.14.22a50 50 0 00-10.7-1.31.23.23 0 01-.05-.45zM415.22 425.3c3.52-1 7.94-.78 10.88 1.54.12.09 0 .25-.13.22a50 50 0 00-10.7-1.31.23.23 0 01-.05-.45zM455.47 418.93c4-1 5.55 5.15 1.58 6.17s-5.56-5.1-1.58-6.17z" fill="#263238"/><path d="M417.94 416.66c2.54 2 5.85 2.75 8.81 3.84a.45.45 0 00.56-.45.1.1 0 00.09-.13 19.21 19.21 0 00-5.55-8.2c-1.51-1.25-4.14-2.12-5.54-.17s.14 3.96 1.63 5.11zm-.93-2.89c-.64-3.93 3.59-1.88 4.66-.91a20.6 20.6 0 011.91 2.05 57.39 57.39 0 013.35 4.71c-1.43-.62-2.89-1.12-4.34-1.69-1.72-.68-5.22-1.99-5.59-4.16z" fill="#263238"/><path d="M439.36 414.41c-.88-2.23-3.64-2.05-5.4-1.21a19.13 19.13 0 00-7.42 6.57.09.09 0 000 .14.45.45 0 00.43.58c3.14-.32 6.54-.27 9.49-1.54 1.78-.74 3.73-2.42 2.9-4.54zm-7.67 4.59c-1.55.2-3.09.31-4.62.56 1.45-1.27 2.84-2.6 4.41-3.73a21 21 0 012.36-1.51c1.28-.67 5.89-1.61 4.29 2-.89 2.08-4.61 2.49-6.44 2.68z" fill="#263238"/><path d="M421.6 410.41l39.47-10.36s-37.79-74.38-37.48-79.52c.27-4.55 27.68-44.47 29.2-51.94 2.48-12.23-3.48-23.15-9.25-29.92l-40.83 11.51a34 34 0 009.22 11.52s-25.66 42.85-26.31 56.94 35.98 91.77 35.98 91.77z" fill="#66f28d"/><path d="M420.84 403.05c5.73-1.64 4.06-1.25 9.81-2.82 2.81-.77 21.29-5.82 24-6.08.06 0 .08.09 0 .11-2.52 1.14-21.08 5.86-23.91 6.58-5.77 1.47-4.13 1-9.92 2.38-.04.03-.08-.13.02-.17zM405.66 260.06a73 73 0 0111.34 5.33.13.13 0 01-.11.23c-3.81-1.67-7.7-3.26-11.41-5.12a.24.24 0 01.18-.44z" fill="#263238"/><path d="M410.46 259.05a17.71 17.71 0 01.73 2.2 4.91 4.91 0 01.29 1.81c0 .11-.18.12-.24 0a6.13 6.13 0 01-.76-1.76c-.25-.68-.52-1.36-.74-2a.38.38 0 01.72-.25z" fill="#263238"/><path d="M410.46 255.35c-.16-.62-.33-1.25-.5-1.87s-.41-1.29-.54-1.94c0-.11-.18-.06-.16 0 .16.63.24 1.29.35 1.93s.23 1.27.36 1.91a36 36 0 00.9 3.54 4.3 4.3 0 01-1.82-.56 3.39 3.39 0 01-1.11-1.74c-.25-.71-.48-1.43-.75-2.14a15.44 15.44 0 01-.79-2.38c0-.11-.18-.06-.16 0a26.17 26.17 0 001.46 5c.28.64.49 1.29 1.12 1.61a5.45 5.45 0 002.19.43c.08 0 .21 0 .19-.12a37.3 37.3 0 00-.74-3.67zM411.14 263.1c-1.55 2.81-3.33 5.5-5 8.24s-3.16 5.4-4.68 8.15q-4.58 8.31-8.46 17-1.92 4.29-3.62 8.67a65.18 65.18 0 00-3 9 24.47 24.47 0 00-.4 9.3 63.39 63.39 0 002.41 9.29 166.1 166.1 0 007.71 20.48c.1.22.47.05.39-.17-2.16-6.09-4.4-12.15-6.33-18.31-1.88-6-4.11-12.17-3.07-18.51a47.6 47.6 0 012.59-8.91c1.1-3 2.29-5.89 3.54-8.78 2.48-5.71 5.27-11.25 8.11-16.78 1.59-3.1 3.27-6.15 4.88-9.24s3.2-6.29 5-9.29c.12-.15-.02-.24-.07-.14zM440.87 257.11c-.64-.33-1.62 0-2.32 0a20.3 20.3 0 01-2.7-.08 21.48 21.48 0 01-2.63-.42 5.81 5.81 0 01-2.44-1 12.77 12.77 0 01-2.78-3.84 19.74 19.74 0 01-1.95-4.73c0-.1-.16 0-.15.05.17.93.26 1.87.51 2.79a16.1 16.1 0 00.94 2.54 10.24 10.24 0 002.85 4.22c1.45 1.09 3.46 1.29 5.21 1.42a20.57 20.57 0 003 0c.73-.06 1.94 0 2.48-.59a.22.22 0 00-.02-.36z" fill="#263238"/><path d="M451.27 391.52q-7.45-15.18-14.56-30.55T422.8 330a39.83 39.83 0 01-2.95-7.64c-.62-2.9.28-5.51 1.5-8.11a139.7 139.7 0 017.65-13.82c2.78-4.5 5.71-8.89 8.6-13.31a138.25 138.25 0 008.25-13.44 24.7 24.7 0 002.85-14.29c-.64-5-2.8-9.67-5.11-14.07l-1.86-3.48c0-.09-.18 0-.13.08 2.58 4.62 5.06 9.47 6.26 14.65a23.72 23.72 0 01.57 7.83 24.64 24.64 0 01-2.22 7.65c-2.14 4.72-5.13 9.06-8 13.39s-5.83 8.81-8.64 13.28a150.22 150.22 0 00-7.86 13.87 20.85 20.85 0 00-2.44 6.73c-.28 2.61.67 5.12 1.68 7.48 4.39 10.29 9 20.49 13.7 30.65s9.56 20.32 14.5 30.41l1.88 3.81c.09.16.32.01.24-.15z" fill="#263238"/><path d="M409.19 203.68c-3.6 5.12-23.57 21.89-41.36 22.87-6.05.34-34.21-17.45-39.56-20.82-6.26-3.94 6.2-20.4 10.5-19.68 5.36.9 27.4 19.72 31.17 19.82 6.06.16 22.3-5.82 34.84-8.47 6.46-1.4 7.22 2.34 4.41 6.28z" fill="#dd6a57"/><path d="M409.22 205.5C404.8 212.13 390 223 390 223l-2-4.52-6.91-15s13.59-4.39 22.54-6.36a19.86 19.86 0 013.21-.48c5.67-.37 6.16 3.16 2.38 8.86z" fill="#ebebeb"/><path d="M392.35 200.91a6.67 6.67 0 01.25 1.92 6.34 6.34 0 01-.25 1.92 7.5 7.5 0 010-3.84zM390.52 208.67a7.46 7.46 0 01-3.83 0 7.46 7.46 0 013.83 0zM409.92 197.94a6.67 6.67 0 01-1.92.25 6.34 6.34 0 01-1.92-.25 7.5 7.5 0 013.84 0zM399.34 205.73a7.17 7.17 0 011.53 1.18 6.58 6.58 0 011.18 1.53 7.54 7.54 0 01-2.71-2.71zM392 214.87a7.17 7.17 0 011.53 1.18 6.58 6.58 0 011.18 1.53 6.82 6.82 0 01-1.53-1.17 6.92 6.92 0 01-1.18-1.54z" fill="#fff"/><path d="M409.22 205.5C404.8 212.13 390 223 390 223l-2-4.52c5.49-6.46 14-16.24 18.84-21.87 5.67-.34 6.16 3.19 2.38 8.89z" fill="#c7c7c7"/><path d="M392.69 220c-1.14-2.76-6.25-13.91-7.52-16.24-.09-.17-.21-.15-.14 0a166.75 166.75 0 007.55 16.24c.04.06.14 0 .11 0zM397.24 214.44a42 42 0 00-.2 4.22v-.16c-.17-.76-.32-1.54-.55-2.29h-.08a12.43 12.43 0 00.39 2.34c.09.36.18.72.28 1.08 0 .64 0 1.27.08 1.89.08 1.19.49 6.24.62 7.11 0 .18.24.17.26 0 .06-.91-.14-6.15-.16-7.33a65.35 65.35 0 00-.51-6.85c-.05-.08-.13-.06-.13-.01z" fill="#263238"/><path d="M400.54 252.26c2 1.41 4.53 3.51 17.37 2.79.8-.05 1.61-.13 2.43-.25 12.21-1.89 28.19-13.72 29.11-14.58 0 0-14.4-32.77-36.89-45.57-2.78-1.58-8 0-11.06 2.44-1.1.87-4.23 8-4.26 14.09s1.29 39.68 3.3 41.08z" fill="#ebebeb"/><path d="M407.83 212.05a6.67 6.67 0 01.25 1.92 6.56 6.56 0 01-.25 1.91 6.91 6.91 0 01-.25-1.91 7 7 0 01.25-1.92zM413 234.05a7.5 7.5 0 010 3.84 7.5 7.5 0 010-3.84zM429 220.44a7.5 7.5 0 010 3.84 7.5 7.5 0 010-3.84zM399.75 231.14a6.67 6.67 0 01.25 1.92 6.56 6.56 0 01-.25 1.91 6.91 6.91 0 01-.25-1.91 7 7 0 01.25-1.92zM419.86 216.45a6.67 6.67 0 01-1.92.25 6.6 6.6 0 01-1.91-.25 7 7 0 011.91-.25 7 7 0 011.92.25zM433.45 233.48a7.46 7.46 0 01-3.83 0 7.46 7.46 0 013.83 0zM412.79 247a7.46 7.46 0 01-3.83 0 7.46 7.46 0 013.83 0zM436.85 244.39a7 7 0 01-1.91.25 7 7 0 01-1.92-.25 6.67 6.67 0 011.92-.25 6.6 6.6 0 011.91.25zM409.92 197.94a6.67 6.67 0 01-1.92.25 6.34 6.34 0 01-1.92-.25 7.5 7.5 0 013.84 0zM416.59 200.43a7.54 7.54 0 012.71 2.71 6.37 6.37 0 01-1.53-1.18 6.58 6.58 0 01-1.18-1.53zM436.55 221.79a7.54 7.54 0 012.71 2.71 7.34 7.34 0 01-2.71-2.71zM404.63 224.08a7.54 7.54 0 012.71 2.71 6.37 6.37 0 01-1.53-1.18 6.58 6.58 0 01-1.18-1.53zM422.94 239.51a6.93 6.93 0 011.53 1.18 6.58 6.58 0 011.18 1.53 6.82 6.82 0 01-1.53-1.17 7.23 7.23 0 01-1.18-1.54zM399.34 205.73a7.17 7.17 0 011.53 1.18 6.58 6.58 0 011.18 1.53 7.54 7.54 0 01-2.71-2.71zM397.72 220.44a6.86 6.86 0 011.18-1.53 7.17 7.17 0 011.53-1.18 6.63 6.63 0 01-1.18 1.54 6.82 6.82 0 01-1.53 1.17zM441.06 236.76a6.79 6.79 0 011.18-1.53 7.17 7.17 0 011.53-1.18 6.43 6.43 0 01-1.18 1.54 6.82 6.82 0 01-1.53 1.17zM400.08 243.3a7.54 7.54 0 012.71-2.71 6.63 6.63 0 01-1.18 1.54 6.82 6.82 0 01-1.53 1.17zM424.55 211.82a6.82 6.82 0 011.17-1.53 6.63 6.63 0 011.54-1.18 7.54 7.54 0 01-2.71 2.71zM418.48 252.83a6.58 6.58 0 011.18-1.53 7.17 7.17 0 011.53-1.18 6.37 6.37 0 01-1.18 1.53 6.58 6.58 0 01-1.53 1.18zM418.5 228.14a7.54 7.54 0 012.71-2.71 7.15 7.15 0 01-2.71 2.71z" fill="#fff"/><path d="M404.76 205.73c3.11-.14 6.85-6 7.79-10.2a61.07 61.07 0 00-2.28-5.89c-.73-1.89-1.5-4-2.07-6-.11-.41-1.29.74-1.29.74l-2.39 1.35-7.9 4.48a32.75 32.75 0 013.37 7.27 4.38 4.38 0 01.15.84v.14c.21 1.63 1.61 7.4 4.62 7.27z" fill="#dd6a57"/><path d="M400.14 198.33v.14a6.89 6.89 0 001.3-.3c8.32-2.57 6.33-13.52 6.33-13.52l-3.27 1.09-7.9 4.48a32.75 32.75 0 013.37 7.27 4.38 4.38 0 01.17.84z" fill="#263238"/><path d="M409 171.32c1.56 4.54-.41 17.87-3.57 20.93-4.58 4.44-12.3 5.12-16.13-.44-3.72-5.39-.85-22.71 2.7-25.51 5.19-4.14 14.66-1.68 17 5.02z" fill="#dd6a57"/><path d="M396.64 180.36s.06.06.05.09c-.15.9-.18 2 .59 2.36v.05c-.99-.28-.94-1.67-.64-2.5z" fill="#263238"/><path d="M397.57 179.54c1.46.1 1.16 3-.19 2.92s-1.03-3 .19-2.92zM391.11 179.67s-.07 0-.08.08c-.06.9-.29 1.93-1.13 2.14v.05c1.01-.03 1.3-1.4 1.21-2.27z" fill="#263238"/><path d="M390.4 178.65c-1.44-.26-1.85 2.64-.52 2.88s1.73-2.67.52-2.88zM398.86 178.33a10.88 10.88 0 01-1.09-.52 2 2 0 01-1-.73.62.62 0 01.18-.74 1.53 1.53 0 011.55 0 2.25 2.25 0 011.2 1.11.66.66 0 01-.84.88zM389.43 177.06a9.78 9.78 0 001.19-.18 1.89 1.89 0 001.17-.41.63.63 0 000-.76 1.55 1.55 0 00-1.5-.44 2.23 2.23 0 00-1.45.71.66.66 0 00.59 1.08zM396.57 188.52c-.24.19-.48.46-.81.46a2.51 2.51 0 01-.95-.33 1.22 1.22 0 001.09.61 1 1 0 00.79-.73s-.08-.03-.12-.01zM395.9 185.72a3.09 3.09 0 01-2.19 1.16 4.12 4.12 0 01-1.11-.06h-.21l-.2-.05a.24.24 0 01-.16-.22.28.28 0 010-.09v-.07c.06-.7.23-1.75.23-1.75-.26.1-1.62.55-1.56.19a46.36 46.36 0 012.15-9.18.08.08 0 01.16 0c-.36 2.89-1.22 5.7-1.62 8.59a5.75 5.75 0 011.49-.29c.1 0-.37 2-.37 2.34a4.26 4.26 0 003.28-.66c.11-.04.21.03.11.09z" fill="#263238"/><path d="M393 186.51a3.67 3.67 0 001.35 1.28 1.66 1.66 0 001 .16c.74-.11.82-.77.75-1.35a4 4 0 00-.23-.9 4.77 4.77 0 01-2.87.81z" fill="#263238"/><path d="M394.39 187.79a1.66 1.66 0 001 .16c.74-.11.82-.77.75-1.35a1.69 1.69 0 00-1.75 1.19z" fill="#ff99ba"/><path d="M407.8 182.44c-2.29-.2-1.91-5.82-1.91-5.82s-3.49-.73-5.07-5.6c0 0-4.6 2.71-8.37 1.91-5.9-1.25-5.52-9-3.25-10.47 3.21-2.13 8.73 1.27 8.73 1.27s8.55-2.12 10.91 3.7a4.35 4.35 0 013.92 4.46c.14 4.19-3.25 10.7-4.96 10.55z" fill="#263238"/><path d="M406.69 177.3a7.77 7.77 0 01-4.36-2.55 5.84 5.84 0 01-1.2-5.23.08.08 0 00-.15 0 6.72 6.72 0 00.78 5.66 5.43 5.43 0 004.92 2.33.09.09 0 00.01-.21zM413.14 169.45c-1.13-1.52-2.91-1.8-4.67-1.79-.1 0-.1.17 0 .16a4.9 4.9 0 014.32 2.51A6 6 0 01413 175a12.29 12.29 0 01-5.13 7.2v.07a12.33 12.33 0 005.76-7.88c.37-1.59.54-3.54-.49-4.94zM398.15 164a5.79 5.79 0 00-3.19-2.59 6.92 6.92 0 00-4.94.36 3.88 3.88 0 00-2.15 3.27 7 7 0 001.43 4.43h.06a6.87 6.87 0 01-1.1-4 3.59 3.59 0 012.21-3.13c2.47-1 6-.73 7.55 1.79.05.06.18-.03.13-.13z" fill="#263238"/><path d="M406.5 182.21s2.93-4.32 4.89-3.28-.2 7.28-2.47 8.16a2.33 2.33 0 01-3.13-1.2z" fill="#dd6a57"/><path d="M410.73 180.7v.06a5.88 5.88 0 00-3 3.72 1.28 1.28 0 011.91-.38c.05 0 0 .09 0 .08a1.42 1.42 0 00-1.56.52 6.85 6.85 0 00-.74 1.29c-.07.14-.33.07-.28-.1-.06-2.07 1.48-4.95 3.67-5.19zM377.99 272.72h-121.5v-85.08h121.5z" fill="#263238"/><circle cx="280.75" cy="211.82" r="10.07" fill="#66f28d"/><path fill="#c7c7c7" d="M310.43 254.21H378l-33.79-45.8-33.78 45.8z"/><path fill="#fff" d="M283.95 254.42h55.78l-27.89-29.81-27.89 29.81z"/><path fill="#66f28d" d="M256.48 254.38h121.5v18.33h-121.5z"/><path d="M420.41 205c3.15 8.81-1.35 41.13-6.68 47.94-7.91 10.14-23.54 19.47-29.52 22.38-2.6 1.27-14.31-17.44-11.76-19.19 5.47-3.76 22.94-12.72 24.42-14.5s9.44-18.88 12.63-28.51c4.28-12.92 9.32-12.59 10.91-8.12z" fill="#dd6a57"/><path d="M384.2 275.37c-8.29 4.73-24.78 4-27 3.34-1.91-.57-2.9-.89-2.9-.89-3.46-1-4.39-2.89-4.39-2.89s-4.33.06-4.8-2.56c-.53-2.92 5.65-2.43 9.22-4.24 8.18-4.14 18.65-12.32 20.89-13.75z" fill="#dd6a57"/><path d="M365.93 269.81a58.15 58.15 0 01-7.37 3.23 60.29 60.29 0 01-8.62 1.81.07.07 0 000 .14A31.29 31.29 0 00366 270a.12.12 0 00-.07-.19zM369.14 274.39a43.31 43.31 0 01-14.87 3.34 28.12 28.12 0 0015-3.14c.11-.03.04-.27-.13-.2z" fill="#263238"/><path d="M363.84 262.52c.85-1 .36-1.42-1.89-1s-10.79 3.93-11.77.85 11.15-7.88 14.94-8.28a63.74 63.74 0 0110.27.3c-2.17 1.4-7.32 5.31-11.55 8.13z" fill="#dd6a57"/><path d="M411.6 207.2c5.53-11.62 10.57-8.54 11 3a183.29 183.29 0 01-1.06 23.92l-20-5.74z" fill="#ebebeb"/><path d="M407.83 212.05a6.67 6.67 0 01.25 1.92 6.56 6.56 0 01-.25 1.91 6.91 6.91 0 01-.25-1.91 7 7 0 01.25-1.92zM419.86 216.45a6.67 6.67 0 01-1.92.25 6.6 6.6 0 01-1.91-.25 7 7 0 011.91-.25 7 7 0 011.92.25zM416.59 200.43a7.54 7.54 0 012.71 2.71 6.37 6.37 0 01-1.53-1.18 6.58 6.58 0 01-1.18-1.53zM404.63 224.08a7.54 7.54 0 012.71 2.71 6.37 6.37 0 01-1.53-1.18 6.58 6.58 0 01-1.18-1.53zM418.5 228.14a7.54 7.54 0 012.71-2.71 7.15 7.15 0 01-2.71 2.71z" fill="#fff"/><path d="M409.69 210.75c-.75 1.52-1.54 3-2.33 4.53.14-.72.25-1.43.33-2.16h-.05c-.12.57-.25 1.13-.36 1.7l-.15.82a1.16 1.16 0 000 .18c-.61 1.17-1.22 2.35-1.79 3.54-.69 1.42-1.34 2.85-2 4.29s-1.27 3.19-2 4.64a10.37 10.37 0 001.95.58c.18.07.27-.11.08-.13s-1.67-.63-1.69-.64c.65-1.45 1.47-2.82 2.17-4.24s1.4-2.83 2.06-4.27c1.36-2.91 2.55-5.89 3.89-8.81-.04-.05-.1-.07-.11-.03zM423.49 217.67c-.19.6-.4 1.19-.55 1.8l-.18.75c.07-2.08.14-4.15.2-6.23-.28 3.39-.58 6.78-.8 10.18a97 97 0 00-.45 9.79 11.42 11.42 0 00-1.83-.29 7.94 7.94 0 002.06.59 99.67 99.67 0 00.71-10.22c0-.94.07-1.87.11-2.8.11-.58.27-1.15.43-1.72s.27-1.22.4-1.83c-.03-.04-.09-.05-.1-.02z" fill="#263238"/><path d="M420.76 231c-2.82-1-14.51-4.69-17.09-5.32-.18-.05-.25 0-.07.12a164.65 164.65 0 0017.12 5.31.06.06 0 00.04-.11z" fill="#263238"/><path d="M317.09 201.91c2.76.84 2.18-2.9 2.18-2.9s2.14 5.18 5.33 5 2.2-4.73 2.15-5.05c.11.27 2.21 5 5.39 4.42s1.66-5 1.55-5.23c.19.22 2.76 3.14 5.07 2.16 4-1.68-2.37-9.32-1.91-12.79l5.6.17c.18 0 .37 0 .55-.09l.21-2.86a36.25 36.25 0 01-5.17-2.6c-2.11-1.18-4.15-2.26-5.66-2.29a3.18 3.18 0 00-3.16 2.09s-1.64-2.6-4.16-2.23c-1.29.19-2.13 2.43-2.13 2.43a3.77 3.77 0 00-3.62-1.56c-1.77.36-2.35 2.55-2.35 2.55s-2.24-1.32-3.93-.36c-3.41 1.88-1.86 17.32 4.06 19.14z" fill="#dd6a57"/><path d="M337.57 187.19l4.88.45c.18 0 .37 0 .55-.09 6.16-1.12 10-8.16 5.53-8.67-3.4-.39-7.06 4.11-10.49 3.21z" fill="#dd6a57"/><path d="M316.82 183.41h-.08a26.86 26.86 0 002.54 15.81c.08.16.36.09.3-.09a55.22 55.22 0 01-2.76-15.72zM322.89 182c0-.06-.1-.06-.11 0a25.19 25.19 0 003.84 17.07c.12.17.4.21.28 0-2.07-3.51-3.9-12.07-4.01-17.07zM334.05 198.37c-3.15-5-4.4-10.45-4.87-16.26 0-.08-.11-.06-.13 0-.54 2.91.15 6.58.92 9.39a15.62 15.62 0 003.91 7c.12.05.24-.03.17-.13z" fill="#263238"/></g></svg>