<svg xmlns="http://www.w3.org/2000/svg" viewBox="0 0 500 500"><path fill="#ebebeb" d="M434 124.84v88.4H220.96v-78.27h18.48v22.44h4.76v-12.7h23.5v20.12h3.11v-47.22h20.43v12.96h10.47v16.13h3.17v-10.15h18.57v30.27h5.43v-24.6h16.98v-18.69h11.55v-10.64h13.36v47.2h4.49v-19.7h22.01v28.2h3.04v-23.02h22.31v-20.73H434z"/><path d="M226.36 142.08h-3.13v-4.29h3.13zm5.42-4.29h-3.13v4.29h3.13zm5.42 0h-3.13v4.29h3.13zm-10.84 6.46h-3.13v4.29h3.13zm5.42 0h-3.13v4.29h3.13zm5.42 0h-3.13v4.29h3.13zm-10.84 6.46h-3.13V155h3.13zm5.42 0h-3.13V155h3.13zm5.42 0h-3.13V155h3.13zm-10.84 6.45h-3.13v4.29h3.13zm5.42 0h-3.13v4.29h3.13zm5.42 0h-3.13v4.29h3.13zm97.42-11.88h-3.13v3.58h3.13zm5.42 0h-3.13v3.58H340zm5.42 0h-3.13v3.58h3.13zm-10.84 5.39h-3.13v3.58h3.13zm5.42 0h-3.13v3.58H340zm5.42 0h-3.13v3.58h3.13zm-10.84 5.39h-3.13v3.58h3.13zm5.42 0h-3.13v3.58H340zm5.42 0h-3.13v3.58h3.13zm-10.84 5.38h-3.13V165h3.13zm5.42 0h-3.13V165H340zm5.42 0h-3.13V165h3.13zM334.62 167h-3.13v3.58h3.13zm5.42 0h-3.13v3.58H340zm5.42 0h-3.13v3.58h3.13zm-10.84 5.52h-3.13v3.58h3.13zm5.42 0h-3.13v3.58H340zm5.42 0h-3.13v3.58h3.13zM334.62 178h-3.13v3.58h3.13zm5.42 0h-3.13v3.58H340zm5.42 0h-3.13v3.58h3.13zm-10.84 5.52h-3.13v3.58h3.13zm5.42 0h-3.13v3.58H340zm5.42 0h-3.13v3.58h3.13zm-80.59-36.06h-18v2.68h18zm0 5.21h-18v2.68h18zm0 5.2h-18v2.69h18zm0 5.21h-18v2.69h18zm0 5.21h-18V171h18zm0 5.21h-18v2.68h18zm0 5.2h-18v2.69h18zm0 5.21h-18v2.69h18zm129.6-41h-16.55v2.69h16.55zm0 5.21h-16.55v2.69h16.55zm0 5.21h-16.55V156h16.55zm0 5.21h-16.55v2.68h16.55zm0 5.2h-16.55v2.69h16.55zm0 5.21h-16.55v2.68h16.55zm0 5.21h-16.55v2.68h16.55zm0 5.21h-16.55V182h16.55zm0 4.94h-16.55V187h16.55zm0 5h-16.55V192h16.55zm0 4.95h-16.55v2.68h16.55zm0 4.95h-16.55v2.68h16.55zm0 5h-16.55v2.68h16.55zm26.76-54.91h-17.48v2.69h17.48zm0 5.21h-17.48v2.69h17.48zm0 5.21h-17.48v2.68h17.48zm0 5.21h-17.48v2.68h17.48zm0 5.2h-17.48v2.69h17.48zm0 5.21h-17.48v2.68h17.48zm0 5.21h-17.48v2.68h17.48zm0 5.21h-17.48v2.68h17.48zm0 4.66h-17.48V193h17.48zm0 4.66h-17.48v2.68h17.48zm0 4.66h-17.48v2.68h17.48zM315.87 139h-5.56v2.6h5.56zm0 5h-5.56v2.6h5.56zm0 5h-5.56v2.59h5.56zm0 5h-5.56v2.59h5.56zm0 5h-5.56v2.59h5.56zm0 5h-5.56v2.59h5.56zm0 5h-5.56v2.59h5.56zm0 5h-5.56v2.59h5.56zm7.57-35h-5.56v2.6h5.56zm0 5h-5.56v2.6h5.56zm0 5h-5.56v2.59h5.56zm0 5h-5.56v2.59h5.56zm0 5h-5.56v2.59h5.56zm0 5h-5.56v2.59h5.56zm0 5h-5.56v2.59h5.56zm0 5h-5.56v2.59h5.56zm-43.74-53.67h-5.79v4.09h5.79zm8.64 0h-5.79v4.09h5.79zm-8.64 6h-5.79v4.09h5.79zm8.64 0h-5.79v4.09h5.79zm-8.64 6h-5.79v4.08h5.79zm8.64 0h-5.79v4.08h5.79zm-8.64 6h-5.79v4.09h5.79zm8.64 0h-5.79v4.09h5.79zm-8.64 6h-5.79v4.09h5.79zm8.64 0h-5.79v4.09h5.79zm-8.64 6h-5.79v4.09h5.79zm8.64 0h-5.79v4.09h5.79zm-8.64 6h-5.79v4.09h5.79zm8.64 0h-5.79v4.09h5.79zm-8.64 6h-5.79v4.08h5.79zm8.64 0h-5.79v4.08h5.79zm10.7-30h-5.79v4.08H299zm0 6h-5.79v4.09H299zm0 6h-5.79v4.09H299zm0 6h-5.79v4.09H299zm0 6h-5.79v4.09H299zm0 6h-5.79v4.08H299zm-19.34 5.93h-5.79v4.09h5.79zm8.64 0h-5.79v4.09h5.79zm10.7 0h-5.79v4.09H299zm-19.34 5.93h-5.79v4.09h5.79zm8.64 0h-5.79v4.09h5.79zm10.7 0h-5.79v4.09H299zm-19.34 5.93h-5.79v4.09h5.79zm8.64 0h-5.79v4.09h5.79zm10.7 0h-5.79v4.09H299zm-19.34 5.94h-5.79v4.08h5.79zm8.64 0h-5.79v4.08h5.79zm10.7 0h-5.79v4.08H299zM279.7 192h-5.79v4.09h5.79zm8.64 0h-5.79v4.09h5.79zm10.7 0h-5.79v4.09H299zm52.31-65.86h-3.13v3.58h3.13zm5.42 0h-3.13v3.58h3.13zm-5.42 5.39h-3.13v3.58h3.13zm5.42 0h-3.13v3.58h3.13zm-5.42 5.38h-3.13v3.59h3.13zm5.42 0h-3.13v3.59h3.13zm-5.42 5.39h-3.13v3.58h3.13zm5.42 0h-3.13v3.58h3.13zm-5.42 5.52h-3.13v3.58h3.13zm5.42 0h-3.13v3.58h3.13zm-5.42 5.52h-3.13v3.58h3.13zm5.42 0h-3.13v3.58h3.13zm-5.42 5.52h-3.13v3.58h3.13zm5.42 0h-3.13v3.58h3.13zm-5.42 5.52h-3.13V168h3.13zm5.42 0h-3.13V168h3.13zm-5.42 5.62h-3.13v3.58h3.13zm5.42 0h-3.13v3.58h3.13zm-5.42 5.58h-3.13v3.58h3.13zm5.42 0h-3.13v3.58h3.13zm-5.42 5.58h-3.13v3.58h3.13zm5.42 0h-3.13v3.58h3.13zm-5.42 5.58h-3.13v3.58h3.13zm5.42 0h-3.13v3.58h3.13zm70.94-60h-3.13V131h3.13zm5.42 0H430V131h3.13zm-5.42 6.35h-3.13v4.22h3.13zm5.42 0H430v4.22h3.13zm-5.42 6.35h-3.13v4.21h3.13zm5.42 0H430v4.21h3.13zm-5.42 6.34h-3.13V150h3.13zm5.42 0H430V150h3.13zm-5.42 6.51h-3.13v4.21h3.13zm5.42 0H430v4.21h3.13zm-5.42 6.5h-3.13V163h3.13zm5.42 0H430V163h3.13zm-5.42 6.5h-3.13v4.22h3.13zm5.42 0H430v4.22h3.13zm-5.42 6.5h-3.13V176h3.13zm5.42 0H430V176h3.13zm-5.42 6.58h-3.13v4.21h3.13zm5.42 0H430v4.21h3.13zm-5.42 6.57h-3.13v4.22h3.13zm5.42 0H430v4.22h3.13zm-5.42 6.57h-3.13v4.22h3.13zm5.42 0H430v4.22h3.13zm-5.42 6.57h-3.13v4.22h3.13zm5.42 0H430v4.22h3.13zm-70.19-71.92h-3.13v3.58h3.13zm5.42 0h-3.13v3.58h3.13zm-5.42-5.52h-3.13v3.58h3.13zm5.42 0h-3.13v3.58h3.13zm-5.42-5.52h-3.13v3.58h3.13zm5.42 0h-3.13v3.58h3.13zm-5.42 16.43h-3.13v3.58h3.13zm5.42 0h-3.13v3.58h3.13zm-5.42 5.38h-3.13v3.59h3.13zm5.42 0h-3.13v3.59h3.13zm-5.42 5.39h-3.13v3.58h3.13zm5.42 0h-3.13v3.58h3.13zm-5.42 5.52h-3.13v3.58h3.13zm5.42 0h-3.13v3.58h3.13zm-5.42 5.52h-3.13v3.58h3.13zm5.42 0h-3.13v3.58h3.13zm-5.42 5.52h-3.13v3.58h3.13zm5.42 0h-3.13v3.58h3.13zm-5.42 5.52h-3.13v3.6h3.13zm5.42 0h-3.13v3.6h3.13zm-5.42 5.6h-3.13v3.58h3.13zm5.42 0h-3.13v3.58h3.13zm-5.42 5.58h-3.13v3.58h3.13zm5.42 0h-3.13v3.58h3.13zm-5.42 5.58h-3.13v3.58h3.13zm5.42 0h-3.13v3.58h3.13zm-5.42 5.58h-3.13v3.58h3.13zm5.42 0h-3.13v3.58h3.13z" fill="#fff"/><path fill="#ebebeb" d="M220.96 213.24H66.66v-78.27h18.48v22.44h4.76v-12.7h23.5v20.12h3.11v-47.22h20.42v12.96h10.48v16.13h3.17v-10.15h18.57v30.27h5.42v-24.6h16.99v-18.69h11.54l13.36.06v36.5h4.5v53.15z"/><path d="M72.05 142.08h-3.13v-4.29h3.13zm5.42-4.29h-3.13v4.29h3.13zm5.42 0h-3.13v4.29h3.13zm-10.84 6.46h-3.13v4.29h3.13zm5.42 0h-3.13v4.29h3.13zm5.42 0h-3.13v4.29h3.13zm-10.84 6.46h-3.13V155h3.13zm5.42 0h-3.13V155h3.13zm5.42 0h-3.13V155h3.13zm-10.84 6.45h-3.13v4.29h3.13zm5.42 0h-3.13v4.29h3.13zm5.42 0h-3.13v4.29h3.13zm97.42-11.88h-3.13v3.58h3.13zm5.42 0h-3.13v3.58h3.13zm5.42 0H188v3.58h3.13zm-10.84 5.39h-3.13v3.58h3.13zm5.42 0h-3.13v3.58h3.13zm5.42 0H188v3.58h3.13zm-10.84 5.39h-3.13v3.58h3.13zm5.42 0h-3.13v3.58h3.13zm5.42 0H188v3.58h3.13zm-10.84 5.38h-3.13V165h3.13zm5.42 0h-3.13V165h3.13zm5.42 0H188V165h3.13zM180.31 167h-3.13v3.58h3.13zm5.42 0h-3.13v3.58h3.13zm5.42 0H188v3.58h3.13zm-10.84 5.52h-3.13v3.58h3.13zm5.42 0h-3.13v3.58h3.13zm5.42 0H188v3.58h3.13zM180.31 178h-3.13v3.58h3.13zm5.42 0h-3.13v3.58h3.13zm5.42 0H188v3.58h3.13zm-10.84 5.52h-3.13v3.58h3.13zm5.42 0h-3.13v3.58h3.13zm5.42 0H188v3.58h3.13zm-80.58-36.06h-18v2.68h18zm0 5.21h-18v2.68h18zm0 5.2h-18v2.69h18zm0 5.21h-18v2.69h18zm0 5.21h-18V171h18zm0 5.21h-18v2.68h18zm0 5.2h-18v2.69h18zm0 5.21h-18v2.69h18zm51-44.93H156v2.6h5.56zm0 5H156v2.6h5.56zm0 5H156v2.59h5.56zm0 5H156v2.59h5.56zm0 5H156v2.59h5.56zm0 5H156v2.59h5.56zm0 5H156v2.59h5.56zm0 5H156v2.59h5.56zm7.56-34.98h-5.56v2.6h5.56zm0 5h-5.56v2.6h5.56zm0 5h-5.56v2.59h5.56zm0 5h-5.56v2.59h5.56zm0 5h-5.56v2.59h5.56zm0 5h-5.56v2.59h5.56zm0 5h-5.56v2.59h5.56zm0 5h-5.56v2.59h5.56zm-43.73-53.67h-5.79v4.09h5.79zm8.63 0h-5.79v4.09H134zm-8.63 6h-5.79v4.09h5.79zm8.63 0h-5.79v4.09H134zm-8.63 6h-5.79v4.08h5.79zm8.63 0h-5.79v4.08H134zm-8.63 6h-5.79v4.09h5.79zm8.63 0h-5.79v4.09H134zm-8.63 6h-5.79v4.09h5.79zm8.63 0h-5.79v4.09H134zm-8.63 6h-5.79v4.09h5.79zm8.63 0h-5.79v4.09H134zm-8.63 6h-5.79v4.09h5.79zm8.63 0h-5.79v4.09H134zm-8.63 6h-5.79v4.08h5.79zm8.63 0h-5.79v4.08H134zm10.7-30h-5.79v4.08h5.79zm0 6h-5.79v4.09h5.79zm0 6h-5.79v4.09h5.79zm0 6h-5.79v4.09h5.79zm0 6h-5.79v4.09h5.79zm0 6h-5.79v4.08h5.79zm-19.33 5.93h-5.79v4.09h5.79zm8.63 0h-5.79v4.09H134zm10.7 0h-5.79v4.09h5.79zm-19.33 5.93h-5.79v4.09h5.79zm8.63 0h-5.79v4.09H134zm10.7 0h-5.79v4.09h5.79zm-19.33 5.93h-5.79v4.09h5.79zm8.63 0h-5.79v4.09H134zm10.7 0h-5.79v4.09h5.79zm-19.33 5.94h-5.79v4.08h5.79zm8.63 0h-5.79v4.08H134zm10.7 0h-5.79v4.08h5.79zM125.4 192h-5.79v4.09h5.79zm8.63 0h-5.79v4.09H134zm10.7 0h-5.79v4.09h5.79zM197 126.16h-3.12v3.58H197zm5.42 0h-3.12v3.58h3.12zm-5.42 5.39h-3.12v3.58H197zm5.42 0h-3.12v3.58h3.12zm-5.42 5.38h-3.12v3.59H197zm5.42 0h-3.12v3.59h3.12zm-5.42 5.39h-3.12v3.58H197zm5.42 0h-3.12v3.58h3.12zm-5.42 5.52h-3.12v3.58H197zm5.42 0h-3.12v3.58h3.12zm-5.42 5.52h-3.12v3.58H197zm5.42 0h-3.12v3.58h3.12zm-5.42 5.52h-3.12v3.58H197zm5.42 0h-3.12v3.58h3.12zM197 164.4h-3.12v3.6H197zm5.42 0h-3.12v3.6h3.12zM197 170h-3.12v3.58H197zm5.42 0h-3.12v3.58h3.12zm-5.42 5.56h-3.12v3.58H197zm5.42 0h-3.12v3.58h3.12zm-5.42 5.58h-3.12v3.58H197zm5.42 0h-3.12v3.58h3.12zm-5.42 5.58h-3.12v3.58H197zm5.42 0h-3.12v3.58h3.12zm6.17-60.56h-3.12v3.58h3.12zm5.42 0h-3.12v3.58h3.12zm-5.42 5.39h-3.12v3.58h3.12zm5.42 0h-3.12v3.58h3.12zm-5.42 5.38h-3.12v3.59h3.12zm5.42 0h-3.12v3.59h3.12zm-5.42 5.39h-3.12v3.58h3.12zm5.42 0h-3.12v3.58h3.12zm-5.42 5.52h-3.12v3.58h3.12zm5.42 0h-3.12v3.58h3.12zm-5.42 5.52h-3.12v3.58h3.12zm5.42 0h-3.12v3.58h3.12zm-5.42 5.52h-3.12v3.58h3.12zm5.42 0h-3.12v3.58h3.12zm-5.42 5.52h-3.12v3.6h3.12zm5.42 0h-3.12v3.6h3.12zm-5.38 5.6h-3.12v3.58h3.12zm5.42 0h-3.12v3.58h3.12zm-5.42 5.58h-3.12v3.58h3.12zm5.42 0h-3.12v3.58h3.12zm-5.42 5.58h-3.12v3.58h3.12zm5.42 0h-3.12v3.58h3.12zm-5.42 5.58h-3.12v3.58h3.12zm5.42 0h-3.12v3.58h3.12z" fill="#fff"/><path d="M435.9 215.14H64.1V93.63h371.8zm-368-3.79h364.21V97.42H67.89z" fill="#dbdbdb"/><path fill="#dbdbdb" d="M248.11 97.42h3.79v113.92h-3.79zM140.21 316.91l-2.39 14.35-16.21 87.53H119l11.79-87.53 1.74-14.35h7.68z"/><path fill="#c7c7c7" d="M132.53 316.91h7.68l-2.39 14.35h-7.03l1.74-14.35z"/><path fill="#dbdbdb" d="M191.12 418.79h-2.62l-16.21-87.53-2.39-14.35h7.69l1.74 14.35 11.79 87.53z"/><path fill="#c7c7c7" d="M177.59 316.91l1.74 14.35h-7.04l-2.39-14.35h7.69z"/><path fill="#dbdbdb" d="M239.73 418.79h-2.61l-16.21-87.53-2.39-14.35h7.69l1.74 14.35 11.78 87.53z"/><path fill="#c7c7c7" d="M227.95 331.26h-7.04l-2.39-14.35h7.69l1.74 14.35z"/><path fill="#dbdbdb" d="M235.59 323.65H116.82v-9.63l44.46-2.88 14.94-86.2h54.84l4.53 98.71z"/><path fill="#c7c7c7" d="M235.59 323.65h-6.47l-4.22-98.71h6.16l4.53 98.71zM164.9 0h1v51.84h-1z"/><path fill="#dbdbdb" d="M161.87 47.85h7.06v7.64h-7.06z"/><path d="M179.85 79.89H151c.58-11 5.82-28.61 14.45-28.61s13.82 17.61 14.4 28.61z" fill="#dbdbdb"/><path fill="#c7c7c7" d="M221.3 0h1v51.84h-1z"/><path fill="#dbdbdb" d="M218.27 47.85h7.06v7.64h-7.06z"/><path d="M236.25 79.89h-28.9c.58-11 5.83-28.61 14.45-28.61s13.87 17.61 14.45 28.61z" fill="#dbdbdb"/><path fill="#c7c7c7" d="M277.7 0h1v51.84h-1z"/><path fill="#dbdbdb" d="M274.67 47.85h7.06v7.64h-7.06z"/><path d="M292.65 79.89h-28.9c.59-11 5.83-28.61 14.45-28.61s13.87 17.61 14.45 28.61z" fill="#dbdbdb"/><path fill="#c7c7c7" d="M334.1 0h1v51.84h-1z"/><path fill="#dbdbdb" d="M331.07 47.85h7.06v7.64h-7.06z"/><path d="M349.05 79.89h-28.9c.59-11 5.83-28.61 14.45-28.61s13.87 17.61 14.45 28.61z" fill="#dbdbdb"/><g fill="#ebebeb"><ellipse cx="255.51" cy="457.63" rx="129" ry="18.56"/><ellipse cx="93.09" cy="447.46" rx="56.05" ry="10.73"/></g><g><path fill="#263238" d="M34.47 418.79l53.88-.24 53.88-.09L250 418.3l107.77.16 53.88.09 53.88.24-53.88.25-53.88.09-107.77.16-107.77-.16-53.88-.09-53.88-.25z"/></g><g><path fill="#455a64" d="M310.35 266.68h88.24v162.11h-88.24z"/><path fill="#263238" d="M310.35 266.68h88.24v10.57h-88.24z"/><path fill="#455a64" d="M63.52 258.16h372.95v8.53H63.52z"/><path fill="#455a64" d="M82.34 266.68l-.28 10.57-3.72 151.54H71.6V266.68h10.74z"/><path fill="#263238" d="M71.6 266.68h10.74l-.28 10.57H71.6v-10.57z"/><path fill="#37474f" d="M398.59 266.68h29.9v162.11h-29.9z"/><path fill="#263238" d="M398.59 266.68h29.9v10.57h-29.9z"/></g><g><path fill="#a6a6a6" d="M418.97 258h-41.08l-7.18-29.81h41.08l7.18 29.81z"/><path fill="#ebebeb" d="M363.42 258h41.07l7.18-29.81h-41.08L363.42 258z"/><path d="M406.74 232.19l-1 4.17-.06.25-1 4.33-.06.26-1 4.32-.06.26-1 4.33-.06.26-1 4.24h-33l1-4.24.06-.26 1-4.33.07-.26 1-4.32.06-.26 1-4.33.07-.25 1-4.17zm-28.44 0l-1 4.17-.06.25-1 4.33-.06.26-1 4.32-.06.26-1 4.33-.06.26-1 4.24h.27l1-4.24.06-.26 1-4.33.06-.26 1-4.32.06-.26 1-4.33.06-.25 1-4.17zm4.7 0l-1 4.17-.06.25-1 4.33-.06.26-1 4.32-.06.26-1 4.33-.06.26-1 4.24h.27l1-4.24.07-.26 1-4.33.06-.26 1-4.32.07-.26 1-4.33.06-.25 1-4.17zm4.71 0l-1 4.17-.06.25-1 4.33-.06.26-1 4.32-.06.26-1 4.33-.06.26-1 4.24h.26l1-4.24.06-.26 1-4.33.06-.26 1-4.32.06-.26 1-4.33.06-.25 1-4.17zm4.7 0l-1 4.17-.06.25-1 4.33-.06.26-1 4.32-.06.26-1 4.33-.06.26-1 4.24h.27l1-4.24.06-.26 1-4.33.07-.26 1-4.32.06-.26 1-4.33.06-.25 1-4.17zm4.71 0l-1 4.17-.06.25-1 4.33-.07.26-1 4.32-.06.26-1 4.33-.06.26-1 4.24h.13l1-4.24.06-.26 1-4.33.06-.26 1-4.32.06-.26 1-4.33.06-.25 1-4.17zm4.7 0l-1 4.17-.06.25-1 4.33-.06.26-1 4.32-.06.26-1 4.33-.06.26-1 4.24h.26l1-4.24.06-.26 1-4.33.06-.26 1-4.32.06-.26 1-4.33.06-.25 1-4.17zm-29.09 4.17l-.07.25h33l.06-.25zm-1.1 4.58l-.06.26h33l.06-.26zm-1.1 4.58l-.07.26h33l.06-.26zm-1.11 4.59l-.06.26h33l.06-.26z" fill="#fff"/><path d="M371.88 230.23a1.1 1.1 0 01-.79-.39 1.85 1.85 0 01-.21-1.83c.28-.93 1-1.32 1.49-1.22s.85.49.77 1.39a.26.26 0 01-.27.24.27.27 0 01-.24-.28c0-.47-.1-.79-.36-.84s-.71.22-.9.86a1.42 1.42 0 00.11 1.34.5.5 0 00.43.21.26.26 0 11.07.51zM375 230.23a1.1 1.1 0 01-.79-.39A1.88 1.88 0 01374 228c.29-.93 1-1.32 1.49-1.22s.85.49.78 1.39a.27.27 0 01-.28.24.25.25 0 01-.23-.28c0-.47-.1-.79-.36-.84s-.71.22-.9.86a1.42 1.42 0 00.1 1.34.52.52 0 00.44.21.26.26 0 11.07.51zM378.21 230.23a1.12 1.12 0 01-.8-.39 1.88 1.88 0 01-.2-1.83c.28-.93 1-1.32 1.49-1.22s.85.49.77 1.39a.26.26 0 11-.51 0c0-.47-.1-.79-.36-.84s-.71.22-.9.86a1.42 1.42 0 00.1 1.34.53.53 0 00.44.21.26.26 0 11.07.51zM381.37 230.23a1.1 1.1 0 01-.79-.39 1.88 1.88 0 01-.21-1.83c.28-.93 1-1.32 1.49-1.22s.85.49.78 1.39a.27.27 0 01-.28.24.25.25 0 01-.23-.28c0-.47-.1-.79-.36-.84s-.71.22-.91.86a1.45 1.45 0 00.11 1.34.52.52 0 00.44.21.26.26 0 01.07.51zM384.53 230.23a1.1 1.1 0 01-.79-.39 1.86 1.86 0 01-.2-1.83c.28-.93 1-1.32 1.49-1.22s.85.49.77 1.39a.26.26 0 11-.51 0c0-.47-.1-.79-.36-.84s-.71.22-.9.86a1.42 1.42 0 00.1 1.34.53.53 0 00.44.21.26.26 0 11.07.51zM387.7 230.23a1.1 1.1 0 01-.79-.39 1.85 1.85 0 01-.21-1.83c.28-.93 1-1.32 1.49-1.22s.85.49.78 1.39a.27.27 0 01-.28.24.27.27 0 01-.24-.28c0-.47-.09-.79-.35-.84s-.71.22-.91.86a1.42 1.42 0 00.11 1.34.5.5 0 00.43.21.26.26 0 11.07.51zM390.86 230.23a1.1 1.1 0 01-.79-.39 1.86 1.86 0 01-.2-1.83c.28-.93 1-1.32 1.49-1.22s.85.49.77 1.39a.26.26 0 11-.51 0c0-.47-.1-.79-.36-.84s-.71.22-.9.86a1.42 1.42 0 00.1 1.34.52.52 0 00.44.21.26.26 0 11.07.51zM394 230.23a1.1 1.1 0 01-.79-.39A1.85 1.85 0 01393 228c.28-.93 1-1.32 1.49-1.22s.85.49.77 1.39a.26.26 0 01-.27.24.27.27 0 01-.24-.28c0-.47-.1-.79-.36-.84s-.71.22-.9.86a1.42 1.42 0 00.11 1.34.5.5 0 00.43.21.26.26 0 11.07.51zM397.19 230.23a1.1 1.1 0 01-.79-.39 1.88 1.88 0 01-.21-1.83c.29-.93 1-1.32 1.49-1.22s.85.49.78 1.39a.27.27 0 01-.28.24.26.26 0 01-.23-.28c0-.47-.1-.79-.36-.84s-.71.22-.9.86a1.42 1.42 0 00.1 1.34.52.52 0 00.44.21.26.26 0 11.07.51zM400.36 230.23a1.12 1.12 0 01-.8-.39 1.88 1.88 0 01-.2-1.83c.28-.93 1-1.32 1.49-1.22s.85.49.77 1.39a.26.26 0 11-.51 0c0-.47-.1-.79-.36-.84s-.71.22-.9.86a1.42 1.42 0 00.1 1.34.53.53 0 00.44.21.26.26 0 11.07.51zM403.52 230.23a1.1 1.1 0 01-.79-.39 1.88 1.88 0 01-.21-1.83c.28-.93 1-1.32 1.49-1.22s.85.49.78 1.39a.27.27 0 01-.28.24.25.25 0 01-.23-.28c0-.47-.1-.79-.36-.84s-.71.22-.91.86a1.45 1.45 0 00.11 1.34.52.52 0 00.44.21.26.26 0 01.29.22.27.27 0 01-.22.29zM406.68 230.23a1.1 1.1 0 01-.79-.39 1.86 1.86 0 01-.2-1.83c.28-.93 1-1.32 1.49-1.22s.85.49.77 1.39a.26.26 0 11-.51 0c0-.47-.1-.79-.36-.84s-.71.22-.9.86a1.42 1.42 0 00.1 1.34.53.53 0 00.44.21.26.26 0 11.07.51zM409.85 230.23a1.1 1.1 0 01-.79-.39 1.85 1.85 0 01-.21-1.83c.28-.93 1-1.32 1.49-1.22s.85.49.78 1.39a.27.27 0 01-.28.24.27.27 0 01-.24-.28c0-.47-.09-.79-.35-.84s-.71.22-.91.86a1.42 1.42 0 00.11 1.34.5.5 0 00.43.21.26.26 0 01.29.22.25.25 0 01-.22.29z" fill="#a6a6a6"/></g><g><path fill="#37474f" d="M111.4 255.8h51.4v2.31h-51.4z"/><path fill="#263238" d="M111.4 255.8h25.87v2.31H111.4z"/><path fill="#37474f" d="M134.49 258.11H84.4l-6.55-34.02h50.09l6.55 34.02z"/><path d="M109.22 241.1a2.75 2.75 0 01-2.78 3.05 3.4 3.4 0 01-3.32-3.05 2.75 2.75 0 012.78-3 3.39 3.39 0 013.32 3z" fill="#fff"/></g><g><path d="M321.34 460c-2.3.74-67.67-.1-70.13-1.72-1-.59-1.38-10.13-1.57-21.66v-.36c0-2.38-.07-4.83-.08-7.31v-1l3.15-33.95 43.73.44-4.31 33.59-.05 1.33-.27 7v.72s24.87 11.52 27.4 13.58 4.42 8.63 2.13 9.34z" fill="#ad6359"/><path d="M321.34 460c-2.3.74-67.67-.1-70.13-1.72-1-.59-1.38-10.13-1.57-21.66v-.36c0-2.38-.07-4.83-.08-7.31v-1l42.59.12-.05 1.33-.27 7v.72s24.87 11.52 27.4 13.58 4.4 8.59 2.11 9.3z" fill="#ebebeb"/><path d="M321.34 460c-1.18.38-18.94.34-36.3 0-3.49-.07-7-.15-10.27-.24-12.38-.34-22.61-.85-23.56-1.47s-1.37-9.86-1.56-21.18v-.48-.37h.05l42.13.08v.72s24.88 11.51 27.4 13.57 4.4 8.66 2.11 9.37z" fill="#a6a6a6"/><path d="M320.63 457.48c-11-.41-55.49-1-66.41-.61-.09 0-.09.06 0 .07 10.91.64 55.39.91 66.41.72.23 0 .23-.17 0-.18zM296.51 436.54c-4.33-.87-9.64-.27-13 2.77-.13.12 0 .3.19.26a61.61 61.61 0 0112.78-2.49.27.27 0 00.03-.54zM299.61 438.46c-4.32-.86-9.64-.27-13 2.78-.13.12 0 .3.18.26a61.06 61.06 0 0112.8-2.5.28.28 0 00.02-.54zM302.72 440.39c-4.33-.87-9.64-.27-13 2.78-.13.12 0 .3.18.26a60.33 60.33 0 0112.78-2.49.28.28 0 00.04-.55z" fill="#263238"/><path d="M285 460c-3.49-.07-7-.15-10.27-.24-12.38-.34-22.61-.85-23.56-1.47s-1.37-9.86-1.56-21.18v-.48-.37h.05c5.79 4.06 26.13 17.6 35.34 23.74z" fill="#263238"/><path d="M294.68 436.5H247.6s9.48-110 9.11-111.88c-.47-2.46-3.25-13.59-6.95-28.13-1.16-4.55-2.41-9.43-3.71-14.49-3.51-13.68-7.38-28.63-10.75-41.64-5.06-19.49-9-34.63-9-34.63h39.9s4.65 14.74 10.51 33.92c9.55 31.17 22.31 74.07 23.57 84.5 2.03 16.85-5.6 112.35-5.6 112.35z" fill="#37474f"/><path d="M292.6 428.47c-7.19-.15-5.13-.21-12.32-.28-3.52 0-26.64-.24-29.93.31-.07 0-.07.13 0 .15 3.29.54 26.41.34 29.93.3 7.19-.06 5.13-.12 12.32-.27.13-.01.13-.21 0-.21zM265.57 317.9c-1.54-6.81-3.85-13.48-5.86-20.16q-6.12-20.36-12.31-40.69-3.09-10.17-6.21-20.34c-1.06-3.42-2.11-6.84-3.18-10.25s-2.24-6.66-3.18-10c-.39-1.37-.6-.62-.11 1.12 1 3.52 2 7 3 10.53q3 10.41 6.12 20.8 6.12 20.7 12.35 41.35l6.24 20.74a84.48 84.48 0 012.57 10 46.35 46.35 0 01.42 10.72c-.45 7.21-1.29 14.4-1.95 21.59s-1.34 14.4-2 21.6q-2 21.5-3.95 43c-.16 1.81-.32 3.63-.46 5.45 0 .61.87.56.94 0 1.55-14.17 2.74-28.39 4.07-42.59s2.65-28.24 4-42.37c.33-3.54.7-7.09.71-10.66a44.17 44.17 0 00-1.21-9.84z" fill="#263238"/><path d="M261.66 205.73c-2.77 21.43-8.05 61.61-11.9 90.76-9-35.32-23.47-90.76-23.47-90.76z" fill="#263238"/><path d="M271.46 460.65c-2.29.75-67.66.14-70.13-1.46-1-.6-1.42-10.13-1.65-21.66v-.36c0-2.38-.09-4.82-.1-7.3v-1c-.15-16.64 1-33.91 1-33.91l42.73.28-1.19 33.6v1.33l-.24 6.95v.72s24.92 11.42 27.45 13.48 4.42 8.6 2.13 9.33z" fill="#ad6359"/><path d="M271.46 460.65c-2.29.75-67.66.14-70.13-1.46-1-.6-1.42-10.13-1.65-21.66v-.36c0-2.38-.09-4.82-.1-7.3v-1h42.59v1.33l-.24 6.95v.72s24.92 11.42 27.45 13.48 4.37 8.57 2.08 9.3z" fill="#ebebeb"/><path d="M271.46 460.65c-2.29.75-67.66.14-70.13-1.46-1-.6-1.42-10.13-1.65-21.66v-.36l42.18-.08v.72s24.92 11.42 27.45 13.48 4.44 8.63 2.15 9.36z" fill="#a6a6a6"/><path d="M270.75 458.11c-11-.37-55.49-.84-66.41-.37-.09 0-.09.07 0 .07 10.91.61 55.38.71 66.41.48.25 0 .25-.17 0-.18zM246.55 437.26c-4.33-.85-9.64-.24-13 2.82-.13.12 0 .3.18.26a61 61 0 0112.77-2.54.27.27 0 00.05-.54zM249.66 439.17c-4.33-.85-9.64-.23-13 2.83-.13.12 0 .3.18.25a61.56 61.56 0 0112.78-2.53.28.28 0 00.04-.55zM252.77 441.09c-4.33-.85-9.64-.24-13 2.82-.13.12 0 .3.18.26a60.4 60.4 0 0112.78-2.53.28.28 0 00.04-.55z" fill="#263238"/><path d="M264.9 205.73s-.92 19.09-5.29 34.21c-.35 1.25-.73 2.48-1.14 3.66a71 71 0 00-11.5 5.91s-.46 15.36-.92 32.49c-.51 19.15-1 40.51-.93 45 .4 17-2.12 110.19-2.12 110.19l-47.07.19s8.51-104.08 8.45-110.29c-.09-10 2.28-54.09 4.11-86.26 1.12-19.82 2-35.1 2-35.1z" fill="#37474f"/><path d="M241.39 428.82c-7.19-.12-5.13-.19-12.32-.23-3.52 0-26.64-.12-29.93.44a.07.07 0 000 .14c3.29.54 26.42.24 29.94.19 7.19-.1 5.12-.15 12.31-.33.13-.03.13-.21 0-.21zM214.49 212.55c-.87 26.26-1.79 52.53-3 78.77s-2.77 52.67-5 78.95c-1.23 14.68-2.39 35.33-4 50 0 .1.14.14.15 0 3.43-26 5.34-58.26 7-84.48s2.83-52.47 3.72-78.72c.5-14.84.89-29.7 1.34-44.55.12-.2-.21-.18-.21.03zM260.43 242.46a87.5 87.5 0 00-13.46 7c-.17.1 0 .37.14.28 4.54-2.21 9.18-4.33 13.59-6.79a.3.3 0 00-.27-.49z" fill="#263238"/><path d="M276.7 239.65l-17.09.29-24.31.42-26.81.47c1.12-19.82 2-35.1 2-35.1h55.66s4.69 14.74 10.55 33.92z" fill="#263238"/><path d="M302.28 109.65l-6.76 29.58c-.29.86.16 1.56 1 1.54l15.17-.34a2.45 2.45 0 002.07-1.61l6.76-29.57c.3-.87-.15-1.56-1-1.55l-15.17.34a2.47 2.47 0 00-2.07 1.61z" fill="#a6a6a6"/><path d="M304.09 109.59l-6.77 29.58c-.29.87.16 1.56 1 1.54l15.17-.33a2.45 2.45 0 002.07-1.61l6.76-29.58c.3-.87-.15-1.56-1-1.54l-15.17.33a2.45 2.45 0 00-2.06 1.61z" fill="#dbdbdb"/><circle cx="306.99" cy="110.85" r="1.29" fill="#455a64"/><path d="M254.35 155.27c8.83 18.17 28.43 41.68 36.41 41.67 3.8 0 10.59.82 15.51-3.61 10.75-9.66 19.59-28 21.31-38.43.61-3.72-17.53-11.51-20.16-8.46-6.14 7.15-13.2 21.12-14.31 21.05-4.09-.25-20.23-13.34-31.5-22.56-13.69-11.19-10.78 3.07-7.26 10.34zM327.77 135.73c-2-7.5-3.67-9.11-2-16.34 1.1-4.75-1.46-7.48-4.77-3.64-5.4 6.28-4.84 16.5-3.62 20z" fill="#ad6359"/><path d="M326.74 158.14s3.22-10.53 1.87-18.74c-.93-5.67-4.34-17.79-20.34-24-3.79-1.47-10.25-.88-4.92 3.78 3.78 3.31 7.18 4.26 9 6.58 0 0-8.12 1.73-9.44 5.59a74.54 74.54 0 00-2.75 10.34 16.27 16.27 0 001.89.68s-1.13 3.66 1.63 8.78z" fill="#ad6359"/><path d="M326.86 134.13c-2.33-1.92-7.32-5.91-12.54-7.74-5.8-2-17.51-4.42-19-.12-1.07 3.15 3.33 4.44 3.33 4.44s-5.05 0-5.4 3.1c-.32 2.79 3.14 3.59 3.14 3.59s-3.06.55-2.84 3.29c.25 3.3 6.62 1.6 9.76 4.72.69.7 23.55-11.28 23.55-11.28z" fill="#ad6359"/><path d="M313.18 132.87a24.47 24.47 0 00-14.42-2.24c-.12 0-.17.13-.05.13a60.3 60.3 0 0114.46 2.17s.04-.04.01-.06zM311 138.66c-2.27-1-9-2.62-14.53-1.37-.12 0-.16.13-.05.13a64.61 64.61 0 0114.57 1.3s.01-.04.01-.06z" fill="#263238"/><path d="M327.85 162.53s-14.42 29.37-23 32.86-13.7 2.8-16.9 2.36a8.64 8.64 0 01-3.4-1.59c-8.74-6.07-24.52-27.74-31-39.95-4.84-9.18-4.42-17.55 2.77-15a24 24 0 016.66 4.14c13.3 10.86 28.71 21.17 29.43 20.78s8.14-12.47 8.14-12.47z" fill="#37474f"/><path d="M284.59 196.16c-8.74-6.07-24.52-27.74-31-39.95-4.84-9.18-4.42-17.55 2.77-15 3.78 7.26 20.15 38.79 28.23 54.95zM324.26 167.89c-1-.53-2.07-.87-3.1-1.31s-2.08-.83-3.13-1.23q-3-1.12-6.11-2.19L305.8 161c-2.11-.73-4.23-1.58-6.39-2.14a.07.07 0 10-.05.14c2 1 4.18 1.66 6.27 2.45l6.18 2.33c2.06.77 4.13 1.53 6.21 2.26 1 .36 2 .71 3.08 1a31.31 31.31 0 003.13.95c.09.06.1-.06.03-.1z" fill="#263238"/><path d="M272.94 222.35c-1.08 1.07-67.42-2.44-67.74-2.87-.87-1.17 18.83-69.18 34.39-80.35 3.34-2.4 15.62-1.35 17.27-.6 1.87.84 6.79 10.29 8.85 17.88 4.12 15.2 8.17 65 7.23 65.94z" fill="#ebebeb"/><path fill="#2d5bff" d="M250.72 154.11l3.37-5.28 3.73 4.55-1.2 4.27-3.95.29-1.95-3.83z"/><path fill="#2d5bff" d="M252.67 157.94l-4.27 43.97 7.47 15.03 5.18-16.17-4.43-43.12-3.95.29z"/><path d="M278.51 237.63s-8.74-.44-20.43-1.07c-.77-4.15-2.4-14.28-2.57-14.28-.13.22-3.38 10-4.44 13.91-11.35-.63-24.2-1.35-34.32-2s-17.66-1.24-18.05-1.55 5.35-13.85 6-15.85c5-15.82 13.87-47.23 20.59-58.89a109.23 109.23 0 0110.22-15.11c.39-.45.74-.87 1.08-1.25l2.41-2.74 18 37.61c.06-.72 2.46-34.74 2.46-34.74a89.9 89.9 0 0111 26.8c4 17.76 3.69 43.53 4.71 55.85.01 0 3.34 13.06 3.34 13.31z" fill="#37474f"/><path d="M235.5 142.79l-18.75 91.4c-10.21-.67-17.66-1.24-18.05-1.55s5.35-13.85 6-15.85c5-15.82 13.87-47.23 20.59-58.89a109.23 109.23 0 0110.21-15.11zM257 176.41c.09 3.83.06 7.65 0 11.48s-.17 7.65-.25 11.47-.28 7.64-.48 11.46l-.32 5.73c-.15 1.91-.26 3.82-.43 5.73-.06-1.92 0-3.83-.06-5.74v-5.74c0-3.83.17-7.65.25-11.47s.28-7.64.48-11.46.45-7.64.81-11.46z" fill="#263238"/><circle cx="252.63" cy="189.88" r="1.91" fill="#263238"/><circle cx="251.97" cy="200.69" r="1.91" fill="#263238"/><circle cx="251.31" cy="211.49" r="1.91" fill="#263238"/><path fill="#2d5bff" d="M152.08 276.07h85.56v51.84h-85.56z"/><path opacity=".1" d="M152.08 276.07h85.56v24.41h-85.56z"/><path fill="#2d5bff" d="M150.06 268.45h89.61v24.19h-89.61z"/><path fill="#263238" d="M213.73 254.65v13.8h-6.49v-7.85h-24.75v7.85H176v-13.8h37.73zM162.36 286.87h5.84v11.56h-5.84zM221.53 286.87h5.84v11.56h-5.84z"/><path d="M230.89 144.71c-21.47 14.77-37 37.91-38.46 42.8-3.61 11.83-9 32.7-9.83 42.07-.31 3.46 26.39 2.81 26.84-.88 1.39-11.56 6.36-36.72 6.49-37.15.89-3 8.46-16.22 16.25-30.55s7.74-22.5-1.29-16.29z" fill="#ad6359"/><path d="M207.31 265.21a4.15 4.15 0 01-4.5-1.47 6.16 6.16 0 01-3.58 2.14c-2.51.37-4.18-3.4-4.18-3.4a7.62 7.62 0 01-4.14 1.66c-2.44.1-4.66-3.46-4.66-3.46a6.7 6.7 0 01-4.57-.84c-2.3-1.49-3.44-8.85-3.4-13s4-15.86 4.56-18.17h26.6s5.11 18.63 4.37 23.5c-.62 4.13-3.44 12-6.5 13.04z" fill="#ad6359"/><path d="M203.24 263.56c1.71-4.2 2.08-8.68 2.7-13.12 0-.1-.14-.12-.15 0-.57 4.42-2 8.68-2.76 13.08a.11.11 0 00.21.04zM195.4 262.39a11.64 11.64 0 00.49-3.05q.13-1.63.24-3.27.18-3.28.2-6.58c0-.09-.14-.12-.15 0-.13 2.18-.29 4.36-.51 6.54-.11 1.09-.23 2.17-.35 3.26a13.85 13.85 0 00-.22 3.08.16.16 0 00.3.02zM186.25 260.59a8 8 0 00.3-2.77q0-1.5.12-3c.09-2 .19-4 .35-6a.08.08 0 00-.15 0c-.18 2-.38 4-.54 6.07-.08 1-.15 2-.22 3a8 8 0 000 2.72s.13.02.14-.02z" fill="#263238"/><path d="M210.71 229l-29.18-2.35s6.43-31.43 9.91-39.92 25.62-33.33 38.64-42.42c12.25-8.54 11.87-.67 6.18 10.52s-19.08 36.78-19.72 38.8-5.83 35.37-5.83 35.37z" fill="#37474f"/><path d="M210.19 223c-1.09-.25-2.23-.29-3.33-.44s-2.23-.26-3.35-.36c-2.15-.2-4.31-.36-6.47-.51l-6.47-.45c-2.22-.15-4.49-.41-6.72-.38-.1 0-.12.14 0 .15 2.2.39 4.47.5 6.7.71l6.57.62c2.2.2 4.39.39 6.59.54 1.08.08 2.16.15 3.24.18s2.18.16 3.27.09c.07-.03.05-.15-.03-.15zM238.8 139.16c-.62 2-1.29 4.07-1.93 6.1s-1.35 4.05-2 6.08l-.29-.48c1.52.17 3 .3 4.55.49l4.55.52.77.09-.46.64c-1.93 2.67-3.84 5.36-5.83 8l-.08-.64c3.18 2.71 6.4 5.38 9.53 8.14s6.3 5.49 9.39 8.31q-5-3.82-9.83-7.78c-3.28-2.6-6.47-5.29-9.7-7.94l-.34-.28.26-.37c1.92-2.69 3.9-5.33 5.87-8l.31.72-4.57-.56c-1.52-.18-3-.42-4.54-.62l-.45-.07.16-.41c.76-2 1.5-4 2.27-6s1.56-3.97 2.36-5.94z" fill="#263238"/><path d="M259 140.78c.51.91 1 1.82 1.48 2.74s1 1.82 1.45 2.75l2.83 5.54.33.65h-.74l-4.48-.22.39-.8c1.59 1.81 3.18 3.61 4.74 5.43l.19.23-.11.28c-1.28 3.2-2.59 6.4-3.95 9.57s-2.72 6.36-4.16 9.5q1.68-4.91 3.51-9.76t3.7-9.67l.08.5c-1.59-1.8-3.15-3.63-4.72-5.45l-.76-.88 1.15.09 4.47.33-.41.61-2.54-5.68c-.43-.94-.83-1.9-1.24-2.85s-.82-1.95-1.21-2.91z" fill="#263238"/><path d="M255 147.44c-3.6 1.08-10.2-4.13-12.95-8.51-.18-.31.1-3.6.26-7.63.08-2.44.12-5.16 0-7.65 0-.51 1.76.33 1.76.33l3.26.59 10.79 2a40 40 0 00-.94 9.64 5.32 5.32 0 00.17 1 1.55 1.55 0 000 .17c.47 1.88 1.17 9.02-2.35 10.06z" fill="#ad6359"/><path d="M257.36 137.17a1.55 1.55 0 000 .17 9.65 9.65 0 01-1.6.18c-10.51.38-12.61-12.89-12.61-12.89l4.16-.06 10.79 2a40 40 0 00-.94 9.64 5.32 5.32 0 00.2.96z" fill="#263238"/><path d="M239.06 105.38c-1.31 5.64 2.7 21.4 6.87 24.69 6 4.77 15.41 4.63 19.32-2.52 3.8-6.93-1.79-27.37-6.4-30.31-6.79-4.32-17.85-.19-19.79 8.14z" fill="#ad6359"/><path d="M255 114.1s-.07.07-.06.12c.3 1 .46 2.31-.41 2.9v.06c1.14-.46.91-2.13.47-3.08z" fill="#263238"/><path d="M253.76 113.23c-1.74.29-1 3.76.59 3.48s.87-3.71-.59-3.48zM261 112.88s.09 0 .1.08c.19 1.08.59 2.29 1.63 2.44v.06c-1.21.08-1.73-1.52-1.73-2.58z" fill="#263238"/><path d="M261.72 111.57c1.7-.49 2.55 2.94 1 3.39s-2.42-2.96-1-3.39zM252.07 111.93c.44-.22.82-.49 1.24-.75s.88-.48 1.12-1a.75.75 0 00-.3-.86 1.86 1.86 0 00-1.87.19A2.78 2.78 0 00251 111a.8.8 0 001.07.93zM262.7 109.54a11.64 11.64 0 01-1.45-.07 2.35 2.35 0 01-1.47-.35.74.74 0 01-.14-.9 1.86 1.86 0 011.74-.72 2.73 2.73 0 011.84.68.8.8 0 01-.52 1.36zM255.27 124.44c.31.2.64.49 1 .44a3 3 0 001.1-.51h.06a1.5 1.5 0 01-1.24.86 1.15 1.15 0 01-1-.77c-.04-.01.04-.05.08-.02zM255.73 121a3.72 3.72 0 002.77 1.12 4.62 4.62 0 001.33-.21l.25-.08.22-.09a.28.28 0 00.17-.28.49.49 0 000-.11v-.09c-.15-.83-.49-2.07-.49-2.07.33.09 2 .46 1.9 0a56.27 56.27 0 00-3.71-10.75.1.1 0 00-.19.07c.78 3.42 2.16 6.69 3 10.12a6.34 6.34 0 00-1.84-.17c-.11.06.71 2.38.74 2.76a5.15 5.15 0 01-4-.38c-.16-.01-.23.08-.15.16z" fill="#263238"/><path d="M238.05 103.58c1.82-8.33 15-10.15 18.86-8.07a10.25 10.25 0 014.7 5.27s-1.11-1.94-2.52-1.74-1.14 2-2.94 2.94-4.55-.81-7.71.16-4.37 3.91-4.46 6.6 1 12.56-1.13 13.37-6.27-11.79-4.8-18.53z" fill="#263238"/><path d="M243.36 118.15s-4.06-4.83-6.29-3.34 1.15 8.72 4 9.5a2.8 2.8 0 003.61-1.83z" fill="#ad6359"/><path d="M238.09 116.86s-.05.06 0 .08c2 .6 3.17 2.3 4 4.09a1.54 1.54 0 00-2.34-.22c-.05 0 0 .12.06.1a1.73 1.73 0 011.94.43 7.83 7.83 0 011 1.45c.11.16.41 0 .33-.15-.08-2.5-2.33-5.77-4.99-5.78z" fill="#263238"/><path d="M257.5 137.77l-3.9 9.39-11.6-12.07-3.37 3.79S249.9 158 250 157.13l4-8.09 5.55 5.72-.29-14.21z" fill="#ebebeb"/><path d="M259.76 147.73c-.12-2.35-.18-4.71-.42-7 0-.08-.14-.12-.16 0-.5 2.26 0 11.23 0 13.38-.23-.25-5.15-5-5.2-5-.86 1.28-3.78 7.17-4 7.71-1.78-3-8.61-14.07-10.72-16.95-.06-.08-.19 0-.14.08 1.56 3.2 10.59 18.06 10.74 18a93.09 93.09 0 004.16-8.55c.83 1 5.79 6.44 5.81 6.09a73.42 73.42 0 00-.07-7.76z" fill="#263238"/></g><g><path d="M58.27 319.92c3.72-3.64 8.52-8 14.21-6.47 5.34 1.48 7.39 7.31 8.35 12.18 1.23 6.27 2.19 12.6 3.19 18.91s2 12.75 2.87 19.14c.51 3.6 1 7.21 1.53 10.81l.75 5.41c.25 1.77.54 3.54.64 5.32 0 .57-.86.65-1 .11-.69-3-1-6.13-1.41-9.19s-.89-6.14-1.34-9.2q-1.33-9.15-2.73-18.29t-2.83-18.27c-.83-5.16-1.22-11.58-5.79-15a8.83 8.83 0 00-8.56-.8c-3 1.15-5.42 3.3-7.77 5.44a.08.08 0 01-.11-.1z" fill="#263238"/><path d="M63.36 316.2s7.64-2.74 11.35 2.8-.71 19.67-35.34 27.63a97.92 97.92 0 018.32-31.29c7.42-16.18 20.64-10.05 15.67.86z" fill="#2d5bff"/><path d="M41.36 344.32a26.25 26.25 0 011.74-2.81c.58-.89 1.16-1.78 1.75-2.66.45-.67.9-1.33 1.36-2a4 4 0 01-.07-.5l-.12-.9c-.08-.65-.18-1.29-.27-1.94s-.2-1.29-.33-1.93a9.89 9.89 0 00-.45-2c0-.1.14-.15.15 0a7.7 7.7 0 00.31 1.14c.08.29.16.59.23.88.17.65.33 1.31.48 2s.25 1.23.35 1.84c0 .3.1.59.14.89.62-.88 1.24-1.75 1.89-2.61 1.84-2.42 3.78-4.75 5.8-7v-.06c-.18-3.64-.09-7.24-.89-10.82 0-.09.12-.15.14-.05A37.34 37.34 0 0154.83 326c.72-.81 1.45-1.61 2.18-2.4q2.54-2.73 5.16-5.35a.08.08 0 01.11.11c-2.91 3.14-5.68 6.41-8.38 9.74a60.77 60.77 0 016.33.23c2.34.18 4.68.48 7 .8.09 0 .06.17 0 .15a68.42 68.42 0 00-7-.63c-2.26-.09-4.51 0-6.76 0q-2.19 2.7-4.32 5.46H51.06c1.05 0 2.11.1 3.15.19a47.34 47.34 0 016.39.95.08.08 0 110 .15c-2.12-.24-4.25-.43-6.39-.51h-4.7a2.12 2.12 0 01-.88-.08c-.93 1.21-1.86 2.41-2.78 3.63-.74 1-1.46 1.94-2.17 2.92s-1.39 2.11-2.2 3.05c-.06.07-.16-.01-.12-.09z" fill="#263238"/><path d="M60.05 324.06a22.82 22.82 0 013.7-.18c1.23 0 2.47 0 3.7.08a.08.08 0 110 .15c-1.25-.09-2.5-.11-3.75-.09s-2.43.13-3.64.1c-.06 0-.06-.05-.01-.06zM49.18 326.85c-.14-1.18-.29-2.37-.54-3.53 0-.11.14-.15.15 0 .18 1.17.41 2.32.58 3.49.09.58.17 1.16.24 1.75a8.3 8.3 0 01.14 1.65.1.1 0 01-.2 0 9 9 0 01-.18-1.64c-.06-.57-.12-1.16-.19-1.72zM51.46 313.75c.3 1.15.6 2.32.82 3.49.1.59.19 1.19.28 1.79a7.33 7.33 0 01.11 1.75s-.08.05-.09 0a9.27 9.27 0 01-.27-1.66c-.08-.58-.17-1.15-.27-1.72-.21-1.21-.42-2.41-.73-3.59-.02-.1.13-.15.15-.06zM96.52 383.94c.2-2.18.41-4.35.64-6.53.45-4.31 1-8.61 1.56-12.91s1.12-8.57 1.81-12.84a32.17 32.17 0 011.32-5.83 5.56 5.56 0 013.23-3.65c4.07-1.4 6.82 2.82 8.46 5.81 0 .09-.08.15-.13.07-1-1.41-3.71-5.39-6.8-5.2-2.07.12-3.74 1.6-4.73 6.78-2.49 12.91-4.73 39.11-5 40.83-.14.91-.78.87-.79-.11 0-2.14.25-4.28.43-6.42z" fill="#263238"/><path d="M112.45 346.38s-3.56-12.57 4.3-6.28c13.1 10.46 13.57 33.21 13.57 33.21s-23.32-13.52-26.18-22.44c-4.31-13.29 8.31-4.49 8.31-4.49z" fill="#2d5bff"/><path d="M108 352.55c1.83.37 3.68.61 5.52.88l2.62.37c.59.08 1.19.13 1.79.21-1.74-2.39-3.49-4.77-5.15-7.21-.06-.09.08-.19.16-.11a52.4 52.4 0 013.89 4.49c.34-1 .69-1.95 1-2.92.39-1.13.82-2.25 1.11-3.41 0-.09.17-.05.14 0-.31 1.15-.54 2.33-.85 3.48a34.09 34.09 0 01-1 3.3c.86 1.11 1.67 2.24 2.47 3.39.4-1.14.9-2.24 1.25-3.39a.08.08 0 01.15.05c-.42 1.27-.65 2.6-1 3.88.54.78 1.07 1.56 1.58 2.35.94 1.45 1.83 2.93 2.69 4.42a.34.34 0 01.21.35c1.47 2.55 2.87 5.13 4.25 7.73a.08.08 0 01-.14.08c-1.38-2.57-2.92-5.08-4.52-7.54a4.45 4.45 0 00-.76-.15l-.81-.17c-.6-.13-1.2-.29-1.79-.44-1.19-.29-2.35-.57-3.55-.78-.1 0-.06-.16 0-.14 1.41.26 2.83.42 4.25.59.67.08 1.34.16 2 .27h.1q-1.26-1.9-2.55-3.78c-.84-1.23-1.71-2.44-2.59-3.65-.8-.11-1.6-.32-2.4-.48l-2.71-.52c-1.8-.36-3.59-.76-5.41-1.06-.05.04-.01-.11.05-.09z" fill="#263238"/><path d="M122 353.79c.11-.33.21-.67.32-1 .22-.7.38-1.4.53-2.11 0-.1.17-.05.15.05-.15.71-.32 1.41-.48 2.12a13.88 13.88 0 01-.61 2.09c-.07.16-.32.1-.27-.08.13-.36.27-.72.36-1.07zM105.66 349.64c1.06.16 2.13.23 3.2.33s2.13.24 3.2.4c.06 0 .06.1 0 .09-1.08-.07-2.14-.15-3.21-.29s-2.12-.3-3.2-.37c-.1-.01-.09-.18.01-.16zM79.39 368c.42-9.25 1-18.49 1.93-27.7.47-4.59 1-9.18 1.63-13.74a98.87 98.87 0 012.65-13.31 25.37 25.37 0 014.4-9.34 10.06 10.06 0 019-3.91c4 .5 7.3 3.05 10.13 5.82 3.16 3.11 6.06 6.51 9 9.84.74.84 1.47 1.68 2.2 2.54a.07.07 0 11-.11.1c-2.87-3.29-5.84-6.49-9-9.54-2.88-2.83-5.84-5.92-9.83-7.09a10.09 10.09 0 00-5.71-.13 9.13 9.13 0 00-3.9 2.47 20.36 20.36 0 00-4.4 8.56c-2.49 8.5-3.38 17.42-4.31 26.2s-1.57 17.87-2 26.83-.8 18-1.67 27c-.1 1.11-.25 2.21-.39 3.32-.09.74-1.25.74-1.19 0 .73-9.3 1.18-18.59 1.57-27.92z" fill="#263238"/><path d="M109.61 306.83s-5.28-9.78 1-12.92 27.14 20.19 33.25 54.29c0 0-33.75-14.93-45.21-29.81s1.49-18.15 10.96-11.56z" fill="#2d5bff"/><path d="M104.65 314.78c3.8 0 7.58-.29 11.37-.26-.71-.82-1.42-1.63-2.14-2.44a35.91 35.91 0 01-3-3.45c0-.08.06-.19.14-.13a28.9 28.9 0 012.87 2.88c.95 1 1.89 2 2.83 3 1.45 1.57 2.87 3.16 4.29 4.76v-.46-2-3.86c0-2.61 0-5.23-.2-7.83 0-.1.15-.1.16 0 .18 2.62.45 5.22.58 7.84.06 1.29.09 2.58.11 3.86V319.8l.67.75c3 3.46 5.9 7 8.7 10.67 0-.2 0-.4.05-.6 0-.4.09-.8.14-1.2.09-.87.21-1.74.34-2.61s.25-1.62.39-2.43.38-1.84.45-2.76c0-.11.17-.09.15 0a26 26 0 00-.32 2.78c-.08.84-.15 1.67-.23 2.5s-.15 1.68-.24 2.51c0 .4-.07.8-.12 1.2 0 .2 0 .41-.07.61a1.29 1.29 0 01-.16.47l1.44 1.89c1.91 2.53 3.79 5.09 5.67 7.65.06.08-.05.19-.11.11q-2.67-3.48-5.47-6.86c-1.39.06-2.8 0-4.19-.07s-2.93 0-4.39 0a.08.08 0 010-.16h4.39c1.46 0 2.7-.06 4 0-1.63-2-3.28-4-4.93-5.92l-1.82-2.04a8.77 8.77 0 01-1.7.06h-5.74c-2.58 0-5.16-.12-7.73-.13a.08.08 0 010-.16c2.58 0 5.16-.14 7.74-.21 1.25 0 2.49-.07 3.74-.08h3.15a358.84 358.84 0 00-4.25-5 .24.24 0 01-.08-.09q-2.07-2.46-4.16-4.89c-.19-.22-.39-.43-.58-.66-3.93.13-7.86-.13-11.79-.06-.05-.13-.05-.29.05-.29zM106.59 321.48h.92a.07.07 0 010 .14h-.92a.08.08 0 010-.14z" fill="#263238"/><path d="M108.64 321.5l3.64-.08 1.82-.06a6.9 6.9 0 011.7 0c.06 0 0 .1 0 .11a6.47 6.47 0 01-1.7.12H108.63a.08.08 0 11.01-.09zM119.24 332.88a52 52 0 017.47-.67v.06c-2.48.23-5 .37-7.43.77-.1.01-.13-.14-.04-.16zM129.39 322c0-.22.05-.44.08-.65.06-.49.14-1 .21-1.46.15-.93.31-1.86.49-2.78 0-.08.16-.06.15 0-.12.95-.22 1.91-.31 2.86l-.12 1.41a4 4 0 01-.19 1.34.18.18 0 01-.33 0 1.83 1.83 0 01.02-.72zM79.73 294.27c1.2-2.25 2.74-5.22 5.76-5 2.48.15 3.61 2.69 4.14 4.79 1.64 6.5 1.76 13.35 2.08 20 .68 14.07 1.28 28.15 1.37 42.24v11.71c0 3.91 0 8-.28 12a.3.3 0 01-.59 0c0-3.4.1-6.81.11-10.22s0-6.64-.06-10q-.17-10.1-.54-20.19c-.25-6.68-.54-13.37-.82-20.05-.15-3.34-.29-6.68-.44-10s-.28-6.47-.65-9.69c-.21-1.8-.48-3.61-.85-5.38a7.52 7.52 0 00-1.56-3.61 3.4 3.4 0 00-4.4-.32 9.3 9.3 0 00-3.12 3.89c-.07 0-.2-.08-.15-.17z" fill="#263238"/><path d="M80.54 293.19s2.48-8.75-3-4.37C68.42 296.1 68.09 312 68.09 312s16.22-9.42 18.24-15.63c3-9.3-5.79-3.18-5.79-3.18z" fill="#2d5bff"/><path d="M71.51 305.46c.14-.25.3-.48.46-.72a4.69 4.69 0 010-.75v-1.13c0-.74 0-1.48-.08-2.22 0-.1.15-.09.16 0 0 .72.07 1.45.09 2.17v1.56c.63-1 1.29-2 2-2.93l.6-.83a16.94 16.94 0 000-2.85c0-1 0-2-.06-3.06 0-.1.15-.09.16 0 0 1.06.08 2.11.13 3.17a19.07 19.07 0 01.06 2.27c1.64-2.14 3.3-4.14 4.97-6.21.06-.07.18 0 .12.1q-1.56 2-3 4c1.9-.45 3.84-.7 5.78-1 .1 0 .14.13 0 .15-2 .31-4.07.82-6.09 1.27q-1.17 1.65-2.31 3.3l-.92 1.35h.09l.63-.08c.45-.06.9-.09 1.35-.13.93-.07 1.87-.12 2.8-.17.1 0 .1.15 0 .15-.92 0-1.84.09-2.76.19l-1.45.18-.63.07h-.18c-.52.77-1.05 1.53-1.56 2.3-.92 1.35-1.74 2.8-2.71 4.11a.08.08 0 01-.13-.08 40.23 40.23 0 012.48-4.18z" fill="#263238"/><path d="M75.54 295.57v-1a15.4 15.4 0 00-.09-2.15.08.08 0 11.16 0c0 .71.07 1.42.11 2.13v1.55a1.44 1.44 0 010 .51.07.07 0 01-.14 0 1.49 1.49 0 010-.47zM77.55 299.19c.6-.1 1.22-.13 1.83-.18s1.33-.12 2-.2a.08.08 0 110 .15c-1.28.08-2.56.31-3.84.36-.05 0-.06-.11.01-.13zM72.45 299.25V301.09a1.4 1.4 0 010 .54h-.06a.42.42 0 010-.25v-.89-.9-.34c0-.08.17-.15.06 0zM79.35 341c3.41-2.56 6.47-6.24 11.06-6.42 3.79-.15 6.44 2.7 8 5.87a33.5 33.5 0 011.85 5.23c.69 2.4 1.33 4.8 1.93 7.22q1.78 7.14 3 14.39c.46 2.69.89 5.4 1.23 8.11a68 68 0 01.8 8.3.43.43 0 01-.85.09c-.46-2.27-.65-4.61-1-6.9s-.68-4.61-1.07-6.9q-1.17-6.9-2.72-13.72c-1-4.29-1.94-8.64-3.32-12.82-1-3-2.59-6.5-5.82-7.57-4.92-1.64-9.39 2.53-13 5.23-.06.04-.17-.11-.09-.11z" fill="#263238"/><path d="M82.88 338.53s3.14-9-1.41-10.74c-6.81-2.64-24.65 17.45-21.15 48.23 0 0 13.78-7.59 23.95-16.13s12.78-19.7 8.3-22.58-9.69 1.22-9.69 1.22z" fill="#2d5bff"/><path d="M62.37 369.42a23.71 23.71 0 011.66-3.1c.58-1.05 1.17-2.1 1.78-3.14 1.19-2 2.36-4.06 3.58-6.07l.59-1c0-.12 0-.24-.07-.36l-.2-.89c-.16-.67-.27-1.34-.4-2-.24-1.31-.47-2.65-.83-3.94 0-.1.13-.13.16 0 .28 1.32.69 2.61 1.08 3.9.19.64.4 1.27.56 1.91l.18.66c1.46-2.4 3-4.79 4.56-7.1a3.16 3.16 0 01-.16-1c0-.45-.1-.9-.16-1.35-.12-1-.23-2-.38-3a58.33 58.33 0 00-1.08-5.9c0-.1.13-.12.15 0 .49 1.94 1 3.88 1.4 5.84.18 1 .35 1.94.48 2.91.06.48.11 1 .16 1.46l.06.44c.49-.7 1-1.4 1.5-2.08 1.58-2.07 3.21-4.09 4.86-6.1.06-.08.19 0 .12.09a108.29 108.29 0 00-7.75 11.32L72.88 353h.45c.57-.08 1.16-.11 1.73-.17q1.74-.17 3.48-.3c2.33-.18 4.65-.33 7-.57.1 0 .13.14 0 .15-2.35.27-4.68.64-7 1l-3.45.46a13.63 13.63 0 01-2.66.27c-.91 1.49-1.83 3-2.74 4.45h8.4c.1 0 .08.15 0 .15-1.51 0-3 .1-4.53.18l-2.16.13-1.07.08a2.33 2.33 0 01-1 0q-1.15 1.89-2.33 3.78c-.71 1.16-1.43 2.32-2.17 3.47a27 27 0 01-2.33 3.51c-.04-.02-.16-.07-.13-.17z" fill="#263238"/><path d="M68.94 344.55a21.08 21.08 0 00.62 2.92c.25 1 .54 2 .86 3a.1.1 0 11-.18.06c-.31-1-.58-1.95-.82-2.93s-.39-2-.63-3c-.03-.13.14-.16.15-.05zM79.07 350.56a1.1 1.1 0 01.75-.28l1.3-.18c.8-.11 1.61-.2 2.42-.29 1.68-.2 3.36-.36 5-.58.1 0 .13.15 0 .16-1.59.19-3.16.43-4.74.64-.78.1-1.55.21-2.33.3l-1.12.13a4 4 0 00-1.28.21c0 .04-.07-.06 0-.11zM69 364.09c.79-.06 1.59-.09 2.38-.11H73.16a3.74 3.74 0 00.75 0c.11 0 .13.17 0 .15a4.1 4.1 0 00-.7 0h-.63l-1.2.07c-.79 0-1.59.1-2.39.1-.11-.04-.12-.2.01-.21zM64.11 360.65c-.09-.45-.18-.9-.26-1.35-.17-.89-.33-1.78-.49-2.67 0-.09.13-.12.15 0 .2.86.39 1.73.59 2.59.09.43.19.86.28 1.3 0 .2.08.4.13.6a1.7 1.7 0 01.07.63c0 .08-.12.14-.17.06a3.15 3.15 0 01-.3-1.16z" fill="#263238"/><path fill="#37474f" d="M67.95 387.18l.42 12.62 2.61 47.65h42.44l2.6-47.65.43-12.62h-48.5z"/><path fill="#263238" d="M67.95 387.18l.42 12.62h47.65l.43-12.62h-48.5z"/><path fill="#37474f" d="M121.99 390.9H62.38v-12.73h59.61z"/></g></svg>